<?xml version="1.0"?>
<VTKFile type="PolyData" version="0.1" byte_order="LittleEndian">
  <PolyData>
    <Piece NumberOfPoints="     32" NumberOfVerts="  0" NumberOfLines="     31"
           NumberOfStrips="  0" NumberOfPolys="      0">
      <Points>
        <DataArray type="Float32" NumberOfComponents="3" format="ascii">
                      -4.40880                      -0.92783                     -19.43407
                      -4.40679                      -1.06432                     -19.37191
                      -4.40270                      -1.33733                     -19.24760
                      -4.39845                      -1.61035                     -19.12334
                      -4.39398                      -1.88340                     -18.99915
                      -4.38920                      -2.15648                     -18.87504
                      -4.38402                      -2.42960                     -18.75102
                      -4.37842                      -2.70276                     -18.62711
                      -4.37234                      -2.97595                     -18.50331
                      -4.36563                      -3.24919                     -18.37963
                      -4.35819                      -3.52247                     -18.25610
                      -4.34992                      -3.79580                     -18.13270
                      -4.34073                      -4.06916                     -18.00946
                      -4.33066                      -4.34255                     -17.88636
                      -4.31967                      -4.61598                     -17.76340
                      -4.30756                      -4.88943                     -17.64061
                      -4.29428                      -5.16290                     -17.51797
                      -4.27978                      -5.43638                     -17.39551
                      -4.26404                      -5.70986                     -17.27321
                      -4.24719                      -5.98335                     -17.15106
                      -4.22923                      -6.25683                     -17.02904
                      -4.21005                      -6.53029                     -16.90718
                      -4.18967                      -6.80373                     -16.78547
                      -4.16819                      -7.07715                     -16.66389
                      -4.14571                      -7.35054                     -16.54243
                      -4.12245                      -7.62391                     -16.42106
                      -4.09850                      -7.89725                     -16.29977
                      -4.07395                      -8.17056                     -16.17854
                      -4.04901                      -8.44386                     -16.05736
                      -4.02395                      -8.71716                     -15.93619
                      -3.99910                      -8.99046                     -15.81499
                      -3.98674                      -9.12712                     -15.75439
        </DataArray>
      </Points>
      <PointData>
        <DataArray type="Float32" Name="Force" NumberOfComponents="3" format="ascii">
                   -5994.26926                    1454.98436                  -11090.41261
                   11093.34398                    2917.87405                   35006.67854
                    8757.02473                  -25257.35659                   31325.81337
                   22027.99440                   16768.04147                   82516.55553
                  -14465.28982                  -24274.25339                  -43208.91263
                  -15308.86465                   15006.00668                  -47522.03214
                  -24050.09582                   27734.90868                  -44217.56150
                    5957.96435                   41178.88504                    4898.31745
                   -4113.30903                   24904.87889                  -12870.96155
                     146.15972                   23276.97177                   10727.99248
                   -3188.92210                    9115.92306                   -4864.18851
                   -2336.56946                   12010.67269                    -789.27039
                   -2265.20926                   10893.83123                   -1939.57376
                   -1564.93253                   10739.32588                   -1491.72353
                   -1154.44431                   10128.73069                   -1829.28519
                    -259.34578                    9898.56582                   -1858.28011
                     705.53356                    9663.42116                   -1867.43702
                    1586.43942                    9242.73350                   -1937.89143
                    2714.16054                    8759.71617                   -2081.64294
                    3947.30502                    8703.42473                   -2209.56608
                    5352.81659                    8386.88773                   -2307.33050
                    6744.92461                    8077.17839                   -2542.61853
                    8166.73084                    7908.43625                   -2542.09332
                    9658.59888                    7449.77379                   -2746.45130
                   11019.21034                    7316.97859                   -2852.61428
                   12489.99478                    7198.70679                   -3083.16896
                   13640.69105                    6563.01000                   -2940.29155
                   14582.74069                    7210.08475                   -3446.14515
                   15189.41114                    3821.79198                   -1925.65496
                   13274.68086                   15042.08894                   -7155.87216
                   14867.72704                  -29010.38154                   13989.30024
                  -14236.44593                  180991.02042                  -80081.05541
        </DataArray>
        <DataArray type="Float32" Name="Moment" NumberOfComponents="3" format="ascii">
                     161.15430                     118.85343                     166.39007
                    1427.00977                    -390.70945                    -717.04642
                    2153.53857                     -71.75327                    -548.09186
                    -915.35361                    -605.67635                     522.07103
                   -3326.21776                     612.66669                     526.29183
                   -3699.85650                    1146.24228                    1876.80291
                   -5738.81351                    -299.53113                    2837.14672
                   -4274.45985                     664.25850                    1211.30867
                   -4011.69965                     760.65034                    1789.91396
                   -1569.10075                    -207.11554                     774.48745
                   -1951.93919                     295.17157                     573.92124
                    -928.27101                      88.21590                     429.20984
                   -1326.85100                     126.13917                     450.63325
                   -1083.15471                     105.86702                     387.73670
                   -1080.16073                      94.28499                     369.31503
                    -988.72604                      88.71442                     323.79989
                    -944.36534                      87.81525                     311.46109
                    -881.20928                      64.39400                     292.69324
                    -808.08640                      55.11298                     260.37014
                    -765.43387                      45.68799                     245.28341
                    -717.55091                      43.03006                     222.10697
                    -656.55170                      38.18425                     207.59515
                    -607.98529                      25.64032                     189.65381
                    -550.78714                      24.26864                     173.28965
                    -504.89628                       9.56435                     158.65961
                    -469.25854                      13.95769                     141.05283
                    -400.41993                       4.32634                     125.62352
                    -399.81100                       6.86812                     117.60015
                    -220.70482                      -1.99430                      73.57429
                    -730.24801                      12.18474                     207.12296
                    1566.46282                     -59.20213                    -440.24114
                   -9869.46490                     300.59077                    2714.23069
        </DataArray>
        <DataArray type="Float32" Name="TranslationalVelocity" NumberOfComponents="3" format="ascii">
                       0.92371                      -0.55446                      -0.87938
                       0.92190                      -0.63326                      -1.05236
                       0.91822                      -0.79088                      -1.39841
                       0.91438                      -0.94853                      -1.74468
                       0.91030                      -1.10618                      -2.09112
                       0.90584                      -1.26377                      -2.43770
                       0.90090                      -1.42127                      -2.78436
                       0.89542                      -1.57867                      -3.13108
                       0.88933                      -1.73595                      -3.47784
                       0.88242                      -1.89308                      -3.82463
                       0.87457                      -2.05006                      -4.17142
                       0.86562                      -2.20689                      -4.51821
                       0.85545                      -2.36356                      -4.86498
                       0.84411                      -2.52011                      -5.21171
                       0.83154                      -2.67653                      -5.55841
                       0.81747                      -2.83282                      -5.90506
                       0.80183                      -2.98900                      -6.25165
                       0.78455                      -3.14508                      -6.59816
                       0.76559                      -3.30109                      -6.94459
                       0.74514                      -3.45705                      -7.29093
                       0.72319                      -3.61297                      -7.63719
                       0.69958                      -3.76887                      -7.98333
                       0.67437                      -3.92477                      -8.32936
                       0.64766                      -4.08068                      -8.67527
                       0.61960                      -4.23662                      -9.02107
                       0.59048                      -4.39258                      -9.36677
                       0.56044                      -4.54857                      -9.71239
                       0.52958                      -4.70459                     -10.05791
                       0.49819                      -4.86063                     -10.40338
                       0.46665                      -5.01667                     -10.74880
                       0.43538                      -5.17268                     -11.09421
                       0.41982                      -5.25068                     -11.26692
        </DataArray>
        <DataArray type="Float32" Name="RotationalVelocity" NumberOfComponents="3" format="ascii">
                       1.26593                       0.05989                      -0.04040
                       1.26634                       0.05984                      -0.04054
                       1.26706                       0.05966                      -0.04094
                       1.26759                       0.05938                      -0.04157
                       1.26795                       0.05898                      -0.04246
                       1.26814                       0.05845                      -0.04365
                       1.26818                       0.05777                      -0.04514
                       1.26809                       0.05692                      -0.04700
                       1.26790                       0.05589                      -0.04926
                       1.26766                       0.05470                      -0.05186
                       1.26736                       0.05335                      -0.05480
                       1.26702                       0.05185                      -0.05809
                       1.26665                       0.05020                      -0.06170
                       1.26626                       0.04840                      -0.06564
                       1.26586                       0.04646                      -0.06989
                       1.26546                       0.04442                      -0.07436
                       1.26507                       0.04229                      -0.07901
                       1.26469                       0.04010                      -0.08381
                       1.26432                       0.03787                      -0.08869
                       1.26397                       0.03563                      -0.09361
                       1.26365                       0.03341                      -0.09846
                       1.26335                       0.03126                      -0.10317
                       1.26308                       0.02921                      -0.10767
                       1.26283                       0.02729                      -0.11187
                       1.26261                       0.02555                      -0.11569
                       1.26243                       0.02406                      -0.11896
                       1.26227                       0.02288                      -0.12154
                       1.26214                       0.02205                      -0.12337
                       1.26202                       0.02160                      -0.12434
                       1.26192                       0.02160                      -0.12435
                       1.26183                       0.02205                      -0.12334
                       1.26179                       0.02243                      -0.12251
        </DataArray>
        <DataArray type="Float32" Name="TranslationalAcceleration" NumberOfComponents="3" format="ascii">
                       0.16179                       1.45930                      -0.66459
                       0.13849                       1.68710                      -0.74446
                       0.09323                       2.14364                      -0.90266
                       0.05116                       2.60244                      -1.05722
                       0.01183                       3.06302                      -1.20873
                      -0.02511                       3.52502                      -1.35762
                      -0.06000                       3.98817                      -1.50419
                      -0.09333                       4.45216                      -1.64886
                      -0.12526                       4.91691                      -1.79174
                      -0.15588                       5.38239                      -1.93271
                      -0.18540                       5.84852                      -2.07186
                      -0.21404                       6.31525                      -2.20924
                      -0.24197                       6.78254                      -2.34488
                      -0.26940                       7.25033                      -2.47899
                      -0.29640                       7.71860                      -2.61158
                      -0.32304                       8.18744                      -2.74246
                      -0.34943                       8.65684                      -2.87165
                      -0.37566                       9.12682                      -2.99917
                      -0.40182                       9.59739                      -3.12507
                      -0.42797                      10.06847                      -3.24960
                      -0.45413                      10.54005                      -3.37280
                      -0.48037                      11.01219                      -3.49460
                      -0.50673                      11.48484                      -3.61513
                      -0.53323                      11.95796                      -3.73456
                      -0.55989                      12.43146                      -3.85309
                      -0.58669                      12.90523                      -3.97102
                      -0.61364                      13.37920                      -4.08848
                      -0.64075                      13.85328                      -4.20566
                      -0.66800                      14.32732                      -4.32286
                      -0.69537                      14.80113                      -4.44043
                      -0.72280                      15.27448                      -4.55874
                      -0.73653                      15.51106                      -4.61807
        </DataArray>
        <DataArray type="Float32" Name="RotationalAcceleration" NumberOfComponents="3" format="ascii">
                      -0.13687                      -0.01578                      -0.07046
                      -0.14436                      -0.01336                      -0.06541
                      -0.15807                      -0.00865                      -0.05604
                      -0.16987                      -0.00410                      -0.04782
                      -0.17992                       0.00035                      -0.04077
                      -0.18854                       0.00477                      -0.03480
                      -0.19605                       0.00919                      -0.02986
                      -0.20267                       0.01368                      -0.02605
                      -0.20871                       0.01829                      -0.02327
                      -0.21440                       0.02305                      -0.02131
                      -0.21987                       0.02800                      -0.02010
                      -0.22521                       0.03314                      -0.01958
                      -0.23051                       0.03849                      -0.01968
                      -0.23584                       0.04406                      -0.02040
                      -0.24126                       0.04983                      -0.02166
                      -0.24676                       0.05575                      -0.02335
                      -0.25235                       0.06178                      -0.02540
                      -0.25799                       0.06787                      -0.02775
                      -0.26364                       0.07399                      -0.03036
                      -0.26923                       0.08005                      -0.03318
                      -0.27464                       0.08597                      -0.03611
                      -0.27980                       0.09166                      -0.03906
                      -0.28459                       0.09705                      -0.04198
                      -0.28891                       0.10206                      -0.04480
                      -0.29263                       0.10657                      -0.04744
                      -0.29550                       0.11040                      -0.04979
                      -0.29734                       0.11338                      -0.05172
                      -0.29809                       0.11547                      -0.05320
                      -0.29760                       0.11652                      -0.05414
                      -0.29573                       0.11641                      -0.05444
                      -0.29244                       0.11510                      -0.05408
                      -0.29035                       0.11406                      -0.05368
        </DataArray>
        <DataArray type="Float32" Name="OrientationX" NumberOfComponents="3" format="ascii">
                       0.96795                      -0.09227                      -0.23356
                       0.96795                      -0.09209                      -0.23364
                       0.96795                      -0.09165                      -0.23384
                       0.96794                      -0.09103                      -0.23412
                       0.96792                      -0.09022                      -0.23449
                       0.96790                      -0.08919                      -0.23496
                       0.96788                      -0.08793                      -0.23553
                       0.97337                      -0.07706                      -0.21590
                       0.97753                      -0.06743                      -0.19970
                       0.98079                      -0.05867                      -0.18603
                       0.98330                      -0.05072                      -0.17476
                       0.98532                      -0.04324                      -0.16513
                       0.98691                      -0.03623                      -0.15714
                       0.98819                      -0.02948                      -0.15035
                       0.98923                      -0.02295                      -0.14458
                       0.99006                      -0.01662                      -0.13966
                       0.99071                      -0.01052                      -0.13557
                       0.99124                      -0.00453                      -0.13199
                       0.99166                       0.00129                      -0.12891
                       0.99199                       0.00699                      -0.12614
                       0.99225                       0.01249                      -0.12366
                       0.99246                       0.01781                      -0.12129
                       0.99261                       0.02283                      -0.11916
                       0.99276                       0.02761                      -0.11692
                       0.99290                       0.03212                      -0.11455
                       0.99303                       0.03613                      -0.11216
                       0.99319                       0.03963                      -0.10953
                       0.99340                       0.04264                      -0.10649
                       0.99365                       0.04501                      -0.10316
                       0.99395                       0.04673                      -0.09936
                       0.99433                       0.04776                      -0.09505
                       0.99438                       0.04714                      -0.09477
        </DataArray>
        <DataArray type="Float32" Name="OrientationY" NumberOfComponents="3" format="ascii">
                       0.25077                       0.40429                       0.87958
                       0.25077                       0.40427                       0.87959
                       0.25077                       0.40424                       0.87960
                       0.25077                       0.40421                       0.87962
                       0.25077                       0.40419                       0.87963
                       0.25078                       0.40417                       0.87964
                       0.25078                       0.40416                       0.87964
                       0.22841                       0.40606                       0.88484
                       0.20969                       0.40746                       0.88883
                       0.19362                       0.40850                       0.89199
                       0.18008                       0.40926                       0.89447
                       0.16823                       0.40982                       0.89652
                       0.15807                       0.41024                       0.89818
                       0.14911                       0.41054                       0.89957
                       0.14118                       0.41075                       0.90075
                       0.13410                       0.41089                       0.90177
                       0.12788                       0.41098                       0.90263
                       0.12218                       0.41102                       0.90340
                       0.11699                       0.41103                       0.90409
                       0.11215                       0.41100                       0.90471
                       0.10765                       0.41096                       0.90528
                       0.10333                       0.41089                       0.90581
                       0.09935                       0.41080                       0.90629
                       0.09537                       0.41070                       0.90677
                       0.09139                       0.41058                       0.90723
                       0.08758                       0.41045                       0.90767
                       0.08377                       0.41030                       0.90809
                       0.07979                       0.41013                       0.90853
                       0.07580                       0.40996                       0.90895
                       0.07164                       0.40977                       0.90937
                       0.06730                       0.40957                       0.90979
                       0.06730                       0.40957                       0.90979
        </DataArray>
        <DataArray type="Float32" Name="OrientationZ" NumberOfComponents="3" format="ascii">
                       0.01327                      -0.90996                       0.41447
                       0.01345                      -0.90999                       0.41441
                       0.01391                      -0.91005                       0.41427
                       0.01456                      -0.91012                       0.41408
                       0.01542                      -0.91022                       0.41385
                       0.01651                      -0.91033                       0.41356
                       0.01785                      -0.91045                       0.41323
                       0.01949                      -0.91059                       0.41285
                       0.02143                      -0.91073                       0.41244
                       0.02366                      -0.91087                       0.41201
                       0.02615                      -0.91101                       0.41156
                       0.02891                      -0.91114                       0.41108
                       0.03193                      -0.91126                       0.41059
                       0.03520                      -0.91137                       0.41008
                       0.03871                      -0.91146                       0.40957
                       0.04240                      -0.91153                       0.40904
                       0.04622                      -0.91158                       0.40851
                       0.05015                      -0.91161                       0.40797
                       0.05415                      -0.91162                       0.40744
                       0.05817                      -0.91161                       0.40693
                       0.06213                      -0.91157                       0.40643
                       0.06597                      -0.91151                       0.40595
                       0.06964                      -0.91144                       0.40550
                       0.07306                      -0.91135                       0.40509
                       0.07617                      -0.91126                       0.40473
                       0.07883                      -0.91117                       0.40442
                       0.08093                      -0.91109                       0.40419
                       0.08241                      -0.91103                       0.40403
                       0.08321                      -0.91099                       0.40394
                       0.08321                      -0.91099                       0.40394
                       0.08238                      -0.91103                       0.40403
                       0.08170                      -0.91106                       0.40410
        </DataArray>
      </PointData>
      <Lines>
        <DataArray type="Int32" Name="connectivity" format="ascii">
      0      1
      1      2
      2      3
      3      4
      4      5
      5      6
      6      7
      7      8
      8      9
      9     10
     10     11
     11     12
     12     13
     13     14
     14     15
     15     16
     16     17
     17     18
     18     19
     19     20
     20     21
     21     22
     22     23
     23     24
     24     25
     25     26
     26     27
     27     28
     28     29
     29     30
     30     31
        </DataArray>
        <DataArray type="Int32" Name="offsets" format="ascii">
      2
      4
      6
      8
     10
     12
     14
     16
     18
     20
     22
     24
     26
     28
     30
     32
     34
     36
     38
     40
     42
     44
     46
     48
     50
     52
     54
     56
     58
     60
     62
        </DataArray>
      </Lines>
    </Piece>
  </PolyData>
</VTKFile>
