<?xml version="1.0"?>
<VTKFile type="PolyData" version="0.1" byte_order="LittleEndian">
  <PolyData>
    <Piece NumberOfPoints="     32" NumberOfVerts="  0" NumberOfLines="     31"
           NumberOfStrips="  0" NumberOfPolys="      0">
      <Points>
        <DataArray type="Float32" NumberOfComponents="3" format="ascii">
                      -4.89100                       0.24241                     -20.95938
                      -4.89127                       0.27904                     -21.10484
                      -4.89176                       0.35228                     -21.39577
                      -4.89210                       0.42551                     -21.68669
                      -4.89224                       0.49875                     -21.97761
                      -4.89216                       0.57200                     -22.26853
                      -4.89180                       0.64529                     -22.55944
                      -4.89116                       0.71861                     -22.85034
                      -4.89020                       0.79198                     -23.14123
                      -4.88883                       0.86539                     -23.43211
                      -4.88701                       0.93886                     -23.72297
                      -4.88468                       1.01239                     -24.01381
                      -4.88178                       1.08597                     -24.30463
                      -4.87835                       1.15960                     -24.59543
                      -4.87436                       1.23327                     -24.88622
                      -4.86970                       1.30701                     -25.17698
                      -4.86433                       1.38079                     -25.46772
                      -4.85824                       1.45462                     -25.75842
                      -4.85140                       1.52850                     -26.04911
                      -4.84391                       1.60241                     -26.33976
                      -4.83576                       1.67636                     -26.63039
                      -4.82687                       1.75035                     -26.92099
                      -4.81729                       1.82436                     -27.21156
                      -4.80705                       1.89840                     -27.50210
                      -4.79621                       1.97246                     -27.79261
                      -4.78492                       2.04654                     -28.08310
                      -4.77322                       2.12063                     -28.37357
                      -4.76116                       2.19473                     -28.66402
                      -4.74888                       2.26884                     -28.95447
                      -4.73653                       2.34296                     -29.24491
                      -4.72430                       2.41708                     -29.53535
                      -4.71822                       2.45414                     -29.68057
        </DataArray>
      </Points>
      <PointData>
        <DataArray type="Float32" Name="Force" NumberOfComponents="3" format="ascii">
                   -6545.38697                   14391.36803                   10427.07119
                   10636.48904                  -26724.89008                  -20331.00985
                    4206.01819                   -4680.27341                  -43136.62954
                   17869.59246                  -81457.08972                  -44091.70864
                  -18239.25898                   62320.23964                    9751.41575
                  -16383.06934                   41159.45138                   50743.16089
                  -25195.49989                   29356.90624                   62693.47957
                   10932.58983                  -29510.89510                   38127.68190
                     865.72713                    -286.44955                   36790.89066
                    6559.60761                  -23222.69689                   16529.93202
                    3818.23339                    3392.68593                   14965.11259
                    5491.52533                   -3278.23613                   14847.16800
                    6188.07279                   -1553.45361                   14860.01504
                    7354.95304                   -2247.43443                   14493.44191
                    7955.02395                   -1742.66122                   14310.31149
                    8990.97854                   -1902.00093                   14227.29204
                    9827.83379                   -2117.77909                   14099.55431
                   10220.46143                   -2107.94202                   13772.63482
                   10761.49690                   -1951.21750                   13407.04752
                   11083.90657                   -2233.18999                   13484.66209
                   11331.94625                   -2323.77903                   13169.71356
                   11297.40535                   -2238.41768                   12963.72006
                   11045.90530                   -2588.34140                   12655.67138
                   10641.71239                   -2368.57296                   12138.99953
                    9840.50989                   -2577.66039                   11921.69452
                    9117.10971                   -2629.59299                   11836.17001
                    7765.56142                   -2560.24059                   10617.56109
                    6200.25920                   -2954.32969                   12042.08024
                    4055.51510                   -1485.50923                    5194.61140
                    -476.04031                   -6825.42928                   28244.87768
                   -1508.37613                   13891.22143                  -61618.47635
                  -10293.92847                  -91795.19060                  363555.20624
        </DataArray>
        <DataArray type="Float32" Name="Moment" NumberOfComponents="3" format="ascii">
                     -14.65520                    -202.57977                     -12.44529
                    1025.63583                     810.90258                     133.47453
                    2856.24850                     470.88367                     331.03010
                   -1200.20585                    -118.39511                    -700.78356
                   -3520.37049                    -804.74851                     594.60231
                   -4601.41411                   -2566.98194                     216.81491
                   -7230.76691                   -2357.36517                   -1853.26547
                   -5646.40201                   -1702.32925                     164.99813
                   -5214.14580                   -2296.20661                    -258.79410
                   -2179.85062                    -640.37232                    -562.71742
                   -2578.66344                    -807.37825                      87.63081
                   -1323.15931                    -539.32474                     -63.15476
                   -1848.85847                    -578.32308                     -40.51236
                   -1556.88285                    -515.65414                     -35.61799
                   -1569.82753                    -486.99120                     -54.61355
                   -1465.85722                    -437.38270                     -35.64823
                   -1422.87303                    -431.09984                     -39.34566
                   -1351.32240                    -391.88329                     -62.87728
                   -1260.79711                    -352.92041                     -50.73714
                   -1214.03938                    -335.69321                     -60.40781
                   -1156.69833                    -307.79888                     -56.04606
                   -1076.79052                    -289.16618                     -56.12311
                   -1013.83040                    -260.47462                     -63.83026
                    -933.28688                    -241.78773                     -58.44165
                    -870.51178                    -212.48839                     -69.33595
                    -821.07361                    -199.44342                     -55.41342
                    -711.05917                    -170.49129                     -63.16098
                    -726.74817                    -165.07850                     -56.02663
                    -388.76741                     -99.00873                     -38.43081
                   -1410.38270                    -295.25659                    -132.98250
                    3105.57396                     651.04436                     304.37277
                  -18919.74501                   -4025.35868                   -1818.67601
        </DataArray>
        <DataArray type="Float32" Name="TranslationalVelocity" NumberOfComponents="3" format="ascii">
                       0.22084                       1.21261                       0.40838
                       0.21796                       1.39574                       0.45450
                       0.21227                       1.76187                       0.54669
                       0.20680                       2.12768                       0.63877
                       0.20184                       2.49329                       0.73081
                       0.19770                       2.85882                       0.82285
                       0.19472                       3.22437                       0.91494
                       0.19306                       3.59000                       1.00710
                       0.19292                       3.95575                       1.09934
                       0.19484                       4.32168                       1.19171
                       0.19918                       4.68781                       1.28422
                       0.20632                       5.05417                       1.37689
                       0.21661                       5.42078                       1.46975
                       0.22993                       5.78760                       1.56278
                       0.24647                       6.15463                       1.65601
                       0.26688                       6.52189                       1.74947
                       0.29139                       6.88937                       1.84318
                       0.32018                       7.25704                       1.93716
                       0.35337                       7.62489                       2.03143
                       0.39047                       7.99287                       2.12597
                       0.43147                       8.36097                       2.22078
                       0.47682                       8.72918                       2.31591
                       0.52638                       9.09748                       2.41136
                       0.57988                       9.46583                       2.50711
                       0.63693                       9.83422                       2.60316
                       0.69675                      10.20263                       2.69943
                       0.75899                      10.57107                       2.79591
                       0.82341                      10.93952                       2.89258
                       0.88920                      11.30799                       2.98938
                       0.95543                      11.67649                       3.08623
                       1.02092                      12.04506                       3.18304
                       1.05345                      12.22936                       3.23143
        </DataArray>
        <DataArray type="Float32" Name="RotationalVelocity" NumberOfComponents="3" format="ascii">
                       1.25968                       0.02056                      -0.00266
                       1.25901                       0.02047                      -0.00268
                       1.25787                       0.01989                      -0.00283
                       1.25708                       0.01861                      -0.00315
                       1.25663                       0.01653                      -0.00367
                       1.25651                       0.01358                      -0.00441
                       1.25669                       0.00971                      -0.00539
                       1.25713                       0.00474                      -0.00664
                       1.25775                      -0.00137                      -0.00818
                       1.25848                      -0.00849                      -0.00997
                       1.25931                      -0.01661                      -0.01202
                       1.26020                      -0.02569                      -0.01431
                       1.26113                      -0.03571                      -0.01684
                       1.26209                      -0.04670                      -0.01960
                       1.26305                      -0.05854                      -0.02259
                       1.26399                      -0.07103                      -0.02573
                       1.26491                      -0.08404                      -0.02901
                       1.26579                      -0.09746                      -0.03239
                       1.26663                      -0.11114                      -0.03584
                       1.26740                      -0.12491                      -0.03931
                       1.26811                      -0.13850                      -0.04273
                       1.26875                      -0.15171                      -0.04606
                       1.26932                      -0.16433                      -0.04924
                       1.26982                      -0.17611                      -0.05221
                       1.27024                      -0.18684                      -0.05491
                       1.27060                      -0.19602                      -0.05723
                       1.27088                      -0.20326                      -0.05905
                       1.27111                      -0.20841                      -0.06035
                       1.27129                      -0.21117                      -0.06104
                       1.27145                      -0.21120                      -0.06105
                       1.27159                      -0.20839                      -0.06034
                       1.27167                      -0.20608                      -0.05976
        </DataArray>
        <DataArray type="Float32" Name="TranslationalAcceleration" NumberOfComponents="3" format="ascii">
                       1.19867                      -0.08521                       1.83378
                       1.20105                      -0.12082                       2.07032
                       1.21748                      -0.19663                       2.54177
                       1.26099                      -0.28332                       3.00944
                       1.32521                      -0.37941                       3.47411
                       1.40381                      -0.48412                       3.93633
                       1.49044                      -0.59716                       4.39651
                       1.57912                      -0.71762                       4.85506
                       1.66630                      -0.84556                       5.31207
                       1.74618                      -0.98213                       5.76744
                       1.81274                      -1.12755                       6.22120
                       1.86023                      -1.28207                       6.67333
                       1.88336                      -1.44596                       7.12375
                       1.88110                      -1.61836                       7.57257
                       1.85092                      -1.79939                       8.01970
                       1.78544                      -1.99039                       8.46479
                       1.68110                      -2.19150                       8.90765
                       1.53508                      -2.40279                       9.34813
                       1.34542                      -2.62418                       9.78605
                       1.11632                      -2.85434                      10.22163
                       0.84749                      -3.09308                      10.65479
                       0.53387                      -3.34112                      11.08517
                       0.17661                      -3.59781                      11.51279
                      -0.22191                      -3.86229                      11.93777
                      -0.65800                      -4.13342                      12.36035
                      -1.12339                      -4.40936                      12.78111
                      -1.61477                      -4.68926                      13.20028
                      -2.12954                      -4.97215                      13.61814
                      -2.65950                      -5.25611                      14.03541
                      -3.19478                      -5.53901                      14.45291
                      -3.72330                      -5.81842                      14.87167
                      -3.98548                      -5.95728                      15.08136
        </DataArray>
        <DataArray type="Float32" Name="RotationalAcceleration" NumberOfComponents="3" format="ascii">
                       0.17499                       0.05163                      -0.02681
                       0.15463                       0.00346                      -0.03920
                       0.11693                      -0.08344                      -0.06211
                       0.08343                      -0.15442                      -0.08189
                       0.05322                      -0.20823                      -0.09837
                       0.02508                      -0.24471                      -0.11160
                      -0.00210                      -0.26376                      -0.12161
                      -0.02924                      -0.26311                      -0.12805
                      -0.05677                      -0.24304                      -0.13105
                      -0.08476                      -0.20630                      -0.13114
                      -0.11329                      -0.15353                      -0.12847
                      -0.14244                      -0.08549                      -0.12319
                      -0.17223                      -0.00304                      -0.11547
                      -0.20276                       0.09431                      -0.10524
                      -0.23389                       0.20474                      -0.09280
                      -0.26542                       0.32521                      -0.07866
                      -0.29714                       0.45416                      -0.06305
                      -0.32883                       0.58992                      -0.04624
                      -0.36020                       0.73070                      -0.02850
                      -0.39078                       0.87455                      -0.01010
                      -0.41999                       1.01825                       0.00850
                      -0.44747                       1.15907                       0.02688
                      -0.47275                       1.29453                       0.04468
                      -0.49534                       1.42197                       0.06153
                      -0.51475                       1.53865                       0.07704
                      -0.52988                       1.63936                       0.09053
                      -0.53998                       1.71945                       0.10134
                      -0.54500                       1.77732                       0.10925
                      -0.54446                       1.80952                       0.11379
                      -0.53793                       1.81244                       0.11448
                      -0.52542                       1.78485                       0.11115
                      -0.51731                       1.76125                       0.10819
        </DataArray>
        <DataArray type="Float32" Name="OrientationX" NumberOfComponents="3" format="ascii">
                       0.97503                       0.21583                       0.05230
                       0.97503                       0.21578                       0.05249
                       0.97503                       0.21567                       0.05293
                       0.97503                       0.21554                       0.05347
                       0.97503                       0.21537                       0.05411
                       0.97503                       0.21518                       0.05488
                       0.97503                       0.21495                       0.05578
                       0.97988                       0.19285                       0.05135
                       0.98353                       0.17426                       0.04797
                       0.98636                       0.15824                       0.04540
                       0.98852                       0.14466                       0.04359
                       0.99025                       0.13268                       0.04234
                       0.99162                       0.12233                       0.04165
                       0.99272                       0.11311                       0.04138
                       0.99362                       0.10485                       0.04149
                       0.99436                       0.09741                       0.04191
                       0.99496                       0.09078                       0.04261
                       0.99546                       0.08464                       0.04349
                       0.99588                       0.07900                       0.04453
                       0.99624                       0.07369                       0.04566
                       0.99654                       0.06872                       0.04684
                       0.99680                       0.06394                       0.04799
                       0.99702                       0.05952                       0.04912
                       0.99722                       0.05514                       0.05011
                       0.99741                       0.05080                       0.05091
                       0.99758                       0.04670                       0.05150
                       0.99775                       0.04268                       0.05176
                       0.99792                       0.03857                       0.05163
                       0.99810                       0.03457                       0.05109
                       0.99828                       0.03052                       0.05006
                       0.99847                       0.02641                       0.04851
                       0.99849                       0.02651                       0.04812
        </DataArray>
        <DataArray type="Float32" Name="OrientationY" NumberOfComponents="3" format="ascii">
                       0.22207                      -0.94540                      -0.23854
                       0.22207                      -0.94542                      -0.23846
                       0.22207                      -0.94546                      -0.23832
                       0.22207                      -0.94549                      -0.23819
                       0.22207                      -0.94552                      -0.23808
                       0.22207                      -0.94554                      -0.23798
                       0.22207                      -0.94556                      -0.23790
                       0.19955                      -0.95028                      -0.23905
                       0.18070                      -0.95383                      -0.23993
                       0.16454                      -0.95657                      -0.24062
                       0.15092                      -0.95867                      -0.24117
                       0.13901                      -0.96036                      -0.24163
                       0.12880                      -0.96169                      -0.24201
                       0.11980                      -0.96277                      -0.24233
                       0.11182                      -0.96366                      -0.24260
                       0.10471                      -0.96440                      -0.24284
                       0.09846                      -0.96500                      -0.24305
                       0.09273                      -0.96552                      -0.24325
                       0.08751                      -0.96596                      -0.24342
                       0.08264                      -0.96635                      -0.24359
                       0.07812                      -0.96669                      -0.24375
                       0.07377                      -0.96699                      -0.24391
                       0.06977                      -0.96725                      -0.24406
                       0.06577                      -0.96749                      -0.24422
                       0.06176                      -0.96771                      -0.24439
                       0.05793                      -0.96790                      -0.24456
                       0.05410                      -0.96808                      -0.24474
                       0.05010                      -0.96824                      -0.24494
                       0.04609                      -0.96839                      -0.24515
                       0.04191                      -0.96852                      -0.24538
                       0.03756                      -0.96864                      -0.24563
                       0.03756                      -0.96863                      -0.24565
        </DataArray>
        <DataArray type="Float32" Name="OrientationZ" NumberOfComponents="3" format="ascii">
                      -0.00204                       0.24420                      -0.96972
                      -0.00183                       0.24417                      -0.96973
                      -0.00135                       0.24412                      -0.96974
                      -0.00079                       0.24411                      -0.96975
                      -0.00011                       0.24415                      -0.96974
                       0.00068                       0.24423                      -0.96972
                       0.00161                       0.24434                      -0.96969
                       0.00269                       0.24449                      -0.96965
                       0.00395                       0.24464                      -0.96960
                       0.00535                       0.24481                      -0.96956
                       0.00690                       0.24498                      -0.96950
                       0.00860                       0.24516                      -0.96944
                       0.01044                       0.24534                      -0.96938
                       0.01243                       0.24552                      -0.96931
                       0.01455                       0.24569                      -0.96924
                       0.01676                       0.24586                      -0.96916
                       0.01905                       0.24602                      -0.96908
                       0.02140                       0.24618                      -0.96899
                       0.02379                       0.24632                      -0.96890
                       0.02618                       0.24645                      -0.96880
                       0.02853                       0.24656                      -0.96871
                       0.03081                       0.24667                      -0.96861
                       0.03298                       0.24676                      -0.96852
                       0.03501                       0.24683                      -0.96843
                       0.03685                       0.24690                      -0.96834
                       0.03843                       0.24695                      -0.96827
                       0.03966                       0.24699                      -0.96821
                       0.04054                       0.24702                      -0.96816
                       0.04100                       0.24704                      -0.96814
                       0.04100                       0.24706                      -0.96813
                       0.04050                       0.24707                      -0.96815
                       0.04010                       0.24708                      -0.96816
        </DataArray>
      </PointData>
      <Lines>
        <DataArray type="Int32" Name="connectivity" format="ascii">
      0      1
      1      2
      2      3
      3      4
      4      5
      5      6
      6      7
      7      8
      8      9
      9     10
     10     11
     11     12
     12     13
     13     14
     14     15
     15     16
     16     17
     17     18
     18     19
     19     20
     20     21
     21     22
     22     23
     23     24
     24     25
     25     26
     26     27
     27     28
     28     29
     29     30
     30     31
        </DataArray>
        <DataArray type="Int32" Name="offsets" format="ascii">
      2
      4
      6
      8
     10
     12
     14
     16
     18
     20
     22
     24
     26
     28
     30
     32
     34
     36
     38
     40
     42
     44
     46
     48
     50
     52
     54
     56
     58
     60
     62
        </DataArray>
      </Lines>
    </Piece>
  </PolyData>
</VTKFile>
