<?xml version="1.0"?>
<VTKFile type="PolyData" version="0.1" byte_order="LittleEndian">
  <PolyData>
    <Piece NumberOfPoints="     32" NumberOfVerts="  0" NumberOfLines="     31"
           NumberOfStrips="  0" NumberOfPolys="      0">
      <Points>
        <DataArray type="Float32" NumberOfComponents="3" format="ascii">
                      -4.91000                      -0.00000                     -21.00000
                      -4.91000                      -0.00000                     -21.15000
                      -4.91000                      -0.00000                     -21.45000
                      -4.91000                      -0.00000                     -21.75000
                      -4.91000                      -0.00000                     -22.05000
                      -4.91000                      -0.00000                     -22.35000
                      -4.91000                      -0.00000                     -22.65000
                      -4.91000                      -0.00000                     -22.95000
                      -4.91000                      -0.00000                     -23.25000
                      -4.91000                      -0.00000                     -23.55000
                      -4.91000                      -0.00000                     -23.85000
                      -4.91000                      -0.00000                     -24.15000
                      -4.91000                      -0.00000                     -24.45000
                      -4.91000                      -0.00000                     -24.75000
                      -4.91000                      -0.00000                     -25.05000
                      -4.91000                      -0.00000                     -25.35000
                      -4.91000                      -0.00000                     -25.65000
                      -4.91000                      -0.00000                     -25.95000
                      -4.91000                      -0.00000                     -26.25000
                      -4.91000                      -0.00000                     -26.55000
                      -4.91000                      -0.00000                     -26.85000
                      -4.91000                      -0.00000                     -27.15000
                      -4.91000                      -0.00000                     -27.45000
                      -4.91000                      -0.00000                     -27.75000
                      -4.91000                      -0.00000                     -28.05000
                      -4.91000                      -0.00000                     -28.35000
                      -4.91000                      -0.00000                     -28.65000
                      -4.91000                      -0.00000                     -28.95000
                      -4.91000                      -0.00000                     -29.25000
                      -4.91000                      -0.00000                     -29.55000
                      -4.91000                      -0.00000                     -29.85000
                      -4.91000                      -0.00000                     -30.00000
        </DataArray>
      </Points>
      <PointData>
        <DataArray type="Float32" Name="Force" NumberOfComponents="3" format="ascii">
                   -5969.38547                   14895.72986                    6584.02387
                   11275.70510                  -32659.42126                  -13168.04774
                    7108.07940                  -16172.31542                  -40695.70174
                   20938.85971                  -91091.15181                  -22657.15965
                  -15477.09478                   61861.53870                   -5472.48172
                  -13877.22204                   51533.80962                   39349.00077
                  -21843.67330                   43546.69414                   53750.53650
                   14109.81705                  -19564.44902                   44221.68424
                    3425.37956                    8524.47206                   35813.36574
                    8391.78989                  -18777.87513                   21738.76599
                    4558.98468                    6632.93749                   13710.24310
                    5082.43039                      35.96167                   15214.60193
                    4675.42936                    1676.61205                   14790.95340
                    4633.65129                     883.12975                   14582.20483
                    3885.36849                    1312.46924                   14259.92290
                    3745.59364                    1160.37102                   14187.10699
                    3487.47839                     967.12347                   14082.65244
                    2923.14367                     974.40141                   13733.50055
                    2786.32789                    1143.19791                   13303.71504
                    2612.04634                    1011.88840                   13417.96456
                    2582.07165                     986.58198                   13103.05082
                    2687.13986                    1184.49902                   12858.10711
                    2904.07061                     939.57911                   12630.54714
                    3286.54402                    1202.53752                   12065.38372
                    3668.32128                    1116.78249                   11917.39772
                    4453.49815                    1202.26745                   11861.71661
                    4868.72334                    1087.32975                   10698.28141
                    5503.64868                    1119.58353                   12249.90852
                    5501.85871                     800.81397                    5274.01534
                    4676.53276                    1097.06306                   29344.21772
                    3028.38347                   -1668.18487                  -63682.54227
                  -16866.16311                     -29.58334                  378958.32067
        </DataArray>
        <DataArray type="Float32" Name="Moment" NumberOfComponents="3" format="ascii">
                      37.46910                    -193.60147                      35.76930
                    1107.56605                     807.30699                     -71.53861
                    2804.17134                     536.89054                     196.73117
                   -1233.75680                    -295.54782                    -702.21237
                   -3563.18185                    -654.83131                     673.27302
                   -4588.32684                   -2450.01136                     692.70454
                   -7202.79104                   -2741.93618                   -1355.09560
                   -5625.04877                   -1617.94666                     468.86894
                   -5202.73759                   -2300.01564                     215.98370
                   -2178.70330                    -761.54212                    -477.95581
                   -2580.65628                    -768.71002                     203.27811
                   -1322.49296                    -540.59241                     -15.43838
                   -1851.10986                    -570.05130                      37.70921
                   -1558.20478                    -515.88953                      32.46841
                   -1572.66662                    -491.35805                       2.97071
                   -1469.17650                    -433.83585                      18.31148
                   -1426.39560                    -431.97760                      20.81348
                   -1356.12244                    -395.43810                      -6.08838
                   -1265.69625                    -352.81140                      11.86468
                   -1219.08790                    -345.38367                       4.82768
                   -1162.27734                    -314.82717                       2.77630
                   -1082.61094                    -293.41520                       6.94196
                   -1020.06720                    -269.50749                      -0.82554
                    -939.49864                    -247.46536                       5.09121
                    -877.30808                    -221.97262                      -4.18521
                    -827.36763                    -208.92892                       9.19127
                    -717.60349                    -180.48919                      -5.62459
                    -733.28665                    -173.09063                       6.70702
                    -393.70231                    -104.34492                      -2.36765
                   -1422.38679                    -320.34089                       0.22118
                    3126.47295                     712.20016                       6.03375
                  -19119.99471                   -4403.14813                      -3.01687
        </DataArray>
        <DataArray type="Float32" Name="TranslationalVelocity" NumberOfComponents="3" format="ascii">
                       0.00000                       1.20428                      -0.00000
                       0.00000                       1.38492                      -0.00000
                       0.00000                       1.74620                      -0.00000
                       0.00000                       2.10749                      -0.00000
                       0.00000                       2.46877                      -0.00000
                       0.00000                       2.83005                      -0.00000
                       0.00000                       3.19133                      -0.00000
                       0.00000                       3.55262                      -0.00000
                       0.00000                       3.91390                      -0.00000
                       0.00000                       4.27518                      -0.00000
                       0.00000                       4.63647                      -0.00000
                       0.00000                       4.99775                      -0.00000
                       0.00000                       5.35903                      -0.00000
                       0.00000                       5.72032                      -0.00000
                       0.00000                       6.08160                      -0.00000
                       0.00000                       6.44288                      -0.00000
                       0.00000                       6.80417                      -0.00000
                       0.00000                       7.16545                      -0.00000
                       0.00000                       7.52673                      -0.00000
                       0.00000                       7.88802                      -0.00000
                       0.00000                       8.24930                      -0.00000
                       0.00000                       8.61058                      -0.00000
                       0.00000                       8.97187                      -0.00000
                       0.00000                       9.33315                      -0.00000
                       0.00000                       9.69443                      -0.00000
                       0.00000                      10.05571                      -0.00000
                       0.00000                      10.41700                      -0.00000
                       0.00000                      10.77828                      -0.00000
                       0.00000                      11.13956                      -0.00000
                       0.00000                      11.50085                      -0.00000
                       0.00000                      11.86213                      -0.00000
                       0.00000                      12.04277                      -0.00000
        </DataArray>
        <DataArray type="Float32" Name="RotationalVelocity" NumberOfComponents="3" format="ascii">
                       1.20428                      -0.00000                       0.00000
                       1.20428                      -0.00000                       0.00000
                       1.20428                      -0.00000                       0.00000
                       1.20428                      -0.00000                       0.00000
                       1.20428                      -0.00000                       0.00000
                       1.20428                      -0.00000                       0.00000
                       1.20428                      -0.00000                       0.00000
                       1.20428                      -0.00000                       0.00000
                       1.20428                      -0.00000                       0.00000
                       1.20428                      -0.00000                       0.00000
                       1.20428                      -0.00000                       0.00000
                       1.20428                      -0.00000                       0.00000
                       1.20428                      -0.00000                       0.00000
                       1.20428                      -0.00000                       0.00000
                       1.20428                      -0.00000                       0.00000
                       1.20428                      -0.00000                       0.00000
                       1.20428                      -0.00000                       0.00000
                       1.20428                      -0.00000                       0.00000
                       1.20428                      -0.00000                       0.00000
                       1.20428                      -0.00000                       0.00000
                       1.20428                      -0.00000                       0.00000
                       1.20428                      -0.00000                       0.00000
                       1.20428                      -0.00000                       0.00000
                       1.20428                      -0.00000                       0.00000
                       1.20428                      -0.00000                       0.00000
                       1.20428                      -0.00000                       0.00000
                       1.20428                      -0.00000                       0.00000
                       1.20428                      -0.00000                       0.00000
                       1.20428                      -0.00000                       0.00000
                       1.20428                      -0.00000                       0.00000
                       1.20428                      -0.00000                       0.00000
                       1.20428                      -0.00000                       0.00000
        </DataArray>
        <DataArray type="Float32" Name="TranslationalAcceleration" NumberOfComponents="3" format="ascii">
                       0.36970                       1.05581                       1.89062
                       0.36889                       1.19273                       2.10816
                       0.38839                       1.44314                       2.54324
                       0.46004                       1.63911                       2.97833
                       0.58374                       1.79228                       3.41341
                       0.76087                       1.91194                       3.84850
                       0.99382                       2.00541                       4.28358
                       1.27857                       2.07980                       4.71867
                       1.61706                       2.13744                       5.15375
                       2.01977                       2.17898                       5.58884
                       2.49111                       2.20660                       6.02392
                       3.03583                       2.22161                       6.45901
                       3.65860                       2.22460                       6.89409
                       4.35392                       2.21707                       7.32918
                       5.12412                       2.19897                       7.76426
                       5.98238                       2.16865                       8.19935
                       6.93187                       2.12565                       8.63443
                       7.97479                       2.06943                       9.06952
                       9.11213                       1.99959                       9.50460
                      10.33276                       1.91754                       9.93969
                      11.63596                       1.82328                      10.37477
                      13.03055                       1.71538                      10.80986
                      14.51262                       1.59444                      11.24494
                      16.07619                       1.46159                      11.68003
                      17.71298                       1.31860                      12.11511
                      19.40620                       1.16853                      12.55020
                      21.14899                       1.01298                      12.98529
                      22.93552                       0.85418                      13.42037
                      24.74930                       0.69616                      13.85546
                      26.57061                       0.54387                      14.29054
                      28.37560                       0.40337                      14.72563
                      29.27336                       0.33587                      14.94317
        </DataArray>
        <DataArray type="Float32" Name="RotationalAcceleration" NumberOfComponents="3" format="ascii">
                       1.01263                       0.08968                       0.00000
                       0.91280                       0.00541                       0.00000
                       0.73244                      -0.16192                       0.00000
                       0.58168                      -0.32903                       0.00000
                       0.45881                      -0.49843                       0.00000
                       0.35965                      -0.67264                       0.00000
                       0.27996                      -0.85374                       0.00000
                       0.21598                      -1.04459                       0.00000
                       0.16217                      -1.24738                       0.00000
                       0.11482                      -1.46224                       0.00000
                       0.07206                      -1.68985                       0.00000
                       0.03222                      -1.93050                       0.00000
                      -0.00608                      -2.18405                       0.00000
                      -0.04411                      -2.45140                       0.00000
                      -0.08300                      -2.73092                       0.00000
                      -0.12314                      -3.01944                       0.00000
                      -0.16463                      -3.31504                       0.00000
                      -0.20743                      -3.61544                       0.00000
                      -0.25128                      -3.91809                       0.00000
                      -0.29570                      -4.21941                       0.00000
                      -0.33964                      -4.51428                       0.00000
                      -0.38205                      -4.79891                       0.00000
                      -0.42185                      -5.06905                       0.00000
                      -0.45782                      -5.32015                       0.00000
                      -0.48866                      -5.54735                       0.00000
                      -0.51180                      -5.74076                       0.00000
                      -0.52485                      -5.89182                       0.00000
                      -0.52693                      -5.99800                       0.00000
                      -0.51621                      -6.05275                       0.00000
                      -0.49080                      -6.04917                       0.00000
                      -0.45001                      -5.98504                       0.00000
                      -0.42466                      -5.93352                       0.00000
        </DataArray>
        <DataArray type="Float32" Name="OrientationX" NumberOfComponents="3" format="ascii">
                       0.97492                       0.22257                      -0.00000
                       0.97492                       0.22257                      -0.00000
                       0.97492                       0.22257                      -0.00000
                       0.97492                       0.22257                      -0.00000
                       0.97492                       0.22257                      -0.00000
                       0.97492                       0.22257                      -0.00000
                       0.97492                       0.22257                      -0.00000
                       0.97979                       0.20005                      -0.00000
                       0.98345                       0.18121                       0.00000
                       0.98629                       0.16505                      -0.00000
                       0.98847                       0.15143                      -0.00000
                       0.99022                       0.13952                      -0.00000
                       0.99160                       0.12931                      -0.00000
                       0.99274                       0.12031                       0.00000
                       0.99367                       0.11234                      -0.00000
                       0.99445                       0.10522                      -0.00000
                       0.99509                       0.09897                      -0.00000
                       0.99564                       0.09324                      -0.00000
                       0.99612                       0.08803                      -0.00000
                       0.99654                       0.08316                       0.00000
                       0.99690                       0.07863                      -0.00000
                       0.99724                       0.07428                      -0.00000
                       0.99753                       0.07028                       0.00000
                       0.99780                       0.06627                       0.00000
                       0.99806                       0.06227                       0.00000
                       0.99829                       0.05844                      -0.00000
                       0.99851                       0.05460                      -0.00000
                       0.99872                       0.05059                      -0.00000
                       0.99891                       0.04658                      -0.00000
                       0.99910                       0.04240                       0.00000
                       0.99928                       0.03804                       0.00000
                       0.99928                       0.03804                      -0.00000
        </DataArray>
        <DataArray type="Float32" Name="OrientationY" NumberOfComponents="3" format="ascii">
                       0.22257                      -0.97492                       0.00000
                       0.22257                      -0.97492                       0.00000
                       0.22257                      -0.97492                       0.00000
                       0.22257                      -0.97492                       0.00000
                       0.22257                      -0.97492                       0.00000
                       0.22257                      -0.97492                       0.00000
                       0.22257                      -0.97492                       0.00000
                       0.20005                      -0.97979                       0.00000
                       0.18121                      -0.98345                      -0.00000
                       0.16505                      -0.98629                       0.00000
                       0.15143                      -0.98847                       0.00000
                       0.13952                      -0.99022                       0.00000
                       0.12931                      -0.99160                       0.00000
                       0.12031                      -0.99274                      -0.00000
                       0.11234                      -0.99367                       0.00000
                       0.10522                      -0.99445                       0.00000
                       0.09897                      -0.99509                       0.00000
                       0.09324                      -0.99564                       0.00000
                       0.08803                      -0.99612                       0.00000
                       0.08316                      -0.99654                      -0.00000
                       0.07863                      -0.99690                       0.00000
                       0.07428                      -0.99724                       0.00000
                       0.07028                      -0.99753                      -0.00000
                       0.06627                      -0.99780                      -0.00000
                       0.06227                      -0.99806                      -0.00000
                       0.05844                      -0.99829                       0.00000
                       0.05460                      -0.99851                       0.00000
                       0.05059                      -0.99872                       0.00000
                       0.04658                      -0.99891                       0.00000
                       0.04240                      -0.99910                      -0.00000
                       0.03804                      -0.99928                      -0.00000
                       0.03804                      -0.99928                       0.00000
        </DataArray>
        <DataArray type="Float32" Name="OrientationZ" NumberOfComponents="3" format="ascii">
                      -0.00000                      -0.00000                      -1.00000
                      -0.00000                      -0.00000                      -1.00000
                      -0.00000                      -0.00000                      -1.00000
                      -0.00000                      -0.00000                      -1.00000
                      -0.00000                      -0.00000                      -1.00000
                      -0.00000                      -0.00000                      -1.00000
                      -0.00000                      -0.00000                      -1.00000
                       0.00000                      -0.00000                      -1.00000
                      -0.00000                       0.00000                      -1.00000
                       0.00000                      -0.00000                      -1.00000
                      -0.00000                      -0.00000                      -1.00000
                      -0.00000                      -0.00000                      -1.00000
                      -0.00000                      -0.00000                      -1.00000
                      -0.00000                       0.00000                      -1.00000
                       0.00000                      -0.00000                      -1.00000
                      -0.00000                      -0.00000                      -1.00000
                      -0.00000                      -0.00000                      -1.00000
                       0.00000                      -0.00000                      -1.00000
                       0.00000                      -0.00000                      -1.00000
                      -0.00000                       0.00000                      -1.00000
                       0.00000                      -0.00000                      -1.00000
                      -0.00000                      -0.00000                      -1.00000
                      -0.00000                       0.00000                      -1.00000
                      -0.00000                       0.00000                      -1.00000
                      -0.00000                       0.00000                      -1.00000
                       0.00000                      -0.00000                      -1.00000
                      -0.00000                      -0.00000                      -1.00000
                       0.00000                      -0.00000                      -1.00000
                       0.00000                      -0.00000                      -1.00000
                      -0.00000                       0.00000                      -1.00000
                      -0.00000                       0.00000                      -1.00000
                      -0.00000                      -0.00000                      -1.00000
        </DataArray>
      </PointData>
      <Lines>
        <DataArray type="Int32" Name="connectivity" format="ascii">
      0      1
      1      2
      2      3
      3      4
      4      5
      5      6
      6      7
      7      8
      8      9
      9     10
     10     11
     11     12
     12     13
     13     14
     14     15
     15     16
     16     17
     17     18
     18     19
     19     20
     20     21
     21     22
     22     23
     23     24
     24     25
     25     26
     26     27
     27     28
     28     29
     29     30
     30     31
        </DataArray>
        <DataArray type="Int32" Name="offsets" format="ascii">
      2
      4
      6
      8
     10
     12
     14
     16
     18
     20
     22
     24
     26
     28
     30
     32
     34
     36
     38
     40
     42
     44
     46
     48
     50
     52
     54
     56
     58
     60
     62
        </DataArray>
      </Lines>
    </Piece>
  </PolyData>
</VTKFile>
