<?xml version="1.0"?>
<VTKFile type="PolyData" version="0.1" byte_order="LittleEndian">
  <PolyData>
    <Piece NumberOfPoints="     32" NumberOfVerts="  0" NumberOfLines="     31"
           NumberOfStrips="  0" NumberOfPolys="      0">
      <Points>
        <DataArray type="Float32" NumberOfComponents="3" format="ascii">
                      -4.61320                       0.76358                     -20.53372
                      -4.61509                       0.87992                     -20.62840
                      -4.61878                       1.11257                     -20.81776
                      -4.62227                       1.34518                     -21.00718
                      -4.62548                       1.57779                     -21.19661
                      -4.62830                       1.81041                     -21.38603
                      -4.63062                       2.04305                     -21.57542
                      -4.63242                       2.27574                     -21.76478
                      -4.63363                       2.50847                     -21.95408
                      -4.63406                       2.74125                     -22.14332
                      -4.63359                       2.97410                     -22.33249
                      -4.63211                       3.20700                     -22.52158
                      -4.62949                       3.43995                     -22.71058
                      -4.62580                       3.67296                     -22.89952
                      -4.62096                       3.90600                     -23.08837
                      -4.61477                       4.13909                     -23.27714
                      -4.60713                       4.37221                     -23.46581
                      -4.59799                       4.60535                     -23.65439
                      -4.58732                       4.83850                     -23.84287
                      -4.57530                       5.07165                     -24.03127
                      -4.56192                       5.30480                     -24.21959
                      -4.54702                       5.53793                     -24.40782
                      -4.53068                       5.77103                     -24.59595
                      -4.51297                       6.00411                     -24.78400
                      -4.49403                       6.23715                     -24.97198
                      -4.47414                       6.47015                     -25.15990
                      -4.45341                       6.70313                     -25.34776
                      -4.43193                       6.93608                     -25.53557
                      -4.40998                       7.16901                     -25.72336
                      -4.38788                       7.40195                     -25.91112
                      -4.36604                       7.63490                     -26.09889
                      -4.35519                       7.75138                     -26.19277
        </DataArray>
      </Points>
      <PointData>
        <DataArray type="Float32" Name="Force" NumberOfComponents="3" format="ascii">
                   -5915.94588                    6962.55878                   18933.56659
                    9842.15166                   -7150.04455                  -29501.94399
                    5214.57329                   23674.37291                  -34027.88965
                   17459.64110                  -35061.64404                  -79532.48935
                  -17021.86200                   45107.48773                   45595.71959
                  -18975.71769                    3775.20117                   64335.23008
                  -30019.30475                  -12738.54166                   66422.04774
                    2966.75542                  -44144.53510                   12840.35595
                   -6722.67538                  -20886.46031                   28407.35228
                   -1980.02353                  -26825.58559                    -336.46544
                   -4100.04997                   -5598.08010                   13528.21515
                   -2329.52460                  -10591.28329                    9572.77970
                   -1414.58285                   -9248.40633                   10495.84704
                      88.77406                   -9533.82552                    9779.05833
                    1284.40621                   -9008.79155                    9899.81822
                    2872.15687                   -9053.99425                    9728.72306
                    4412.48686                   -9110.29642                    9518.10415
                    5704.08417                   -8890.52972                    9308.60207
                    7159.10713                   -8551.26503                    9164.83942
                    8636.38694                   -8785.08099                    9129.77528
                   10258.46393                   -8676.26940                    8932.47458
                   11682.41352                   -8507.72802                    8922.90479
                   13052.54992                   -8611.92831                    8614.96153
                   14417.27680                   -8205.66142                    8473.13383
                   15440.99083                   -8280.38283                    8309.55239
                   16636.60931                   -8332.53707                    8320.07297
                   17301.35476                   -7697.37212                    7561.43251
                   17626.22325                   -8810.56559                    8384.27244
                   17517.52217                   -4245.06730                    4268.02534
                   14188.39973                  -20311.73129                   17525.33565
                   16826.51823                   41579.35079                  -35410.04193
                  -21962.69953                 -256899.60629                  208128.16515
        </DataArray>
        <DataArray type="Float32" Name="Moment" NumberOfComponents="3" format="ascii">
                    -144.17819                    -155.41508                    -132.59822
                     862.77968                     551.29179                     570.75332
                    2896.85806                     157.15628                     495.24043
                   -1053.13816                     273.14294                    -518.76043
                   -3345.25634                   -1059.03910                     171.54325
                   -4497.82171                   -2248.15052                   -1090.16575
                   -7108.73604                    -901.09126                   -2543.91184
                   -5479.04699                   -1520.19481                    -638.78082
                   -5060.37091                   -1707.55952                   -1332.56140
                   -2096.36961                    -259.81707                    -673.73115
                   -2464.40013                    -743.41249                    -272.75822
                   -1262.71805                    -457.55099                    -256.85551
                   -1756.02192                    -481.97992                    -269.77420
                   -1472.81970                    -424.59822                    -234.29283
                   -1479.55494                    -393.06233                    -231.70923
                   -1375.93722                    -359.71098                    -201.44575
                   -1331.10420                    -342.48585                    -204.35593
                   -1258.97968                    -296.35869                    -208.41300
                   -1169.99062                    -261.40945                    -190.77567
                   -1122.66300                    -232.31766                    -188.43255
                   -1065.54006                    -213.55223                    -173.25194
                    -988.22427                    -193.78836                    -172.51441
                    -926.58001                    -161.04582                    -166.20497
                    -849.83431                    -146.83874                    -158.57807
                    -788.83324                    -112.26045                    -156.52207
                    -741.53353                    -105.37157                    -139.70529
                    -639.38957                     -81.13675                    -133.02271
                    -650.88756                     -75.66524                    -128.79893
                    -346.08679                     -44.85017                     -80.61339
                   -1257.43221                     -98.77587                    -262.07998
                    2777.65137                     203.22029                     588.94082
                  -16761.40584                   -1311.00890                   -3555.88589
        </DataArray>
        <DataArray type="Float32" Name="TranslationalVelocity" NumberOfComponents="3" format="ascii">
                       0.81739                       0.78641                       1.26153
                       0.81504                       0.90823                       1.41127
                       0.81021                       1.15182                       1.71064
                       0.80505                       1.39533                       2.00979
                       0.79961                       1.63874                       2.30876
                       0.79393                       1.88203                       2.60761
                       0.78805                       2.12518                       2.90637
                       0.78201                       2.36821                       3.20507
                       0.77584                       2.61110                       3.50372
                       0.76956                       2.85384                       3.80233
                       0.76319                       3.09643                       4.10091
                       0.75677                       3.33886                       4.39946
                       0.75033                       3.58112                       4.69797
                       0.74389                       3.82324                       4.99643
                       0.73746                       4.06520                       5.29485
                       0.73108                       4.30699                       5.59320
                       0.72476                       4.54861                       5.89148
                       0.71851                       4.79003                       6.18965
                       0.71235                       5.03128                       6.48772
                       0.70628                       5.27236                       6.78568
                       0.70031                       5.51328                       7.08353
                       0.69444                       5.75402                       7.38123
                       0.68868                       5.99458                       7.67879
                       0.68302                       6.23497                       7.97621
                       0.67747                       6.47522                       8.27349
                       0.67199                       6.71535                       8.57066
                       0.66658                       6.95538                       8.86774
                       0.66124                       7.19532                       9.16473
                       0.65595                       7.43520                       9.46167
                       0.65068                       7.67507                       9.75861
                       0.64540                       7.91496                      10.05562
                       0.64275                       8.03491                      10.20415
        </DataArray>
        <DataArray type="Float32" Name="RotationalVelocity" NumberOfComponents="3" format="ascii">
                       1.28659                       0.05591                      -0.02604
                       1.28620                       0.05626                      -0.02560
                       1.28547                       0.05691                      -0.02479
                       1.28484                       0.05751                      -0.02405
                       1.28429                       0.05803                      -0.02339
                       1.28382                       0.05849                      -0.02281
                       1.28342                       0.05889                      -0.02232
                       1.28308                       0.05921                      -0.02191
                       1.28280                       0.05948                      -0.02158
                       1.28256                       0.05968                      -0.02133
                       1.28235                       0.05982                      -0.02114
                       1.28216                       0.05992                      -0.02103
                       1.28199                       0.05996                      -0.02097
                       1.28183                       0.05995                      -0.02098
                       1.28167                       0.05989                      -0.02105
                       1.28152                       0.05979                      -0.02117
                       1.28138                       0.05967                      -0.02132
                       1.28123                       0.05951                      -0.02151
                       1.28109                       0.05933                      -0.02172
                       1.28095                       0.05914                      -0.02196
                       1.28082                       0.05893                      -0.02222
                       1.28069                       0.05872                      -0.02247
                       1.28058                       0.05851                      -0.02273
                       1.28047                       0.05830                      -0.02298
                       1.28038                       0.05811                      -0.02321
                       1.28031                       0.05795                      -0.02341
                       1.28027                       0.05781                      -0.02358
                       1.28026                       0.05771                      -0.02371
                       1.28028                       0.05764                      -0.02379
                       1.28034                       0.05762                      -0.02381
                       1.28044                       0.05765                      -0.02378
                       1.28050                       0.05767                      -0.02375
        </DataArray>
        <DataArray type="Float32" Name="TranslationalAcceleration" NumberOfComponents="3" format="ascii">
                       0.79521                      -1.41473                       1.07670
                       0.81217                      -1.61242                       1.22694
                       0.84565                      -2.00553                       1.52992
                       0.87798                      -2.39327                       1.83871
                       0.90891                      -2.77668                       2.15218
                       0.93808                      -3.15657                       2.46942
                       0.96506                      -3.53360                       2.78970
                       0.98974                      -3.90851                       3.11222
                       1.01185                      -4.28151                       3.43672
                       1.03060                      -4.65267                       3.76313
                       1.04544                      -5.02220                       4.09117
                       1.05579                      -5.39022                       4.42064
                       1.06110                      -5.75679                       4.75142
                       1.06155                      -6.12205                       5.08330
                       1.05685                      -6.48598                       5.41624
                       1.04594                      -6.84836                       5.75033
                       1.02842                      -7.20908                       6.08553
                       1.00401                      -7.56804                       6.42181
                       0.97254                      -7.92515                       6.75912
                       0.93475                      -8.28057                       7.09732
                       0.89066                      -8.63426                       7.43635
                       0.83955                      -8.98597                       7.77624
                       0.78167                      -9.33574                       8.11690
                       0.71744                      -9.68367                       8.45818
                       0.64749                     -10.02994                       8.79993
                       0.57309                     -10.37496                       9.14195
                       0.49477                     -10.71893                       9.48410
                       0.41298                     -11.06210                       9.82622
                       0.32899                     -11.40498                      10.16802
                       0.24431                     -11.74822                      10.50921
                       0.16079                     -12.09261                      10.84943
                       0.11937                     -12.26509                      11.01932
        </DataArray>
        <DataArray type="Float32" Name="RotationalAcceleration" NumberOfComponents="3" format="ascii">
                      -0.07064                       0.02585                      -0.06964
                      -0.05655                       0.02642                      -0.06802
                      -0.03080                       0.02778                      -0.06457
                      -0.00878                       0.02962                      -0.06067
                       0.00974                       0.03210                      -0.05614
                       0.02527                       0.03534                      -0.05084
                       0.03829                       0.03942                      -0.04467
                       0.04915                       0.04450                      -0.03746
                       0.05846                       0.05067                      -0.02910
                       0.06677                       0.05789                      -0.01963
                       0.07435                       0.06617                      -0.00903
                       0.08143                       0.07551                       0.00272
                       0.08820                       0.08589                       0.01557
                       0.09483                       0.09737                       0.02961
                       0.10146                       0.10982                       0.04469
                       0.10816                       0.12302                       0.06057
                       0.11494                       0.13683                       0.07710
                       0.12180                       0.15112                       0.09411
                       0.12870                       0.16573                       0.11145
                       0.13557                       0.18046                       0.12887
                       0.14227                       0.19503                       0.14605
                       0.14868                       0.20919                       0.16273
                       0.15465                       0.22272                       0.17864
                       0.16004                       0.23537                       0.19348
                       0.16466                       0.24686                       0.20697
                       0.16817                       0.25670                       0.21850
                       0.17028                       0.26445                       0.22757
                       0.17089                       0.26995                       0.23402
                       0.16976                       0.27290                       0.23746
                       0.16666                       0.27293                       0.23750
                       0.16153                       0.26995                       0.23399
                       0.15831                       0.26749                       0.23111
        </DataArray>
        <DataArray type="Float32" Name="OrientationX" NumberOfComponents="3" format="ascii">
                       0.97821                       0.14049                       0.15285
                       0.97822                       0.14033                       0.15298
                       0.97822                       0.13990                       0.15333
                       0.97823                       0.13929                       0.15383
                       0.97824                       0.13847                       0.15449
                       0.97825                       0.13743                       0.15534
                       0.97827                       0.13614                       0.15639
                       0.98279                       0.12033                       0.14013
                       0.98617                       0.10654                       0.12698
                       0.98876                       0.09419                       0.11613
                       0.99072                       0.08319                       0.10749
                       0.99227                       0.07302                       0.10037
                       0.99346                       0.06368                       0.09477
                       0.99440                       0.05486                       0.09031
                       0.99514                       0.04646                       0.08683
                       0.99571                       0.03845                       0.08416
                       0.99613                       0.03084                       0.08226
                       0.99645                       0.02346                       0.08085
                       0.99667                       0.01635                       0.07989
                       0.99681                       0.00944                       0.07921
                       0.99689                       0.00280                       0.07875
                       0.99692                      -0.00361                       0.07834
                       0.99690                      -0.00964                       0.07805
                       0.99687                      -0.01543                       0.07758
                       0.99682                      -0.02092                       0.07686
                       0.99678                      -0.02588                       0.07594
                       0.99676                      -0.03029                       0.07457
                       0.99677                      -0.03424                       0.07260
                       0.99683                      -0.03752                       0.07009
                       0.99696                      -0.04016                       0.06684
                       0.99714                      -0.04212                       0.06281
                       0.99720                      -0.04147                       0.06229
        </DataArray>
        <DataArray type="Float32" Name="OrientationY" NumberOfComponents="3" format="ascii">
                       0.20721                      -0.61534                      -0.76054
                       0.20721                      -0.61548                      -0.76043
                       0.20722                      -0.61573                      -0.76022
                       0.20722                      -0.61595                      -0.76005
                       0.20722                      -0.61613                      -0.75990
                       0.20722                      -0.61629                      -0.75976
                       0.20723                      -0.61644                      -0.75964
                       0.18463                      -0.61953                      -0.76295
                       0.16573                      -0.62184                      -0.76541
                       0.14953                      -0.62360                      -0.76731
                       0.13588                      -0.62493                      -0.76876
                       0.12394                      -0.62597                      -0.76993
                       0.11372                      -0.62677                      -0.77086
                       0.10469                      -0.62741                      -0.77162
                       0.09670                      -0.62791                      -0.77226
                       0.08958                      -0.62831                      -0.77279
                       0.08332                      -0.62862                      -0.77324
                       0.07758                      -0.62887                      -0.77363
                       0.07236                      -0.62907                      -0.77398
                       0.06748                      -0.62922                      -0.77429
                       0.06296                      -0.62934                      -0.77458
                       0.05860                      -0.62942                      -0.77485
                       0.05460                      -0.62947                      -0.77511
                       0.05060                      -0.62948                      -0.77536
                       0.04660                      -0.62947                      -0.77563
                       0.04277                      -0.62942                      -0.77588
                       0.03894                      -0.62934                      -0.77615
                       0.03494                      -0.62922                      -0.77644
                       0.03094                      -0.62907                      -0.77673
                       0.02677                      -0.62888                      -0.77704
                       0.02242                      -0.62864                      -0.77737
                       0.02242                      -0.62861                      -0.77740
        </DataArray>
        <DataArray type="Float32" Name="OrientationZ" NumberOfComponents="3" format="ascii">
                      -0.01280                       0.77564                      -0.63105
                      -0.01255                       0.77556                      -0.63115
                      -0.01194                       0.77544                      -0.63131
                      -0.01112                       0.77538                      -0.63140
                      -0.01004                       0.77538                      -0.63142
                      -0.00868                       0.77543                      -0.63137
                      -0.00701                       0.77554                      -0.63125
                      -0.00499                       0.77569                      -0.63109
                      -0.00259                       0.77587                      -0.63089
                       0.00015                       0.77605                      -0.63067
                       0.00321                       0.77624                      -0.63043
                       0.00661                       0.77642                      -0.63018
                       0.01031                       0.77660                      -0.62991
                       0.01433                       0.77676                      -0.62964
                       0.01864                       0.77690                      -0.62935
                       0.02317                       0.77701                      -0.62906
                       0.02786                       0.77710                      -0.62876
                       0.03269                       0.77716                      -0.62846
                       0.03760                       0.77718                      -0.62815
                       0.04253                       0.77717                      -0.62785
                       0.04739                       0.77713                      -0.62756
                       0.05211                       0.77706                      -0.62727
                       0.05660                       0.77697                      -0.62699
                       0.06080                       0.77686                      -0.62673
                       0.06461                       0.77674                      -0.62649
                       0.06788                       0.77663                      -0.62629
                       0.07044                       0.77654                      -0.62612
                       0.07227                       0.77647                      -0.62600
                       0.07324                       0.77644                      -0.62592
                       0.07324                       0.77647                      -0.62589
                       0.07223                       0.77655                      -0.62590
                       0.07140                       0.77661                      -0.62592
        </DataArray>
      </PointData>
      <Lines>
        <DataArray type="Int32" Name="connectivity" format="ascii">
      0      1
      1      2
      2      3
      3      4
      4      5
      5      6
      6      7
      7      8
      8      9
      9     10
     10     11
     11     12
     12     13
     13     14
     14     15
     15     16
     16     17
     17     18
     18     19
     19     20
     20     21
     21     22
     22     23
     23     24
     24     25
     25     26
     26     27
     27     28
     28     29
     29     30
     30     31
        </DataArray>
        <DataArray type="Int32" Name="offsets" format="ascii">
      2
      4
      6
      8
     10
     12
     14
     16
     18
     20
     22
     24
     26
     28
     30
     32
     34
     36
     38
     40
     42
     44
     46
     48
     50
     52
     54
     56
     58
     60
     62
        </DataArray>
      </Lines>
    </Piece>
  </PolyData>
</VTKFile>
