<?xml version="1.0"?>
<VTKFile type="PolyData" version="0.1" byte_order="LittleEndian">
  <PolyData>
    <Piece NumberOfPoints="     32" NumberOfVerts="  0" NumberOfLines="     31"
           NumberOfStrips="  0" NumberOfPolys="      0">
      <Points>
        <DataArray type="Float32" NumberOfComponents="3" format="ascii">
                      -4.69095                       0.67852                     -20.65320
                      -4.69254                       0.78172                     -20.76204
                      -4.69565                       0.98812                     -20.97974
                      -4.69854                       1.19448                     -21.19747
                      -4.70114                       1.40084                     -21.41520
                      -4.70334                       1.60723                     -21.63292
                      -4.70505                       1.81365                     -21.85060
                      -4.70624                       2.02013                     -22.06824
                      -4.70683                       2.22666                     -22.28583
                      -4.70665                       2.43326                     -22.50335
                      -4.70557                       2.63993                     -22.72080
                      -4.70349                       2.84668                     -22.93818
                      -4.70028                       3.05349                     -23.15547
                      -4.69600                       3.26037                     -23.37269
                      -4.69059                       3.46731                     -23.58982
                      -4.68384                       3.67430                     -23.80687
                      -4.67566                       3.88135                     -24.02381
                      -4.66600                       4.08843                     -24.24066
                      -4.65482                       4.29555                     -24.45740
                      -4.64231                       4.50268                     -24.67406
                      -4.62845                       4.70982                     -24.89062
                      -4.61310                       4.91697                     -25.10708
                      -4.59631                       5.12411                     -25.32344
                      -4.57818                       5.33124                     -25.53970
                      -4.55883                       5.53835                     -25.75588
                      -4.53854                       5.74544                     -25.97199
                      -4.51742                       5.95251                     -26.18804
                      -4.49557                       6.15956                     -26.40403
                      -4.47324                       6.36660                     -26.61998
                      -4.45078                       6.57364                     -26.83592
                      -4.42856                       6.78071                     -27.05187
                      -4.41753                       6.88424                     -27.15985
        </DataArray>
      </Points>
      <PointData>
        <DataArray type="Float32" Name="Force" NumberOfComponents="3" format="ascii">
                   -6115.94718                    8810.90073                   17416.17568
                   10067.39502                  -11521.85455                  -29016.40306
                    4681.15933                   18637.33269                  -37591.86374
                   17619.14164                  -46068.09414                  -75454.74679
                  -17250.33406                   50370.38702                   39299.36251
                  -18594.59936                   11600.87932                   63498.91441
                  -29316.13236                   -4584.08132                   67807.88830
                    4685.02609                  -42915.26953                   18391.55892
                   -5080.84218                  -17521.98483                   31064.32883
                      -7.12873                  -27207.55926                    3003.13255
                   -2241.41463                   -4020.92141                   14243.59088
                    -415.02279                   -9540.66743                   10964.07861
                     477.78878                   -8056.45781                   11764.44840
                    1930.74439                   -8425.37476                   11122.11024
                    3032.20134                   -7870.62231                   11214.39012
                    4508.11020                   -7930.64279                   11083.03102
                    5912.66695                   -8011.17343                   10907.01463
                    7033.95043                   -7811.43190                   10689.93745
                    8306.57013                   -7481.33803                   10520.16140
                    9584.54172                   -7719.19833                   10531.32942
                   10997.99443                   -7629.38706                   10328.07430
                   12201.05833                   -7454.46984                   10302.27696
                   13346.61700                   -7596.91319                   10003.19589
                   14485.53310                   -7196.15288                    9802.28933
                   15289.66971                   -7289.89097                    9638.92031
                   16276.66053                   -7337.90086                    9649.56242
                   16736.83932                   -6784.02548                    8777.47725
                   16867.30611                   -7817.61990                    9762.40021
                   16601.01163                   -3668.16102                    4919.30220
                   12988.19028                  -18432.18673                   20670.84443
                   15815.65956                   38200.75328                  -41930.96412
                  -23277.20631                 -236509.05481                  248044.05541
        </DataArray>
        <DataArray type="Float32" Name="Moment" NumberOfComponents="3" format="ascii">
                    -119.96108                    -175.18101                    -108.25694
                     886.00586                     624.60390                     505.78251
                    2900.57828                     230.14616                     487.82821
                   -1088.13863                     205.88979                    -572.40423
                   -3384.31629                   -1036.94809                     276.04802
                   -4531.01738                   -2393.24099                    -842.83323
                   -7154.88183                   -1233.75686                   -2487.52924
                   -5535.87582                   -1609.94175                    -489.47401
                   -5109.64548                   -1891.71131                   -1154.69107
                   -2122.72792                    -345.72731                    -666.06410
                   -2498.44744                    -782.70552                    -199.69222
                   -1281.50446                    -491.22302                    -214.14166
                   -1783.80655                    -519.94981                    -225.66334
                   -1498.30601                    -458.11940                    -195.36216
                   -1506.64205                    -426.81623                    -196.52665
                   -1402.79199                    -389.80826                    -169.13540
                   -1358.50449                    -373.63024                    -173.70398
                   -1286.23683                    -327.93381                    -183.08868
                   -1196.62676                    -290.76222                    -168.81359
                   -1149.44428                    -261.55061                    -169.80658
                   -1092.14071                    -240.82731                    -156.31760
                   -1013.85022                    -220.96723                    -157.43025
                    -951.62346                    -187.13964                    -154.81039
                    -873.62481                    -171.86478                    -148.29621
                    -811.76917                    -136.54350                    -150.25820
                    -763.89565                    -127.55684                    -133.68474
                    -659.25594                    -101.79043                    -129.42559
                    -671.88055                     -95.98742                    -125.80412
                    -357.53733                     -57.21658                     -78.88425
                   -1299.78400                    -139.84985                    -262.45369
                    2869.79584                     296.07190                     590.90519
                  -17350.15365                   -1872.66934                   -3562.68035
        </DataArray>
        <DataArray type="Float32" Name="TranslationalVelocity" NumberOfComponents="3" format="ascii">
                       0.73015                       0.90981                       1.11282
                       0.72701                       1.05034                       1.24611
                       0.72078                       1.33145                       1.51272
                       0.71465                       1.61273                       1.77940
                       0.70863                       1.89413                       2.04617
                       0.70273                       2.17559                       2.31304
                       0.69695                       2.45708                       2.58002
                       0.69129                       2.73857                       2.84710
                       0.68577                       3.02005                       3.11429
                       0.68041                       3.30149                       3.38160
                       0.67521                       3.58288                       3.64901
                       0.67020                       3.86421                       3.91653
                       0.66539                       4.14546                       4.18415
                       0.66075                       4.42662                       4.45185
                       0.65629                       4.70771                       4.71962
                       0.65205                       4.98869                       4.98746
                       0.64804                       5.26956                       5.25536
                       0.64424                       5.55031                       5.52330
                       0.64068                       5.83094                       5.79128
                       0.63732                       6.11145                       6.05927
                       0.63415                       6.39184                       6.32726
                       0.63121                       6.67210                       6.59526
                       0.62847                       6.95223                       6.86324
                       0.62593                       7.23223                       7.13119
                       0.62357                       7.51210                       7.39911
                       0.62134                       7.79187                       7.66699
                       0.61923                       8.07156                       7.93485
                       0.61723                       8.35116                       8.20267
                       0.61529                       8.63069                       8.47047
                       0.61338                       8.91020                       8.73825
                       0.61142                       9.18970                       9.00605
                       0.61043                       9.32945                       9.13995
        </DataArray>
        <DataArray type="Float32" Name="RotationalVelocity" NumberOfComponents="3" format="ascii">
                       1.29049                       0.04729                      -0.01928
                       1.29080                       0.04718                      -0.01939
                       1.29138                       0.04696                      -0.01962
                       1.29189                       0.04671                      -0.01985
                       1.29234                       0.04646                      -0.02010
                       1.29275                       0.04618                      -0.02037
                       1.29311                       0.04588                      -0.02066
                       1.29344                       0.04556                      -0.02097
                       1.29374                       0.04521                      -0.02131
                       1.29401                       0.04484                      -0.02166
                       1.29427                       0.04444                      -0.02205
                       1.29452                       0.04402                      -0.02245
                       1.29476                       0.04358                      -0.02287
                       1.29500                       0.04312                      -0.02331
                       1.29523                       0.04264                      -0.02377
                       1.29546                       0.04214                      -0.02424
                       1.29568                       0.04164                      -0.02473
                       1.29591                       0.04112                      -0.02522
                       1.29613                       0.04061                      -0.02571
                       1.29634                       0.04010                      -0.02620
                       1.29655                       0.03960                      -0.02667
                       1.29674                       0.03911                      -0.02713
                       1.29691                       0.03866                      -0.02757
                       1.29707                       0.03823                      -0.02798
                       1.29720                       0.03784                      -0.02835
                       1.29731                       0.03751                      -0.02866
                       1.29737                       0.03726                      -0.02890
                       1.29740                       0.03708                      -0.02908
                       1.29739                       0.03698                      -0.02917
                       1.29733                       0.03699                      -0.02916
                       1.29722                       0.03710                      -0.02905
                       1.29716                       0.03718                      -0.02897
        </DataArray>
        <DataArray type="Float32" Name="TranslationalAcceleration" NumberOfComponents="3" format="ascii">
                       0.90860                      -1.06598                       1.81878
                       0.91015                      -1.23797                       2.00002
                       0.91330                      -1.58554                       2.35942
                       0.91646                      -1.94157                       2.71156
                       0.91920                      -2.30469                       3.05760
                       0.92118                      -2.67386                       3.39844
                       0.92202                      -3.04826                       3.73474
                       0.92158                      -3.42680                       4.06743
                       0.91965                      -3.80916                       4.39674
                       0.91571                      -4.19544                       4.72257
                       0.90947                      -4.58529                       5.04512
                       0.90068                      -4.97850                       5.36454
                       0.88914                      -5.37494                       5.68087
                       0.87501                      -5.77417                       5.99446
                       0.85819                      -6.17615                       6.30529
                       0.83820                      -6.58119                       6.61297
                       0.81492                      -6.98927                       6.91744
                       0.78826                      -7.40034                       7.21865
                       0.75818                      -7.81434                       7.51656
                       0.72508                      -8.23086                       7.81156
                       0.68897                      -8.64983                       8.10369
                       0.64953                      -9.07141                       8.39264
                       0.60688                      -9.49539                       8.67857
                       0.56123                      -9.92150                       8.96175
                       0.51287                     -10.34935                       9.24252
                       0.46241                     -10.77843                       9.52152
                       0.41008                     -11.20846                       9.79907
                       0.35609                     -11.63908                      10.07551
                       0.30106                     -12.06968                      10.35159
                       0.24572                     -12.49958                      10.62816
                       0.19096                     -12.92797                      10.90624
                       0.16376                     -13.14182                      11.04565
        </DataArray>
        <DataArray type="Float32" Name="RotationalAcceleration" NumberOfComponents="3" format="ascii">
                       0.01814                       0.12862                      -0.06250
                      -0.00200                       0.12827                      -0.06275
                      -0.03908                       0.12809                      -0.06282
                      -0.07137                       0.12875                      -0.06222
                      -0.09924                       0.13022                      -0.06094
                      -0.12344                       0.13248                      -0.05903
                      -0.14463                       0.13550                      -0.05649
                      -0.16315                       0.13943                      -0.05318
                      -0.17970                       0.14422                      -0.04916
                      -0.19497                       0.14965                      -0.04459
                      -0.20931                       0.15566                      -0.03955
                      -0.22301                       0.16217                      -0.03408
                      -0.23630                       0.16912                      -0.02824
                      -0.24938                       0.17652                      -0.02202
                      -0.26241                       0.18429                      -0.01549
                      -0.27545                       0.19232                      -0.00873
                      -0.28850                       0.20056                      -0.00180
                      -0.30152                       0.20894                       0.00526
                      -0.31445                       0.21739                       0.01238
                      -0.32712                       0.22582                       0.01949
                      -0.33930                       0.23410                       0.02647
                      -0.35082                       0.24211                       0.03322
                      -0.36147                       0.24974                       0.03966
                      -0.37099                       0.25687                       0.04566
                      -0.37914                       0.26336                       0.05112
                      -0.38538                       0.26892                       0.05580
                      -0.38928                       0.27332                       0.05948
                      -0.39074                       0.27645                       0.06210
                      -0.38947                       0.27812                       0.06346
                      -0.38516                       0.27810                       0.06340
                      -0.37775                       0.27633                       0.06185
                      -0.37306                       0.27487                       0.06058
        </DataArray>
        <DataArray type="Float32" Name="OrientationX" NumberOfComponents="3" format="ascii">
                       0.97710                       0.16151                       0.13853
                       0.97710                       0.16135                       0.13870
                       0.97711                       0.16094                       0.13914
                       0.97712                       0.16037                       0.13973
                       0.97713                       0.15962                       0.14052
                       0.97714                       0.15868                       0.14152
                       0.97715                       0.15753                       0.14273
                       0.98179                       0.13977                       0.12866
                       0.98526                       0.12442                       0.11740
                       0.98793                       0.11079                       0.10824
                       0.98996                       0.09879                       0.10107
                       0.99157                       0.08781                       0.09531
                       0.99281                       0.07786                       0.09094
                       0.99379                       0.06856                       0.08763
                       0.99456                       0.05982                       0.08523
                       0.99517                       0.05156                       0.08358
                       0.99562                       0.04381                       0.08264
                       0.99596                       0.03634                       0.08215
                       0.99620                       0.02920                       0.08207
                       0.99636                       0.02230                       0.08224
                       0.99646                       0.01570                       0.08260
                       0.99651                       0.00932                       0.08297
                       0.99651                       0.00335                       0.08342
                       0.99649                      -0.00242                       0.08366
                       0.99647                      -0.00793                       0.08362
                       0.99644                      -0.01294                       0.08331
                       0.99644                      -0.01747                       0.08250
                       0.99648                      -0.02162                       0.08103
                       0.99656                      -0.02518                       0.07896
                       0.99670                      -0.02821                       0.07607
                       0.99691                      -0.03068                       0.07233
                       0.99697                      -0.03011                       0.07174
        </DataArray>
        <DataArray type="Float32" Name="OrientationY" NumberOfComponents="3" format="ascii">
                       0.21250                      -0.70742                      -0.67409
                       0.21251                      -0.70752                      -0.67398
                       0.21251                      -0.70772                      -0.67378
                       0.21251                      -0.70788                      -0.67361
                       0.21251                      -0.70802                      -0.67346
                       0.21251                      -0.70814                      -0.67333
                       0.21251                      -0.70826                      -0.67321
                       0.18995                      -0.71179                      -0.67622
                       0.17106                      -0.71442                      -0.67848
                       0.15488                      -0.71644                      -0.68024
                       0.14124                      -0.71797                      -0.68159
                       0.12931                      -0.71917                      -0.68269
                       0.11909                      -0.72010                      -0.68357
                       0.11007                      -0.72084                      -0.68430
                       0.10209                      -0.72143                      -0.68492
                       0.09497                      -0.72190                      -0.68545
                       0.08871                      -0.72228                      -0.68589
                       0.08297                      -0.72258                      -0.68629
                       0.07776                      -0.72282                      -0.68665
                       0.07289                      -0.72302                      -0.68697
                       0.06836                      -0.72317                      -0.68728
                       0.06401                      -0.72329                      -0.68757
                       0.06001                      -0.72337                      -0.68784
                       0.05601                      -0.72343                      -0.68812
                       0.05201                      -0.72345                      -0.68841
                       0.04819                      -0.72345                      -0.68870
                       0.04436                      -0.72341                      -0.68899
                       0.04036                      -0.72334                      -0.68931
                       0.03636                      -0.72324                      -0.68964
                       0.03219                      -0.72310                      -0.68999
                       0.02784                      -0.72293                      -0.69036
                       0.02784                      -0.72291                      -0.69038
        </DataArray>
        <DataArray type="Float32" Name="OrientationZ" NumberOfComponents="3" format="ascii">
                      -0.01087                       0.68809                      -0.72554
                      -0.01061                       0.68802                      -0.72561
                      -0.00997                       0.68792                      -0.72571
                      -0.00911                       0.68789                      -0.72576
                      -0.00801                       0.68792                      -0.72575
                      -0.00663                       0.68801                      -0.72567
                      -0.00496                       0.68816                      -0.72555
                      -0.00293                       0.68835                      -0.72537
                      -0.00054                       0.68856                      -0.72518
                       0.00218                       0.68879                      -0.72496
                       0.00523                       0.68903                      -0.72472
                       0.00860                       0.68926                      -0.72446
                       0.01227                       0.68949                      -0.72419
                       0.01625                       0.68970                      -0.72391
                       0.02052                       0.68990                      -0.72362
                       0.02500                       0.69007                      -0.72331
                       0.02964                       0.69022                      -0.72300
                       0.03442                       0.69033                      -0.72267
                       0.03927                       0.69042                      -0.72235
                       0.04414                       0.69047                      -0.72201
                       0.04894                       0.69049                      -0.72168
                       0.05360                       0.69048                      -0.72136
                       0.05804                       0.69045                      -0.72105
                       0.06219                       0.69040                      -0.72075
                       0.06596                       0.69033                      -0.72048
                       0.06918                       0.69026                      -0.72025
                       0.07172                       0.69020                      -0.72006
                       0.07352                       0.69015                      -0.71992
                       0.07447                       0.69014                      -0.71983
                       0.07447                       0.69017                      -0.71981
                       0.07347                       0.69024                      -0.71984
                       0.07265                       0.69029                      -0.71988
        </DataArray>
      </PointData>
      <Lines>
        <DataArray type="Int32" Name="connectivity" format="ascii">
      0      1
      1      2
      2      3
      3      4
      4      5
      5      6
      6      7
      7      8
      8      9
      9     10
     10     11
     11     12
     12     13
     13     14
     14     15
     15     16
     16     17
     17     18
     18     19
     19     20
     20     21
     21     22
     22     23
     23     24
     24     25
     25     26
     26     27
     27     28
     28     29
     29     30
     30     31
        </DataArray>
        <DataArray type="Int32" Name="offsets" format="ascii">
      2
      4
      6
      8
     10
     12
     14
     16
     18
     20
     22
     24
     26
     28
     30
     32
     34
     36
     38
     40
     42
     44
     46
     48
     50
     52
     54
     56
     58
     60
     62
        </DataArray>
      </Lines>
    </Piece>
  </PolyData>
</VTKFile>
