<?xml version="1.0"?>
<VTKFile type="PolyData" version="0.1" byte_order="LittleEndian">
  <PolyData>
    <Piece NumberOfPoints="     32" NumberOfVerts="  0" NumberOfLines="     31"
           NumberOfStrips="  0" NumberOfPolys="      0">
      <Points>
        <DataArray type="Float32" NumberOfComponents="3" format="ascii">
                      -3.70954                      -0.90364                     -20.15211
                      -3.71558                      -1.03267                     -20.22837
                      -3.72760                      -1.29072                     -20.38090
                      -3.73947                      -1.54875                     -20.53347
                      -3.75116                      -1.80676                     -20.68611
                      -3.76261                      -2.06473                     -20.83880
                      -3.77378                      -2.32267                     -20.99158
                      -3.78465                      -2.58058                     -21.14444
                      -3.79518                      -2.83845                     -21.29739
                      -3.80528                      -3.09628                     -21.45043
                      -3.81489                      -3.35406                     -21.60359
                      -3.82395                      -3.61180                     -21.75685
                      -3.83239                      -3.86948                     -21.91024
                      -3.84025                      -4.12712                     -22.06373
                      -3.84750                      -4.38471                     -22.21733
                      -3.85402                      -4.64225                     -22.37105
                      -3.85976                      -4.89974                     -22.52490
                      -3.86471                      -5.15717                     -22.67887
                      -3.86884                      -5.41454                     -22.83295
                      -3.87225                      -5.67186                     -22.98714
                      -3.87493                      -5.92913                     -23.14143
                      -3.87681                      -6.18634                     -23.29583
                      -3.87791                      -6.44350                     -23.45032
                      -3.87829                      -6.70061                     -23.60490
                      -3.87801                      -6.95768                     -23.75955
                      -3.87723                      -7.21471                     -23.91426
                      -3.87600                      -7.47171                     -24.06902
                      -3.87438                      -7.72868                     -24.22382
                      -3.87250                      -7.98563                     -24.37864
                      -3.87055                      -8.24258                     -24.53347
                      -3.86873                      -8.49954                     -24.68829
                      -3.86786                      -8.62802                     -24.76570
        </DataArray>
      </Points>
      <PointData>
        <DataArray type="Float32" Name="Force" NumberOfComponents="3" format="ascii">
                   -6108.42231                   10717.88542                   -5347.75452
                   12470.67607                  -28440.75018                   22527.80716
                   10565.34356                  -42347.23695                   -4545.48722
                   29154.53021                  -62955.80182                   63807.39057
                  -14704.06527                   23935.84094                  -47585.62611
                  -13117.06108                   53463.05916                  -16798.82427
                  -21883.86892                   60146.43467                   -3065.10301
                   13661.44316                   22962.18048                   39303.18591
                    1117.46009                   29524.27435                   13800.01575
                    6461.18564                    5979.28156                   27959.84291
                    1471.20128                   11624.23589                    4518.85525
                    2839.99337                    9770.57199                   10060.11100
                    2882.47787                   10254.83145                    8371.64631
                    3617.64930                    9798.49955                    8625.58058
                    3789.08680                    9808.18963                    7931.17396
                    4512.53972                    9744.74273                    7782.07590
                    5204.34650                    9641.74843                    7656.32845
                    5606.39453                    9441.75579                    7304.31035
                    6231.05516                    9250.04466                    6804.43593
                    6832.61742                    9330.69655                    6781.78258
                    7483.22848                    9143.08496                    6496.01612
                    8027.53132                    9095.08100                    6106.50982
                    8529.63245                    8863.15262                    6063.26392
                    8976.43124                    8603.48441                    5517.61979
                    9212.62943                    8482.59850                    5433.93491
                    9580.63408                    8508.34833                    5254.28780
                    9431.53858                    7639.27416                    4771.66618
                    9165.49288                    8757.00650                    5337.60643
                    8064.62228                    3687.03925                    2541.00419
                    5198.21109                   20752.31849                   12552.35574
                     741.13056                  -46127.03539                  -25104.74226
                     369.18983                  267629.02917                  160962.26974
        </DataArray>
        <DataArray type="Float32" Name="Moment" NumberOfComponents="3" format="ascii">
                     205.86221                     -69.42859                     190.44748
                    1333.98255                     325.40407                    -810.39175
                    2371.25461                     390.20998                    -562.80188
                   -1184.97082                    -835.74374                     -98.80506
                   -3444.02643                       8.72799                    1054.33125
                   -3996.28159                    -871.98939                    2484.68252
                   -6366.08445                   -2621.06278                    1916.56393
                   -4870.73950                    -594.98257                    1740.91931
                   -4510.75648                   -1059.85461                    2174.57874
                   -1880.82693                    -842.21436                     447.56264
                   -2258.20460                    -298.73032                     811.27381
                   -1122.16919                    -339.16691                     453.17756
                   -1594.63527                    -316.03437                     538.31740
                   -1329.60476                    -280.17208                     469.30421
                   -1340.69914                    -275.58549                     446.89214
                   -1246.55796                    -235.28926                     406.95940
                   -1205.73937                    -226.12877                     401.48305
                   -1142.62381                    -226.48903                     361.71340
                   -1062.96760                    -198.49039                     328.82084
                   -1020.76369                    -193.85599                     311.40487
                    -970.28814                    -175.42238                     288.73222
                    -900.19216                    -164.48628                     270.49707
                    -846.06292                    -157.54639                     242.86730
                    -776.57319                    -143.00800                     225.69221
                    -723.35751                    -139.99941                     196.60396
                    -680.51579                    -120.39094                     187.69796
                    -588.70868                    -115.30858                     157.02058
                    -598.75723                    -104.67827                     156.55718
                    -325.79266                     -70.20987                      87.56223
                   -1141.66593                    -194.53309                     287.56095
                    2481.46358                     404.95753                    -649.89667
                  -15439.14919                   -2509.56407                    3973.88727
        </DataArray>
        <DataArray type="Float32" Name="TranslationalVelocity" NumberOfComponents="3" format="ascii">
                       0.75265                       0.55649                      -0.76308
                       0.73683                       0.64406                      -0.90999
                       0.70524                       0.81922                      -1.20384
                       0.67373                       0.99444                      -1.49772
                       0.64234                       1.16974                      -1.79163
                       0.61109                       1.34512                      -2.08558
                       0.58002                       1.52059                      -2.37957
                       0.54913                       1.69615                      -2.67358
                       0.51845                       1.87181                      -2.96764
                       0.48804                       2.04758                      -3.26174
                       0.45792                       2.22346                      -3.55589
                       0.42815                       2.39946                      -3.85008
                       0.39875                       2.57557                      -4.14433
                       0.36971                       2.75179                      -4.43863
                       0.34104                       2.92811                      -4.73298
                       0.31281                       3.10455                      -5.02739
                       0.28506                       3.28111                      -5.32185
                       0.25780                       3.45778                      -5.61636
                       0.23104                       3.63457                      -5.91092
                       0.20472                       3.81145                      -6.20553
                       0.17884                       3.98843                      -6.50018
                       0.15346                       4.16550                      -6.79487
                       0.12855                       4.34267                      -7.08960
                       0.10408                       4.51992                      -7.38435
                       0.08001                       4.69724                      -7.67914
                       0.05626                       4.87461                      -7.97394
                       0.03278                       5.05203                      -8.26875
                       0.00954                       5.22948                      -8.56358
                      -0.01355                       5.40696                      -8.85842
                      -0.03658                       5.58444                      -9.15325
                      -0.05970                       5.76191                      -9.44808
                      -0.07129                       5.85064                      -9.59549
        </DataArray>
        <DataArray type="Float32" Name="RotationalVelocity" NumberOfComponents="3" format="ascii">
                       1.14108                       0.05387                      -0.09087
                       1.14116                       0.05381                      -0.09077
                       1.14133                       0.05366                      -0.09053
                       1.14150                       0.05348                      -0.09024
                       1.14169                       0.05326                      -0.08988
                       1.14189                       0.05300                      -0.08945
                       1.14211                       0.05269                      -0.08894
                       1.14235                       0.05232                      -0.08834
                       1.14259                       0.05189                      -0.08763
                       1.14285                       0.05141                      -0.08683
                       1.14311                       0.05087                      -0.08595
                       1.14338                       0.05028                      -0.08498
                       1.14365                       0.04965                      -0.08392
                       1.14393                       0.04896                      -0.08278
                       1.14422                       0.04823                      -0.08157
                       1.14451                       0.04746                      -0.08029
                       1.14479                       0.04667                      -0.07898
                       1.14508                       0.04586                      -0.07762
                       1.14536                       0.04503                      -0.07625
                       1.14563                       0.04420                      -0.07487
                       1.14589                       0.04339                      -0.07351
                       1.14614                       0.04260                      -0.07219
                       1.14636                       0.04184                      -0.07093
                       1.14657                       0.04114                      -0.06976
                       1.14675                       0.04050                      -0.06869
                       1.14690                       0.03996                      -0.06778
                       1.14701                       0.03953                      -0.06706
                       1.14709                       0.03922                      -0.06656
                       1.14712                       0.03906                      -0.06628
                       1.14711                       0.03906                      -0.06629
                       1.14706                       0.03923                      -0.06657
                       1.14702                       0.03937                      -0.06681
        </DataArray>
        <DataArray type="Float32" Name="TranslationalAcceleration" NumberOfComponents="3" format="ascii">
                      -0.38087                       1.11164                       0.59960
                      -0.38545                       1.27228                       0.71505
                      -0.39482                       1.59346                       0.94621
                      -0.40464                       1.91440                       1.17801
                      -0.41470                       2.23516                       1.41032
                      -0.42479                       2.55580                       1.64304
                      -0.43466                       2.87638                       1.87607
                      -0.44415                       3.19694                       2.10932
                      -0.45312                       3.51749                       2.34273
                      -0.46129                       3.83807                       2.57628
                      -0.46839                       4.15870                       2.80990
                      -0.47419                       4.47939                       3.04356
                      -0.47846                       4.80017                       3.27723
                      -0.48120                       5.12103                       3.51089
                      -0.48231                       5.44197                       3.74453
                      -0.48140                       5.76303                       3.97815
                      -0.47833                       6.08420                       4.21173
                      -0.47295                       6.40549                       4.44528
                      -0.46521                       6.72690                       4.67881
                      -0.45533                       7.04843                       4.91232
                      -0.44332                       7.37007                       5.14583
                      -0.42891                       7.69184                       5.37933
                      -0.41218                       8.01373                       5.61284
                      -0.39327                       8.33575                       5.84637
                      -0.37238                       8.65788                       6.07990
                      -0.34994                       8.98009                       6.31345
                      -0.32615                       9.30239                       6.54700
                      -0.30113                       9.62476                       6.78055
                      -0.27535                       9.94720                       7.01408
                      -0.24930                      10.26966                       7.24757
                      -0.22365                      10.59214                       7.48098
                      -0.21094                      10.75338                       7.59767
        </DataArray>
        <DataArray type="Float32" Name="RotationalAcceleration" NumberOfComponents="3" format="ascii">
                      -0.11396                      -0.03147                      -0.05333
                      -0.11511                      -0.03108                      -0.05419
                      -0.11717                      -0.03049                      -0.05568
                      -0.11886                      -0.03025                      -0.05676
                      -0.12017                      -0.03040                      -0.05738
                      -0.12113                      -0.03096                      -0.05752
                      -0.12176                      -0.03197                      -0.05715
                      -0.12208                      -0.03348                      -0.05621
                      -0.12214                      -0.03551                      -0.05467
                      -0.12202                      -0.03800                      -0.05260
                      -0.12175                      -0.04095                      -0.05001
                      -0.12135                      -0.04434                      -0.04692
                      -0.12086                      -0.04814                      -0.04333
                      -0.12028                      -0.05239                      -0.03925
                      -0.11965                      -0.05701                      -0.03471
                      -0.11898                      -0.06193                      -0.02983
                      -0.11829                      -0.06710                      -0.02466
                      -0.11760                      -0.07245                      -0.01926
                      -0.11691                      -0.07793                      -0.01370
                      -0.11623                      -0.08347                      -0.00804
                      -0.11559                      -0.08895                      -0.00242
                      -0.11497                      -0.09430                       0.00307
                      -0.11440                      -0.09940                       0.00833
                      -0.11387                      -0.10419                       0.01327
                      -0.11339                      -0.10855                       0.01778
                      -0.11296                      -0.11229                       0.02166
                      -0.11260                      -0.11524                       0.02473
                      -0.11230                      -0.11735                       0.02693
                      -0.11205                      -0.11849                       0.02812
                      -0.11186                      -0.11852                       0.02818
                      -0.11171                      -0.11741                       0.02704
                      -0.11165                      -0.11649                       0.02609
        </DataArray>
        <DataArray type="Float32" Name="OrientationX" NumberOfComponents="3" format="ascii">
                       0.95660                       0.11362                      -0.26835
                       0.95661                       0.11379                      -0.26824
                       0.95662                       0.11419                      -0.26801
                       0.95665                       0.11469                      -0.26772
                       0.95668                       0.11530                      -0.26736
                       0.95671                       0.11603                      -0.26692
                       0.95675                       0.11689                      -0.26641
                       0.96318                       0.10643                      -0.24689
                       0.96817                       0.09801                      -0.23031
                       0.97216                       0.09110                      -0.21589
                       0.97532                       0.08563                      -0.20352
                       0.97794                       0.08117                      -0.19248
                       0.98007                       0.07772                      -0.18280
                       0.98188                       0.07502                      -0.17404
                       0.98341                       0.07297                      -0.16608
                       0.98472                       0.07145                      -0.15878
                       0.98584                       0.07044                      -0.15217
                       0.98683                       0.06976                      -0.14596
                       0.98769                       0.06937                      -0.14017
                       0.98847                       0.06916                      -0.13467
                       0.98917                       0.06910                      -0.12948
                       0.98982                       0.06905                      -0.12448
                       0.99039                       0.06908                      -0.11983
                       0.99094                       0.06896                      -0.11526
                       0.99147                       0.06867                      -0.11079
                       0.99196                       0.06821                      -0.10663
                       0.99243                       0.06743                      -0.10265
                       0.99291                       0.06621                      -0.09873
                       0.99337                       0.06460                      -0.09505
                       0.99385                       0.06245                      -0.09149
                       0.99432                       0.05975                      -0.08805
                       0.99433                       0.05936                      -0.08828
        </DataArray>
        <DataArray type="Float32" Name="OrientationY" NumberOfComponents="3" format="ascii">
                       0.28859                      -0.49711                       0.81829
                       0.28859                      -0.49712                       0.81828
                       0.28859                      -0.49713                       0.81828
                       0.28859                      -0.49714                       0.81827
                       0.28859                      -0.49715                       0.81827
                       0.28859                      -0.49715                       0.81826
                       0.28859                      -0.49715                       0.81826
                       0.26647                      -0.49972                       0.82418
                       0.24793                      -0.50167                       0.82877
                       0.23202                      -0.50322                       0.83243
                       0.21859                      -0.50443                       0.83533
                       0.20683                      -0.50543                       0.83771
                       0.19675                      -0.50624                       0.83965
                       0.18785                      -0.50693                       0.84127
                       0.17996                      -0.50752                       0.84264
                       0.17292                      -0.50803                       0.84380
                       0.16673                      -0.50847                       0.84478
                       0.16105                      -0.50887                       0.84564
                       0.15589                      -0.50924                       0.84639
                       0.15106                      -0.50957                       0.84706
                       0.14657                      -0.50988                       0.84766
                       0.14226                      -0.51018                       0.84822
                       0.13829                      -0.51046                       0.84871
                       0.13431                      -0.51074                       0.84918
                       0.13034                      -0.51101                       0.84963
                       0.12653                      -0.51128                       0.85005
                       0.12272                      -0.51153                       0.85045
                       0.11874                      -0.51180                       0.85086
                       0.11475                      -0.51206                       0.85125
                       0.11059                      -0.51233                       0.85164
                       0.10625                      -0.51260                       0.85203
                       0.10625                      -0.51260                       0.85203
        </DataArray>
        <DataArray type="Float32" Name="OrientationZ" NumberOfComponents="3" format="ascii">
                      -0.04042                      -0.86022                      -0.50833
                      -0.04023                      -0.86019                      -0.50839
                      -0.03979                      -0.86013                      -0.50852
                      -0.03925                      -0.86006                      -0.50868
                      -0.03857                      -0.85997                      -0.50888
                      -0.03776                      -0.85987                      -0.50911
                      -0.03680                      -0.85975                      -0.50938
                      -0.03565                      -0.85962                      -0.50968
                      -0.03432                      -0.85949                      -0.51000
                      -0.03281                      -0.85935                      -0.51034
                      -0.03113                      -0.85920                      -0.51070
                      -0.02929                      -0.85904                      -0.51106
                      -0.02729                      -0.85888                      -0.51144
                      -0.02512                      -0.85872                      -0.51183
                      -0.02280                      -0.85855                      -0.51223
                      -0.02038                      -0.85837                      -0.51262
                      -0.01787                      -0.85819                      -0.51302
                      -0.01529                      -0.85801                      -0.51340
                      -0.01267                      -0.85783                      -0.51378
                      -0.01004                      -0.85764                      -0.51415
                      -0.00745                      -0.85746                      -0.51449
                      -0.00494                      -0.85729                      -0.51481
                      -0.00254                      -0.85712                      -0.51511
                      -0.00030                      -0.85697                      -0.51537
                       0.00173                      -0.85683                      -0.51560
                       0.00347                      -0.85671                      -0.51579
                       0.00483                      -0.85661                      -0.51594
                       0.00581                      -0.85655                      -0.51603
                       0.00632                      -0.85651                      -0.51608
                       0.00632                      -0.85651                      -0.51608
                       0.00577                      -0.85655                      -0.51603
                       0.00532                      -0.85658                      -0.51599
        </DataArray>
      </PointData>
      <Lines>
        <DataArray type="Int32" Name="connectivity" format="ascii">
      0      1
      1      2
      2      3
      3      4
      4      5
      5      6
      6      7
      7      8
      8      9
      9     10
     10     11
     11     12
     12     13
     13     14
     14     15
     15     16
     16     17
     17     18
     18     19
     19     20
     20     21
     21     22
     22     23
     23     24
     24     25
     25     26
     26     27
     27     28
     28     29
     29     30
     30     31
        </DataArray>
        <DataArray type="Int32" Name="offsets" format="ascii">
      2
      4
      6
      8
     10
     12
     14
     16
     18
     20
     22
     24
     26
     28
     30
     32
     34
     36
     38
     40
     42
     44
     46
     48
     50
     52
     54
     56
     58
     60
     62
        </DataArray>
      </Lines>
    </Piece>
  </PolyData>
</VTKFile>
