<?xml version="1.0"?>
<VTKFile type="PolyData" version="0.1" byte_order="LittleEndian">
  <PolyData>
    <Piece NumberOfPoints="     32" NumberOfVerts="  0" NumberOfLines="     31"
           NumberOfStrips="  0" NumberOfPolys="      0">
      <Points>
        <DataArray type="Float32" NumberOfComponents="3" format="ascii">
                      -4.33831                       0.93380                     -20.11852
                      -4.33999                       1.07702                     -20.16307
                      -4.34328                       1.36345                     -20.25220
                      -4.34645                       1.64988                     -20.34137
                      -4.34939                       1.93629                     -20.43058
                      -4.35205                       2.22271                     -20.51978
                      -4.35430                       2.50914                     -20.60895
                      -4.35614                       2.79559                     -20.69809
                      -4.35749                       3.08205                     -20.78719
                      -4.35820                       3.36853                     -20.87624
                      -4.35816                       3.65502                     -20.96523
                      -4.35728                       3.94154                     -21.05415
                      -4.35545                       4.22807                     -21.14301
                      -4.35272                       4.51461                     -21.23182
                      -4.34903                       4.80116                     -21.32057
                      -4.34419                       5.08771                     -21.40926
                      -4.33814                       5.37426                     -21.49789
                      -4.33084                       5.66079                     -21.58647
                      -4.32224                       5.94730                     -21.67499
                      -4.31249                       6.23379                     -21.76348
                      -4.30160                       6.52025                     -21.85192
                      -4.28944                       6.80667                     -21.94032
                      -4.27605                       7.09305                     -22.02869
                      -4.26150                       7.37938                     -22.11703
                      -4.24592                       7.66566                     -22.20534
                      -4.22954                       7.95191                     -22.29363
                      -4.21244                       8.23812                     -22.38190
                      -4.19471                       8.52429                     -22.47016
                      -4.17658                       8.81045                     -22.55841
                      -4.15833                       9.09660                     -22.64665
                      -4.14029                       9.38276                     -22.73488
                      -4.13134                       9.52585                     -22.77899
        </DataArray>
      </Points>
      <PointData>
        <DataArray type="Float32" Name="Force" NumberOfComponents="3" format="ascii">
                   -5171.93607                    -267.01619                   20708.87765
                    9247.03933                    4514.43848                  -28580.55968
                    6578.30998                   34167.95728                  -20896.47563
                   16536.98266                   -2115.44857                  -82870.63189
                  -14725.09006                   25071.16272                   59029.19810
                  -17767.56979                  -18990.75119                   60537.93969
                  -29108.49518                  -34424.79121                   56282.16337
                     575.68496                  -43338.56374                   -3261.24091
                   -8778.56361                  -28100.30797                   18755.05954
                   -5314.08740                  -23140.00075                   -8790.31585
                   -7233.86342                   -9320.09641                   10789.62356
                   -6010.36238                  -12286.30866                    5440.86762
                   -5351.68424                  -11387.68536                    6626.14901
                   -4177.75206                  -11348.20591                    5796.05167
                   -3249.65875                  -10888.78828                    5984.99631
                   -1867.74260                  -10822.99144                    5720.55868
                    -469.90520                  -10747.25315                    5425.82659
                     786.20664                  -10438.86707                    5238.08266
                    2310.03774                  -10053.00734                    5151.93896
                    3906.95718                  -10191.24338                    4968.40809
                    5695.31787                   -9987.66461                    4768.39474
                    7413.41144                   -9803.68295                    4755.87160
                    9143.80808                   -9754.68714                    4410.71292
                   10937.31966                   -9342.75337                    4383.68881
                   12501.46976                   -9332.90640                    4195.61864
                   14238.17942                   -9365.20861                    4158.92291
                   15481.80437                   -8595.23950                    3732.44730
                   16465.69795                   -9762.46493                    4030.35297
                   16944.99217                   -4752.09259                    2176.40305
                   14880.20345                  -22048.10887                    7734.46990
                   16738.59072                   45060.04958                  -15122.59985
                  -16004.34180                 -274839.06803                   85734.17006
        </DataArray>
        <DataArray type="Float32" Name="Moment" NumberOfComponents="3" format="ascii">
                    -200.56698                     -91.48593                    -177.24527
                     819.95628                     282.07129                     699.50362
                    2849.97059                     -62.35198                     449.69543
                    -937.22329                     427.06578                    -325.01665
                   -3232.28540                   -1012.92485                    -152.48427
                   -4373.85428                   -1607.07203                   -1680.11677
                   -6909.88362                     118.59093                   -2449.78356
                   -5259.65165                   -1114.17211                    -989.34463
                   -4872.33455                   -1019.90799                   -1684.80290
                   -1993.36095                       8.99357                    -637.01523
                   -2341.21912                    -550.45232                    -451.96306
                   -1192.46056                    -305.50179                    -357.51793
                   -1653.88977                    -320.87990                    -365.91810
                   -1379.02475                    -282.89405                    -321.38578
                   -1380.09180                    -251.89806                    -307.74934
                   -1277.36156                    -233.04828                    -269.77689
                   -1230.65531                    -216.84542                    -267.00212
                   -1159.10475                    -175.24499                    -253.99751
                   -1072.56578                    -153.79097                    -226.60966
                   -1024.96837                    -130.53214                    -216.52311
                    -968.62209                    -118.37515                    -197.40142
                    -894.98083                    -102.86035                    -189.62054
                    -835.75762                     -78.51990                    -174.13963
                    -763.70016                     -69.58401                    -162.98738
                    -706.20317                     -43.15163                    -150.00855
                    -661.16855                     -43.33054                    -134.84891
                    -568.22559                     -25.31556                    -122.43190
                    -575.77272                     -23.06135                    -115.96298
                    -305.77552                     -12.56874                     -72.69366
                   -1105.32592                      -2.65162                    -217.89842
                    2443.68172                     -12.90440                     486.08388
                  -14669.28647                       2.15635                   -2956.82699
        </DataArray>
        <DataArray type="Float32" Name="TranslationalVelocity" NumberOfComponents="3" format="ascii">
                       0.98860                       0.33925                       1.46564
                       0.99267                       0.39510                       1.64504
                       1.00074                       0.50685                       2.00388
                       1.00863                       0.61870                       2.36283
                       1.01628                       0.73059                       2.72185
                       1.02359                       0.84248                       3.08090
                       1.03049                       0.95433                       3.43998
                       1.03694                       1.06611                       3.79904
                       1.04290                       1.17781                       4.15809
                       1.04820                       1.28942                       4.51710
                       1.05275                       1.40091                       4.87606
                       1.05644                       1.51229                       5.23495
                       1.05918                       1.62355                       5.59377
                       1.06101                       1.73472                       5.95251
                       1.06188                       1.84579                       6.31117
                       1.06160                       1.95677                       6.66972
                       1.06010                       2.06767                       7.02815
                       1.05734                       2.17850                       7.38645
                       1.05328                       2.28928                       7.74461
                       1.04808                       2.40004                       8.10264
                       1.04172                       2.51078                       8.46053
                       1.03409                       2.62152                       8.81827
                       1.02523                       2.73227                       9.17585
                       1.01522                       2.84305                       9.53327
                       1.00416                       2.95386                       9.89055
                       0.99230                       3.06470                      10.24771
                       0.97973                       3.17557                      10.60477
                       0.96652                       3.28647                      10.96172
                       0.95291                       3.39739                      11.31860
                       0.93918                       3.50830                      11.67545
                       0.92566                       3.61917                      12.03231
                       0.91897                       3.67460                      12.21074
        </DataArray>
        <DataArray type="Float32" Name="RotationalVelocity" NumberOfComponents="3" format="ascii">
                       1.25161                       0.06016                      -0.04734
                       1.25188                       0.06022                      -0.04713
                       1.25235                       0.06038                      -0.04663
                       1.25270                       0.06060                      -0.04595
                       1.25294                       0.06088                      -0.04507
                       1.25308                       0.06122                      -0.04396
                       1.25314                       0.06164                      -0.04262
                       1.25312                       0.06215                      -0.04098
                       1.25306                       0.06275                      -0.03904
                       1.25298                       0.06344                      -0.03683
                       1.25288                       0.06421                      -0.03435
                       1.25277                       0.06506                      -0.03161
                       1.25266                       0.06599                      -0.02862
                       1.25255                       0.06700                      -0.02537
                       1.25246                       0.06808                      -0.02188
                       1.25238                       0.06922                      -0.01823
                       1.25231                       0.07040                      -0.01443
                       1.25226                       0.07161                      -0.01053
                       1.25223                       0.07284                      -0.00656
                       1.25221                       0.07408                      -0.00257
                       1.25221                       0.07530                       0.00136
                       1.25223                       0.07649                       0.00517
                       1.25225                       0.07762                       0.00880
                       1.25228                       0.07867                       0.01220
                       1.25231                       0.07963                       0.01528
                       1.25234                       0.08046                       0.01792
                       1.25235                       0.08110                       0.02000
                       1.25235                       0.08156                       0.02148
                       1.25232                       0.08180                       0.02226
                       1.25225                       0.08180                       0.02226
                       1.25213                       0.08155                       0.02145
                       1.25206                       0.08134                       0.02078
        </DataArray>
        <DataArray type="Float32" Name="TranslationalAcceleration" NumberOfComponents="3" format="ascii">
                       0.32984                      -1.53145                       0.46936
                       0.35182                      -1.76282                       0.51686
                       0.39611                      -2.22620                       0.61022
                       0.44114                      -2.69111                       0.69972
                       0.48668                      -3.15723                       0.78597
                       0.53253                      -3.62432                       0.86942
                       0.57849                      -4.09217                       0.95044
                       0.62439                      -4.56058                       1.02952
                       0.67012                      -5.02947                       1.10678
                       0.71548                      -5.49883                       1.18217
                       0.76033                      -5.96856                       1.25585
                       0.80450                      -6.43863                       1.32791
                       0.84789                      -6.90900                       1.39843
                       0.89049                      -7.37960                       1.46762
                       0.93225                      -7.85044                       1.53551
                       0.97298                      -8.32153                       1.60197
                       1.01260                      -8.79286                       1.66703
                       1.05104                      -9.26442                       1.73072
                       1.08828                      -9.73619                       1.79311
                       1.12444                     -10.20816                       1.85439
                       1.15951                     -10.68029                       1.91462
                       1.19337                     -11.15260                       1.97374
                       1.22604                     -11.62506                       2.03187
                       1.25760                     -12.09764                       2.08914
                       1.28815                     -12.57030                       2.14574
                       1.31791                     -13.04299                       2.20189
                       1.34698                     -13.51570                       2.25771
                       1.37541                     -13.98836                       2.31336
                       1.40345                     -14.46093                       2.36909
                       1.43135                     -14.93332                       2.42518
                       1.45947                     -15.40546                       2.48194
                       1.47359                     -15.64148                       2.51048
        </DataArray>
        <DataArray type="Float32" Name="RotationalAcceleration" NumberOfComponents="3" format="ascii">
                      -0.14729                       0.03896                      -0.07030
                      -0.15486                       0.03818                      -0.07154
                      -0.16878                       0.03663                      -0.07362
                      -0.18084                       0.03505                      -0.07511
                      -0.19118                       0.03342                      -0.07596
                      -0.20011                       0.03169                      -0.07620
                      -0.20787                       0.02983                      -0.07584
                      -0.21462                       0.02782                      -0.07477
                      -0.22063                       0.02562                      -0.07303
                      -0.22615                       0.02323                      -0.07075
                      -0.23132                       0.02062                      -0.06797
                      -0.23624                       0.01781                      -0.06473
                      -0.24101                       0.01479                      -0.06108
                      -0.24568                       0.01155                      -0.05700
                      -0.25032                       0.00810                      -0.05256
                      -0.25497                       0.00451                      -0.04784
                      -0.25962                       0.00079                      -0.04290
                      -0.26425                      -0.00301                      -0.03778
                      -0.26885                      -0.00687                      -0.03254
                      -0.27335                      -0.01073                      -0.02724
                      -0.27768                      -0.01453                      -0.02199
                      -0.28176                      -0.01820                      -0.01688
                      -0.28552                      -0.02170                      -0.01198
                      -0.28887                      -0.02495                      -0.00739
                      -0.29172                      -0.02790                      -0.00320
                      -0.29388                      -0.03042                       0.00040
                      -0.29518                      -0.03239                       0.00325
                      -0.29559                      -0.03378                       0.00529
                      -0.29501                      -0.03451                       0.00638
                      -0.29333                      -0.03448                       0.00639
                      -0.29052                      -0.03368                       0.00527
                      -0.28876                      -0.03302                       0.00435
        </DataArray>
        <DataArray type="Float32" Name="OrientationX" NumberOfComponents="3" format="ascii">
                       0.98226                       0.06617                       0.17544
                       0.98227                       0.06605                       0.17547
                       0.98227                       0.06571                       0.17558
                       0.98228                       0.06517                       0.17575
                       0.98228                       0.06441                       0.17598
                       0.98229                       0.06340                       0.17630
                       0.98230                       0.06213                       0.17669
                       0.98636                       0.05385                       0.15552
                       0.98935                       0.04634                       0.13799
                       0.99161                       0.03935                       0.12314
                       0.99330                       0.03285                       0.11083
                       0.99461                       0.02659                       0.10024
                       0.99560                       0.02059                       0.09137
                       0.99638                       0.01468                       0.08374
                       0.99698                       0.00884                       0.07717
                       0.99744                       0.00308                       0.07148
                       0.99777                      -0.00256                       0.06667
                       0.99802                      -0.00815                       0.06238
                       0.99819                      -0.01366                       0.05861
                       0.99829                      -0.01909                       0.05518
                       0.99835                      -0.02435                       0.05206
                       0.99836                      -0.02945                       0.04907
                       0.99834                      -0.03426                       0.04636
                       0.99829                      -0.03884                       0.04358
                       0.99824                      -0.04311                       0.04070
                       0.99818                      -0.04688                       0.03785
                       0.99814                      -0.05009                       0.03482
                       0.99811                      -0.05275                       0.03144
                       0.99811                      -0.05472                       0.02785
                       0.99815                      -0.05596                       0.02385
                       0.99822                      -0.05644                       0.01943
                       0.99826                      -0.05577                       0.01922
        </DataArray>
        <DataArray type="Float32" Name="OrientationY" NumberOfComponents="3" format="ascii">
                       0.18716                      -0.28965                      -0.93865
                       0.18716                      -0.28979                      -0.93861
                       0.18716                      -0.29003                      -0.93854
                       0.18717                      -0.29024                      -0.93847
                       0.18717                      -0.29042                      -0.93841
                       0.18717                      -0.29058                      -0.93837
                       0.18717                      -0.29072                      -0.93832
                       0.16449                      -0.29220                      -0.94211
                       0.14552                      -0.29328                      -0.94489
                       0.12927                      -0.29410                      -0.94699
                       0.11559                      -0.29470                      -0.94857
                       0.10362                      -0.29516                      -0.94981
                       0.09337                      -0.29550                      -0.95077
                       0.08433                      -0.29575                      -0.95154
                       0.07633                      -0.29594                      -0.95215
                       0.06919                      -0.29608                      -0.95265
                       0.06292                      -0.29617                      -0.95306
                       0.05717                      -0.29623                      -0.95340
                       0.05194                      -0.29627                      -0.95369
                       0.04706                      -0.29627                      -0.95394
                       0.04253                      -0.29626                      -0.95416
                       0.03817                      -0.29623                      -0.95435
                       0.03416                      -0.29617                      -0.95452
                       0.03016                      -0.29609                      -0.95468
                       0.02615                      -0.29598                      -0.95484
                       0.02231                      -0.29585                      -0.95497
                       0.01848                      -0.29570                      -0.95510
                       0.01448                      -0.29550                      -0.95523
                       0.01047                      -0.29528                      -0.95535
                       0.00629                      -0.29501                      -0.95547
                       0.00194                      -0.29471                      -0.95558
                       0.00194                      -0.29468                      -0.95559
        </DataArray>
        <DataArray type="Float32" Name="OrientationZ" NumberOfComponents="3" format="ascii">
                      -0.01129                       0.95484                      -0.29690
                      -0.01115                       0.95481                      -0.29701
                      -0.01075                       0.95476                      -0.29719
                      -0.01015                       0.95473                      -0.29730
                      -0.00933                       0.95473                      -0.29733
                      -0.00826                       0.95475                      -0.29730
                      -0.00693                       0.95479                      -0.29721
                      -0.00529                       0.95484                      -0.29707
                      -0.00332                       0.95490                      -0.29690
                      -0.00105                       0.95496                      -0.29672
                       0.00150                       0.95502                      -0.29652
                       0.00433                       0.95508                      -0.29632
                       0.00743                       0.95512                      -0.29612
                       0.01080                       0.95515                      -0.29592
                       0.01442                       0.95517                      -0.29572
                       0.01823                       0.95516                      -0.29553
                       0.02218                       0.95513                      -0.29535
                       0.02625                       0.95508                      -0.29518
                       0.03039                       0.95501                      -0.29502
                       0.03455                       0.95491                      -0.29487
                       0.03866                       0.95480                      -0.29474
                       0.04264                       0.95466                      -0.29462
                       0.04644                       0.95452                      -0.29451
                       0.04998                       0.95437                      -0.29442
                       0.05321                       0.95422                      -0.29434
                       0.05597                       0.95408                      -0.29427
                       0.05814                       0.95397                      -0.29422
                       0.05968                       0.95388                      -0.29418
                       0.06051                       0.95384                      -0.29415
                       0.06051                       0.95385                      -0.29411
                       0.05966                       0.95392                      -0.29408
                       0.05896                       0.95397                      -0.29406
        </DataArray>
      </PointData>
      <Lines>
        <DataArray type="Int32" Name="connectivity" format="ascii">
      0      1
      1      2
      2      3
      3      4
      4      5
      5      6
      6      7
      7      8
      8      9
      9     10
     10     11
     11     12
     12     13
     13     14
     14     15
     15     16
     16     17
     17     18
     18     19
     19     20
     20     21
     21     22
     22     23
     23     24
     24     25
     25     26
     26     27
     27     28
     28     29
     29     30
     30     31
        </DataArray>
        <DataArray type="Int32" Name="offsets" format="ascii">
      2
      4
      6
      8
     10
     12
     14
     16
     18
     20
     22
     24
     26
     28
     30
     32
     34
     36
     38
     40
     42
     44
     46
     48
     50
     52
     54
     56
     58
     60
     62
        </DataArray>
      </Lines>
    </Piece>
  </PolyData>
</VTKFile>
