<?xml version="1.0"?>
<VTKFile type="PolyData" version="0.1" byte_order="LittleEndian">
  <PolyData>
    <Piece NumberOfPoints="     32" NumberOfVerts="  0" NumberOfLines="     31"
           NumberOfStrips="  0" NumberOfPolys="      0">
      <Points>
        <DataArray type="Float32" NumberOfComponents="3" format="ascii">
                      -3.86743                      -0.99181                     -19.98752
                      -3.87046                      -1.13494                     -20.03230
                      -3.87648                      -1.42119                     -20.12188
                      -3.88238                      -1.70743                     -20.21151
                      -3.88811                      -1.99365                     -20.30120
                      -3.89363                      -2.27985                     -20.39096
                      -3.89889                      -2.56603                     -20.48081
                      -3.90388                      -2.85219                     -20.57074
                      -3.90856                      -3.13833                     -20.66076
                      -3.91284                      -3.42445                     -20.75087
                      -3.91667                      -3.71053                     -20.84110
                      -3.91998                      -3.99659                     -20.93143
                      -3.92273                      -4.28261                     -21.02189
                      -3.92493                      -4.56861                     -21.11245
                      -3.92656                      -4.85458                     -21.20311
                      -3.92750                      -5.14051                     -21.29390
                      -3.92773                      -5.42640                     -21.38481
                      -3.92722                      -5.71226                     -21.47584
                      -3.92594                      -5.99807                     -21.56699
                      -3.92399                      -6.28385                     -21.65823
                      -3.92136                      -6.56959                     -21.74958
                      -3.91799                      -6.85530                     -21.84104
                      -3.91389                      -7.14096                     -21.93259
                      -3.90911                      -7.42658                     -22.02422
                      -3.90372                      -7.71216                     -22.11594
                      -3.89786                      -7.99772                     -22.20771
                      -3.89158                      -8.28326                     -22.29953
                      -3.88493                      -8.56877                     -22.39139
                      -3.87805                      -8.85427                     -22.48328
                      -3.87109                      -9.13976                     -22.57517
                      -3.86427                      -9.42527                     -22.66704
                      -3.86089                      -9.56802                     -22.71298
        </DataArray>
      </Points>
      <PointData>
        <DataArray type="Float32" Name="Force" NumberOfComponents="3" format="ascii">
                   -6097.46114                    8871.65097                   -7203.00066
                   12519.48810                  -22206.31072                   28649.23282
                   11106.55976                  -41625.65734                    5768.29628
                   28743.12080                  -45465.65640                   75851.43453
                  -14362.70304                   11913.46330                  -50632.10556
                  -13678.98789                   46800.07875                  -27477.91552
                  -22596.17735                   55792.02495                  -15890.99532
                   11859.12546                   30478.90100                   32788.14040
                    -339.07874                   30744.59116                    7012.29251
                    4851.16854                   11753.57541                   25553.17771
                     103.30583                   11786.29852                    2160.94140
                    1289.01043                   11255.31493                    7782.42769
                    1264.58989                   11307.29658                    6064.53238
                    1910.82939                   10919.31345                    6389.52368
                    2034.92741                   10749.72395                    5717.04292
                    2714.36633                   10642.29450                    5573.25702
                    3374.70554                   10503.00199                    5456.33004
                    3788.23294                   10224.28926                    5147.26351
                    4446.01831                    9926.26221                    4700.45953
                    5102.15430                    9984.02141                    4631.43921
                    5831.34675                    9742.57057                    4376.40845
                    6492.58282                    9607.70080                    3993.92274
                    7131.83635                    9382.30334                    3964.34288
                    7743.55273                    9027.18730                    3481.25391
                    8171.04668                    8896.97689                    3385.98901
                    8724.30141                    8881.81371                    3173.08214
                    8814.80063                    7994.36974                    2876.07141
                    8762.22065                    9103.60990                    3099.98223
                    8015.46588                    3973.05296                    1622.40684
                    5180.17556                   21251.03328                    6929.24565
                    2218.83803                  -46407.00647                  -12670.21348
                   -4160.04634                  272564.97454                   87554.40686
        </DataArray>
        <DataArray type="Float32" Name="Moment" NumberOfComponents="3" format="ascii">
                     213.60182                     -21.08023                     199.68645
                    1379.29165                     154.71263                    -853.37709
                    2297.65686                     283.81539                    -600.16418
                   -1125.14348                    -853.72937                      69.34397
                   -3429.56339                     158.20209                     981.10066
                   -3912.40669                    -381.02421                    2513.25445
                   -6181.23797                   -2204.67001                    2339.79939
                   -4715.81235                    -285.05137                    1718.73507
                   -4377.84033                    -621.00673                    2241.35191
                   -1798.03510                    -744.72584                     580.92952
                   -2183.48934                    -158.10281                     803.36599
                   -1072.90027                    -254.01050                     482.21686
                   -1529.00488                    -218.87353                     553.07463
                   -1269.27055                    -194.46195                     482.15374
                   -1277.45685                    -194.23807                     459.32464
                   -1184.54339                    -162.10866                     413.28133
                   -1143.12769                    -152.70320                     406.12630
                   -1080.29323                    -159.12771                     369.18504
                   -1002.58953                    -137.17744                     333.04656
                    -960.38332                    -134.79812                     316.37440
                    -910.81911                    -120.97088                     291.41103
                    -843.08488                    -112.35197                     272.47386
                    -790.41402                    -109.90499                     246.08650
                    -723.99461                     -98.12816                     227.49412
                    -672.63322                     -99.55202                     200.77392
                    -631.60760                     -82.20824                     188.79824
                    -545.21904                     -82.01752                     160.48771
                    -552.89804                     -71.71850                     157.44323
                    -301.93956                     -51.05048                      90.52526
                   -1046.09256                    -130.38494                     288.69232
                    2266.78255                     257.62695                    -646.43691
                  -14157.16574                   -1619.33192                    3959.12624
        </DataArray>
        <DataArray type="Float32" Name="TranslationalVelocity" NumberOfComponents="3" format="ascii">
                       0.82790                       0.31844                      -0.87535
                       0.81389                       0.37099                      -1.04237
                       0.78589                       0.47612                      -1.37645
                       0.75794                       0.58133                      -1.71061
                       0.73005                       0.68663                      -2.04485
                       0.70220                       0.79202                      -2.37915
                       0.67440                       0.89750                      -2.71350
                       0.64664                       1.00307                      -3.04788
                       0.61892                       1.10872                      -3.38231
                       0.59125                       1.21448                      -3.71677
                       0.56361                       1.32035                      -4.05126
                       0.53602                       1.42631                      -4.38579
                       0.50846                       1.53238                      -4.72034
                       0.48094                       1.63853                      -5.05493
                       0.45345                       1.74478                      -5.38954
                       0.42600                       1.85112                      -5.72418
                       0.39858                       1.95756                      -6.05886
                       0.37120                       2.06410                      -6.39356
                       0.34385                       2.17072                      -6.72829
                       0.31652                       2.27742                      -7.06304
                       0.28922                       2.38419                      -7.39781
                       0.26195                       2.49104                      -7.73261
                       0.23471                       2.59795                      -8.06743
                       0.20750                       2.70493                      -8.40226
                       0.18030                       2.81195                      -8.73711
                       0.15313                       2.91900                      -9.07197
                       0.12597                       3.02609                      -9.40683
                       0.09882                       3.13320                      -9.74170
                       0.07168                       3.24032                     -10.07657
                       0.04454                       3.34743                     -10.41143
                       0.01740                       3.45454                     -10.74627
                       0.00383                       3.50809                     -10.91369
        </DataArray>
        <DataArray type="Float32" Name="RotationalVelocity" NumberOfComponents="3" format="ascii">
                       1.16798                       0.05751                      -0.07999
                       1.16815                       0.05748                      -0.07991
                       1.16848                       0.05742                      -0.07974
                       1.16877                       0.05736                      -0.07958
                       1.16902                       0.05731                      -0.07942
                       1.16924                       0.05725                      -0.07926
                       1.16944                       0.05720                      -0.07911
                       1.16961                       0.05715                      -0.07896
                       1.16977                       0.05710                      -0.07882
                       1.16990                       0.05706                      -0.07868
                       1.17003                       0.05701                      -0.07854
                       1.17016                       0.05697                      -0.07841
                       1.17027                       0.05692                      -0.07828
                       1.17039                       0.05688                      -0.07815
                       1.17050                       0.05684                      -0.07803
                       1.17061                       0.05680                      -0.07791
                       1.17072                       0.05676                      -0.07779
                       1.17082                       0.05672                      -0.07768
                       1.17093                       0.05669                      -0.07757
                       1.17103                       0.05665                      -0.07747
                       1.17113                       0.05662                      -0.07737
                       1.17122                       0.05659                      -0.07728
                       1.17131                       0.05656                      -0.07719
                       1.17138                       0.05653                      -0.07711
                       1.17145                       0.05651                      -0.07704
                       1.17150                       0.05649                      -0.07698
                       1.17153                       0.05648                      -0.07694
                       1.17155                       0.05647                      -0.07690
                       1.17154                       0.05646                      -0.07689
                       1.17151                       0.05646                      -0.07689
                       1.17145                       0.05647                      -0.07692
                       1.17142                       0.05648                      -0.07693
        </DataArray>
        <DataArray type="Float32" Name="TranslationalAcceleration" NumberOfComponents="3" format="ascii">
                      -0.36383                       1.28813                       0.43432
                      -0.37646                       1.47711                       0.51891
                      -0.40168                       1.85496                       0.68885
                      -0.42672                       2.23260                       0.86056
                      -0.45142                       2.61006                       1.03368
                      -0.47558                       2.98739                       1.20795
                      -0.49897                       3.36463                       1.38311
                      -0.52148                       3.74180                       1.55892
                      -0.54297                       4.11892                       1.73528
                      -0.56309                       4.49599                       1.91216
                      -0.58155                       4.87305                       2.08944
                      -0.59808                       5.25010                       2.26706
                      -0.61243                       5.62715                       2.44496
                      -0.62465                       6.00421                       2.62309
                      -0.63462                       6.38130                       2.80145
                      -0.64185                       6.75843                       2.98004
                      -0.64616                       7.13560                       3.15887
                      -0.64741                       7.51284                       3.33793
                      -0.64552                       7.89016                       3.51723
                      -0.64082                       8.26756                       3.69674
                      -0.63332                       8.64504                       3.87647
                      -0.62268                       9.02263                       4.05644
                      -0.60902                       9.40034                       4.23663
                      -0.59252                       9.77816                       4.41703
                      -0.57345                      10.15611                       4.59759
                      -0.55240                      10.53415                       4.77827
                      -0.52959                      10.91229                       4.95902
                      -0.50522                      11.29052                       5.13980
                      -0.47987                      11.66882                       5.32052
                      -0.45421                      12.04717                       5.50108
                      -0.42908                      12.42552                       5.68135
                      -0.41668                      12.61470                       5.77141
        </DataArray>
        <DataArray type="Float32" Name="RotationalAcceleration" NumberOfComponents="3" format="ascii">
                      -0.15396                      -0.02068                      -0.05705
                      -0.15715                      -0.02076                      -0.05694
                      -0.16294                      -0.02101                      -0.05653
                      -0.16779                      -0.02140                      -0.05573
                      -0.17175                      -0.02195                      -0.05443
                      -0.17492                      -0.02268                      -0.05258
                      -0.17740                      -0.02362                      -0.05013
                      -0.17927                      -0.02478                      -0.04695
                      -0.18067                      -0.02619                      -0.04301
                      -0.18176                      -0.02783                      -0.03835
                      -0.18260                      -0.02969                      -0.03297
                      -0.18325                      -0.03176                      -0.02688
                      -0.18376                      -0.03404                      -0.02012
                      -0.18417                      -0.03654                      -0.01263
                      -0.18452                      -0.03924                      -0.00450
                      -0.18486                      -0.04208                       0.00412
                      -0.18518                      -0.04503                       0.01314
                      -0.18551                      -0.04809                       0.02247
                      -0.18585                      -0.05119                       0.03202
                      -0.18620                      -0.05432                       0.04165
                      -0.18655                      -0.05741                       0.05118
                      -0.18689                      -0.06041                       0.06045
                      -0.18719                      -0.06328                       0.06931
                      -0.18745                      -0.06595                       0.07759
                      -0.18764                      -0.06839                       0.08512
                      -0.18772                      -0.07047                       0.09157
                      -0.18765                      -0.07211                       0.09665
                      -0.18740                      -0.07328                       0.10026
                      -0.18696                      -0.07390                       0.10217
                      -0.18627                      -0.07391                       0.10217
                      -0.18533                      -0.07327                       0.10017
                      -0.18477                      -0.07274                       0.09853
        </DataArray>
        <DataArray type="Float32" Name="OrientationX" NumberOfComponents="3" format="ascii">
                       0.95809                       0.06668                      -0.27860
                       0.95809                       0.06685                      -0.27854
                       0.95810                       0.06724                      -0.27842
                       0.95811                       0.06773                      -0.27827
                       0.95812                       0.06834                      -0.27808
                       0.95814                       0.06908                      -0.27784
                       0.95816                       0.06996                      -0.27757
                       0.96450                       0.06426                      -0.25614
                       0.96940                       0.05983                      -0.23807
                       0.97331                       0.05636                      -0.22245
                       0.97640                       0.05381                      -0.20916
                       0.97894                       0.05191                      -0.19742
                       0.98101                       0.05066                      -0.18723
                       0.98274                       0.04992                      -0.17811
                       0.98421                       0.04961                      -0.16993
                       0.98545                       0.04967                      -0.16252
                       0.98650                       0.05005                      -0.15590
                       0.98743                       0.05065                      -0.14974
                       0.98823                       0.05145                      -0.14406
                       0.98895                       0.05235                      -0.13871
                       0.98959                       0.05331                      -0.13368
                       0.99018                       0.05426                      -0.12885
                       0.99070                       0.05521                      -0.12437
                       0.99120                       0.05601                      -0.11994
                       0.99168                       0.05662                      -0.11556
                       0.99213                       0.05703                      -0.11144
                       0.99257                       0.05709                      -0.10741
                       0.99303                       0.05675                      -0.10334
                       0.99347                       0.05600                      -0.09939
                       0.99393                       0.05473                      -0.09542
                       0.99440                       0.05293                      -0.09145
                       0.99441                       0.05253                      -0.09157
        </DataArray>
        <DataArray type="Float32" Name="OrientationY" NumberOfComponents="3" format="ascii">
                       0.28574                      -0.29162                       0.91286
                       0.28574                      -0.29165                       0.91285
                       0.28574                      -0.29170                       0.91283
                       0.28574                      -0.29174                       0.91282
                       0.28574                      -0.29178                       0.91281
                       0.28573                      -0.29181                       0.91280
                       0.28573                      -0.29184                       0.91279
                       0.26359                      -0.29339                       0.91894
                       0.24502                      -0.29459                       0.92368
                       0.22908                      -0.29555                       0.92745
                       0.21564                      -0.29632                       0.93043
                       0.20387                      -0.29697                       0.93287
                       0.19378                      -0.29750                       0.93485
                       0.18487                      -0.29797                       0.93650
                       0.17697                      -0.29838                       0.93790
                       0.16993                      -0.29874                       0.93908
                       0.16373                      -0.29906                       0.94008
                       0.15805                      -0.29936                       0.94096
                       0.15288                      -0.29964                       0.94172
                       0.14805                      -0.29991                       0.94241
                       0.14357                      -0.30016                       0.94302
                       0.13925                      -0.30040                       0.94359
                       0.13528                      -0.30063                       0.94410
                       0.13130                      -0.30087                       0.94458
                       0.12732                      -0.30110                       0.94505
                       0.12352                      -0.30132                       0.94549
                       0.11971                      -0.30155                       0.94591
                       0.11572                      -0.30178                       0.94633
                       0.11174                      -0.30200                       0.94674
                       0.10757                      -0.30223                       0.94715
                       0.10324                      -0.30245                       0.94756
                       0.10324                      -0.30245                       0.94756
        </DataArray>
        <DataArray type="Float32" Name="OrientationZ" NumberOfComponents="3" format="ascii">
                      -0.02037                      -0.95421                      -0.29845
                      -0.02021                      -0.95419                      -0.29853
                      -0.01984                      -0.95414                      -0.29869
                      -0.01936                      -0.95410                      -0.29888
                      -0.01876                      -0.95404                      -0.29909
                      -0.01803                      -0.95398                      -0.29934
                      -0.01715                      -0.95391                      -0.29961
                      -0.01610                      -0.95383                      -0.29992
                      -0.01487                      -0.95375                      -0.30024
                      -0.01347                      -0.95366                      -0.30058
                      -0.01192                      -0.95357                      -0.30093
                      -0.01020                      -0.95348                      -0.30130
                      -0.00834                      -0.95338                      -0.30167
                      -0.00632                      -0.95327                      -0.30205
                      -0.00417                      -0.95316                      -0.30244
                      -0.00191                      -0.95304                      -0.30283
                       0.00043                      -0.95292                      -0.30322
                       0.00284                      -0.95279                      -0.30361
                       0.00528                      -0.95266                      -0.30398
                       0.00773                      -0.95253                      -0.30434
                       0.01015                      -0.95240                      -0.30469
                       0.01250                      -0.95227                      -0.30501
                       0.01473                      -0.95214                      -0.30531
                       0.01682                      -0.95202                      -0.30557
                       0.01872                      -0.95191                      -0.30581
                       0.02034                      -0.95181                      -0.30600
                       0.02162                      -0.95174                      -0.30614
                       0.02252                      -0.95169                      -0.30624
                       0.02301                      -0.95166                      -0.30629
                       0.02300                      -0.95166                      -0.30628
                       0.02249                      -0.95169                      -0.30623
                       0.02208                      -0.95172                      -0.30618
        </DataArray>
      </PointData>
      <Lines>
        <DataArray type="Int32" Name="connectivity" format="ascii">
      0      1
      1      2
      2      3
      3      4
      4      5
      5      6
      6      7
      7      8
      8      9
      9     10
     10     11
     11     12
     12     13
     13     14
     14     15
     15     16
     16     17
     17     18
     18     19
     19     20
     20     21
     21     22
     22     23
     23     24
     24     25
     25     26
     26     27
     27     28
     28     29
     29     30
     30     31
        </DataArray>
        <DataArray type="Int32" Name="offsets" format="ascii">
      2
      4
      6
      8
     10
     12
     14
     16
     18
     20
     22
     24
     26
     28
     30
     32
     34
     36
     38
     40
     42
     44
     46
     48
     50
     52
     54
     56
     58
     60
     62
        </DataArray>
      </Lines>
    </Piece>
  </PolyData>
</VTKFile>
