<?xml version="1.0"?>
<VTKFile type="PolyData" version="0.1" byte_order="LittleEndian">
  <PolyData>
    <Piece NumberOfPoints="     32" NumberOfVerts="  0" NumberOfLines="     31"
           NumberOfStrips="  0" NumberOfPolys="      0">
      <Points>
        <DataArray type="Float32" NumberOfComponents="3" format="ascii">
                      -3.35647                       0.59152                     -18.82221
                      -3.34564                       0.68771                     -18.70763
                      -3.32397                       0.88013                     -18.47848
                      -3.30225                       1.07257                     -18.24937
                      -3.28047                       1.26503                     -18.02027
                      -3.25860                       1.45751                     -17.79120
                      -3.23662                       1.64998                     -17.56214
                      -3.21451                       1.84246                     -17.33309
                      -3.19226                       2.03493                     -17.10405
                      -3.16983                       2.22739                     -16.87501
                      -3.14718                       2.41984                     -16.64599
                      -3.12430                       2.61228                     -16.41699
                      -3.10114                       2.80470                     -16.18799
                      -3.07773                       2.99711                     -15.95901
                      -3.05404                       3.18950                     -15.73005
                      -3.03003                       3.38188                     -15.50111
                      -3.00567                       3.57424                     -15.27219
                      -2.98096                       3.76658                     -15.04330
                      -2.95588                       3.95891                     -14.81443
                      -2.93047                       4.15123                     -14.58559
                      -2.90474                       4.34354                     -14.35678
                      -2.87865                       4.53583                     -14.12799
                      -2.85221                       4.72812                     -13.89924
                      -2.82545                       4.92039                     -13.67051
                      -2.79839                       5.11265                     -13.44182
                      -2.77110                       5.30491                     -13.21314
                      -2.74362                       5.49716                     -12.98448
                      -2.71595                       5.68941                     -12.75584
                      -2.68817                       5.88164                     -12.52721
                      -2.66036                       6.07388                     -12.29858
                      -2.63260                       6.26611                     -12.06994
                      -2.61874                       6.36222                     -11.95561
        </DataArray>
      </Points>
      <PointData>
        <DataArray type="Float32" Name="Force" NumberOfComponents="3" format="ascii">
                   -4726.73411                  -16874.11283                    6895.95730
                    9001.88453                   26383.60199                   -7566.06084
                   11345.85365                   29403.12648                   20352.74234
                   17791.43446                   66211.57717                  -30849.81915
                   -6708.78305                  -40600.85331                   42464.14714
                  -11226.66783                  -54754.83754                    6063.44735
                  -20978.13193                  -54546.19756                   -7112.29535
                    3245.24176                  -11286.71697                  -35061.87821
                   -4132.43645                  -22813.38341                  -15181.62493
                   -1415.55597                    -485.28299                  -20075.75355
                   -2619.41217                  -10663.16732                   -3337.13404
                   -2404.00211                   -7445.84841                   -7169.19867
                   -2343.67991                   -7924.49518                   -6006.06014
                   -2032.83076                   -7195.01151                   -6152.72630
                   -1989.09374                   -7058.50159                   -5665.88662
                   -1562.82739                   -6736.55823                   -5620.12614
                   -1171.87464                   -6391.50357                   -5558.83411
                    -908.30379                   -6056.42504                   -5314.29213
                    -398.84745                   -5768.66416                   -5009.14173
                      57.01745                   -5553.21448                   -5061.70401
                     605.84841                   -5239.14963                   -4906.26355
                    1177.98234                   -5044.16968                   -4718.92260
                    1741.27704                   -4689.01875                   -4695.32415
                    2383.66172                   -4435.21086                   -4389.99720
                    2936.02344                   -4191.85239                   -4357.17238
                    3591.54361                   -4044.36007                   -4310.72277
                    4031.54536                   -3535.71971                   -3933.80411
                    4389.40438                   -3812.47061                   -4360.83227
                    4635.51198                   -1812.79911                   -2226.40325
                    3268.10353                   -7980.83373                   -9307.74417
                    5614.84199                   16726.29462                   18568.70983
                  -12282.76270                  -97428.71993                 -115266.18849
        </DataArray>
        <DataArray type="Float32" Name="Moment" NumberOfComponents="3" format="ascii">
                    -193.75152                     146.68605                    -136.10365
                     960.26807                    -516.77842                     419.96128
                    2438.14630                    -470.86467                     -74.93002
                    -616.38738                     445.41646                     371.69366
                   -3040.71658                     -21.80507                    -575.24990
                   -3839.04051                    1060.69376                   -1411.22415
                   -5877.61097                    2290.52250                    -150.77403
                   -4361.31267                     609.59226                    -737.89186
                   -4076.36442                    1178.57852                    -919.42587
                   -1554.67510                     581.59330                       5.12151
                   -1900.93453                     282.69755                    -339.47660
                    -919.99000                     248.52341                    -190.38511
                   -1281.33036                     245.86884                    -186.29165
                   -1038.80408                     214.81810                    -167.30770
                   -1023.56567                     211.49164                    -136.98425
                    -928.26942                     176.93740                    -120.73629
                    -877.88261                     172.96446                    -115.95331
                    -810.02197                     165.27500                     -89.29784
                    -735.21269                     139.74288                     -79.64481
                    -688.64270                     136.24738                     -70.63644
                    -637.70119                     121.90410                     -59.57298
                    -577.68661                     111.43127                     -54.25556
                    -528.17617                     102.85990                     -42.72348
                    -473.19775                      91.40435                     -39.19167
                    -428.08770                      84.01878                     -27.78074
                    -392.65447                      73.01517                     -28.41106
                    -330.67918                      66.24585                     -19.11794
                    -325.75985                      58.92236                     -18.37034
                    -174.93465                      37.16080                     -11.46919
                    -590.24508                     108.11537                     -20.80833
                    1290.34095                    -241.70075                      42.40052
                   -7723.00231                    1452.58218                    -284.90039
        </DataArray>
        <DataArray type="Float32" Name="TranslationalVelocity" NumberOfComponents="3" format="ascii">
                       0.84860                      -0.87584                       0.88626
                       0.86398                      -1.00516                       0.99339
                       0.89474                      -1.26382                       1.20767
                       0.92551                      -1.52251                       1.42203
                       0.95628                      -1.78123                       1.63646
                       0.98702                      -2.03999                       1.85094
                       1.01773                      -2.29877                       2.06544
                       1.04839                      -2.55757                       2.27996
                       1.07899                      -2.81640                       2.49449
                       1.10951                      -3.07525                       2.70902
                       1.13992                      -3.33412                       2.92354
                       1.17022                      -3.59301                       3.13806
                       1.20037                      -3.85192                       3.35257
                       1.23039                      -4.11084                       3.56707
                       1.26026                      -4.36978                       3.78157
                       1.28996                      -4.62874                       3.99605
                       1.31947                      -4.88771                       4.21053
                       1.34878                      -5.14670                       4.42500
                       1.37789                      -5.40570                       4.63946
                       1.40682                      -5.66472                       4.85393
                       1.43557                      -5.92374                       5.06839
                       1.46412                      -6.18277                       5.28285
                       1.49248                      -6.44180                       5.49731
                       1.52065                      -6.70084                       5.71177
                       1.54865                      -6.95989                       5.92624
                       1.57653                      -7.21894                       6.14070
                       1.60430                      -7.47799                       6.35517
                       1.63196                      -7.73704                       6.56963
                       1.65956                      -7.99608                       6.78409
                       1.68714                      -8.25513                       6.99854
                       1.71475                      -8.51417                       7.21297
                       1.72856                      -8.64368                       7.32018
        </DataArray>
        <DataArray type="Float32" Name="RotationalVelocity" NumberOfComponents="3" format="ascii">
                       1.11849                       0.04531                      -0.10583
                       1.11865                       0.04532                      -0.10586
                       1.11892                       0.04534                      -0.10590
                       1.11916                       0.04533                      -0.10591
                       1.11935                       0.04529                      -0.10590
                       1.11951                       0.04521                      -0.10585
                       1.11964                       0.04510                      -0.10577
                       1.11974                       0.04495                      -0.10565
                       1.11983                       0.04475                      -0.10549
                       1.11990                       0.04452                      -0.10530
                       1.11996                       0.04424                      -0.10508
                       1.12003                       0.04393                      -0.10482
                       1.12008                       0.04358                      -0.10453
                       1.12014                       0.04320                      -0.10421
                       1.12020                       0.04277                      -0.10387
                       1.12027                       0.04233                      -0.10350
                       1.12033                       0.04186                      -0.10311
                       1.12040                       0.04137                      -0.10271
                       1.12047                       0.04088                      -0.10230
                       1.12054                       0.04037                      -0.10188
                       1.12062                       0.03988                      -0.10148
                       1.12069                       0.03940                      -0.10108
                       1.12076                       0.03894                      -0.10070
                       1.12082                       0.03850                      -0.10034
                       1.12088                       0.03811                      -0.10002
                       1.12092                       0.03777                      -0.09974
                       1.12095                       0.03751                      -0.09952
                       1.12096                       0.03732                      -0.09936
                       1.12095                       0.03722                      -0.09927
                       1.12092                       0.03721                      -0.09927
                       1.12086                       0.03732                      -0.09935
                       1.12083                       0.03740                      -0.09941
        </DataArray>
        <DataArray type="Float32" Name="TranslationalAcceleration" NumberOfComponents="3" format="ascii">
                      -0.42930                      -0.73594                      -1.08589
                      -0.43594                      -0.85414                      -1.23419
                      -0.44938                      -1.09080                      -1.53068
                      -0.46324                      -1.32805                      -1.82687
                      -0.47734                      -1.56582                      -2.12281
                      -0.49151                      -1.80401                      -2.41854
                      -0.50558                      -2.04258                      -2.71406
                      -0.51942                      -2.28146                      -3.00943
                      -0.53292                      -2.52062                      -3.30465
                      -0.54589                      -2.76009                      -3.59972
                      -0.55814                      -2.99985                      -3.89464
                      -0.56952                      -3.23989                      -4.18943
                      -0.57987                      -3.48021                      -4.48410
                      -0.58919                      -3.72079                      -4.77867
                      -0.59741                      -3.96162                      -5.07315
                      -0.60428                      -4.20274                      -5.36754
                      -0.60969                      -4.44416                      -5.66183
                      -0.61358                      -4.68588                      -5.95606
                      -0.61587                      -4.92791                      -6.25021
                      -0.61675                      -5.17021                      -6.54431
                      -0.61620                      -5.41277                      -6.83837
                      -0.61406                      -5.65562                      -7.13239
                      -0.61038                      -5.89875                      -7.42638
                      -0.60524                      -6.14214                      -7.72035
                      -0.59878                      -6.38574                      -8.01432
                      -0.59130                      -6.62950                      -8.30829
                      -0.58291                      -6.87339                      -8.60227
                      -0.57372                      -7.11739                      -8.89627
                      -0.56401                      -7.36141                      -9.19030
                      -0.55413                      -7.60538                      -9.48438
                      -0.54451                      -7.84922                      -9.77849
                      -0.53977                      -7.97110                      -9.92556
        </DataArray>
        <DataArray type="Float32" Name="RotationalAcceleration" NumberOfComponents="3" format="ascii">
                      -0.03400                      -0.02010                      -0.04813
                      -0.03294                      -0.02077                      -0.04765
                      -0.03098                      -0.02192                      -0.04687
                      -0.02925                      -0.02276                      -0.04638
                      -0.02771                      -0.02325                      -0.04620
                      -0.02633                      -0.02341                      -0.04636
                      -0.02507                      -0.02321                      -0.04687
                      -0.02390                      -0.02262                      -0.04778
                      -0.02281                      -0.02162                      -0.04909
                      -0.02178                      -0.02029                      -0.05076
                      -0.02078                      -0.01863                      -0.05277
                      -0.01982                      -0.01666                      -0.05511
                      -0.01888                      -0.01439                      -0.05776
                      -0.01797                      -0.01182                      -0.06074
                      -0.01707                      -0.00899                      -0.06400
                      -0.01618                      -0.00595                      -0.06748
                      -0.01531                      -0.00275                      -0.07113
                      -0.01446                       0.00059                      -0.07493
                      -0.01364                       0.00402                      -0.07883
                      -0.01285                       0.00750                      -0.08277
                      -0.01212                       0.01096                      -0.08667
                      -0.01144                       0.01433                      -0.09048
                      -0.01083                       0.01757                      -0.09412
                      -0.01029                       0.02060                      -0.09753
                      -0.00985                       0.02337                      -0.10064
                      -0.00954                       0.02576                      -0.10330
                      -0.00935                       0.02764                      -0.10540
                      -0.00931                       0.02900                      -0.10690
                      -0.00941                       0.02974                      -0.10771
                      -0.00966                       0.02979                      -0.10772
                      -0.01007                       0.02910                      -0.10691
                      -0.01032                       0.02852                      -0.10624
        </DataArray>
        <DataArray type="Float32" Name="OrientationX" NumberOfComponents="3" format="ascii">
                       0.98405                      -0.17063                       0.05030
                       0.98405                      -0.17065                       0.05027
                       0.98404                      -0.17072                       0.05019
                       0.98403                      -0.17082                       0.05007
                       0.98401                      -0.17097                       0.04989
                       0.98399                      -0.17116                       0.04966
                       0.98396                      -0.17141                       0.04937
                       0.98741                      -0.15444                       0.03416
                       0.98987                      -0.14035                       0.02135
                       0.99167                      -0.12838                       0.01026
                       0.99297                      -0.11840                       0.00080
                       0.99393                      -0.10978                      -0.00760
                       0.99462                      -0.10253                      -0.01492
                       0.99513                      -0.09624                      -0.02152
                       0.99549                      -0.09079                      -0.02749
                       0.99575                      -0.08603                      -0.03294
                       0.99592                      -0.08196                      -0.03785
                       0.99603                      -0.07830                      -0.04245
                       0.99608                      -0.07506                      -0.04673
                       0.99610                      -0.07208                      -0.05078
                       0.99610                      -0.06936                      -0.05460
                       0.99607                      -0.06675                      -0.05827
                       0.99602                      -0.06438                      -0.06168
                       0.99596                      -0.06195                      -0.06504
                       0.99589                      -0.05947                      -0.06832
                       0.99582                      -0.05703                      -0.07139
                       0.99574                      -0.05449                      -0.07433
                       0.99567                      -0.05170                      -0.07725
                       0.99560                      -0.04877                      -0.08001
                       0.99553                      -0.04556                      -0.08270
                       0.99547                      -0.04206                      -0.08531
                       0.99548                      -0.04193                      -0.08516
        </DataArray>
        <DataArray type="Float32" Name="OrientationY" NumberOfComponents="3" format="ascii">
                       0.16260                       0.74811                      -0.64334
                       0.16259                       0.74805                      -0.64341
                       0.16258                       0.74795                      -0.64354
                       0.16257                       0.74786                      -0.64365
                       0.16256                       0.74778                      -0.64374
                       0.16256                       0.74771                      -0.64382
                       0.16255                       0.74765                      -0.64389
                       0.13983                       0.75135                      -0.64492
                       0.12085                       0.75413                      -0.64551
                       0.10459                       0.75629                      -0.64582
                       0.09090                       0.75795                      -0.64595
                       0.07893                       0.75928                      -0.64596
                       0.06869                       0.76034                      -0.64588
                       0.05965                       0.76120                      -0.64576
                       0.05166                       0.76192                      -0.64561
                       0.04453                       0.76251                      -0.64544
                       0.03826                       0.76300                      -0.64526
                       0.03252                       0.76343                      -0.64508
                       0.02730                       0.76379                      -0.64489
                       0.02243                       0.76411                      -0.64469
                       0.01791                       0.76440                      -0.64449
                       0.01355                       0.76466                      -0.64429
                       0.00955                       0.76490                      -0.64408
                       0.00555                       0.76512                      -0.64386
                       0.00155                       0.76534                      -0.64362
                      -0.00228                       0.76555                      -0.64337
                      -0.00610                       0.76575                      -0.64311
                      -0.01010                       0.76596                      -0.64281
                      -0.01410                       0.76617                      -0.64249
                      -0.01827                       0.76638                      -0.64213
                      -0.02261                       0.76659                      -0.64174
                      -0.02260                       0.76660                      -0.64172
        </DataArray>
        <DataArray type="Float32" Name="OrientationZ" NumberOfComponents="3" format="ascii">
                       0.07214                       0.64126                       0.76392
                       0.07219                       0.64132                       0.76387
                       0.07232                       0.64143                       0.76377
                       0.07251                       0.64151                       0.76368
                       0.07275                       0.64156                       0.76362
                       0.07307                       0.64159                       0.76356
                       0.07346                       0.64159                       0.76352
                       0.07393                       0.64158                       0.76349
                       0.07450                       0.64155                       0.76345
                       0.07515                       0.64152                       0.76342
                       0.07588                       0.64148                       0.76338
                       0.07668                       0.64143                       0.76334
                       0.07757                       0.64138                       0.76329
                       0.07853                       0.64133                       0.76323
                       0.07956                       0.64128                       0.76317
                       0.08064                       0.64123                       0.76310
                       0.08176                       0.64118                       0.76302
                       0.08292                       0.64113                       0.76294
                       0.08409                       0.64108                       0.76285
                       0.08527                       0.64104                       0.76276
                       0.08644                       0.64100                       0.76266
                       0.08757                       0.64096                       0.76256
                       0.08864                       0.64093                       0.76247
                       0.08965                       0.64090                       0.76237
                       0.09056                       0.64087                       0.76229
                       0.09135                       0.64084                       0.76222
                       0.09196                       0.64082                       0.76216
                       0.09240                       0.64080                       0.76212
                       0.09263                       0.64079                       0.76211
                       0.09263                       0.64077                       0.76212
                       0.09239                       0.64076                       0.76216
                       0.09220                       0.64075                       0.76219
        </DataArray>
      </PointData>
      <Lines>
        <DataArray type="Int32" Name="connectivity" format="ascii">
      0      1
      1      2
      2      3
      3      4
      4      5
      5      6
      6      7
      7      8
      8      9
      9     10
     10     11
     11     12
     12     13
     13     14
     14     15
     15     16
     16     17
     17     18
     18     19
     19     20
     20     21
     21     22
     22     23
     23     24
     24     25
     25     26
     26     27
     27     28
     28     29
     29     30
     30     31
        </DataArray>
        <DataArray type="Int32" Name="offsets" format="ascii">
      2
      4
      6
      8
     10
     12
     14
     16
     18
     20
     22
     24
     26
     28
     30
     32
     34
     36
     38
     40
     42
     44
     46
     48
     50
     52
     54
     56
     58
     60
     62
        </DataArray>
      </Lines>
    </Piece>
  </PolyData>
</VTKFile>
