<?xml version="1.0"?>
<VTKFile type="PolyData" version="0.1" byte_order="LittleEndian">
  <PolyData>
    <Piece NumberOfPoints="     32" NumberOfVerts="  0" NumberOfLines="     31"
           NumberOfStrips="  0" NumberOfPolys="      0">
      <Points>
        <DataArray type="Float32" NumberOfComponents="3" format="ascii">
                      -4.88691                      -0.24599                     -19.01994
                      -4.88656                      -0.28261                     -18.87448
                      -4.88579                      -0.35586                     -18.58356
                      -4.88481                      -0.42910                     -18.29264
                      -4.88358                      -0.50236                     -18.00173
                      -4.88202                      -0.57566                     -17.71082
                      -4.88008                      -0.64901                     -17.41993
                      -4.87772                      -0.72243                     -17.12906
                      -4.87491                      -0.79590                     -16.83822
                      -4.87152                      -0.86946                     -16.54739
                      -4.86746                      -0.94310                     -16.25660
                      -4.86266                      -1.01683                     -15.96584
                      -4.85703                      -1.09064                     -15.67512
                      -4.85061                      -1.16453                     -15.38443
                      -4.84338                      -1.23849                     -15.09378
                      -4.83516                      -1.31254                     -14.80318
                      -4.82590                      -1.38667                     -14.51263
                      -4.81558                      -1.46088                     -14.22213
                      -4.80416                      -1.53515                     -13.93170
                      -4.79176                      -1.60948                     -13.64132
                      -4.77840                      -1.68387                     -13.35099
                      -4.76397                      -1.75830                     -13.06073
                      -4.74849                      -1.83279                     -12.77054
                      -4.73205                      -1.90731                     -12.48041
                      -4.71473                      -1.98187                     -12.19034
                      -4.69674                      -2.05645                     -11.90031
                      -4.67815                      -2.13104                     -11.61033
                      -4.65903                      -2.20565                     -11.32038
                      -4.63957                      -2.28027                     -11.03046
                      -4.62001                      -2.35490                     -10.74055
                      -4.60063                      -2.42954                     -10.45063
                      -4.59100                      -2.46686                     -10.30567
        </DataArray>
      </Points>
      <PointData>
        <DataArray type="Float32" Name="Force" NumberOfComponents="3" format="ascii">
                   -6066.39438                  -10745.24553                   -8770.80557
                    9492.56040                   25652.41831                   18595.32401
                    2570.06409                    6422.37028                   37749.65135
                   13017.80951                   68925.07971                   37149.81484
                  -17388.00993                  -51393.61196                   -7951.06992
                  -14675.22403                  -31201.17929                  -40177.16442
                  -19181.56358                  -20902.36448                  -47544.67548
                    9306.08293                   23372.92580                  -28052.33268
                    1997.00287                     927.12955                  -26343.49533
                    6606.26339                   16912.76723                  -11519.53725
                    4813.50845                   -2113.97013                  -10178.29640
                    6210.67244                    2620.84162                   -9806.21199
                    6979.00031                    1336.21800                   -9543.61054
                    8188.08310                    1745.97464                   -9075.04697
                    8976.51504                    1387.61982                   -8718.22450
                   10093.84134                    1457.01021                   -8456.22547
                   11110.24181                    1543.37642                   -8172.71267
                   11841.24225                    1513.43922                   -7800.55694
                   12560.44126                    1425.21024                   -7413.45174
                   13088.46905                    1577.73179                   -7275.79211
                   13453.61345                    1629.39196                   -6939.51624
                   13549.50357                    1599.54133                   -6659.79441
                   13344.74535                    1777.33904                   -6332.46548
                   12898.60080                    1683.31070                   -5910.42267
                   12105.12493                    1778.10599                   -5622.96861
                   11159.40257                    1781.78073                   -5377.91412
                    9793.31437                    1729.02562                   -4692.46659
                    8181.65737                    1816.07917                   -4953.46240
                    6200.33322                    1230.82891                   -2335.44849
                    2697.09710                    2986.91124                  -10029.36007
                    7049.47085                   -4213.66677                   20989.94122
                    -963.12328                   32562.63506                 -126065.53855
        </DataArray>
        <DataArray type="Float32" Name="Moment" NumberOfComponents="3" format="ascii">
                      -9.17191                     203.24597                      20.94710
                    1247.42435                    -772.28024                    -128.74025
                    2204.37724                    -384.02437                    -264.40167
                    -708.41960                      -3.24203                     631.27103
                   -3134.12975                     699.72458                    -374.34320
                   -3580.75221                    1998.87164                      -8.57433
                   -5588.43096                    1829.77299                    1588.95721
                   -4038.21186                    1192.02274                     -28.14098
                   -3800.51622                    1664.41085                     297.63033
                   -1449.25624                     414.84261                     456.92486
                   -1789.72579                     547.28745                      -1.74096
                    -839.03729                     341.32984                      89.01006
                   -1190.50813                     364.35477                      75.11971
                    -955.74755                     309.63567                      65.84085
                    -942.64822                     285.88798                      71.12761
                    -850.65723                     249.23384                      56.87847
                    -801.69557                     237.56109                      56.36021
                    -737.79201                     210.11076                      66.42021
                    -666.72546                     182.58616                      58.79232
                    -622.18037                     166.78016                      60.55449
                    -574.13629                     148.59203                      54.11799
                    -517.40860                     135.50454                      52.28806
                    -471.23632                     117.40985                      53.20538
                    -420.07133                     105.54547                      48.05211
                    -378.32230                      89.27111                      50.79603
                    -345.23636                      80.12602                      41.49377
                    -289.71004                      66.75144                      41.61162
                    -282.37019                      61.54530                      36.46156
                    -156.00291                      36.69774                      25.97457
                    -492.90548                     101.68483                      64.74342
                    1052.32004                    -225.56485                    -126.35186
                   -6534.61875                    1364.45143                     789.99640
        </DataArray>
        <DataArray type="Float32" Name="TranslationalVelocity" NumberOfComponents="3" format="ascii">
                       0.25942                      -1.23047                      -0.20693
                       0.26240                      -1.41363                      -0.25305
                       0.26857                      -1.77982                      -0.34527
                       0.27530                      -2.14576                      -0.43742
                       0.28295                      -2.51159                      -0.52958
                       0.29188                      -2.87743                      -0.62180
                       0.30250                      -3.24340                      -0.71416
                       0.31498                      -3.60955                      -0.80667
                       0.32955                      -3.97591                      -0.89937
                       0.34692                      -4.34256                      -0.99231
                       0.36753                      -4.70952                      -1.08552
                       0.39185                      -5.07682                      -1.17906
                       0.42030                      -5.44445                      -1.27295
                       0.45272                      -5.81237                      -1.36719
                       0.48933                      -6.18057                      -1.46181
                       0.53096                      -6.54908                      -1.55689
                       0.57791                      -6.91787                      -1.65247
                       0.63039                      -7.28689                      -1.74860
                       0.68853                      -7.65613                      -1.84531
                       0.75171                      -8.02551                      -1.94257
                       0.81991                      -8.39503                      -2.04038
                       0.89371                      -8.76465                      -2.13883
                       0.97291                      -9.13433                      -2.23794
                       1.05716                      -9.50406                      -2.33768
                       1.14597                      -9.87379                      -2.43800
                       1.23833                     -10.24351                      -2.53880
                       1.33380                     -10.61323                      -2.64002
                       1.43205                     -10.98293                      -2.74162
                       1.53206                     -11.35263                      -2.84347
                       1.63261                     -11.72235                      -2.94542
                       1.73222                     -12.09216                      -3.04726
                       1.78174                     -12.27708                      -3.09815
        </DataArray>
        <DataArray type="Float32" Name="RotationalVelocity" NumberOfComponents="3" format="ascii">
                       1.25968                       0.02056                      -0.00266
                       1.25912                       0.02115                      -0.00251
                       1.25824                       0.02278                      -0.00210
                       1.25772                       0.02523                      -0.00148
                       1.25758                       0.02865                      -0.00062
                       1.25782                       0.03312                       0.00051
                       1.25840                       0.03872                       0.00191
                       1.25926                       0.04565                       0.00366
                       1.26031                       0.05398                       0.00575
                       1.26147                       0.06355                       0.00816
                       1.26273                       0.07436                       0.01088
                       1.26405                       0.08636                       0.01390
                       1.26542                       0.09952                       0.01721
                       1.26681                       0.11386                       0.02082
                       1.26820                       0.12926                       0.02469
                       1.26956                       0.14545                       0.02877
                       1.27089                       0.16230                       0.03301
                       1.27216                       0.17963                       0.03737
                       1.27338                       0.19727                       0.04181
                       1.27451                       0.21501                       0.04628
                       1.27555                       0.23251                       0.05068
                       1.27649                       0.24949                       0.05495
                       1.27734                       0.26570                       0.05903
                       1.27808                       0.28084                       0.06284
                       1.27872                       0.29460                       0.06631
                       1.27924                       0.30639                       0.06928
                       1.27965                       0.31567                       0.07161
                       1.27996                       0.32226                       0.07327
                       1.28019                       0.32578                       0.07416
                       1.28035                       0.32579                       0.07416
                       1.28046                       0.32216                       0.07324
                       1.28050                       0.31917                       0.07249
        </DataArray>
        <DataArray type="Float32" Name="TranslationalAcceleration" NumberOfComponents="3" format="ascii">
                       1.26642                       0.35117                      -1.33391
                       1.28445                       0.37888                      -1.57262
                       1.34077                       0.42644                      -2.05184
                       1.44421                       0.45566                      -2.53541
                       1.58372                       0.47049                      -3.02275
                       1.74805                       0.47463                      -3.51334
                       1.92570                       0.47160                      -4.00667
                       2.10605                       0.46476                      -4.50201
                       2.28262                       0.45572                      -4.99906
                       2.44470                       0.44644                      -5.49758
                       2.58102                       0.43882                      -5.99714
                       2.68073                       0.43430                      -6.49729
                       2.73370                       0.43387                      -6.99762
                       2.73799                       0.43762                      -7.49772
                       2.68871                       0.44586                      -7.99731
                       2.57169                       0.45950                      -8.49583
                       2.38004                       0.47871                      -8.99274
                       2.10833                       0.50348                      -9.48747
                       1.75277                       0.53364                      -9.97944
                       1.32141                       0.56834                     -10.46855
                       0.81370                       0.60738                     -10.95447
                       0.21991                       0.65099                     -11.43638
                      -0.45770                       0.69870                     -11.91395
                      -1.21454                       0.75000                     -12.38704
                      -2.04346                       0.80435                     -12.85573
                      -2.92859                       0.86099                     -13.32080
                      -3.86356                       0.91964                     -13.78251
                      -4.84331                       0.98011                     -14.24106
                      -5.85209                       1.04200                     -14.69745
                      -6.87096                       1.10501                     -15.15300
                      -7.87687                       1.16898                     -15.60932
                      -8.37581                       1.20117                     -15.83773
        </DataArray>
        <DataArray type="Float32" Name="RotationalAcceleration" NumberOfComponents="3" format="ascii">
                       0.17499                       0.05163                      -0.02681
                       0.20919                       0.13506                      -0.00476
                       0.27148                       0.28589                       0.03586
                       0.32377                       0.40933                       0.07059
                       0.36572                       0.50271                       0.09894
                       0.39767                       0.56526                       0.12083
                       0.42001                       0.59655                       0.13624
                       0.43244                       0.59247                       0.14442
                       0.43688                       0.55317                       0.14547
                       0.43574                       0.48307                       0.14033
                       0.43015                       0.38304                       0.12918
                       0.42104                       0.25423                       0.11229
                       0.40923                       0.09810                       0.08995
                       0.39530                      -0.08638                       0.06196
                       0.38012                      -0.29589                       0.02899
                       0.36435                      -0.52460                      -0.00783
                       0.34836                      -0.76957                      -0.04794
                       0.33250                      -1.02761                      -0.09073
                       0.31705                      -1.29528                      -0.13557
                       0.30238                      -1.56884                      -0.18179
                       0.28879                      -1.84211                      -0.22826
                       0.27631                      -2.10990                      -0.27401
                       0.26505                      -2.36741                      -0.31817
                       0.25507                      -2.60960                      -0.35984
                       0.24641                      -2.83123                      -0.39810
                       0.23921                      -3.02241                      -0.43121
                       0.23336                      -3.17429                      -0.45764
                       0.22855                      -3.28394                      -0.47684
                       0.22453                      -3.34481                      -0.48770
                       0.22104                      -3.35014                      -0.48904
                       0.21774                      -3.29770                      -0.48049
                       0.21609                      -3.25290                      -0.47303
        </DataArray>
        <DataArray type="Float32" Name="OrientationX" NumberOfComponents="3" format="ascii">
                       0.97480                      -0.21583                      -0.05641
                       0.97480                      -0.21577                      -0.05666
                       0.97480                      -0.21562                      -0.05725
                       0.97480                      -0.21544                      -0.05798
                       0.97479                      -0.21521                      -0.05888
                       0.97479                      -0.21493                      -0.05996
                       0.97478                      -0.21461                      -0.06125
                       0.97965                      -0.19239                      -0.05730
                       0.98330                      -0.17366                      -0.05449
                       0.98612                      -0.15748                      -0.05255
                       0.98828                      -0.14372                      -0.05145
                       0.99000                      -0.13155                      -0.05097
                       0.99134                      -0.12099                      -0.05112
                       0.99241                      -0.11153                      -0.05176
                       0.99327                      -0.10303                      -0.05284
                       0.99397                      -0.09533                      -0.05427
                       0.99451                      -0.08843                      -0.05602
                       0.99494                      -0.08202                      -0.05798
                       0.99529                      -0.07609                      -0.06012
                       0.99556                      -0.07049                      -0.06235
                       0.99578                      -0.06525                      -0.06461
                       0.99595                      -0.06020                      -0.06680
                       0.99608                      -0.05552                      -0.06893
                       0.99619                      -0.05090                      -0.07085
                       0.99629                      -0.04634                      -0.07250
                       0.99639                      -0.04205                      -0.07381
                       0.99649                      -0.03788                      -0.07464
                       0.99662                      -0.03367                      -0.07491
                       0.99677                      -0.02961                      -0.07459
                       0.99696                      -0.02556                      -0.07355
                       0.99719                      -0.02151                      -0.07177
                       0.99723                      -0.02166                      -0.07120
        </DataArray>
        <DataArray type="Float32" Name="OrientationY" NumberOfComponents="3" format="ascii">
                       0.22307                       0.94540                       0.23761
                       0.22307                       0.94542                       0.23752
                       0.22307                       0.94546                       0.23736
                       0.22307                       0.94550                       0.23722
                       0.22307                       0.94553                       0.23711
                       0.22307                       0.94555                       0.23700
                       0.22307                       0.94558                       0.23691
                       0.20055                       0.95029                       0.23818
                       0.18171                       0.95383                       0.23917
                       0.16555                       0.95656                       0.23996
                       0.15194                       0.95866                       0.24061
                       0.14002                       0.96033                       0.24116
                       0.12982                       0.96165                       0.24162
                       0.12082                       0.96272                       0.24202
                       0.11285                       0.96360                       0.24237
                       0.10573                       0.96432                       0.24269
                       0.09949                       0.96492                       0.24298
                       0.09376                       0.96542                       0.24324
                       0.08855                       0.96585                       0.24349
                       0.08368                       0.96623                       0.24373
                       0.07916                       0.96655                       0.24396
                       0.07482                       0.96684                       0.24420
                       0.07082                       0.96708                       0.24442
                       0.06682                       0.96730                       0.24466
                       0.06282                       0.96751                       0.24491
                       0.05900                       0.96769                       0.24516
                       0.05517                       0.96784                       0.24542
                       0.05117                       0.96799                       0.24572
                       0.04717                       0.96812                       0.24602
                       0.04300                       0.96823                       0.24635
                       0.03865                       0.96832                       0.24671
                       0.03865                       0.96831                       0.24673
        </DataArray>
        <DataArray type="Float32" Name="OrientationZ" NumberOfComponents="3" format="ascii">
                       0.00204                      -0.24420                       0.96972
                       0.00232                      -0.24417                       0.96973
                       0.00295                      -0.24415                       0.96973
                       0.00371                      -0.24418                       0.96972
                       0.00464                      -0.24426                       0.96970
                       0.00576                      -0.24440                       0.96966
                       0.00707                      -0.24459                       0.96960
                       0.00863                      -0.24482                       0.96953
                       0.01044                      -0.24507                       0.96945
                       0.01248                      -0.24533                       0.96936
                       0.01474                      -0.24561                       0.96926
                       0.01723                      -0.24588                       0.96915
                       0.01992                      -0.24616                       0.96902
                       0.02284                      -0.24644                       0.96889
                       0.02595                      -0.24671                       0.96874
                       0.02920                      -0.24697                       0.96858
                       0.03257                      -0.24722                       0.96841
                       0.03603                      -0.24745                       0.96823
                       0.03954                      -0.24767                       0.96804
                       0.04306                      -0.24787                       0.96784
                       0.04653                      -0.24805                       0.96763
                       0.04989                      -0.24820                       0.96742
                       0.05309                      -0.24834                       0.96722
                       0.05608                      -0.24846                       0.96702
                       0.05880                      -0.24855                       0.96683
                       0.06112                      -0.24863                       0.96667
                       0.06294                      -0.24868                       0.96654
                       0.06424                      -0.24872                       0.96644
                       0.06493                      -0.24875                       0.96639
                       0.06492                      -0.24877                       0.96638
                       0.06419                      -0.24879                       0.96643
                       0.06360                      -0.24879                       0.96647
        </DataArray>
      </PointData>
      <Lines>
        <DataArray type="Int32" Name="connectivity" format="ascii">
      0      1
      1      2
      2      3
      3      4
      4      5
      5      6
      6      7
      7      8
      8      9
      9     10
     10     11
     11     12
     12     13
     13     14
     14     15
     15     16
     16     17
     17     18
     18     19
     19     20
     20     21
     21     22
     22     23
     23     24
     24     25
     25     26
     26     27
     27     28
     28     29
     29     30
     30     31
        </DataArray>
        <DataArray type="Int32" Name="offsets" format="ascii">
      2
      4
      6
      8
     10
     12
     14
     16
     18
     20
     22
     24
     26
     28
     30
     32
     34
     36
     38
     40
     42
     44
     46
     48
     50
     52
     54
     56
     58
     60
     62
        </DataArray>
      </Lines>
    </Piece>
  </PolyData>
</VTKFile>
