<?xml version="1.0"?>
<VTKFile type="PolyData" version="0.1" byte_order="LittleEndian">
  <PolyData>
    <Piece NumberOfPoints="     32" NumberOfVerts="  0" NumberOfLines="     31"
           NumberOfStrips="  0" NumberOfPolys="      0">
      <Points>
        <DataArray type="Float32" NumberOfComponents="3" format="ascii">
                      -3.63629                      -0.84256                     -20.22535
                      -3.64391                      -0.96206                     -20.31570
                      -3.65911                      -1.20104                     -20.49640
                      -3.67416                      -1.44001                     -20.67715
                      -3.68900                      -1.67895                     -20.85794
                      -3.70360                      -1.91786                     -21.03881
                      -3.71789                      -2.15672                     -21.21975
                      -3.73186                      -2.39554                     -21.40077
                      -3.74547                      -2.63432                     -21.58188
                      -3.75862                      -2.87305                     -21.76309
                      -3.77124                      -3.11172                     -21.94441
                      -3.78327                      -3.35033                     -22.12584
                      -3.79465                      -3.58888                     -22.30740
                      -3.80540                      -3.82738                     -22.48906
                      -3.81549                      -4.06583                     -22.67084
                      -3.82481                      -4.30421                     -22.85274
                      -3.83330                      -4.54252                     -23.03477
                      -3.84093                      -4.78077                     -23.21692
                      -3.84769                      -5.01895                     -23.39920
                      -3.85368                      -5.25707                     -23.58158
                      -3.85889                      -5.49513                     -23.76406
                      -3.86324                      -5.73313                     -23.94665
                      -3.86676                      -5.97106                     -24.12933
                      -3.86951                      -6.20894                     -24.31211
                      -3.87155                      -6.44677                     -24.49496
                      -3.87306                      -6.68456                     -24.67787
                      -3.87408                      -6.92231                     -24.86082
                      -3.87468                      -7.16003                     -25.04382
                      -3.87501                      -7.39773                     -25.22684
                      -3.87526                      -7.63543                     -25.40987
                      -3.87566                      -7.87314                     -25.59289
                      -3.87590                      -7.99199                     -25.68440
        </DataArray>
      </Points>
      <PointData>
        <DataArray type="Float32" Name="Force" NumberOfComponents="3" format="ascii">
                   -6095.77730                   11566.80220                   -4350.33790
                   12330.36833                  -30870.98138                   18922.82228
                   10177.78679                  -41709.06577                   -9715.93134
                   29059.08427                  -70422.20919                   56262.07693
                  -14773.24232                   29672.28886                  -45124.92722
                  -12755.84358                   55892.28128                  -11008.66225
                  -21518.54661                   61230.23597                    3632.11073
                   14315.99683                   18696.91798                   41832.85857
                    1618.68201                   28338.51324                   17049.57067
                    6918.33572                    2926.91724                   28623.53620
                    1837.74709                   11354.18592                    5683.99963
                    3268.45434                    8844.63674                   11065.54209
                    3333.70728                    9532.91174                    9435.77180
                    4109.27986                    9042.70065                    9650.07740
                    4321.58300                    9138.67562                    8961.29959
                    5096.12535                    9092.82628                    8812.75884
                    5829.80703                    9004.97953                    8684.16384
                    6261.86449                    8846.18216                    8315.34272
                    6910.11613                    8711.05877                    7796.55949
                    7539.53487                    8797.62789                    7795.15004
                    8214.60323                    8640.33236                    7494.55187
                    8770.76846                    8637.35671                    7105.90876
                    9279.69890                    8405.10358                    7050.06844
                    9720.47209                    8202.69745                    6477.35246
                    9935.57474                    8088.46661                    6394.65961
                   10287.14582                    8134.24553                    6230.72662
                   10096.41373                    7298.11421                    5651.30578
                    9802.42130                    8383.70640                    6386.14505
                    8605.26174                    3494.70122                    2927.70774
                    5828.97153                   19919.03361                   15283.72952
                     768.57707                  -44536.48381                  -31376.46976
                    2679.10607                  256854.94293                  197390.32601
        </DataArray>
        <DataArray type="Float32" Name="Moment" NumberOfComponents="3" format="ascii">
                     197.55033                     -93.23571                     181.72604
                    1308.03089                     403.26277                    -774.14583
                    2410.86498                     436.95282                    -534.30290
                   -1211.14292                    -808.92123                    -178.58469
                   -3447.29603                     -63.67370                    1080.22133
                   -4039.46084                   -1102.63248                    2431.94117
                   -6461.03448                   -2776.86099                    1675.85723
                   -4945.89647                    -741.40631                    1727.50242
                   -4576.77879                   -1262.75607                    2104.74229
                   -1921.15757                    -873.30666                     375.77729
                   -2293.24852                    -364.05749                     804.92284
                   -1145.67195                    -374.95892                     433.90087
                   -1625.44311                    -359.16556                     524.26723
                   -1357.92648                    -318.11897                     456.77687
                   -1370.22817                    -311.31169                     434.96431
                   -1275.36811                    -268.04382                     398.61694
                   -1234.80429                    -259.35530                     393.52642
                   -1171.48040                    -256.75200                     352.78757
                   -1090.84636                    -226.64586                     321.64281
                   -1048.64612                    -220.85793                     303.61407
                    -997.65954                    -200.49142                     282.51020
                    -926.44271                    -188.89473                     264.63740
                    -871.61301                    -179.77031                     236.53530
                    -800.67611                    -164.30446                     220.21868
                    -746.58077                    -159.11096                     190.11207
                    -702.88269                    -138.74706                     182.76268
                    -608.56842                    -131.14156                     151.44014
                    -619.67583                    -120.77376                     152.08793
                    -336.59277                     -79.35549                      83.80269
                   -1185.44619                    -226.17721                     278.42410
                    2580.34976                     478.21057                    -631.73335
                  -16023.57942                   -2950.94018                    3860.30178
        </DataArray>
        <DataArray type="Float32" Name="TranslationalVelocity" NumberOfComponents="3" format="ascii">
                       0.71512                       0.66401                      -0.69996
                       0.69911                       0.76689                      -0.83469
                       0.66715                       0.97264                      -1.10411
                       0.63534                       1.17834                      -1.37343
                       0.60370                       1.38403                      -1.64267
                       0.57226                       1.58973                      -1.91184
                       0.54106                       1.79547                      -2.18097
                       0.51008                       2.00125                      -2.45008
                       0.47937                       2.20709                      -2.71915
                       0.44898                       2.41300                      -2.98822
                       0.41896                       2.61899                      -3.25727
                       0.38936                       2.82506                      -3.52632
                       0.36020                       3.03122                      -3.79538
                       0.33147                       3.23746                      -4.06443
                       0.30318                       3.44378                      -4.33350
                       0.27544                       3.65018                      -4.60257
                       0.24825                       3.85667                      -4.87164
                       0.22165                       4.06325                      -5.14071
                       0.19565                       4.26991                      -5.40979
                       0.17017                       4.47663                      -5.67886
                       0.14522                       4.68343                      -5.94793
                       0.12086                       4.89029                      -6.21699
                       0.09706                       5.09721                      -6.48603
                       0.07379                       5.30420                      -6.75507
                       0.05099                       5.51123                      -7.02409
                       0.02857                       5.71829                      -7.29310
                       0.00647                       5.92540                      -7.56211
                      -0.01535                       6.13253                      -7.83111
                      -0.03698                       6.33968                      -8.10012
                      -0.05855                       6.54685                      -8.36913
                      -0.08023                       6.75403                      -8.63817
                      -0.09110                       6.85762                      -8.77269
        </DataArray>
        <DataArray type="Float32" Name="RotationalVelocity" NumberOfComponents="3" format="ascii">
                       1.13093                       0.05048                      -0.09608
                       1.13071                       0.05035                      -0.09590
                       1.13032                       0.05008                      -0.09551
                       1.13002                       0.04978                      -0.09508
                       1.12981                       0.04943                      -0.09460
                       1.12968                       0.04902                      -0.09405
                       1.12961                       0.04856                      -0.09343
                       1.12961                       0.04802                      -0.09272
                       1.12965                       0.04741                      -0.09191
                       1.12971                       0.04672                      -0.09101
                       1.12980                       0.04596                      -0.09002
                       1.12991                       0.04514                      -0.08894
                       1.13004                       0.04424                      -0.08776
                       1.13017                       0.04328                      -0.08650
                       1.13031                       0.04225                      -0.08515
                       1.13045                       0.04118                      -0.08375
                       1.13059                       0.04007                      -0.08229
                       1.13072                       0.03893                      -0.08079
                       1.13085                       0.03778                      -0.07928
                       1.13098                       0.03662                      -0.07775
                       1.13109                       0.03548                      -0.07626
                       1.13120                       0.03437                      -0.07480
                       1.13130                       0.03332                      -0.07342
                       1.13139                       0.03234                      -0.07213
                       1.13148                       0.03145                      -0.07096
                       1.13156                       0.03068                      -0.06996
                       1.13163                       0.03009                      -0.06917
                       1.13169                       0.02966                      -0.06861
                       1.13175                       0.02944                      -0.06832
                       1.13181                       0.02944                      -0.06833
                       1.13188                       0.02968                      -0.06866
                       1.13191                       0.02988                      -0.06892
        </DataArray>
        <DataArray type="Float32" Name="TranslationalAcceleration" NumberOfComponents="3" format="ascii">
                      -0.36985                       1.00464                       0.70520
                      -0.36993                       1.15079                       0.83282
                      -0.36975                       1.44309                       1.08783
                      -0.36873                       1.73538                       1.34230
                      -0.36695                       2.02768                       1.59634
                      -0.36445                       2.32000                       1.85002
                      -0.36131                       2.61236                       2.10344
                      -0.35765                       2.90474                       2.35668
                      -0.35348                       3.19715                       2.60977
                      -0.34879                       3.48959                       2.86274
                      -0.34363                       3.78206                       3.11562
                      -0.33803                       4.07454                       3.36845
                      -0.33205                       4.36703                       3.62126
                      -0.32575                       4.65952                       3.87404
                      -0.31916                       4.95201                       4.12683
                      -0.31226                       5.24449                       4.37962
                      -0.30509                       5.53695                       4.63242
                      -0.29766                       5.82939                       4.88524
                      -0.29001                       6.12178                       5.13809
                      -0.28218                       6.41413                       5.39097
                      -0.27418                       6.70644                       5.64387
                      -0.26600                       6.99869                       5.89681
                      -0.25767                       7.29088                       6.14979
                      -0.24920                       7.58301                       6.40281
                      -0.24062                       7.87508                       6.65586
                      -0.23195                       8.16710                       6.90896
                      -0.22322                       8.45908                       7.16209
                      -0.21442                       8.75103                       7.41526
                      -0.20560                       9.04296                       7.66847
                      -0.19679                       9.33490                       7.92174
                      -0.18803                       9.62687                       8.17505
                      -0.18366                       9.77287                       8.30172
        </DataArray>
        <DataArray type="Float32" Name="RotationalAcceleration" NumberOfComponents="3" format="ascii">
                      -0.09039                      -0.02812                      -0.04957
                      -0.08959                      -0.02920                      -0.04859
                      -0.08809                      -0.03131                      -0.04674
                      -0.08675                      -0.03336                      -0.04508
                      -0.08554                      -0.03535                      -0.04363
                      -0.08447                      -0.03731                      -0.04238
                      -0.08352                      -0.03925                      -0.04134
                      -0.08271                      -0.04119                      -0.04051
                      -0.08202                      -0.04315                      -0.03990
                      -0.08141                      -0.04512                      -0.03948
                      -0.08088                      -0.04712                      -0.03923
                      -0.08040                      -0.04916                      -0.03916
                      -0.07997                      -0.05122                      -0.03926
                      -0.07958                      -0.05331                      -0.03953
                      -0.07922                      -0.05544                      -0.03995
                      -0.07888                      -0.05758                      -0.04049
                      -0.07856                      -0.05973                      -0.04114
                      -0.07826                      -0.06187                      -0.04187
                      -0.07797                      -0.06401                      -0.04268
                      -0.07770                      -0.06610                      -0.04354
                      -0.07745                      -0.06813                      -0.04443
                      -0.07722                      -0.07007                      -0.04533
                      -0.07701                      -0.07190                      -0.04620
                      -0.07683                      -0.07360                      -0.04704
                      -0.07668                      -0.07512                      -0.04781
                      -0.07657                      -0.07641                      -0.04849
                      -0.07650                      -0.07741                      -0.04904
                      -0.07647                      -0.07810                      -0.04945
                      -0.07650                      -0.07845                      -0.04969
                      -0.07659                      -0.07839                      -0.04975
                      -0.07673                      -0.07792                      -0.04961
                      -0.07683                      -0.07756                      -0.04948
        </DataArray>
        <DataArray type="Float32" Name="OrientationX" NumberOfComponents="3" format="ascii">
                       0.95639                       0.13466                      -0.25922
                       0.95640                       0.13483                      -0.25909
                       0.95642                       0.13522                      -0.25879
                       0.95645                       0.13571                      -0.25842
                       0.95649                       0.13631                      -0.25797
                       0.95653                       0.13703                      -0.25742
                       0.95658                       0.13788                      -0.25678
                       0.96302                       0.12529                      -0.23855
                       0.96800                       0.11507                      -0.22301
                       0.97200                       0.10662                      -0.20942
                       0.97517                       0.09985                      -0.19769
                       0.97780                       0.09425                      -0.18717
                       0.97995                       0.08982                      -0.17786
                       0.98177                       0.08625                      -0.16939
                       0.98332                       0.08343                      -0.16161
                       0.98466                       0.08121                      -0.15444
                       0.98580                       0.07960                      -0.14789
                       0.98681                       0.07835                      -0.14169
                       0.98769                       0.07745                      -0.13587
                       0.98850                       0.07676                      -0.13032
                       0.98922                       0.07624                      -0.12506
                       0.98988                       0.07576                      -0.11999
                       0.99047                       0.07539                      -0.11527
                       0.99103                       0.07488                      -0.11065
                       0.99158                       0.07419                      -0.10616
                       0.99208                       0.07336                      -0.10200
                       0.99256                       0.07220                      -0.09809
                       0.99304                       0.07060                      -0.09429
                       0.99350                       0.06860                      -0.09080
                       0.99397                       0.06606                      -0.08750
                       0.99444                       0.06295                      -0.08442
                       0.99444                       0.06257                      -0.08471
        </DataArray>
        <DataArray type="Float32" Name="OrientationY" NumberOfComponents="3" format="ascii">
                       0.28761                      -0.58922                       0.75505
                       0.28761                      -0.58922                       0.75505
                       0.28761                      -0.58921                       0.75506
                       0.28761                      -0.58920                       0.75506
                       0.28761                      -0.58920                       0.75507
                       0.28761                      -0.58919                       0.75507
                       0.28761                      -0.58918                       0.75508
                       0.26550                      -0.59219                       0.76080
                       0.24696                      -0.59449                       0.76524
                       0.23105                      -0.59629                       0.76880
                       0.21763                      -0.59770                       0.77162
                       0.20587                      -0.59886                       0.77394
                       0.19579                      -0.59979                       0.77583
                       0.18689                      -0.60058                       0.77742
                       0.17900                      -0.60125                       0.77875
                       0.17196                      -0.60183                       0.77989
                       0.16578                      -0.60232                       0.78085
                       0.16010                      -0.60277                       0.78169
                       0.15493                      -0.60317                       0.78242
                       0.15010                      -0.60354                       0.78308
                       0.14562                      -0.60388                       0.78366
                       0.14130                      -0.60420                       0.78420
                       0.13733                      -0.60450                       0.78468
                       0.13336                      -0.60480                       0.78514
                       0.12938                      -0.60509                       0.78557
                       0.12557                      -0.60537                       0.78598
                       0.12177                      -0.60565                       0.78636
                       0.11778                      -0.60593                       0.78675
                       0.11380                      -0.60621                       0.78712
                       0.10963                      -0.60650                       0.78749
                       0.10529                      -0.60678                       0.78786
                       0.10529                      -0.60678                       0.78786
        </DataArray>
        <DataArray type="Float32" Name="OrientationZ" NumberOfComponents="3" format="ascii">
                      -0.05106                      -0.79667                      -0.60225
                      -0.05085                      -0.79664                      -0.60231
                      -0.05038                      -0.79658                      -0.60242
                      -0.04979                      -0.79651                      -0.60258
                      -0.04907                      -0.79641                      -0.60276
                      -0.04820                      -0.79629                      -0.60299
                      -0.04717                      -0.79615                      -0.60326
                      -0.04595                      -0.79600                      -0.60356
                      -0.04452                      -0.79583                      -0.60388
                      -0.04291                      -0.79566                      -0.60422
                      -0.04111                      -0.79548                      -0.60459
                      -0.03914                      -0.79529                      -0.60496
                      -0.03700                      -0.79510                      -0.60535
                      -0.03468                      -0.79490                      -0.60575
                      -0.03220                      -0.79469                      -0.60616
                      -0.02961                      -0.79449                      -0.60656
                      -0.02692                      -0.79427                      -0.60696
                      -0.02416                      -0.79406                      -0.60736
                      -0.02136                      -0.79384                      -0.60775
                      -0.01855                      -0.79363                      -0.60812
                      -0.01577                      -0.79342                      -0.60847
                      -0.01309                      -0.79322                      -0.60879
                      -0.01052                      -0.79303                      -0.60909
                      -0.00813                      -0.79285                      -0.60936
                      -0.00596                      -0.79269                      -0.60959
                      -0.00409                      -0.79256                      -0.60978
                      -0.00263                      -0.79245                      -0.60993
                      -0.00159                      -0.79238                      -0.61003
                      -0.00104                      -0.79234                      -0.61008
                      -0.00105                      -0.79234                      -0.61008
                      -0.00163                      -0.79237                      -0.61004
                      -0.00211                      -0.79240                      -0.61000
        </DataArray>
      </PointData>
      <Lines>
        <DataArray type="Int32" Name="connectivity" format="ascii">
      0      1
      1      2
      2      3
      3      4
      4      5
      5      6
      6      7
      7      8
      8      9
      9     10
     10     11
     11     12
     12     13
     13     14
     14     15
     15     16
     16     17
     17     18
     18     19
     19     20
     20     21
     21     22
     22     23
     23     24
     24     25
     25     26
     26     27
     27     28
     28     29
     29     30
     30     31
        </DataArray>
        <DataArray type="Int32" Name="offsets" format="ascii">
      2
      4
      6
      8
     10
     12
     14
     16
     18
     20
     22
     24
     26
     28
     30
     32
     34
     36
     38
     40
     42
     44
     46
     48
     50
     52
     54
     56
     58
     60
     62
        </DataArray>
      </Lines>
    </Piece>
  </PolyData>
</VTKFile>
