<?xml version="1.0"?>
<VTKFile type="PolyData" version="0.1" byte_order="LittleEndian">
  <PolyData>
    <Piece NumberOfPoints="     32" NumberOfVerts="  0" NumberOfLines="     31"
           NumberOfStrips="  0" NumberOfPolys="      0">
      <Points>
        <DataArray type="Float32" NumberOfComponents="3" format="ascii">
                      -3.95187                      -1.01712                     -19.89785
                      -3.95357                      -1.16453                     -19.92555
                      -3.95694                      -1.45935                     -19.98097
                      -3.96018                      -1.75416                     -20.03643
                      -3.96327                      -2.04896                     -20.09196
                      -3.96614                      -2.34375                     -20.14755
                      -3.96876                      -2.63852                     -20.20324
                      -3.97111                      -2.93328                     -20.25900
                      -3.97314                      -3.22803                     -20.31485
                      -3.97478                      -3.52276                     -20.37080
                      -3.97595                      -3.81748                     -20.42685
                      -3.97661                      -4.11217                     -20.48303
                      -3.97669                      -4.40684                     -20.53931
                      -3.97622                      -4.70150                     -20.59571
                      -3.97518                      -4.99612                     -20.65221
                      -3.97345                      -5.29073                     -20.70883
                      -3.97099                      -5.58530                     -20.76557
                      -3.96777                      -5.87985                     -20.82244
                      -3.96378                      -6.17436                     -20.87943
                      -3.95911                      -6.46884                     -20.93652
                      -3.95375                      -6.76329                     -20.99370
                      -3.94763                      -7.05770                     -21.05100
                      -3.94078                      -7.35208                     -21.10839
                      -3.93324                      -7.64643                     -21.16587
                      -3.92508                      -7.94074                     -21.22343
                      -3.91644                      -8.23503                     -21.28105
                      -3.90738                      -8.52929                     -21.33871
                      -3.89795                      -8.82354                     -21.39642
                      -3.88827                      -9.11777                     -21.45415
                      -3.87852                      -9.41200                     -21.51189
                      -3.86890                      -9.70624                     -21.56962
                      -3.86413                      -9.85336                     -21.59847
        </DataArray>
      </Points>
      <PointData>
        <DataArray type="Float32" Name="Force" NumberOfComponents="3" format="ascii">
                   -6086.97750                    7849.24273                   -8047.96201
                   12425.16713                  -18514.46960                   31067.07401
                   11126.76768                  -40302.53344                   10799.74874
                   28123.97537                  -35714.83826                   80207.43063
                  -14256.32939                    5715.92844                  -51115.58886
                  -13963.90319                   42601.17260                  -32186.33855
                  -22910.11990                   52550.95511                  -21818.06265
                   10863.89434                   33607.77999                   28908.40359
                   -1091.96105                   30751.32952                    3579.02078
                    3944.94977                   14379.96900                   23854.45259
                    -661.78460                   11666.20287                    1011.87092
                     400.47376                   11783.66672                    6560.24771
                     340.03573                   11616.03367                    4874.41028
                     951.57083                   11263.28858                    5231.87399
                    1076.87049                   11004.13553                    4591.16674
                    1763.60438                   10872.06323                    4457.02364
                    2450.25558                   10712.82813                    4349.07525
                    2918.55826                   10398.07968                    4068.31938
                    3635.99074                   10052.29304                    3657.68310
                    4356.21910                   10093.35044                    3568.12760
                    5173.03001                    9828.78081                    3331.81345
                    5936.97194                    9653.28744                    2959.93586
                    6687.83845                    9433.16951                    2934.20837
                    7426.30038                    9040.02546                    2488.37143
                    7991.03409                    8905.73327                    2385.91293
                    8676.43713                    8869.23179                    2158.42848
                    8925.10587                    7994.18799                    1947.92431
                    9017.22443                    9064.29444                    2007.45434
                    8486.62824                    4046.89977                    1156.53412
                    5742.50862                   20923.23283                    4212.56362
                    3620.96103                  -45175.12912                   -6754.18807
                   -6280.54281                  267063.27248                   52330.58974
        </DataArray>
        <DataArray type="Float32" Name="Moment" NumberOfComponents="3" format="ascii">
                     212.62333                       3.25324                     200.57980
                    1398.21426                      64.23619                    -859.05852
                    2264.43751                     225.97294                    -608.63028
                   -1092.34800                    -843.78142                     154.84696
                   -3418.49395                     235.27149                     932.48189
                   -3872.16442                    -124.39122                    2486.23140
                   -6093.15498                   -1946.97275                    2514.23948
                   -4637.28711                    -123.98167                    1681.85893
                   -4311.73278                    -389.62441                    2236.05304
                   -1756.45918                    -678.33134                     639.36030
                   -2144.43206                     -83.50295                     788.08877
                   -1047.61479                    -204.48342                     490.44304
                   -1494.75870                    -165.24045                     552.79918
                   -1237.76750                    -147.17192                     481.51654
                   -1244.28724                    -149.04169                     458.85389
                   -1151.86970                    -122.09227                     410.58196
                   -1110.09086                    -113.13189                     402.24570
                   -1047.33066                    -122.64295                     367.24844
                    -970.57029                    -104.74368                     329.90877
                    -928.34450                    -103.65616                     313.36102
                    -879.17922                     -92.42752                     287.74980
                    -812.65811                     -85.51411                     268.65593
                    -760.72689                     -85.43725                     243.07228
                    -695.90222                     -75.48421                     224.05074
                    -645.49532                     -79.20263                     198.73365
                    -605.40831                     -63.40439                     185.30684
                    -521.89458                     -65.46629                     158.67295
                    -528.28060                     -55.83153                     154.31073
                    -289.04019                     -41.58569                      89.93449
                    -994.98366                    -100.07429                     281.77053
                    2152.55197                     188.62162                    -627.35310
                  -13468.46389                   -1201.49305                    3845.70777
        </DataArray>
        <DataArray type="Float32" Name="TranslationalVelocity" NumberOfComponents="3" format="ascii">
                       0.86198                       0.18694                      -0.91738
                       0.84943                       0.21985                      -1.09178
                       0.82436                       0.28569                      -1.44053
                       0.79933                       0.35156                      -1.78917
                       0.77432                       0.41747                      -2.13769
                       0.74930                       0.48343                      -2.48612
                       0.72425                       0.54945                      -2.83447
                       0.69915                       0.61553                      -3.18275
                       0.67398                       0.68168                      -3.53095
                       0.64873                       0.74791                      -3.87909
                       0.62335                       0.81422                      -4.22715
                       0.59784                       0.88061                      -4.57515
                       0.57216                       0.94707                      -4.92307
                       0.54632                       1.01361                      -5.27094
                       0.52031                       1.08022                      -5.61875
                       0.49410                       1.14690                      -5.96650
                       0.46766                       1.21365                      -6.31417
                       0.44100                       1.28047                      -6.66177
                       0.41409                       1.34735                      -7.00930
                       0.38698                       1.41428                      -7.35677
                       0.35965                       1.48126                      -7.70418
                       0.33209                       1.54828                      -8.05151
                       0.30430                       1.61534                      -8.39879
                       0.27630                       1.68243                      -8.74600
                       0.24810                       1.74954                      -9.09316
                       0.21975                       1.81667                      -9.44028
                       0.19126                       1.88381                      -9.78737
                       0.16266                       1.95096                     -10.13444
                       0.13398                       2.01811                     -10.48150
                       0.10527                       2.08527                     -10.82856
                       0.07661                       2.15242                     -11.17565
                       0.06228                       2.18600                     -11.34921
        </DataArray>
        <DataArray type="Float32" Name="RotationalVelocity" NumberOfComponents="3" format="ascii">
                       1.18400                       0.05848                      -0.07423
                       1.18378                       0.05847                      -0.07413
                       1.18338                       0.05844                      -0.07398
                       1.18303                       0.05843                      -0.07388
                       1.18271                       0.05843                      -0.07385
                       1.18241                       0.05844                      -0.07389
                       1.18214                       0.05846                      -0.07400
                       1.18188                       0.05850                      -0.07418
                       1.18163                       0.05855                      -0.07444
                       1.18138                       0.05862                      -0.07477
                       1.18114                       0.05869                      -0.07516
                       1.18089                       0.05878                      -0.07562
                       1.18065                       0.05888                      -0.07613
                       1.18040                       0.05899                      -0.07670
                       1.18014                       0.05911                      -0.07732
                       1.17989                       0.05923                      -0.07798
                       1.17963                       0.05937                      -0.07867
                       1.17937                       0.05951                      -0.07939
                       1.17912                       0.05965                      -0.08012
                       1.17886                       0.05979                      -0.08087
                       1.17862                       0.05993                      -0.08160
                       1.17839                       0.06007                      -0.08232
                       1.17818                       0.06020                      -0.08300
                       1.17799                       0.06032                      -0.08365
                       1.17783                       0.06043                      -0.08423
                       1.17769                       0.06053                      -0.08474
                       1.17760                       0.06061                      -0.08514
                       1.17756                       0.06066                      -0.08542
                       1.17755                       0.06069                      -0.08558
                       1.17760                       0.06069                      -0.08559
                       1.17771                       0.06066                      -0.08544
                       1.17777                       0.06064                      -0.08532
        </DataArray>
        <DataArray type="Float32" Name="TranslationalAcceleration" NumberOfComponents="3" format="ascii">
                      -0.32272                       1.35757                       0.32647
                      -0.33859                       1.56040                       0.39019
                      -0.37015                       1.96608                       0.51675
                      -0.40122                       2.37182                       0.64127
                      -0.43166                       2.77759                       0.76406
                      -0.46135                       3.18339                       0.88535
                      -0.49013                       3.58921                       1.00533
                      -0.51798                       3.99503                       1.12428
                      -0.54483                       4.40087                       1.24225
                      -0.57039                       4.80670                       1.35921
                      -0.59453                       5.21254                       1.47524
                      -0.61710                       5.61839                       1.59038
                      -0.63798                       6.02424                       1.70466
                      -0.65727                       6.43011                       1.81818
                      -0.67492                       6.83599                       1.93094
                      -0.69062                       7.24191                       2.04285
                      -0.70430                       7.64787                       2.15391
                      -0.71591                       8.05388                       2.26411
                      -0.72541                       8.45996                       2.37346
                      -0.73305                       8.86611                       2.48207
                      -0.73884                       9.27232                       2.58996
                      -0.74259                       9.67863                       2.69705
                      -0.74437                      10.08504                       2.80340
                      -0.74431                      10.49154                       2.90908
                      -0.74259                      10.89815                       3.01419
                      -0.73959                      11.30483                       3.11888
                      -0.73545                      11.71158                       3.22323
                      -0.73031                      12.11840                       3.32734
                      -0.72453                      12.52526                       3.43138
                      -0.71855                      12.93213                       3.53557
                      -0.71292                      13.33897                       3.64013
                      -0.71021                      13.54238                       3.69251
        </DataArray>
        <DataArray type="Float32" Name="RotationalAcceleration" NumberOfComponents="3" format="ascii">
                      -0.16717                      -0.01449                      -0.05859
                      -0.16348                      -0.01470                      -0.05800
                      -0.15660                      -0.01512                      -0.05661
                      -0.15050                      -0.01554                      -0.05487
                      -0.14510                      -0.01597                      -0.05274
                      -0.14027                      -0.01639                      -0.05021
                      -0.13589                      -0.01682                      -0.04728
                      -0.13194                      -0.01727                      -0.04384
                      -0.12830                      -0.01773                      -0.03990
                      -0.12486                      -0.01819                      -0.03554
                      -0.12156                      -0.01867                      -0.03078
                      -0.11836                      -0.01916                      -0.02564
                      -0.11522                      -0.01966                      -0.02015
                      -0.11211                      -0.02017                      -0.01429
                      -0.10900                      -0.02069                      -0.00813
                      -0.10588                      -0.02121                      -0.00174
                      -0.10278                      -0.02173                       0.00484
                      -0.09969                      -0.02225                       0.01154
                      -0.09663                      -0.02277                       0.01831
                      -0.09364                      -0.02329                       0.02507
                      -0.09078                      -0.02378                       0.03170
                      -0.08808                      -0.02426                       0.03813
                      -0.08558                      -0.02471                       0.04424
                      -0.08333                      -0.02512                       0.04994
                      -0.08140                      -0.02550                       0.05512
                      -0.07988                      -0.02581                       0.05956
                      -0.07886                      -0.02606                       0.06305
                      -0.07837                      -0.02623                       0.06554
                      -0.07846                      -0.02632                       0.06687
                      -0.07920                      -0.02631                       0.06687
                      -0.08059                      -0.02619                       0.06549
                      -0.08149                      -0.02611                       0.06436
        </DataArray>
        <DataArray type="Float32" Name="OrientationX" NumberOfComponents="3" format="ascii">
                       0.95929                       0.04125                      -0.27938
                       0.95930                       0.04141                      -0.27935
                       0.95930                       0.04179                      -0.27928
                       0.95931                       0.04228                      -0.27919
                       0.95931                       0.04290                      -0.27907
                       0.95932                       0.04365                      -0.27893
                       0.95933                       0.04455                      -0.27876
                       0.96558                       0.04146                      -0.25678
                       0.97040                       0.03922                      -0.23828
                       0.97424                       0.03765                      -0.22235
                       0.97726                       0.03670                      -0.20883
                       0.97975                       0.03623                      -0.19692
                       0.98176                       0.03622                      -0.18665
                       0.98344                       0.03659                      -0.17750
                       0.98486                       0.03728                      -0.16932
                       0.98606                       0.03824                      -0.16195
                       0.98706                       0.03944                      -0.15541
                       0.98794                       0.04080                      -0.14936
                       0.98870                       0.04229                      -0.14380
                       0.98938                       0.04385                      -0.13858
                       0.98998                       0.04544                      -0.13370
                       0.99053                       0.04698                      -0.12899
                       0.99102                       0.04848                      -0.12465
                       0.99148                       0.04983                      -0.12034
                       0.99193                       0.05098                      -0.11605
                       0.99235                       0.05189                      -0.11199
                       0.99277                       0.05245                      -0.10800
                       0.99319                       0.05261                      -0.10391
                       0.99362                       0.05234                      -0.09990
                       0.99406                       0.05155                      -0.09581
                       0.99452                       0.05022                      -0.09164
                       0.99454                       0.04980                      -0.09172
        </DataArray>
        <DataArray type="Float32" Name="OrientationY" NumberOfComponents="3" format="ascii">
                       0.28218                      -0.18028                       0.94227
                       0.28217                      -0.18031                       0.94227
                       0.28217                      -0.18036                       0.94226
                       0.28217                      -0.18040                       0.94225
                       0.28217                      -0.18044                       0.94224
                       0.28217                      -0.18047                       0.94224
                       0.28217                      -0.18049                       0.94223
                       0.26000                      -0.18149                       0.94840
                       0.24141                      -0.18228                       0.95315
                       0.22546                      -0.18291                       0.95693
                       0.21201                      -0.18343                       0.95990
                       0.20023                      -0.18388                       0.96234
                       0.19013                      -0.18426                       0.96431
                       0.18121                      -0.18460                       0.96596
                       0.17331                      -0.18490                       0.96736
                       0.16626                      -0.18518                       0.96854
                       0.16006                      -0.18543                       0.96953
                       0.15438                      -0.18567                       0.97041
                       0.14920                      -0.18590                       0.97117
                       0.14437                      -0.18612                       0.97186
                       0.13988                      -0.18633                       0.97248
                       0.13557                      -0.18655                       0.97305
                       0.13159                      -0.18675                       0.97356
                       0.12761                      -0.18695                       0.97404
                       0.12364                      -0.18716                       0.97452
                       0.11983                      -0.18737                       0.97495
                       0.11602                      -0.18757                       0.97538
                       0.11203                      -0.18778                       0.97580
                       0.10805                      -0.18799                       0.97621
                       0.10388                      -0.18820                       0.97662
                       0.09954                      -0.18842                       0.97703
                       0.09954                      -0.18841                       0.97703
        </DataArray>
        <DataArray type="Float32" Name="OrientationZ" NumberOfComponents="3" format="ascii">
                      -0.01150                      -0.98275                      -0.18459
                      -0.01135                      -0.98274                      -0.18466
                      -0.01099                      -0.98271                      -0.18481
                      -0.01053                      -0.98268                      -0.18499
                      -0.00994                      -0.98265                      -0.18520
                      -0.00921                      -0.98261                      -0.18545
                      -0.00834                      -0.98257                      -0.18572
                      -0.00729                      -0.98252                      -0.18603
                      -0.00605                      -0.98246                      -0.18635
                      -0.00464                      -0.98241                      -0.18669
                      -0.00307                      -0.98235                      -0.18704
                      -0.00134                      -0.98228                      -0.18741
                       0.00054                      -0.98221                      -0.18779
                       0.00258                      -0.98213                      -0.18817
                       0.00476                      -0.98205                      -0.18856
                       0.00705                      -0.98196                      -0.18895
                       0.00942                      -0.98187                      -0.18934
                       0.01186                      -0.98176                      -0.18973
                       0.01434                      -0.98166                      -0.19011
                       0.01682                      -0.98155                      -0.19048
                       0.01927                      -0.98144                      -0.19082
                       0.02165                      -0.98132                      -0.19115
                       0.02392                      -0.98121                      -0.19145
                       0.02604                      -0.98110                      -0.19172
                       0.02796                      -0.98101                      -0.19196
                       0.02961                      -0.98092                      -0.19215
                       0.03090                      -0.98085                      -0.19230
                       0.03182                      -0.98080                      -0.19240
                       0.03231                      -0.98078                      -0.19245
                       0.03231                      -0.98078                      -0.19244
                       0.03180                      -0.98080                      -0.19238
                       0.03137                      -0.98083                      -0.19234
        </DataArray>
      </PointData>
      <Lines>
        <DataArray type="Int32" Name="connectivity" format="ascii">
      0      1
      1      2
      2      3
      3      4
      4      5
      5      6
      6      7
      7      8
      8      9
      9     10
     10     11
     11     12
     12     13
     13     14
     14     15
     15     16
     16     17
     17     18
     18     19
     19     20
     20     21
     21     22
     22     23
     23     24
     24     25
     25     26
     26     27
     27     28
     28     29
     29     30
     30     31
        </DataArray>
        <DataArray type="Int32" Name="offsets" format="ascii">
      2
      4
      6
      8
     10
     12
     14
     16
     18
     20
     22
     24
     26
     28
     30
     32
     34
     36
     38
     40
     42
     44
     46
     48
     50
     52
     54
     56
     58
     60
     62
        </DataArray>
      </Lines>
    </Piece>
  </PolyData>
</VTKFile>
