<?xml version="1.0"?>
<VTKFile type="PolyData" version="0.1" byte_order="LittleEndian">
  <PolyData>
    <Piece NumberOfPoints="     32" NumberOfVerts="  0" NumberOfLines="     31"
           NumberOfStrips="  0" NumberOfPolys="      0">
      <Points>
        <DataArray type="Float32" NumberOfComponents="3" format="ascii">
                      -3.53417                       0.75078                     -19.02084
                      -3.52650                       0.87029                     -18.93051
                      -3.51116                       1.10931                     -18.74988
                      -3.49577                       1.34837                     -18.56928
                      -3.48032                       1.58744                     -18.38871
                      -3.46477                       1.82653                     -18.20816
                      -3.44909                       2.06561                     -18.02763
                      -3.43327                       2.30469                     -17.84710
                      -3.41729                       2.54377                     -17.66658
                      -3.40110                       2.78283                     -17.48607
                      -3.38466                       3.02189                     -17.30556
                      -3.36793                       3.26093                     -17.12506
                      -3.35089                       3.49995                     -16.94457
                      -3.33354                       3.73896                     -16.76409
                      -3.31588                       3.97796                     -16.58362
                      -3.29782                       4.21693                     -16.40316
                      -3.27936                       4.45589                     -16.22273
                      -3.26047                       4.69484                     -16.04231
                      -3.24115                       4.93376                     -15.86192
                      -3.22144                       5.17267                     -15.68155
                      -3.20135                       5.41157                     -15.50120
                      -3.18083                       5.65045                     -15.32088
                      -3.15989                       5.88931                     -15.14059
                      -3.13857                       6.12817                     -14.96033
                      -3.11689                       6.36701                     -14.78009
                      -3.09495                       6.60584                     -14.59988
                      -3.07276                       6.84466                     -14.41968
                      -3.05037                       7.08348                     -14.23950
                      -3.02783                       7.32229                     -14.05932
                      -3.00526                       7.56109                     -13.87915
                      -2.98276                       7.79989                     -13.69896
                      -2.97153                       7.91929                     -13.60886
        </DataArray>
      </Points>
      <PointData>
        <DataArray type="Float32" Name="Force" NumberOfComponents="3" format="ascii">
                   -4485.73680                  -15672.35823                   11200.11081
                    8737.59535                   24060.00109                  -12742.20849
                   10594.64142                   33532.44838                   14196.20994
                   17045.40850                   58866.84435                  -45041.64442
                   -7223.85096                  -31009.31644                   51859.90692
                  -11602.01221                  -53824.33237                   19094.03002
                  -21787.04470                  -57138.47706                    5847.30927
                    2546.55721                  -19707.80078                  -32035.48650
                   -5060.20784                  -26905.13462                   -9566.64249
                   -2620.42930                   -5441.67592                  -19711.16938
                   -3838.14260                  -11885.13170                    -495.74126
                   -3596.01897                   -9536.86036                   -5140.63612
                   -3484.51529                   -9766.86143                   -3891.34949
                   -3099.02515                   -9068.52165                   -4243.16219
                   -2971.52514                   -8832.58554                   -3815.47158
                   -2433.75282                   -8499.78883                   -3879.21888
                   -1918.95225                   -8140.16615                   -3935.65549
                   -1525.72799                   -7747.95723                   -3799.79030
                    -864.13471                   -7386.00151                   -3586.55875
                    -237.03935                   -7185.53916                   -3729.75405
                     499.04760                   -6829.31763                   -3679.18012
                    1265.38095                   -6590.59783                   -3564.53990
                    2035.69018                   -6220.88459                   -3662.52558
                    2893.40335                   -5887.89335                   -3434.53130
                    3653.85140                   -5633.39524                   -3492.80860
                    4532.57789                   -5476.62053                   -3513.84700
                    5162.89822                   -4845.11371                   -3263.07344
                    5719.40579                   -5281.53994                   -3702.83224
                    6091.39902                   -2541.52191                   -1879.88950
                    4889.77060                  -11231.86933                   -8229.04044
                    7013.71048                   23294.38687                   16401.29153
                  -11419.26459                 -137656.88048                 -103169.17689
        </DataArray>
        <DataArray type="Float32" Name="Moment" NumberOfComponents="3" format="ascii">
                    -218.65729                     108.13760                    -162.55368
                     909.87470                    -395.29543                     541.68988
                    2534.81523                    -437.59496                      42.13420
                    -660.52276                     496.35196                     242.89350
                   -3057.18644                    -258.69857                    -609.01721
                   -3953.34827                     603.33435                   -1711.61343
                   -6096.81103                    2084.37283                    -746.90163
                   -4533.28614                     315.42190                    -943.39545
                   -4233.77034                     855.30003                   -1248.50530
                   -1638.86285                     532.12203                    -159.98105
                   -1979.00811                     144.42530                    -438.91137
                    -970.84776                     168.65352                    -273.44576
                   -1347.25047                     162.16666                    -269.91332
                   -1098.58668                     142.44947                    -240.74602
                   -1085.35193                     148.20451                    -208.63587
                    -987.99519                     121.01338                    -182.70282
                    -937.68789                     120.99470                    -175.85777
                    -868.72540                     122.81553                    -145.66460
                    -791.36519                     102.41952                    -128.35116
                    -744.26369                     103.28941                    -117.04509
                    -691.97402                      93.37196                    -101.54682
                    -629.46396                      86.56056                     -92.70971
                    -578.08000                      82.64004                     -77.60619
                    -520.09603                      73.81419                     -70.52254
                    -472.80107                      70.91416                     -55.76755
                    -435.56172                      60.59405                     -53.22165
                    -368.54400                      57.72781                     -40.99815
                    -365.44754                      51.08371                     -38.16695
                    -195.33502                      32.54685                     -24.10414
                    -672.72980                     100.94243                     -54.38170
                    1477.41963                    -231.07963                     113.88450
                   -8818.87745                    1378.08628                    -729.04637
        </DataArray>
        <DataArray type="Float32" Name="TranslationalVelocity" NumberOfComponents="3" format="ascii">
                       0.92901                      -0.70802                       1.09683
                       0.94505                      -0.81093                       1.23163
                       0.97713                      -1.01675                       1.50126
                       1.00920                      -1.22259                       1.77100
                       1.04122                      -1.42846                       2.04082
                       1.07315                      -1.63434                       2.31071
                       1.10497                      -1.84024                       2.58062
                       1.13664                      -2.04616                       2.85055
                       1.16816                      -2.25209                       3.12049
                       1.19945                      -2.45804                       3.39044
                       1.23049                      -2.66400                       3.66038
                       1.26122                      -2.86998                       3.93031
                       1.29161                      -3.07597                       4.20023
                       1.32168                      -3.28197                       4.47014
                       1.35139                      -3.48797                       4.74004
                       1.38069                      -3.69399                       5.00994
                       1.40954                      -3.90001                       5.27983
                       1.43792                      -4.10603                       5.54971
                       1.46583                      -4.31206                       5.81960
                       1.49331                      -4.51809                       6.08949
                       1.52037                      -4.72411                       6.35939
                       1.54695                      -4.93013                       6.62929
                       1.57307                      -5.13614                       6.89920
                       1.59877                      -5.34215                       7.16913
                       1.62408                      -5.54814                       7.43906
                       1.64909                      -5.75413                       7.70900
                       1.67384                      -5.96011                       7.97895
                       1.69835                      -6.16609                       8.24891
                       1.72271                      -6.37206                       8.51886
                       1.74702                      -6.57802                       8.78880
                       1.77141                      -6.78398                       9.05871
                       1.78363                      -6.88697                       9.19367
        </DataArray>
        <DataArray type="Float32" Name="RotationalVelocity" NumberOfComponents="3" format="ascii">
                       1.13093                       0.05048                      -0.09608
                       1.13112                       0.05047                      -0.09609
                       1.13146                       0.05043                      -0.09607
                       1.13175                       0.05035                      -0.09599
                       1.13197                       0.05021                      -0.09582
                       1.13214                       0.05002                      -0.09558
                       1.13227                       0.04976                      -0.09525
                       1.13236                       0.04943                      -0.09483
                       1.13244                       0.04903                      -0.09429
                       1.13249                       0.04855                      -0.09367
                       1.13254                       0.04801                      -0.09296
                       1.13259                       0.04740                      -0.09215
                       1.13263                       0.04673                      -0.09127
                       1.13268                       0.04599                      -0.09029
                       1.13274                       0.04519                      -0.08924
                       1.13280                       0.04434                      -0.08813
                       1.13287                       0.04347                      -0.08697
                       1.13294                       0.04256                      -0.08578
                       1.13302                       0.04163                      -0.08456
                       1.13311                       0.04070                      -0.08334
                       1.13320                       0.03978                      -0.08213
                       1.13330                       0.03888                      -0.08095
                       1.13339                       0.03803                      -0.07983
                       1.13347                       0.03723                      -0.07878
                       1.13355                       0.03650                      -0.07782
                       1.13362                       0.03588                      -0.07701
                       1.13366                       0.03539                      -0.07636
                       1.13368                       0.03504                      -0.07590
                       1.13368                       0.03486                      -0.07565
                       1.13364                       0.03485                      -0.07565
                       1.13356                       0.03504                      -0.07589
                       1.13350                       0.03520                      -0.07609
        </DataArray>
        <DataArray type="Float32" Name="TranslationalAcceleration" NumberOfComponents="3" format="ascii">
                      -0.36588                      -0.94416                      -0.99841
                      -0.36575                      -1.09036                      -1.12622
                      -0.36575                      -1.38284                      -1.38188
                      -0.36629                      -1.67549                      -1.63768
                      -0.36714                      -1.96827                      -1.89355
                      -0.36804                      -2.26117                      -2.14945
                      -0.36872                      -2.55417                      -2.40535
                      -0.36899                      -2.84727                      -2.66122
                      -0.36868                      -3.14045                      -2.91705
                      -0.36749                      -3.43374                      -3.17281
                      -0.36513                      -3.72714                      -3.42850
                      -0.36135                      -4.02065                      -3.68411
                      -0.35588                      -4.31428                      -3.93965
                      -0.34874                      -4.60802                      -4.19512
                      -0.33982                      -4.90189                      -4.45055
                      -0.32871                      -5.19590                      -4.70592
                      -0.31523                      -5.49008                      -4.96125
                      -0.29926                      -5.78442                      -5.21656
                      -0.28073                      -6.07895                      -5.47187
                      -0.25988                      -6.37365                      -5.72718
                      -0.23672                      -6.66851                      -5.98250
                      -0.21098                      -6.96357                      -6.23785
                      -0.18273                      -7.25883                      -6.49324
                      -0.15213                      -7.55427                      -6.74867
                      -0.11938                      -7.84988                      -7.00416
                      -0.08498                      -8.14562                      -7.25969
                      -0.04912                      -8.44147                      -7.51527
                      -0.01194                      -8.73742                      -7.77088
                       0.02608                      -9.03342                      -8.02653
                       0.06438                      -9.32941                      -8.28218
                       0.10226                      -9.62533                      -8.53780
                       0.12107                      -9.77328                      -8.66560
        </DataArray>
        <DataArray type="Float32" Name="RotationalAcceleration" NumberOfComponents="3" format="ascii">
                      -0.09039                      -0.02812                      -0.04957
                      -0.09051                      -0.02881                      -0.04868
                      -0.09072                      -0.03001                      -0.04722
                      -0.09084                      -0.03090                      -0.04631
                      -0.09086                      -0.03145                      -0.04602
                      -0.09078                      -0.03165                      -0.04638
                      -0.09060                      -0.03149                      -0.04741
                      -0.09033                      -0.03092                      -0.04921
                      -0.09000                      -0.02994                      -0.05180
                      -0.08965                      -0.02861                      -0.05508
                      -0.08928                      -0.02692                      -0.05903
                      -0.08891                      -0.02490                      -0.06363
                      -0.08855                      -0.02256                      -0.06885
                      -0.08821                      -0.01990                      -0.07471
                      -0.08790                      -0.01694                      -0.08113
                      -0.08761                      -0.01376                      -0.08798
                      -0.08736                      -0.01040                      -0.09519
                      -0.08715                      -0.00689                      -0.10267
                      -0.08697                      -0.00328                      -0.11034
                      -0.08683                       0.00039                      -0.11811
                      -0.08674                       0.00404                      -0.12581
                      -0.08668                       0.00760                      -0.13331
                      -0.08666                       0.01102                      -0.14049
                      -0.08666                       0.01422                      -0.14721
                      -0.08670                       0.01715                      -0.15334
                      -0.08675                       0.01967                      -0.15860
                      -0.08681                       0.02166                      -0.16276
                      -0.08687                       0.02310                      -0.16573
                      -0.08691                       0.02388                      -0.16735
                      -0.08692                       0.02393                      -0.16741
                      -0.08689                       0.02320                      -0.16587
                      -0.08685                       0.02260                      -0.16458
        </DataArray>
        <DataArray type="Float32" Name="OrientationX" NumberOfComponents="3" format="ascii">
                       0.98645                      -0.13439                       0.09414
                       0.98645                      -0.13441                       0.09412
                       0.98644                      -0.13448                       0.09406
                       0.98643                      -0.13461                       0.09397
                       0.98642                      -0.13481                       0.09382
                       0.98640                      -0.13508                       0.09361
                       0.98638                      -0.13542                       0.09336
                       0.98968                      -0.12225                       0.07473
                       0.99202                      -0.11139                       0.05906
                       0.99372                      -0.10224                       0.04553
                       0.99492                      -0.09470                       0.03402
                       0.99581                      -0.08826                       0.02384
                       0.99644                      -0.08293                       0.01499
                       0.99690                      -0.07840                       0.00706
                       0.99722                      -0.07455                      -0.00009
                       0.99743                      -0.07128                      -0.00658
                       0.99757                      -0.06857                      -0.01240
                       0.99765                      -0.06620                      -0.01783
                       0.99768                      -0.06417                      -0.02285
                       0.99767                      -0.06235                      -0.02760
                       0.99764                      -0.06072                      -0.03205
                       0.99759                      -0.05916                      -0.03635
                       0.99752                      -0.05777                      -0.04032
                       0.99743                      -0.05630                      -0.04425
                       0.99734                      -0.05475                      -0.04811
                       0.99724                      -0.05318                      -0.05173
                       0.99715                      -0.05145                      -0.05523
                       0.99705                      -0.04945                      -0.05875
                       0.99695                      -0.04725                      -0.06212
                       0.99685                      -0.04472                      -0.06546
                       0.99675                      -0.04186                      -0.06876
                       0.99677                      -0.04167                      -0.06862
        </DataArray>
        <DataArray type="Float32" Name="OrientationY" NumberOfComponents="3" format="ascii">
                       0.15593                       0.58929                      -0.79273
                       0.15593                       0.58921                      -0.79279
                       0.15592                       0.58907                      -0.79290
                       0.15591                       0.58895                      -0.79299
                       0.15590                       0.58884                      -0.79307
                       0.15590                       0.58875                      -0.79314
                       0.15589                       0.58867                      -0.79320
                       0.13312                       0.59157                      -0.79519
                       0.11409                       0.59375                      -0.79652
                       0.09780                       0.59544                      -0.79742
                       0.08409                       0.59674                      -0.79801
                       0.07210                       0.59779                      -0.79840
                       0.06183                       0.59863                      -0.79864
                       0.05278                       0.59931                      -0.79878
                       0.04478                       0.59987                      -0.79884
                       0.03763                       0.60034                      -0.79886
                       0.03136                       0.60073                      -0.79883
                       0.02561                       0.60107                      -0.79879
                       0.02039                       0.60136                      -0.79872
                       0.01551                       0.60162                      -0.79863
                       0.01097                       0.60186                      -0.79853
                       0.00662                       0.60207                      -0.79841
                       0.00261                       0.60227                      -0.79829
                      -0.00140                       0.60246                      -0.79815
                      -0.00540                       0.60265                      -0.79798
                      -0.00924                       0.60284                      -0.79781
                      -0.01307                       0.60302                      -0.79762
                      -0.01707                       0.60322                      -0.79739
                      -0.02107                       0.60342                      -0.79715
                      -0.02525                       0.60363                      -0.79687
                      -0.02959                       0.60385                      -0.79655
                      -0.02959                       0.60387                      -0.79654
        </DataArray>
        <DataArray type="Float32" Name="OrientationZ" NumberOfComponents="3" format="ascii">
                       0.05106                       0.79667                       0.60225
                       0.05110                       0.79672                       0.60218
                       0.05122                       0.79681                       0.60205
                       0.05141                       0.79688                       0.60194
                       0.05167                       0.79692                       0.60186
                       0.05202                       0.79695                       0.60181
                       0.05246                       0.79695                       0.60177
                       0.05300                       0.79693                       0.60174
                       0.05366                       0.79690                       0.60172
                       0.05442                       0.79687                       0.60170
                       0.05527                       0.79682                       0.60168
                       0.05622                       0.79678                       0.60165
                       0.05726                       0.79672                       0.60162
                       0.05839                       0.79667                       0.60159
                       0.05961                       0.79662                       0.60154
                       0.06089                       0.79656                       0.60149
                       0.06222                       0.79650                       0.60142
                       0.06360                       0.79645                       0.60135
                       0.06499                       0.79639                       0.60128
                       0.06639                       0.79634                       0.60119
                       0.06778                       0.79629                       0.60110
                       0.06912                       0.79624                       0.60101
                       0.07040                       0.79620                       0.60092
                       0.07160                       0.79616                       0.60084
                       0.07268                       0.79612                       0.60075
                       0.07361                       0.79609                       0.60068
                       0.07435                       0.79606                       0.60063
                       0.07487                       0.79604                       0.60059
                       0.07515                       0.79602                       0.60058
                       0.07515                       0.79601                       0.60060
                       0.07486                       0.79600                       0.60065
                       0.07463                       0.79600                       0.60068
        </DataArray>
      </PointData>
      <Lines>
        <DataArray type="Int32" Name="connectivity" format="ascii">
      0      1
      1      2
      2      3
      3      4
      4      5
      5      6
      6      7
      7      8
      8      9
      9     10
     10     11
     11     12
     12     13
     13     14
     14     15
     15     16
     16     17
     17     18
     18     19
     19     20
     20     21
     21     22
     22     23
     23     24
     24     25
     25     26
     26     27
     27     28
     28     29
     29     30
     30     31
        </DataArray>
        <DataArray type="Int32" Name="offsets" format="ascii">
      2
      4
      6
      8
     10
     12
     14
     16
     18
     20
     22
     24
     26
     28
     30
     32
     34
     36
     38
     40
     42
     44
     46
     48
     50
     52
     54
     56
     58
     60
     62
        </DataArray>
      </Lines>
    </Piece>
  </PolyData>
</VTKFile>
