<?xml version="1.0"?>
<VTKFile type="PolyData" version="0.1" byte_order="LittleEndian">
  <PolyData>
    <Piece NumberOfPoints="     32" NumberOfVerts="  0" NumberOfLines="     31"
           NumberOfStrips="  0" NumberOfPolys="      0">
      <Points>
        <DataArray type="Float32" NumberOfComponents="3" format="ascii">
                      -4.52751                       0.83501                     -20.40264
                      -4.52953                       0.96250                     -20.48164
                      -4.53351                       1.21747                     -20.63967
                      -4.53732                       1.47242                     -20.79775
                      -4.54086                       1.72737                     -20.95583
                      -4.54404                       1.98232                     -21.11390
                      -4.54675                       2.23731                     -21.27194
                      -4.54896                       2.49233                     -21.42993
                      -4.55060                       2.74738                     -21.58786
                      -4.55149                       3.00248                     -21.74573
                      -4.55150                       3.25763                     -21.90353
                      -4.55054                       3.51283                     -22.06124
                      -4.54847                       3.76807                     -22.21887
                      -4.54535                       4.02335                     -22.37642
                      -4.54113                       4.27866                     -22.53390
                      -4.53557                       4.53400                     -22.69129
                      -4.52861                       4.78936                     -22.84859
                      -4.52020                       5.04472                     -23.00581
                      -4.51029                       5.30009                     -23.16293
                      -4.49906                       5.55545                     -23.31998
                      -4.48650                       5.81080                     -23.47696
                      -4.47247                       6.06611                     -23.63385
                      -4.45702                       6.32140                     -23.79067
                      -4.44024                       6.57664                     -23.94742
                      -4.42226                       6.83184                     -24.10410
                      -4.40335                       7.08701                     -24.26073
                      -4.38361                       7.34214                     -24.41732
                      -4.36315                       7.59723                     -24.57387
                      -4.34223                       7.85231                     -24.73040
                      -4.32117                       8.10738                     -24.88691
                      -4.30035                       8.36248                     -25.04342
                      -4.29002                       8.49003                     -25.12167
        </DataArray>
      </Points>
      <PointData>
        <DataArray type="Float32" Name="Force" NumberOfComponents="3" format="ascii">
                   -5676.68765                    4640.40148                   19854.04465
                    9625.80000                   -3106.41507                  -29700.06615
                    5533.13691                   27898.83959                  -30041.07533
                   17006.25323                  -23962.18601                  -82194.69821
                  -16587.02008                   38976.15895                   51002.85135
                  -18947.99096                   -4078.97698                   64076.85080
                  -30159.22915                  -20540.08181                   63996.73411
                    1740.15686                  -44561.42782                    7344.39879
                   -7885.43032                  -23747.79887                   25482.44182
                   -3597.74075                  -25912.82013                   -3371.11885
                   -5690.02742                   -6943.78396                   12798.79788
                   -4116.83766                  -11310.96949                    8274.77028
                   -3312.66455                  -10106.49713                    9311.39975
                   -1940.54831                  -10284.17758                    8544.08027
                    -843.67520                   -9776.21676                    8695.25836
                     689.57227                   -9786.55993                    8490.07888
                    2215.84362                   -9800.36423                    8248.52177
                    3542.44017                   -9546.97950                    8048.97889
                    5076.70873                   -9186.69945                    7931.45834
                    6673.61435                   -9394.96203                    7849.37816
                    8451.64061                   -9255.23279                    7656.18525
                   10085.94148                   -9084.01745                    7656.93078
                   11705.85978                   -9140.85119                    7342.54161
                   13357.15991                   -8731.52927                    7256.30409
                   14715.30531                   -8784.31591                    7097.18759
                   16241.08513                   -8840.30336                    7106.05898
                   17256.51484                   -8149.13884                    6470.44198
                   17952.60812                   -9320.54235                    7126.55920
                   18181.82289                   -4486.19342                    3776.68576
                   15381.48731                  -21422.28734                   14426.56838
                   17893.04951                   43935.39836                  -28381.59232
                  -20353.20010                 -269876.25339                  166719.92770
        </DataArray>
        <DataArray type="Float32" Name="Moment" NumberOfComponents="3" format="ascii">
                    -165.03906                    -136.46413                    -150.17663
                     841.84641                     465.65399                     626.56078
                    2887.15823                      82.67372                     490.75132
                   -1015.38228                     332.54888                    -458.20140
                   -3305.39712                   -1063.12218                      63.56396
                   -4459.54315                   -2065.96350                   -1315.54498
                   -7052.12117                    -560.60479                   -2554.97023
                   -5413.11205                   -1406.26870                    -773.74964
                   -5003.66992                   -1497.44445                   -1481.90959
                   -2065.64948                    -171.22909                    -671.37192
                   -2426.19408                    -691.01707                    -340.57856
                   -1241.24289                    -414.84212                    -296.27813
                   -1724.55427                    -435.43694                    -308.74838
                   -1443.99784                    -383.67724                    -269.16035
                   -1448.93739                    -352.03038                    -262.90105
                   -1345.54547                    -322.86793                    -229.79077
                   -1300.14208                    -305.29035                    -230.81242
                   -1228.16216                    -259.61920                    -229.18170
                   -1139.89328                    -228.05522                    -207.95975
                   -1092.49949                    -200.13168                    -202.53699
                   -1035.57281                    -183.42380                    -185.84978
                    -959.35758                    -164.36309                    -182.83760
                    -898.44174                    -133.65825                    -173.00144
                    -823.11250                    -120.84095                    -164.13875
                    -763.16555                     -88.07029                    -158.04324
                    -716.55175                     -83.50812                    -141.37513
                    -617.23386                     -61.08428                    -132.50120
                    -627.48322                     -56.34280                    -127.47208
                    -333.44934                     -33.02130                     -79.77695
                   -1210.16814                     -61.60552                    -252.75306
                    2674.31617                     119.46301                     566.79182
                  -16108.74893                    -803.58777                   -3428.65162
        </DataArray>
        <DataArray type="Float32" Name="TranslationalVelocity" NumberOfComponents="3" format="ascii">
                       0.88998                       0.64353                       1.35780
                       0.88957                       0.74459                       1.52089
                       0.88869                       0.94677                       1.84711
                       0.88770                       1.14909                       2.17345
                       0.88655                       1.35148                       2.49988
                       0.88520                       1.55390                       2.82639
                       0.88361                       1.75629                       3.15297
                       0.88176                       1.95863                       3.47959
                       0.87961                       2.16089                       3.80626
                       0.87709                       2.36306                       4.13296
                       0.87414                       2.56512                       4.45968
                       0.87069                       2.76705                       4.78641
                       0.86670                       2.96886                       5.11313
                       0.86218                       3.17055                       5.43983
                       0.85711                       3.37212                       5.76650
                       0.85137                       3.57357                       6.09311
                       0.84494                       3.77491                       6.41966
                       0.83778                       3.97612                       6.74613
                       0.82988                       4.17724                       7.07249
                       0.82131                       4.37827                       7.39874
                       0.81209                       4.57922                       7.72489
                       0.80213                       4.78010                       8.05089
                       0.79146                       4.98091                       8.37674
                       0.78012                       5.18166                       8.70244
                       0.76819                       5.38238                       9.02799
                       0.75579                       5.58306                       9.35342
                       0.74299                       5.78371                       9.67873
                       0.72982                       5.98434                      10.00394
                       0.71641                       6.18494                      10.32907
                       0.70294                       6.38553                      10.65416
                       0.68960                       6.58608                      10.97928
                       0.68296                       6.68635                      11.14184
        </DataArray>
        <DataArray type="Float32" Name="RotationalVelocity" NumberOfComponents="3" format="ascii">
                       1.27796                       0.05840                      -0.03312
                       1.27829                       0.05849                      -0.03299
                       1.27888                       0.05868                      -0.03269
                       1.27936                       0.05893                      -0.03231
                       1.27973                       0.05923                      -0.03183
                       1.28001                       0.05960                      -0.03124
                       1.28020                       0.06005                      -0.03053
                       1.28033                       0.06058                      -0.02967
                       1.28042                       0.06120                      -0.02867
                       1.28048                       0.06191                      -0.02752
                       1.28052                       0.06271                      -0.02624
                       1.28055                       0.06358                      -0.02483
                       1.28057                       0.06454                      -0.02329
                       1.28058                       0.06558                      -0.02162
                       1.28061                       0.06669                      -0.01982
                       1.28064                       0.06785                      -0.01794
                       1.28068                       0.06906                      -0.01599
                       1.28072                       0.07031                      -0.01398
                       1.28078                       0.07158                      -0.01194
                       1.28084                       0.07285                      -0.00988
                       1.28091                       0.07410                      -0.00786
                       1.28098                       0.07532                      -0.00590
                       1.28105                       0.07648                      -0.00403
                       1.28112                       0.07756                      -0.00229
                       1.28118                       0.07854                      -0.00070
                       1.28123                       0.07939                       0.00066
                       1.28125                       0.08005                       0.00173
                       1.28125                       0.08052                       0.00248
                       1.28121                       0.08077                       0.00289
                       1.28113                       0.08077                       0.00289
                       1.28101                       0.08050                       0.00247
                       1.28093                       0.08029                       0.00213
        </DataArray>
        <DataArray type="Float32" Name="TranslationalAcceleration" NumberOfComponents="3" format="ascii">
                       0.65100                      -1.41466                       0.88940
                       0.67043                      -1.63338                       1.00154
                       0.70960                      -2.07194                       1.22433
                       0.74944                      -2.51316                       1.44358
                       0.78948                      -2.95661                       1.65982
                       0.82929                      -3.40196                       1.87340
                       0.86842                      -3.84895                       2.08458
                       0.90656                      -4.29724                       2.29380
                       0.94347                      -4.74674                       2.50115
                       0.97855                      -5.19746                       2.70652
                       1.01138                      -5.64930                       2.91002
                       1.04154                      -6.10217                       3.11170
                       1.06866                      -6.55600                       3.31161
                       1.09282                      -7.01062                       3.50995
                       1.11384                      -7.46601                       3.70674
                       1.13105                      -7.92222                       3.90176
                       1.14422                      -8.37917                       4.09501
                       1.15314                      -8.83681                       4.28651
                       1.15771                      -9.29506                       4.47628
                       1.15839                      -9.75379                       4.66453
                       1.15518                     -10.21295                       4.85131
                       1.14763                     -10.67250                       5.03650
                       1.13588                     -11.13234                       5.22019
                       1.12019                     -11.59237                       5.40256
                       1.10093                     -12.05250                       5.58378
                       1.07888                     -12.51263                       5.76418
                       1.05439                     -12.97270                       5.94392
                       1.02770                     -13.43263                       6.12317
                       0.99962                     -13.89234                       6.30228
                       0.97110                     -14.35174                       6.48166
                       0.94329                     -14.81077                       6.66174
                       0.92960                     -15.04020                       6.75195
        </DataArray>
        <DataArray type="Float32" Name="RotationalAcceleration" NumberOfComponents="3" format="ascii">
                      -0.12573                       0.03683                      -0.07234
                      -0.13369                       0.03579                      -0.07345
                      -0.14838                       0.03402                      -0.07507
                      -0.16124                       0.03277                      -0.07567
                      -0.17244                       0.03206                      -0.07514
                      -0.18230                       0.03187                      -0.07349
                      -0.19107                       0.03220                      -0.07067
                      -0.19889                       0.03313                      -0.06649
                      -0.20601                       0.03463                      -0.06095
                      -0.21268                       0.03661                      -0.05426
                      -0.21901                       0.03902                      -0.04648
                      -0.22510                       0.04184                      -0.03766
                      -0.23105                       0.04503                      -0.02786
                      -0.23692                       0.04860                      -0.01706
                      -0.24276                       0.05250                      -0.00538
                      -0.24858                       0.05665                       0.00695
                      -0.25439                       0.06101                       0.01983
                      -0.26016                       0.06552                       0.03313
                      -0.26586                       0.07014                       0.04670
                      -0.27141                       0.07482                       0.06037
                      -0.27671                       0.07945                       0.07389
                      -0.28170                       0.08397                       0.08704
                      -0.28628                       0.08830                       0.09960
                      -0.29036                       0.09236                       0.11136
                      -0.29383                       0.09607                       0.12206
                      -0.29648                       0.09927                       0.13125
                      -0.29812                       0.10180                       0.13850
                      -0.29875                       0.10362                       0.14367
                      -0.29824                       0.10462                       0.14645
                      -0.29648                       0.10467                       0.14649
                      -0.29346                       0.10374                       0.14368
                      -0.29155                       0.10295                       0.14135
        </DataArray>
        <DataArray type="Float32" Name="OrientationX" NumberOfComponents="3" format="ascii">
                       0.97950                       0.11727                       0.16380
                       0.97950                       0.11711                       0.16390
                       0.97951                       0.11670                       0.16416
                       0.97952                       0.11609                       0.16453
                       0.97953                       0.11525                       0.16505
                       0.97954                       0.11416                       0.16573
                       0.97956                       0.11281                       0.16656
                       0.98394                       0.09927                       0.14834
                       0.98720                       0.08735                       0.13347
                       0.98969                       0.07656                       0.12107
                       0.99157                       0.06684                       0.11102
                       0.99305                       0.05774                       0.10260
                       0.99418                       0.04929                       0.09579
                       0.99507                       0.04119                       0.09018
                       0.99577                       0.03341                       0.08559
                       0.99631                       0.02590                       0.08184
                       0.99671                       0.01871                       0.07892
                       0.99700                       0.01167                       0.07651
                       0.99720                       0.00484                       0.07458
                       0.99733                      -0.00182                       0.07295
                       0.99740                      -0.00824                       0.07159
                       0.99742                      -0.01445                       0.07029
                       0.99740                      -0.02030                       0.06918
                       0.99735                      -0.02589                       0.06792
                       0.99730                      -0.03117                       0.06646
                       0.99725                      -0.03590                       0.06486
                       0.99722                      -0.04005                       0.06291
                       0.99722                      -0.04368                       0.06043
                       0.99726                      -0.04659                       0.05751
                       0.99735                      -0.04879                       0.05395
                       0.99750                      -0.05024                       0.04971
                       0.99755                      -0.04955                       0.04929
        </DataArray>
        <DataArray type="Float32" Name="OrientationY" NumberOfComponents="3" format="ascii">
                       0.20099                      -0.51358                      -0.83417
                       0.20099                      -0.51370                      -0.83410
                       0.20099                      -0.51393                      -0.83396
                       0.20099                      -0.51412                      -0.83384
                       0.20100                      -0.51429                      -0.83373
                       0.20100                      -0.51443                      -0.83364
                       0.20100                      -0.51457                      -0.83356
                       0.17838                      -0.51714                      -0.83711
                       0.15946                      -0.51905                      -0.83974
                       0.14324                      -0.52050                      -0.84176
                       0.12958                      -0.52159                      -0.84330
                       0.11763                      -0.52243                      -0.84453
                       0.10740                      -0.52307                      -0.84550
                       0.09837                      -0.52357                      -0.84628
                       0.09038                      -0.52396                      -0.84694
                       0.08325                      -0.52426                      -0.84748
                       0.07698                      -0.52449                      -0.84793
                       0.07124                      -0.52466                      -0.84833
                       0.06602                      -0.52479                      -0.84867
                       0.06114                      -0.52488                      -0.84898
                       0.05662                      -0.52494                      -0.84926
                       0.05226                      -0.52496                      -0.84952
                       0.04826                      -0.52496                      -0.84976
                       0.04426                      -0.52493                      -0.84999
                       0.04025                      -0.52487                      -0.85023
                       0.03642                      -0.52478                      -0.85046
                       0.03260                      -0.52466                      -0.85069
                       0.02860                      -0.52450                      -0.85093
                       0.02459                      -0.52431                      -0.85117
                       0.02042                      -0.52408                      -0.85142
                       0.01606                      -0.52382                      -0.85168
                       0.01606                      -0.52379                      -0.85170
        </DataArray>
        <DataArray type="Float32" Name="OrientationZ" NumberOfComponents="3" format="ascii">
                      -0.01370                       0.84999                      -0.52662
                      -0.01349                       0.84994                      -0.52671
                      -0.01296                       0.84986                      -0.52685
                      -0.01221                       0.84983                      -0.52692
                      -0.01120                       0.84984                      -0.52692
                      -0.00991                       0.84990                      -0.52685
                      -0.00833                       0.85000                      -0.52672
                      -0.00639                       0.85013                      -0.52654
                      -0.00407                       0.85027                      -0.52633
                      -0.00143                       0.85042                      -0.52610
                       0.00155                       0.85058                      -0.52585
                       0.00484                       0.85073                      -0.52559
                       0.00844                       0.85086                      -0.52532
                       0.01235                       0.85099                      -0.52504
                       0.01655                       0.85109                      -0.52476
                       0.02095                       0.85116                      -0.52448
                       0.02553                       0.85121                      -0.52420
                       0.03024                       0.85123                      -0.52392
                       0.03503                       0.85122                      -0.52364
                       0.03984                       0.85118                      -0.52337
                       0.04458                       0.85110                      -0.52310
                       0.04918                       0.85100                      -0.52285
                       0.05357                       0.85088                      -0.52262
                       0.05766                       0.85075                      -0.52240
                       0.06139                       0.85061                      -0.52220
                       0.06457                       0.85048                      -0.52203
                       0.06708                       0.85037                      -0.52189
                       0.06886                       0.85029                      -0.52179
                       0.06981                       0.85025                      -0.52173
                       0.06981                       0.85027                      -0.52170
                       0.06883                       0.85035                      -0.52170
                       0.06802                       0.85041                      -0.52171
        </DataArray>
      </PointData>
      <Lines>
        <DataArray type="Int32" Name="connectivity" format="ascii">
      0      1
      1      2
      2      3
      3      4
      4      5
      5      6
      6      7
      7      8
      8      9
      9     10
     10     11
     11     12
     12     13
     13     14
     14     15
     15     16
     16     17
     17     18
     18     19
     19     20
     20     21
     21     22
     22     23
     23     24
     24     25
     25     26
     26     27
     27     28
     28     29
     29     30
     30     31
        </DataArray>
        <DataArray type="Int32" Name="offsets" format="ascii">
      2
      4
      6
      8
     10
     12
     14
     16
     18
     20
     22
     24
     26
     28
     30
     32
     34
     36
     38
     40
     42
     44
     46
     48
     50
     52
     54
     56
     58
     60
     62
        </DataArray>
      </Lines>
    </Piece>
  </PolyData>
</VTKFile>
