<?xml version="1.0"?>
<VTKFile type="PolyData" version="0.1" byte_order="LittleEndian">
  <PolyData>
    <Piece NumberOfPoints="     32" NumberOfVerts="  0" NumberOfLines="     31"
           NumberOfStrips="  0" NumberOfPolys="      0">
      <Points>
        <DataArray type="Float32" NumberOfComponents="3" format="ascii">
                      -4.03215                       0.96673                     -19.67227
                      -4.03158                       1.11640                     -19.66231
                      -4.03043                       1.41574                     -19.64243
                      -4.02919                       1.71508                     -19.62261
                      -4.02782                       2.01442                     -19.60283
                      -4.02626                       2.31377                     -19.58306
                      -4.02444                       2.61311                     -19.56329
                      -4.02233                       2.91245                     -19.54351
                      -4.01989                       3.21179                     -19.52371
                      -4.01701                       3.51112                     -19.50389
                      -4.01363                       3.81044                     -19.48405
                      -4.00967                       4.10976                     -19.46418
                      -4.00505                       4.40906                     -19.44428
                      -3.99981                       4.70835                     -19.42437
                      -3.99391                       5.00763                     -19.40443
                      -3.98722                       5.30689                     -19.38448
                      -3.97970                       5.60613                     -19.36452
                      -3.97130                       5.90535                     -19.34454
                      -3.96201                       6.20454                     -19.32457
                      -3.95192                       6.50370                     -19.30459
                      -3.94104                       6.80284                     -19.28461
                      -3.92928                       7.10194                     -19.26465
                      -3.91667                       7.40101                     -19.24469
                      -3.90327                       7.70005                     -19.22474
                      -3.88914                       7.99905                     -19.20481
                      -3.87446                       8.29803                     -19.18488
                      -3.85928                       8.59698                     -19.16497
                      -3.84367                       8.89591                     -19.14507
                      -3.82778                       9.19483                     -19.12517
                      -3.81180                       9.49374                     -19.10526
                      -3.79597                       9.79266                     -19.08534
                      -3.78810                       9.94212                     -19.07538
        </DataArray>
      </Points>
      <PointData>
        <DataArray type="Float32" Name="Force" NumberOfComponents="3" format="ascii">
                   -4607.73949                   -7492.59567                   19471.64295
                    8775.27350                   13987.09426                  -23908.76171
                    8272.51970                   38067.74772                   -6222.24052
                   16271.80310                   26737.57691                  -74182.32172
                  -11154.12645                    2374.17370                   63508.00990
                  -14800.02912                  -37571.76671                   48953.79147
                  -25895.02269                  -49476.27432                   39573.85400
                     893.20891                  -37196.22806                  -16913.29602
                   -7815.29882                  -30943.43565                    7794.49752
                   -5241.07432                  -17243.94299                  -14745.63967
                   -6918.56134                  -11663.76299                    7011.56994
                   -6259.63088                  -12405.00761                    1261.55063
                   -5925.82554                  -11955.32248                    2546.98640
                   -5148.43918                  -11591.00981                    1773.89643
                   -4604.02518                  -11196.17968                    2024.81634
                   -3587.31177                  -10993.99692                    1748.51627
                   -2542.03643                  -10768.47075                    1455.85714
                   -1609.44049                  -10383.25533                    1331.94393
                    -376.78676                   -9966.27183                    1314.45805
                     907.32949                   -9953.64693                    1045.37271
                    2378.39415                   -9650.09861                     870.08370
                    3855.52261                   -9423.48144                     847.56173
                    5352.30876                   -9204.00188                     513.22585
                    6937.53432                   -8790.22183                     554.30883
                    8371.38136                   -8658.96707                     342.28030
                    9958.85310                   -8607.40643                     240.68138
                   11158.40517                   -7812.11477                      88.91246
                   12201.15270                   -8767.61008                     -64.66268
                   12792.36426                   -4256.01848                     -27.05980
                   11458.48209                  -19444.58245                    -836.83985
                   12926.88845                   39929.33830                    1444.93841
                  -11582.10712                 -240828.88042                  -15215.95643
        </DataArray>
        <DataArray type="Float32" Name="Moment" NumberOfComponents="3" format="ascii">
                    -231.26588                     -10.28611                    -193.29997
                     825.61880                       6.38737                     714.90524
                    2755.70455                    -248.51289                     324.78209
                    -820.56795                     508.71910                    -109.20444
                   -3143.28067                    -806.47735                    -423.28637
                   -4227.65323                    -775.66392                   -1956.75924
                   -6637.32956                    1043.34764                   -2001.23639
                   -4994.81567                    -577.76367                   -1139.64000
                   -4644.17100                    -251.50337                   -1731.68739
                   -1865.79916                     258.09427                    -509.63331
                   -2202.80524                    -287.01771                    -532.18312
                   -1110.42369                    -113.44821                    -384.96489
                   -1537.26435                    -125.34755                    -386.26188
                   -1271.99637                    -110.19111                    -341.96353
                   -1267.02668                     -84.58669                    -317.79782
                   -1165.73161                     -84.22720                    -278.07323
                   -1117.18321                     -73.25584                    -271.37538
                   -1046.36859                     -44.38451                    -245.44893
                    -962.90466                     -41.35863                    -215.75851
                    -915.19721                     -27.07184                    -202.65024
                    -860.07424                     -23.04088                    -182.07322
                    -790.64467                     -16.14226                    -170.13828
                    -734.29400                      -3.53977                    -151.05699
                    -667.61973                      -1.92390                    -138.87041
                    -614.07299                      12.18256                    -120.89891
                    -571.85260                       6.36783                    -110.07801
                    -489.17125                      16.36915                     -95.06460
                    -492.39072                      14.22232                     -88.41075
                    -261.62370                      10.30211                     -55.63746
                    -934.88221                      54.79082                    -152.58467
                    2065.60958                    -139.24187                     335.45782
                  -12348.57348                     784.75698                   -2067.26161
        </DataArray>
        <DataArray type="Float32" Name="TranslationalVelocity" NumberOfComponents="3" format="ascii">
                       1.03609                      -0.11373                       1.46510
                       1.04687                      -0.12572                       1.64479
                       1.06837                      -0.14967                       2.00414
                       1.08972                      -0.17355                       2.36337
                       1.11084                      -0.19738                       2.72249
                       1.13163                      -0.22120                       3.08147
                       1.15201                      -0.24502                       3.44032
                       1.17193                      -0.26887                       3.79905
                       1.19135                      -0.29274                       4.15764
                       1.21010                      -0.31665                       4.51608
                       1.22808                      -0.34061                       4.87437
                       1.24517                      -0.36461                       5.23251
                       1.26129                      -0.38866                       5.59049
                       1.27648                      -0.41273                       5.94833
                       1.29068                      -0.43684                       6.30603
                       1.30370                      -0.46096                       6.66357
                       1.31547                      -0.48510                       7.02095
                       1.32595                      -0.50924                       7.37817
                       1.33511                      -0.53337                       7.73524
                       1.34309                      -0.55747                       8.09217
                       1.34989                      -0.58155                       8.44897
                       1.35539                      -0.60557                       8.80563
                       1.35964                      -0.62955                       9.16215
                       1.36270                      -0.65346                       9.51855
                       1.36470                      -0.67731                       9.87485
                       1.36587                      -0.70110                      10.23107
                       1.36631                      -0.72485                      10.58723
                       1.36611                      -0.74855                      10.94333
                       1.36550                      -0.77222                      11.29940
                       1.36476                      -0.79589                      11.65547
                       1.36425                      -0.81960                      12.01157
                       1.36406                      -0.83146                      12.18962
        </DataArray>
        <DataArray type="Float32" Name="RotationalVelocity" NumberOfComponents="3" format="ascii">
                       1.20105                       0.06212                      -0.06807
                       1.20086                       0.06211                      -0.06790
                       1.20050                       0.06208                      -0.06744
                       1.20014                       0.06204                      -0.06679
                       1.19977                       0.06198                      -0.06590
                       1.19940                       0.06191                      -0.06476
                       1.19901                       0.06182                      -0.06335
                       1.19862                       0.06170                      -0.06162
                       1.19824                       0.06157                      -0.05956
                       1.19788                       0.06141                      -0.05720
                       1.19752                       0.06124                      -0.05456
                       1.19718                       0.06104                      -0.05163
                       1.19684                       0.06083                      -0.04843
                       1.19653                       0.06060                      -0.04496
                       1.19623                       0.06035                      -0.04124
                       1.19594                       0.06009                      -0.03733
                       1.19567                       0.05983                      -0.03328
                       1.19542                       0.05955                      -0.02911
                       1.19519                       0.05927                      -0.02487
                       1.19499                       0.05899                      -0.02062
                       1.19481                       0.05871                      -0.01643
                       1.19465                       0.05844                      -0.01236
                       1.19452                       0.05818                      -0.00848
                       1.19441                       0.05794                      -0.00485
                       1.19433                       0.05772                      -0.00156
                       1.19428                       0.05753                       0.00126
                       1.19425                       0.05738                       0.00348
                       1.19425                       0.05728                       0.00505
                       1.19427                       0.05722                       0.00589
                       1.19430                       0.05722                       0.00589
                       1.19434                       0.05728                       0.00501
                       1.19436                       0.05733                       0.00430
        </DataArray>
        <DataArray type="Float32" Name="TranslationalAcceleration" NumberOfComponents="3" format="ascii">
                      -0.01406                      -1.42449                      -0.49984
                       0.00558                      -1.63918                      -0.54050
                       0.04485                      -2.06851                      -0.62075
                       0.08409                      -2.49770                      -0.69845
                       0.12344                      -2.92672                      -0.77404
                       0.16301                      -3.35551                      -0.84783
                       0.20293                      -3.78405                      -0.92008
                       0.24326                      -4.21235                      -0.99111
                       0.28408                      -4.64038                      -1.06101
                       0.32557                      -5.06811                      -1.12974
                       0.36786                      -5.49554                      -1.19739
                       0.41104                      -5.92266                      -1.26398
                       0.45524                      -6.34949                      -1.32954
                       0.50039                      -6.77608                      -1.39418
                       0.54656                      -7.20242                      -1.45788
                       0.59394                      -7.62852                      -1.52050
                       0.64260                      -8.05438                      -1.58201
                       0.69258                      -8.48006                      -1.64237
                       0.74392                      -8.90557                      -1.70157
                       0.79647                      -9.33097                      -1.75974
                       0.85023                      -9.75627                      -1.81687
                       0.90533                     -10.18150                      -1.87285
                       0.96172                     -10.60668                      -1.92774
                       1.01933                     -11.03186                      -1.98160
                       1.07804                     -11.45706                      -2.03457
                       1.13760                     -11.88228                      -2.08687
                       1.19791                     -12.30753                      -2.13862
                       1.25890                     -12.73283                      -2.18995
                       1.32030                     -13.15817                      -2.24112
                       1.38183                     -13.58352                      -2.29245
                       1.44311                     -14.00885                      -2.34434
                       1.47368                     -14.22151                      -2.37042
        </DataArray>
        <DataArray type="Float32" Name="RotationalAcceleration" NumberOfComponents="3" format="ascii">
                      -0.17576                      -0.03795                      -0.06467
                      -0.17138                      -0.03815                      -0.06452
                      -0.16331                      -0.03868                      -0.06443
                      -0.15626                      -0.03942                      -0.06469
                      -0.15016                      -0.04042                      -0.06530
                      -0.14482                      -0.04170                      -0.06628
                      -0.14012                      -0.04328                      -0.06763
                      -0.13596                      -0.04522                      -0.06943
                      -0.13221                      -0.04752                      -0.07169
                      -0.12873                      -0.05016                      -0.07430
                      -0.12544                      -0.05312                      -0.07726
                      -0.12227                      -0.05640                      -0.08054
                      -0.11918                      -0.05999                      -0.08412
                      -0.11613                      -0.06389                      -0.08801
                      -0.11309                      -0.06807                      -0.09216
                      -0.11004                      -0.07246                      -0.09651
                      -0.10699                      -0.07702                      -0.10102
                      -0.10395                      -0.08171                      -0.10564
                      -0.10094                      -0.08648                      -0.11035
                      -0.09799                      -0.09127                      -0.11507
                      -0.09515                      -0.09600                      -0.11973
                      -0.09248                      -0.10058                      -0.12425
                      -0.09001                      -0.10496                      -0.12856
                      -0.08780                      -0.10904                      -0.13259
                      -0.08590                      -0.11276                      -0.13626
                      -0.08445                      -0.11594                      -0.13940
                      -0.08353                      -0.11844                      -0.14186
                      -0.08317                      -0.12022                      -0.14361
                      -0.08343                      -0.12116                      -0.14453
                      -0.08437                      -0.12116                      -0.14450
                      -0.08601                      -0.12018                      -0.14347
                      -0.08705                      -0.11937                      -0.14264
        </DataArray>
        <DataArray type="Float32" Name="OrientationX" NumberOfComponents="3" format="ascii">
                       0.98594                      -0.01474                       0.16647
                       0.98594                      -0.01480                       0.16646
                       0.98594                      -0.01499                       0.16645
                       0.98593                      -0.01532                       0.16643
                       0.98593                      -0.01582                       0.16640
                       0.98593                      -0.01651                       0.16635
                       0.98592                      -0.01739                       0.16629
                       0.98950                      -0.01701                       0.14351
                       0.99208                      -0.01712                       0.12444
                       0.99399                      -0.01760                       0.10808
                       0.99538                      -0.01845                       0.09427
                       0.99642                      -0.01961                       0.08218
                       0.99720                      -0.02107                       0.07179
                       0.99778                      -0.02280                       0.06260
                       0.99821                      -0.02477                       0.05444
                       0.99853                      -0.02693                       0.04713
                       0.99874                      -0.02924                       0.04068
                       0.99889                      -0.03167                       0.03475
                       0.99898                      -0.03419                       0.02934
                       0.99903                      -0.03674                       0.02428
                       0.99904                      -0.03928                       0.01956
                       0.99902                      -0.04174                       0.01502
                       0.99897                      -0.04410                       0.01084
                       0.99891                      -0.04629                       0.00668
                       0.99883                      -0.04825                       0.00252
                       0.99875                      -0.04991                      -0.00143
                       0.99868                      -0.05115                      -0.00537
                       0.99860                      -0.05195                      -0.00944
                       0.99854                      -0.05226                      -0.01348
                       0.99849                      -0.05198                      -0.01767
                       0.99845                      -0.05110                      -0.02198
                       0.99848                      -0.05062                      -0.02195
        </DataArray>
        <DataArray type="Float32" Name="OrientationY" NumberOfComponents="3" format="ascii">
                       0.16708                       0.06492                      -0.98380
                       0.16708                       0.06479                      -0.98381
                       0.16708                       0.06456                      -0.98383
                       0.16708                       0.06436                      -0.98384
                       0.16707                       0.06419                      -0.98385
                       0.16707                       0.06404                      -0.98386
                       0.16707                       0.06391                      -0.98387
                       0.14432                       0.06418                      -0.98745
                       0.12529                       0.06440                      -0.99003
                       0.10900                       0.06458                      -0.99194
                       0.09528                       0.06473                      -0.99334
                       0.08329                       0.06487                      -0.99441
                       0.07302                       0.06499                      -0.99521
                       0.06396                       0.06511                      -0.99583
                       0.05595                       0.06521                      -0.99630
                       0.04880                       0.06531                      -0.99667
                       0.04253                       0.06540                      -0.99695
                       0.03677                       0.06549                      -0.99718
                       0.03154                       0.06558                      -0.99735
                       0.02665                       0.06567                      -0.99749
                       0.02212                       0.06577                      -0.99759
                       0.01776                       0.06587                      -0.99767
                       0.01374                       0.06597                      -0.99773
                       0.00973                       0.06609                      -0.99777
                       0.00572                       0.06623                      -0.99779
                       0.00188                       0.06638                      -0.99779
                      -0.00195                       0.06655                      -0.99778
                      -0.00596                       0.06674                      -0.99775
                      -0.00997                       0.06696                      -0.99771
                      -0.01415                       0.06721                      -0.99764
                      -0.01851                       0.06748                      -0.99755
                      -0.01851                       0.06751                      -0.99755
        </DataArray>
        <DataArray type="Float32" Name="OrientationZ" NumberOfComponents="3" format="ascii">
                       0.00370                       0.99778                       0.06647
                       0.00377                       0.99779                       0.06635
                       0.00400                       0.99780                       0.06615
                       0.00436                       0.99781                       0.06601
                       0.00489                       0.99781                       0.06593
                       0.00559                       0.99781                       0.06590
                       0.00648                       0.99780                       0.06591
                       0.00759                       0.99779                       0.06596
                       0.00893                       0.99778                       0.06603
                       0.01048                       0.99776                       0.06611
                       0.01223                       0.99773                       0.06619
                       0.01417                       0.99770                       0.06627
                       0.01630                       0.99766                       0.06635
                       0.01863                       0.99762                       0.06642
                       0.02113                       0.99756                       0.06648
                       0.02376                       0.99750                       0.06653
                       0.02649                       0.99743                       0.06656
                       0.02931                       0.99735                       0.06658
                       0.03217                       0.99726                       0.06659
                       0.03506                       0.99716                       0.06659
                       0.03790                       0.99706                       0.06657
                       0.04065                       0.99695                       0.06654
                       0.04329                       0.99685                       0.06651
                       0.04574                       0.99674                       0.06647
                       0.04798                       0.99664                       0.06643
                       0.04989                       0.99655                       0.06639
                       0.05140                       0.99647                       0.06636
                       0.05247                       0.99642                       0.06634
                       0.05304                       0.99639                       0.06634
                       0.05304                       0.99638                       0.06637
                       0.05246                       0.99641                       0.06643
                       0.05198                       0.99643                       0.06647
        </DataArray>
      </PointData>
      <Lines>
        <DataArray type="Int32" Name="connectivity" format="ascii">
      0      1
      1      2
      2      3
      3      4
      4      5
      5      6
      6      7
      7      8
      8      9
      9     10
     10     11
     11     12
     12     13
     13     14
     14     15
     15     16
     16     17
     17     18
     18     19
     19     20
     20     21
     21     22
     22     23
     23     24
     24     25
     25     26
     26     27
     27     28
     28     29
     29     30
     30     31
        </DataArray>
        <DataArray type="Int32" Name="offsets" format="ascii">
      2
      4
      6
      8
     10
     12
     14
     16
     18
     20
     22
     24
     26
     28
     30
     32
     34
     36
     38
     40
     42
     44
     46
     48
     50
     52
     54
     56
     58
     60
     62
        </DataArray>
      </Lines>
    </Piece>
  </PolyData>
</VTKFile>
