<?xml version="1.0"?>
<VTKFile type="PolyData" version="0.1" byte_order="LittleEndian">
  <PolyData>
    <Piece NumberOfPoints="     32" NumberOfVerts="  0" NumberOfLines="     31"
           NumberOfStrips="  0" NumberOfPolys="      0">
      <Points>
        <DataArray type="Float32" NumberOfComponents="3" format="ascii">
                      -3.92887                       0.94838                     -19.52868
                      -3.92714                       1.09580                     -19.50101
                      -3.92365                       1.39063                     -19.44569
                      -3.92010                       1.68547                     -19.39042
                      -3.91643                       1.98032                     -19.33518
                      -3.91260                       2.27517                     -19.27996
                      -3.90855                       2.57002                     -19.22475
                      -3.90425                       2.86486                     -19.16953
                      -3.89967                       3.15970                     -19.11430
                      -3.89472                       3.45453                     -19.05905
                      -3.88933                       3.74934                     -19.00379
                      -3.88344                       4.04415                     -18.94850
                      -3.87700                       4.33894                     -18.89321
                      -3.87001                       4.63371                     -18.83790
                      -3.86246                       4.92847                     -18.78258
                      -3.85422                       5.22321                     -18.72725
                      -3.84527                       5.51793                     -18.67192
                      -3.83556                       5.81262                     -18.61659
                      -3.82509                       6.10729                     -18.56126
                      -3.81393                       6.40193                     -18.50595
                      -3.80209                       6.69655                     -18.45064
                      -3.78950                       6.99114                     -18.39534
                      -3.77617                       7.28570                     -18.34006
                      -3.76215                       7.58024                     -18.28480
                      -3.74751                       7.87474                     -18.22956
                      -3.73240                       8.16923                     -18.17433
                      -3.71686                       8.46369                     -18.11911
                      -3.70094                       8.75814                     -18.06391
                      -3.68479                       9.05258                     -18.00871
                      -3.66856                       9.34701                     -17.95351
                      -3.65245                       9.64144                     -17.89830
                      -3.64444                       9.78866                     -17.87068
        </DataArray>
      </Points>
      <PointData>
        <DataArray type="Float32" Name="Force" NumberOfComponents="3" format="ascii">
                   -4492.13658                   -9628.49671                   18223.92437
                    8690.73533                   16550.98588                  -22013.95968
                    8698.87708                   38079.38747                   -1657.31007
                   16197.65173                   34832.09595                  -69504.31862
                  -10176.83709                   -5071.60736                   62847.99805
                  -13981.04223                  -42405.23701                   43662.71790
                  -24908.09549                  -52753.26631                   33028.47827
                    1139.95430                  -34275.22942                  -20791.15741
                   -7305.82817                  -30955.96790                    4075.34306
                   -4877.75162                  -15010.27341                  -16224.06253
                   -6434.38363                  -12093.03621                    5568.72728
                   -5900.44657                  -12128.04116                    -100.62988
                   -5630.20319                  -11822.24230                    1204.61939
                   -4955.62801                  -11365.24870                     498.93271
                   -4516.70044                  -10994.87477                     787.96537
                   -3613.21387                  -10752.33520                     542.63983
                   -2691.97999                  -10483.78741                     284.45753
                   -1882.03507                  -10082.03641                     206.33956
                    -772.44548                   -9662.71996                     230.69176
                     365.06616                   -9599.54801                     -32.51061
                    1672.76674                   -9269.11728                    -174.58107
                    3005.36995                   -9028.97249                    -182.38479
                    4353.96849                   -8759.99225                    -487.74004
                    5793.18396                   -8349.99769                    -416.78588
                    7094.55050                   -8179.44217                    -614.48611
                    8547.76453                   -8095.51416                    -720.99184
                    9645.00826                   -7312.18642                    -789.29468
                   10614.87344                   -8163.55634                   -1051.78318
                   11181.97525                   -3953.17806                    -522.95457
                    9967.04768                  -17980.98200                   -2959.90832
                   11481.79355                   37007.40654                    5774.60020
                  -10957.04111                 -222371.62754                  -40857.90053
        </DataArray>
        <DataArray type="Float32" Name="Moment" NumberOfComponents="3" format="ascii">
                    -234.81980                      13.58303                    -192.32393
                     835.73352                     -84.52556                     698.03787
                    2716.26840                    -299.19160                     272.65044
                    -783.93392                     520.05206                     -36.66039
                   -3120.00049                    -711.36465                    -490.41690
                   -4175.10119                    -486.48722                   -1974.84326
                   -6534.66384                    1307.52468                   -1790.82309
                   -4902.00166                    -390.42663                   -1142.91706
                   -4562.98816                      -3.58441                   -1684.69146
                   -1820.38943                     328.85802                    -450.64267
                   -2156.14817                    -195.37349                    -534.85148
                   -1082.02711                     -50.09142                    -376.73866
                   -1497.67700                     -61.21780                    -376.39790
                   -1235.77026                     -53.54556                    -333.81735
                   -1228.87552                     -31.01672                    -306.79233
                   -1128.20300                     -36.88492                    -268.25947
                   -1079.14705                     -28.05094                    -260.89392
                   -1008.61325                      -4.47256                    -232.34461
                    -926.28794                      -7.26458                    -203.83713
                    -878.62678                       4.08663                    -190.55981
                    -823.99410                       5.22379                    -170.22055
                    -755.98322                       9.02425                    -157.99128
                    -700.63279                      17.82187                    -138.90221
                    -635.77063                      17.00293                    -127.12746
                    -583.53565                      27.09403                    -108.88224
                    -542.32195                      19.95154                     -99.73671
                    -463.01908                      27.17566                     -84.61055
                    -464.82620                      23.76562                     -78.43020
                    -247.13044                      16.10667                     -49.41377
                    -878.20204                      67.89855                    -131.34971
                    1939.12869                    -167.01063                     286.67732
                  -11581.22424                     960.55598                   -1776.53248
        </DataArray>
        <DataArray type="Float32" Name="TranslationalVelocity" NumberOfComponents="3" format="ascii">
                       1.02946                      -0.25187                       1.40842
                       1.04201                      -0.28477                       1.58290
                       1.06705                      -0.35055                       1.93190
                       1.09197                      -0.41630                       2.28104
                       1.11671                      -0.48202                       2.63026
                       1.14118                      -0.54775                       2.97953
                       1.16531                      -0.61349                       3.32881
                       1.18905                      -0.67925                       3.67808
                       1.21236                      -0.74504                       4.02734
                       1.23510                      -0.81086                       4.37655
                       1.25718                      -0.87672                       4.72572
                       1.27849                      -0.94261                       5.07484
                       1.29896                      -1.00853                       5.42391
                       1.31861                      -1.07448                       5.77292
                       1.33740                      -1.14046                       6.12188
                       1.35517                      -1.20645                       6.47078
                       1.37184                      -1.27245                       6.81963
                       1.38738                      -1.33845                       7.16842
                       1.40176                      -1.40444                       7.51717
                       1.41510                      -1.47042                       7.86588
                       1.42742                      -1.53637                       8.21455
                       1.43858                      -1.60229                       8.56319
                       1.44864                      -1.66816                       8.91180
                       1.45767                      -1.73399                       9.26037
                       1.46576                      -1.79978                       9.60893
                       1.47312                      -1.86552                       9.95746
                       1.47984                      -1.93123                      10.30598
                       1.48599                      -1.99690                      10.65449
                       1.49178                      -2.06254                      11.00297
                       1.49746                      -2.12819                      11.35144
                       1.50334                      -2.19386                      11.69989
                       1.50633                      -2.22670                      11.87411
        </DataArray>
        <DataArray type="Float32" Name="RotationalVelocity" NumberOfComponents="3" format="ascii">
                       1.18400                       0.05848                      -0.07423
                       1.18424                       0.05846                      -0.07411
                       1.18466                       0.05839                      -0.07377
                       1.18498                       0.05829                      -0.07326
                       1.18522                       0.05815                      -0.07255
                       1.18537                       0.05798                      -0.07162
                       1.18544                       0.05776                      -0.07046
                       1.18546                       0.05749                      -0.06902
                       1.18545                       0.05716                      -0.06728
                       1.18542                       0.05679                      -0.06529
                       1.18538                       0.05637                      -0.06305
                       1.18535                       0.05590                      -0.06055
                       1.18531                       0.05539                      -0.05782
                       1.18529                       0.05483                      -0.05484
                       1.18528                       0.05423                      -0.05164
                       1.18528                       0.05359                      -0.04828
                       1.18530                       0.05294                      -0.04478
                       1.18534                       0.05226                      -0.04119
                       1.18540                       0.05157                      -0.03753
                       1.18547                       0.05088                      -0.03385
                       1.18555                       0.05020                      -0.03022
                       1.18565                       0.04954                      -0.02670
                       1.18575                       0.04890                      -0.02334
                       1.18585                       0.04831                      -0.02020
                       1.18594                       0.04778                      -0.01735
                       1.18603                       0.04732                      -0.01491
                       1.18609                       0.04695                      -0.01298
                       1.18612                       0.04670                      -0.01162
                       1.18611                       0.04656                      -0.01089
                       1.18605                       0.04656                      -0.01088
                       1.18594                       0.04670                      -0.01163
                       1.18586                       0.04682                      -0.01224
        </DataArray>
        <DataArray type="Float32" Name="TranslationalAcceleration" NumberOfComponents="3" format="ascii">
                      -0.10983                      -1.34663                      -0.53034
                      -0.09382                      -1.54943                      -0.59511
                      -0.06173                      -1.95498                      -0.72548
                      -0.02943                      -2.36043                      -0.85774
                       0.00318                      -2.76575                      -0.99155
                       0.03620                      -3.17091                      -1.12663
                       0.06976                      -3.57587                      -1.26273
                       0.10391                      -3.98064                      -1.39962
                       0.13873                      -4.38521                      -1.53720
                       0.17444                      -4.78954                      -1.67545
                       0.21118                      -5.19363                      -1.81428
                       0.24913                      -5.59749                      -1.95364
                       0.28843                      -6.00113                      -2.09348
                       0.32904                      -6.40458                      -2.23373
                       0.37104                      -6.80785                      -2.37437
                       0.41473                      -7.21094                      -2.51545
                       0.46020                      -7.61388                      -2.65696
                       0.50753                      -8.01669                      -2.79888
                       0.55679                      -8.41941                      -2.94122
                       0.60775                      -8.82208                      -3.08390
                       0.66043                      -9.22471                      -3.22692
                       0.71501                      -9.62733                      -3.37030
                       0.77142                     -10.02998                      -3.51400
                       0.82957                     -10.43267                      -3.65798
                       0.88927                     -10.83543                      -3.80218
                       0.95018                     -11.23826                      -3.94653
                       1.01216                     -11.64115                      -4.09096
                       1.07510                     -12.04411                      -4.23543
                       1.13863                     -12.44713                      -4.37983
                       1.20236                     -12.85016                      -4.52405
                       1.26579                     -13.25317                      -4.66794
                       1.29741                     -13.45467                      -4.73981
        </DataArray>
        <DataArray type="Float32" Name="RotationalAcceleration" NumberOfComponents="3" format="ascii">
                      -0.16717                      -0.01449                      -0.05859
                      -0.17071                      -0.01458                      -0.05885
                      -0.17718                      -0.01485                      -0.05951
                      -0.18271                      -0.01529                      -0.06044
                      -0.18735                      -0.01590                      -0.06171
                      -0.19125                      -0.01671                      -0.06336
                      -0.19451                      -0.01772                      -0.06542
                      -0.19724                      -0.01898                      -0.06797
                      -0.19958                      -0.02049                      -0.07104
                      -0.20168                      -0.02222                      -0.07459
                      -0.20360                      -0.02417                      -0.07863
                      -0.20541                      -0.02633                      -0.08315
                      -0.20715                      -0.02868                      -0.08815
                      -0.20887                      -0.03124                      -0.09363
                      -0.21059                      -0.03399                      -0.09956
                      -0.21234                      -0.03686                      -0.10581
                      -0.21412                      -0.03985                      -0.11234
                      -0.21593                      -0.04292                      -0.11907
                      -0.21775                      -0.04605                      -0.12594
                      -0.21957                      -0.04919                      -0.13286
                      -0.22134                      -0.05228                      -0.13969
                      -0.22305                      -0.05528                      -0.14632
                      -0.22464                      -0.05814                      -0.15265
                      -0.22608                      -0.06082                      -0.15857
                      -0.22732                      -0.06325                      -0.16395
                      -0.22828                      -0.06533                      -0.16857
                      -0.22886                      -0.06697                      -0.17220
                      -0.22906                      -0.06814                      -0.17480
                      -0.22880                      -0.06876                      -0.17620
                      -0.22802                      -0.06876                      -0.17625
                      -0.22671                      -0.06812                      -0.17489
                      -0.22588                      -0.06759                      -0.17376
        </DataArray>
        <DataArray type="Float32" Name="OrientationX" NumberOfComponents="3" format="ascii">
                       0.98671                      -0.04108                       0.15722
                       0.98671                      -0.04112                       0.15721
                       0.98671                      -0.04127                       0.15718
                       0.98670                      -0.04154                       0.15713
                       0.98670                      -0.04196                       0.15705
                       0.98669                      -0.04253                       0.15695
                       0.98668                      -0.04327                       0.15681
                       0.99014                      -0.04006                       0.13424
                       0.99261                      -0.03772                       0.11531
                       0.99443                      -0.03605                       0.09904
                       0.99574                      -0.03502                       0.08527
                       0.99672                      -0.03447                       0.07316
                       0.99744                      -0.03439                       0.06273
                       0.99797                      -0.03470                       0.05345
                       0.99835                      -0.03534                       0.04517
                       0.99863                      -0.03626                       0.03773
                       0.99881                      -0.03742                       0.03112
                       0.99894                      -0.03874                       0.02502
                       0.99900                      -0.04021                       0.01942
                       0.99903                      -0.04175                       0.01416
                       0.99902                      -0.04332                       0.00925
                       0.99898                      -0.04485                       0.00452
                       0.99893                      -0.04634                       0.00016
                       0.99885                      -0.04768                      -0.00418
                       0.99877                      -0.04883                      -0.00848
                       0.99868                      -0.04974                      -0.01255
                       0.99860                      -0.05031                      -0.01657
                       0.99851                      -0.05047                      -0.02068
                       0.99843                      -0.05021                      -0.02472
                       0.99836                      -0.04944                      -0.02883
                       0.99829                      -0.04814                      -0.03303
                       0.99832                      -0.04773                      -0.03295
        </DataArray>
        <DataArray type="Float32" Name="OrientationY" NumberOfComponents="3" format="ascii">
                       0.16209                       0.18032                      -0.97016
                       0.16209                       0.18021                      -0.97018
                       0.16209                       0.18001                      -0.97022
                       0.16208                       0.17983                      -0.97025
                       0.16208                       0.17968                      -0.97028
                       0.16208                       0.17955                      -0.97030
                       0.16208                       0.17943                      -0.97033
                       0.13930                       0.18029                      -0.97370
                       0.12027                       0.18093                      -0.97611
                       0.10397                       0.18145                      -0.97789
                       0.09024                       0.18185                      -0.97918
                       0.07824                       0.18219                      -0.98014
                       0.06797                       0.18247                      -0.98086
                       0.05892                       0.18271                      -0.98140
                       0.05090                       0.18291                      -0.98181
                       0.04375                       0.18309                      -0.98212
                       0.03748                       0.18325                      -0.98235
                       0.03172                       0.18340                      -0.98253
                       0.02649                       0.18353                      -0.98266
                       0.02160                       0.18366                      -0.98275
                       0.01707                       0.18378                      -0.98282
                       0.01270                       0.18391                      -0.98286
                       0.00869                       0.18403                      -0.98288
                       0.00468                       0.18417                      -0.98288
                       0.00067                       0.18431                      -0.98287
                      -0.00317                       0.18447                      -0.98283
                      -0.00700                       0.18464                      -0.98278
                      -0.01101                       0.18483                      -0.98271
                      -0.01502                       0.18504                      -0.98262
                      -0.01920                       0.18528                      -0.98250
                      -0.02356                       0.18553                      -0.98236
                      -0.02355                       0.18556                      -0.98235
        </DataArray>
        <DataArray type="Float32" Name="OrientationZ" NumberOfComponents="3" format="ascii">
                       0.01150                       0.98275                       0.18459
                       0.01156                       0.98277                       0.18448
                       0.01174                       0.98280                       0.18430
                       0.01205                       0.98282                       0.18417
                       0.01249                       0.98283                       0.18409
                       0.01309                       0.98283                       0.18406
                       0.01385                       0.98282                       0.18406
                       0.01480                       0.98280                       0.18409
                       0.01595                       0.98277                       0.18413
                       0.01728                       0.98274                       0.18419
                       0.01878                       0.98270                       0.18424
                       0.02045                       0.98266                       0.18429
                       0.02229                       0.98261                       0.18434
                       0.02429                       0.98255                       0.18438
                       0.02644                       0.98249                       0.18441
                       0.02870                       0.98243                       0.18443
                       0.03106                       0.98235                       0.18444
                       0.03348                       0.98228                       0.18443
                       0.03595                       0.98219                       0.18441
                       0.03843                       0.98210                       0.18438
                       0.04087                       0.98201                       0.18434
                       0.04325                       0.98192                       0.18429
                       0.04551                       0.98183                       0.18424
                       0.04763                       0.98174                       0.18418
                       0.04956                       0.98165                       0.18412
                       0.05120                       0.98158                       0.18407
                       0.05250                       0.98152                       0.18403
                       0.05342                       0.98147                       0.18400
                       0.05392                       0.98145                       0.18400
                       0.05392                       0.98144                       0.18402
                       0.05342                       0.98146                       0.18408
                       0.05300                       0.98147                       0.18412
        </DataArray>
      </PointData>
      <Lines>
        <DataArray type="Int32" Name="connectivity" format="ascii">
      0      1
      1      2
      2      3
      3      4
      4      5
      5      6
      6      7
      7      8
      8      9
      9     10
     10     11
     11     12
     12     13
     13     14
     14     15
     15     16
     16     17
     17     18
     18     19
     19     20
     20     21
     21     22
     22     23
     23     24
     24     25
     25     26
     26     27
     27     28
     28     29
     29     30
     30     31
        </DataArray>
        <DataArray type="Int32" Name="offsets" format="ascii">
      2
      4
      6
      8
     10
     12
     14
     16
     18
     20
     22
     24
     26
     28
     30
     32
     34
     36
     38
     40
     42
     44
     46
     48
     50
     52
     54
     56
     58
     60
     62
        </DataArray>
      </Lines>
    </Piece>
  </PolyData>
</VTKFile>
