<?xml version="1.0"?>
<VTKFile type="PolyData" version="0.1" byte_order="LittleEndian">
  <PolyData>
    <Piece NumberOfPoints="     32" NumberOfVerts="  0" NumberOfLines="     31"
           NumberOfStrips="  0" NumberOfPolys="      0">
      <Points>
        <DataArray type="Float32" NumberOfComponents="3" format="ascii">
                      -4.91000                      -0.00000                     -21.00000
                      -4.91000                      -0.00000                     -21.15000
                      -4.91000                      -0.00000                     -21.45000
                      -4.91000                      -0.00000                     -21.75000
                      -4.91000                      -0.00000                     -22.05000
                      -4.91000                      -0.00000                     -22.35000
                      -4.91000                      -0.00000                     -22.65000
                      -4.91000                      -0.00000                     -22.95000
                      -4.91000                      -0.00000                     -23.25000
                      -4.91000                      -0.00000                     -23.55000
                      -4.91000                      -0.00000                     -23.85000
                      -4.91000                      -0.00000                     -24.15000
                      -4.91000                      -0.00000                     -24.45000
                      -4.91000                      -0.00000                     -24.75000
                      -4.91000                      -0.00000                     -25.05000
                      -4.91000                      -0.00000                     -25.35000
                      -4.91000                      -0.00000                     -25.65000
                      -4.91000                      -0.00000                     -25.95000
                      -4.91000                      -0.00000                     -26.25000
                      -4.91000                      -0.00000                     -26.55000
                      -4.91000                      -0.00000                     -26.85000
                      -4.91000                      -0.00000                     -27.15000
                      -4.91000                      -0.00000                     -27.45000
                      -4.91000                      -0.00000                     -27.75000
                      -4.91000                      -0.00000                     -28.05000
                      -4.91000                      -0.00000                     -28.35000
                      -4.91000                      -0.00000                     -28.65000
                      -4.91000                      -0.00000                     -28.95000
                      -4.91000                      -0.00000                     -29.25000
                      -4.91000                      -0.00000                     -29.55000
                      -4.91000                      -0.00000                     -29.85000
                      -4.91000                      -0.00000                     -30.00000
        </DataArray>
      </Points>
      <PointData>
        <DataArray type="Float32" Name="RefOrientationX" NumberOfComponents="3" format="ascii">
                       0.97492                       0.22257                      -0.00000
                       0.97492                       0.22257                      -0.00000
                       0.97492                       0.22257                      -0.00000
                       0.97492                       0.22257                      -0.00000
                       0.97492                       0.22257                      -0.00000
                       0.97492                       0.22257                      -0.00000
                       0.97492                       0.22257                      -0.00000
                       0.97979                       0.20005                      -0.00000
                       0.98345                       0.18121                      -0.00000
                       0.98629                       0.16505                      -0.00000
                       0.98847                       0.15143                      -0.00000
                       0.99022                       0.13952                      -0.00000
                       0.99160                       0.12931                      -0.00000
                       0.99274                       0.12031                      -0.00000
                       0.99367                       0.11234                      -0.00000
                       0.99445                       0.10522                      -0.00000
                       0.99509                       0.09897                      -0.00000
                       0.99564                       0.09324                      -0.00000
                       0.99612                       0.08803                      -0.00000
                       0.99654                       0.08316                      -0.00000
                       0.99690                       0.07863                      -0.00000
                       0.99724                       0.07428                      -0.00000
                       0.99753                       0.07028                      -0.00000
                       0.99780                       0.06627                      -0.00000
                       0.99806                       0.06227                      -0.00000
                       0.99829                       0.05844                      -0.00000
                       0.99851                       0.05460                      -0.00000
                       0.99872                       0.05059                      -0.00000
                       0.99891                       0.04658                      -0.00000
                       0.99910                       0.04240                      -0.00000
                       0.99928                       0.03804                      -0.00000
                       0.99928                       0.03804                      -0.00000
        </DataArray>
        <DataArray type="Float32" Name="RefOrientationY" NumberOfComponents="3" format="ascii">
                       0.22257                      -0.97492                       0.00000
                       0.22257                      -0.97492                       0.00000
                       0.22257                      -0.97492                       0.00000
                       0.22257                      -0.97492                       0.00000
                       0.22257                      -0.97492                       0.00000
                       0.22257                      -0.97492                       0.00000
                       0.22257                      -0.97492                       0.00000
                       0.20005                      -0.97979                       0.00000
                       0.18121                      -0.98345                       0.00000
                       0.16505                      -0.98629                       0.00000
                       0.15143                      -0.98847                       0.00000
                       0.13952                      -0.99022                       0.00000
                       0.12931                      -0.99160                       0.00000
                       0.12031                      -0.99274                       0.00000
                       0.11234                      -0.99367                       0.00000
                       0.10522                      -0.99445                       0.00000
                       0.09897                      -0.99509                       0.00000
                       0.09324                      -0.99564                       0.00000
                       0.08803                      -0.99612                       0.00000
                       0.08316                      -0.99654                       0.00000
                       0.07863                      -0.99690                       0.00000
                       0.07428                      -0.99724                       0.00000
                       0.07028                      -0.99753                       0.00000
                       0.06627                      -0.99780                       0.00000
                       0.06227                      -0.99806                       0.00000
                       0.05844                      -0.99829                       0.00000
                       0.05460                      -0.99851                       0.00000
                       0.05059                      -0.99872                       0.00000
                       0.04658                      -0.99891                       0.00000
                       0.04240                      -0.99910                       0.00000
                       0.03804                      -0.99928                       0.00000
                       0.03804                      -0.99928                       0.00000
        </DataArray>
        <DataArray type="Float32" Name="RefOrientationZ" NumberOfComponents="3" format="ascii">
                       0.00000                      -0.00000                      -1.00000
                       0.00000                      -0.00000                      -1.00000
                       0.00000                      -0.00000                      -1.00000
                       0.00000                      -0.00000                      -1.00000
                       0.00000                      -0.00000                      -1.00000
                       0.00000                      -0.00000                      -1.00000
                       0.00000                      -0.00000                      -1.00000
                       0.00000                      -0.00000                      -1.00000
                       0.00000                      -0.00000                      -1.00000
                       0.00000                      -0.00000                      -1.00000
                       0.00000                      -0.00000                      -1.00000
                       0.00000                      -0.00000                      -1.00000
                       0.00000                      -0.00000                      -1.00000
                       0.00000                      -0.00000                      -1.00000
                       0.00000                      -0.00000                      -1.00000
                       0.00000                      -0.00000                      -1.00000
                       0.00000                      -0.00000                      -1.00000
                       0.00000                      -0.00000                      -1.00000
                       0.00000                      -0.00000                      -1.00000
                       0.00000                      -0.00000                      -1.00000
                       0.00000                      -0.00000                      -1.00000
                       0.00000                      -0.00000                      -1.00000
                       0.00000                      -0.00000                      -1.00000
                       0.00000                      -0.00000                      -1.00000
                       0.00000                      -0.00000                      -1.00000
                       0.00000                      -0.00000                      -1.00000
                       0.00000                      -0.00000                      -1.00000
                       0.00000                      -0.00000                      -1.00000
                       0.00000                      -0.00000                      -1.00000
                       0.00000                      -0.00000                      -1.00000
                       0.00000                      -0.00000                      -1.00000
                       0.00000                      -0.00000                      -1.00000
        </DataArray>
      </PointData>
      <Lines>
        <DataArray type="Int32" Name="connectivity" format="ascii">
      0      1
      1      2
      2      3
      3      4
      4      5
      5      6
      6      7
      7      8
      8      9
      9     10
     10     11
     11     12
     12     13
     13     14
     14     15
     15     16
     16     17
     17     18
     18     19
     19     20
     20     21
     21     22
     22     23
     23     24
     24     25
     25     26
     26     27
     27     28
     28     29
     29     30
     30     31
        </DataArray>
        <DataArray type="Int32" Name="offsets" format="ascii">
      2
      4
      6
      8
     10
     12
     14
     16
     18
     20
     22
     24
     26
     28
     30
     32
     34
     36
     38
     40
     42
     44
     46
     48
     50
     52
     54
     56
     58
     60
     62
        </DataArray>
      </Lines>
    </Piece>
  </PolyData>
</VTKFile>
