<?xml version="1.0"?>
<VTKFile type="PolyData" version="0.1" byte_order="LittleEndian">
  <PolyData>
    <Piece NumberOfPoints="     32" NumberOfVerts="  0" NumberOfLines="     31"
           NumberOfStrips="  0" NumberOfPolys="      0">
      <Points>
        <DataArray type="Float32" NumberOfComponents="3" format="ascii">
                      -4.66920                      -0.69766                     -19.20212
                      -4.66753                      -0.80088                     -19.09329
                      -4.66410                      -1.00732                     -18.87564
                      -4.66043                      -1.21378                     -18.65801
                      -4.65643                      -1.42028                     -18.44043
                      -4.65199                      -1.62683                     -18.22291
                      -4.64699                      -1.83347                     -18.00548
                      -4.64140                      -2.04019                     -17.78814
                      -4.63513                      -2.24699                     -17.57090
                      -4.62799                      -2.45389                     -17.35377
                      -4.61984                      -2.66089                     -17.13679
                      -4.61054                      -2.86799                     -16.91994
                      -4.59996                      -3.07519                     -16.70324
                      -4.58817                      -3.28246                     -16.48669
                      -4.57511                      -3.48982                     -16.27028
                      -4.56051                      -3.69726                     -16.05405
                      -4.54430                      -3.90476                     -15.83800
                      -4.52640                      -4.11233                     -15.62213
                      -4.50679                      -4.31994                     -15.40646
                      -4.48566                      -4.52757                     -15.19096
                      -4.46301                      -4.73523                     -14.97563
                      -4.43866                      -4.94289                     -14.76050
                      -4.41269                      -5.15056                     -14.54555
                      -4.38519                      -5.35821                     -14.33078
                      -4.35631                      -5.56584                     -14.11617
                      -4.32637                      -5.77345                     -13.90169
                      -4.29548                      -5.98104                     -13.68732
                      -4.26376                      -6.18861                     -13.47305
                      -4.23151                      -6.39616                     -13.25885
                      -4.19909                      -6.60370                     -13.04466
                      -4.16696                      -6.81126                     -12.83044
                      -4.15098                      -6.91505                     -12.72333
        </DataArray>
      </Points>
      <PointData>
        <DataArray type="Float32" Name="Force" NumberOfComponents="3" format="ascii">
                   -6135.00760                   -3782.39018                  -11670.03370
                    9977.62116                   14742.92780                   30182.66334
                    5259.18998                  -11820.94699                   37556.76362
                   16652.33778                   44692.71110                   68388.99581
                  -15790.21745                  -39052.36077                  -30945.61786
                  -15872.82711                   -4702.29826                  -48821.70088
                  -23757.57919                    8143.89632                  -50035.93769
                    4874.28226                   38066.96095                  -10655.47781
                   -3721.00330                   16986.20674                  -20605.09623
                     585.40392                   23893.94820                     813.42391
                   -1733.64293                    5823.91501                   -7861.82701
                    -530.70928                    9798.83547                   -5275.25597
                      -8.27436                    8377.97142                   -5864.48485
                    1097.69467                    8382.08551                   -5405.97613
                    1971.92019                    7715.39106                   -5476.09718
                    3219.52256                    7500.37455                   -5413.57944
                    4510.94270                    7289.75268                   -5339.07369
                    5710.86582                    6910.08773                   -5262.00827
                    7055.72740                    6467.14025                   -5222.60488
                    8478.15719                    6391.38488                   -5319.69975
                   10037.30743                    6120.64514                   -5310.05284
                   11513.85723                    5817.11199                   -5412.67509
                   12961.84240                    5710.48150                   -5369.87853
                   14425.76066                    5309.99811                   -5397.05123
                   15715.75461                    5203.08516                   -5445.29999
                   17061.10188                    5069.99971                   -5588.12961
                   18092.55303                    4650.76357                   -5271.75573
                   18862.15015                    4997.80263                   -5820.19478
                   19340.68086                    2925.15473                   -3606.80411
                   17285.84409                    9708.45059                  -10793.75671
                   18994.64135                  -16869.04433                   18476.70428
                  -15083.77800                  111287.88508                 -114351.37235
        </DataArray>
        <DataArray type="Float32" Name="Moment" NumberOfComponents="3" format="ascii">
                      96.25763                     167.08581                     120.44723
                    1380.66986                    -621.89731                    -499.31191
                    2144.46925                    -229.12526                    -444.20759
                    -815.11327                    -354.01668                     634.17778
                   -3247.60396                     752.98913                     145.64720
                   -3627.76693                    1723.29129                    1139.31048
                   -5619.94023                     756.20370                    2503.74505
                   -4118.93196                    1017.77359                     715.39151
                   -3880.46681                    1303.52252                    1215.31212
                   -1490.98968                     107.46594                     691.08225
                   -1858.66017                     467.94538                     337.88554
                    -874.39197                     245.85896                     296.13928
                   -1246.81761                     274.05692                     304.96503
                   -1009.06812                     230.15529                     259.86161
                   -1000.73098                     213.00309                     247.55584
                    -909.09572                     190.05421                     215.73520
                    -862.70195                     180.38522                     207.29189
                    -799.00111                     152.85849                     202.53671
                    -727.00793                     129.86229                     183.60410
                    -683.61456                     112.82019                     174.03880
                    -635.96947                     102.86684                     156.42328
                    -577.32998                      92.53306                     149.07956
                    -530.10922                      74.24851                     139.38253
                    -476.41927                      67.21841                     128.12120
                    -432.57008                      48.98832                     122.46066
                    -398.80485                      45.61051                     106.35921
                    -337.42456                      34.32923                      97.55953
                    -333.05918                      32.38940                      90.61733
                    -184.33185                      15.66943                      59.18424
                    -594.30756                      53.64891                     157.03308
                    1269.81079                    -141.45121                    -319.31636
                   -7992.21022                     802.69099                    1981.43042
        </DataArray>
        <DataArray type="Float32" Name="TranslationalVelocity" NumberOfComponents="3" format="ascii">
                       0.77224                      -0.96321                      -0.66416
                       0.77536                      -1.10365                      -0.79741
                       0.78150                      -1.38448                      -1.06386
                       0.78744                      -1.66515                      -1.33023
                       0.79310                      -1.94564                      -1.59654
                       0.79843                      -2.22595                      -1.86283
                       0.80335                      -2.50603                      -2.12912
                       0.80784                      -2.78591                      -2.39543
                       0.81187                      -3.06558                      -2.66177
                       0.81529                      -3.34500                      -2.92815
                       0.81803                      -3.62417                      -3.19457
                       0.82001                      -3.90309                      -3.46104
                       0.82114                      -4.18175                      -3.72754
                       0.82148                      -4.46018                      -3.99407
                       0.82099                      -4.73839                      -4.26061
                       0.81950                      -5.01634                      -4.52716
                       0.81696                      -5.29405                      -4.79368
                       0.81334                      -5.57151                      -5.06017
                       0.80863                      -5.84873                      -5.32660
                       0.80293                      -6.12575                      -5.59295
                       0.79626                      -6.40258                      -5.85922
                       0.78851                      -6.67921                      -6.12537
                       0.77973                      -6.95565                      -6.39139
                       0.76996                      -7.23192                      -6.65727
                       0.75933                      -7.50806                      -6.92300
                       0.74801                      -7.78409                      -7.18862
                       0.73609                      -8.06004                      -7.45414
                       0.72364                      -8.33592                      -7.71955
                       0.71086                      -8.61176                      -7.98490
                       0.69797                      -8.88759                      -8.25025
                       0.68527                      -9.16345                      -8.51564
                       0.67897                      -9.30139                      -8.64836
        </DataArray>
        <DataArray type="Float32" Name="RotationalVelocity" NumberOfComponents="3" format="ascii">
                       1.29049                       0.04729                      -0.01928
                       1.29019                       0.04708                      -0.01948
                       1.28960                       0.04661                      -0.01992
                       1.28905                       0.04603                      -0.02046
                       1.28850                       0.04532                      -0.02112
                       1.28796                       0.04448                      -0.02191
                       1.28741                       0.04350                      -0.02283
                       1.28687                       0.04234                      -0.02393
                       1.28633                       0.04100                      -0.02519
                       1.28580                       0.03949                      -0.02662
                       1.28528                       0.03782                      -0.02819
                       1.28475                       0.03599                      -0.02991
                       1.28423                       0.03402                      -0.03178
                       1.28370                       0.03189                      -0.03379
                       1.28318                       0.02962                      -0.03593
                       1.28267                       0.02725                      -0.03817
                       1.28216                       0.02480                      -0.04049
                       1.28166                       0.02229                      -0.04286
                       1.28117                       0.01974                      -0.04527
                       1.28071                       0.01718                      -0.04769
                       1.28027                       0.01467                      -0.05007
                       1.27986                       0.01223                      -0.05237
                       1.27948                       0.00991                      -0.05457
                       1.27915                       0.00774                      -0.05662
                       1.27886                       0.00578                      -0.05848
                       1.27864                       0.00409                      -0.06008
                       1.27848                       0.00277                      -0.06133
                       1.27838                       0.00183                      -0.06222
                       1.27836                       0.00133                      -0.06269
                       1.27840                       0.00134                      -0.06268
                       1.27852                       0.00187                      -0.06218
                       1.27860                       0.00230                      -0.06177
        </DataArray>
        <DataArray type="Float32" Name="TranslationalAcceleration" NumberOfComponents="3" format="ascii">
                       0.88880                       1.19709                      -0.62367
                       0.88608                       1.36569                      -0.80783
                       0.87859                       1.70113                      -1.17767
                       0.86617                       2.03242                      -1.55104
                       0.84914                       2.36039                      -1.92715
                       0.82772                       2.68565                      -2.30537
                       0.80204                       3.00867                      -2.68520
                       0.77267                       3.32996                      -3.06617
                       0.73964                       3.64967                      -3.44812
                       0.70249                       3.96774                      -3.83098
                       0.66120                       4.28429                      -4.21460
                       0.61570                       4.59933                      -4.59886
                       0.56590                       4.91286                      -4.98372
                       0.51222                       5.22499                      -5.36907
                       0.45462                       5.53567                      -5.75492
                       0.39250                       5.84463                      -6.14133
                       0.32582                       6.15175                      -6.52830
                       0.25454                       6.45693                      -6.91584
                       0.17869                       6.76006                      -7.30397
                       0.09883                       7.06133                      -7.69261
                       0.01504                       7.36070                      -8.08176
                      -0.07307                       7.65792                      -8.47147
                      -0.16527                       7.95304                      -8.86169
                      -0.26126                       8.24616                      -9.25236
                      -0.36062                       8.53751                      -9.64338
                      -0.46257                       8.82750                     -10.03462
                      -0.56678                       9.11636                     -10.42600
                      -0.67296                       9.40431                     -10.81739
                      -0.78033                       9.69191                     -11.20859
                      -0.88798                       9.97981                     -11.59937
                      -0.99480                      10.26880                     -11.98944
                      -1.04797                      10.41357                     -12.18430
        </DataArray>
        <DataArray type="Float32" Name="RotationalAcceleration" NumberOfComponents="3" format="ascii">
                       0.01814                       0.12862                      -0.06250
                       0.02796                       0.12279                      -0.06818
                       0.04579                       0.11165                      -0.07925
                       0.06087                       0.10126                      -0.08994
                       0.07340                       0.09155                      -0.10038
                       0.08379                       0.08241                      -0.11070
                       0.09246                       0.07375                      -0.12104
                       0.09975                       0.06555                      -0.13150
                       0.10612                       0.05768                      -0.14224
                       0.11192                       0.05001                      -0.15331
                       0.11731                       0.04246                      -0.16478
                       0.12245                       0.03499                      -0.17668
                       0.12745                       0.02756                      -0.18902
                       0.13243                       0.02015                      -0.20185
                       0.13748                       0.01274                      -0.21512
                       0.14262                       0.00536                      -0.22870
                       0.14787                      -0.00198                      -0.24253
                       0.15320                      -0.00925                      -0.25649
                       0.15858                      -0.01641                      -0.27050
                       0.16394                      -0.02340                      -0.28438
                       0.16918                      -0.03011                      -0.29791
                       0.17417                      -0.03651                      -0.31094
                       0.17882                      -0.04250                      -0.32327
                       0.18300                      -0.04801                      -0.33470
                       0.18656                      -0.05293                      -0.34502
                       0.18925                      -0.05707                      -0.35377
                       0.19083                      -0.06023                      -0.36056
                       0.19122                      -0.06238                      -0.36530
                       0.19025                      -0.06339                      -0.36769
                       0.18775                      -0.06311                      -0.36740
                       0.18367                      -0.06151                      -0.36435
                       0.18112                      -0.06027                      -0.36194
        </DataArray>
        <DataArray type="Float32" Name="OrientationX" NumberOfComponents="3" format="ascii">
                       0.97252                      -0.16149                      -0.16773
                       0.97251                      -0.16130                      -0.16794
                       0.97250                      -0.16081                      -0.16845
                       0.97249                      -0.16015                      -0.16915
                       0.97248                      -0.15928                      -0.17007
                       0.97245                      -0.15819                      -0.17121
                       0.97242                      -0.15686                      -0.17261
                       0.97748                      -0.13891                      -0.15889
                       0.98127                      -0.12333                      -0.14797
                       0.98420                      -0.10945                      -0.13917
                       0.98643                      -0.09715                      -0.13236
                       0.98818                      -0.08585                      -0.12698
                       0.98953                      -0.07555                      -0.12301
                       0.99057                      -0.06587                      -0.12012
                       0.99137                      -0.05672                      -0.11817
                       0.99197                      -0.04803                      -0.11697
                       0.99239                      -0.03983                      -0.11649
                       0.99268                      -0.03191                      -0.11647
                       0.99285                      -0.02431                      -0.11687
                       0.99293                      -0.01694                      -0.11752
                       0.99292                      -0.00988                      -0.11834
                       0.99287                      -0.00306                      -0.11916
                       0.99276                       0.00334                      -0.12004
                       0.99265                       0.00951                      -0.12068
                       0.99253                       0.01537                      -0.12099
                       0.99244                       0.02069                      -0.12099
                       0.99240                       0.02545                      -0.12041
                       0.99243                       0.02977                      -0.11912
                       0.99255                       0.03342                      -0.11713
                       0.99279                       0.03644                      -0.11423
                       0.99313                       0.03880                      -0.11040
                       0.99323                       0.03815                      -0.10973
        </DataArray>
        <DataArray type="Float32" Name="OrientationY" NumberOfComponents="3" format="ascii">
                       0.23259                       0.70742                       0.66742
                       0.23258                       0.70745                       0.66739
                       0.23258                       0.70751                       0.66733
                       0.23258                       0.70756                       0.66728
                       0.23258                       0.70760                       0.66724
                       0.23258                       0.70764                       0.66720
                       0.23258                       0.70768                       0.66716
                       0.21012                       0.71113                       0.67093
                       0.19131                       0.71369                       0.67383
                       0.17519                       0.71564                       0.67614
                       0.16160                       0.71710                       0.67797
                       0.14971                       0.71824                       0.67950
                       0.13953                       0.71910                       0.68075
                       0.13054                       0.71977                       0.68182
                       0.12259                       0.72030                       0.68274
                       0.11549                       0.72071                       0.68355
                       0.10926                       0.72101                       0.68425
                       0.10355                       0.72125                       0.68490
                       0.09835                       0.72142                       0.68548
                       0.09351                       0.72155                       0.68602
                       0.08900                       0.72163                       0.68653
                       0.08468                       0.72169                       0.68702
                       0.08070                       0.72171                       0.68748
                       0.07672                       0.72170                       0.68794
                       0.07274                       0.72167                       0.68841
                       0.06894                       0.72161                       0.68886
                       0.06513                       0.72153                       0.68931
                       0.06115                       0.72142                       0.68979
                       0.05717                       0.72129                       0.69027
                       0.05301                       0.72114                       0.69076
                       0.04868                       0.72096                       0.69126
                       0.04868                       0.72095                       0.69127
        </DataArray>
        <DataArray type="Float32" Name="OrientationZ" NumberOfComponents="3" format="ascii">
                       0.01087                      -0.68809                       0.72554
                       0.01116                      -0.68811                       0.72552
                       0.01187                      -0.68816                       0.72546
                       0.01282                      -0.68827                       0.72534
                       0.01406                      -0.68843                       0.72517
                       0.01561                      -0.68864                       0.72493
                       0.01750                      -0.68890                       0.72464
                       0.01979                      -0.68920                       0.72430
                       0.02250                      -0.68952                       0.72392
                       0.02559                      -0.68984                       0.72351
                       0.02905                      -0.69016                       0.72307
                       0.03287                      -0.69048                       0.72260
                       0.03703                      -0.69079                       0.72211
                       0.04155                      -0.69108                       0.72159
                       0.04639                      -0.69134                       0.72104
                       0.05147                      -0.69158                       0.72047
                       0.05674                      -0.69178                       0.71988
                       0.06215                      -0.69194                       0.71927
                       0.06765                      -0.69207                       0.71865
                       0.07318                      -0.69216                       0.71803
                       0.07862                      -0.69220                       0.71741
                       0.08390                      -0.69221                       0.71680
                       0.08893                      -0.69219                       0.71621
                       0.09363                      -0.69214                       0.71566
                       0.09790                      -0.69207                       0.71516
                       0.10155                      -0.69199                       0.71473
                       0.10443                      -0.69191                       0.71439
                       0.10647                      -0.69185                       0.71414
                       0.10755                      -0.69182                       0.71401
                       0.10755                      -0.69183                       0.71400
                       0.10642                      -0.69189                       0.71412
                       0.10548                      -0.69193                       0.71421
        </DataArray>
      </PointData>
      <Lines>
        <DataArray type="Int32" Name="connectivity" format="ascii">
      0      1
      1      2
      2      3
      3      4
      4      5
      5      6
      6      7
      7      8
      8      9
      9     10
     10     11
     11     12
     12     13
     13     14
     14     15
     15     16
     16     17
     17     18
     18     19
     19     20
     20     21
     21     22
     22     23
     23     24
     24     25
     25     26
     26     27
     27     28
     28     29
     29     30
     30     31
        </DataArray>
        <DataArray type="Int32" Name="offsets" format="ascii">
      2
      4
      6
      8
     10
     12
     14
     16
     18
     20
     22
     24
     26
     28
     30
     32
     34
     36
     38
     40
     42
     44
     46
     48
     50
     52
     54
     56
     58
     60
     62
        </DataArray>
      </Lines>
    </Piece>
  </PolyData>
</VTKFile>
