<?xml version="1.0"?>
<VTKFile type="PolyData" version="0.1" byte_order="LittleEndian">
  <PolyData>
    <Piece NumberOfPoints="     32" NumberOfVerts="  0" NumberOfLines="     31"
           NumberOfStrips="  0" NumberOfPolys="      0">
      <Points>
        <DataArray type="Float32" NumberOfComponents="3" format="ascii">
                      -3.78659                      -0.95366                     -20.07270
                      -3.79108                      -1.09062                     -20.13372
                      -3.80001                      -1.36452                     -20.25578
                      -3.80880                      -1.63840                     -20.37788
                      -3.81743                      -1.91227                     -20.50005
                      -3.82583                      -2.18611                     -20.62228
                      -3.83396                      -2.45992                     -20.74459
                      -3.84181                      -2.73370                     -20.86699
                      -3.84935                      -3.00746                     -20.98946
                      -3.85648                      -3.28118                     -21.11204
                      -3.86313                      -3.55487                     -21.23473
                      -3.86926                      -3.82852                     -21.35752
                      -3.87481                      -4.10213                     -21.48043
                      -3.87980                      -4.37570                     -21.60345
                      -3.88421                      -4.64923                     -21.72657
                      -3.88792                      -4.92272                     -21.84982
                      -3.89090                      -5.19617                     -21.97318
                      -3.89311                      -5.46957                     -22.09667
                      -3.89455                      -5.74292                     -22.22027
                      -3.89529                      -6.01622                     -22.34398
                      -3.89535                      -6.28949                     -22.46778
                      -3.89464                      -6.56270                     -22.59168
                      -3.89319                      -6.83587                     -22.71568
                      -3.89104                      -7.10900                     -22.83977
                      -3.88828                      -7.38208                     -22.96394
                      -3.88503                      -7.65514                     -23.08816
                      -3.88135                      -7.92817                     -23.21242
                      -3.87730                      -8.20117                     -23.33673
                      -3.87301                      -8.47416                     -23.46106
                      -3.86864                      -8.74714                     -23.58540
                      -3.86441                      -9.02014                     -23.70973
                      -3.86233                      -9.15664                     -23.77189
        </DataArray>
      </Points>
      <PointData>
        <DataArray type="Float32" Name="Force" NumberOfComponents="3" format="ascii">
                   -6107.24439                    9847.71542                   -6353.31039
                   12533.62591                  -25511.73910                   25737.07587
                   11001.35117                  -42291.75494                     579.67387
                   29175.82813                  -54567.59385                   70306.59708
                  -14449.90330                   18024.52726                  -49491.61671
                  -13365.41521                   50445.17282                  -22358.41673
                  -22246.31896                   58342.34000                   -9631.33832
                   12796.43229                   26917.61927                   36263.45093
                     394.37270                   30333.29835                   10439.39235
                    5675.40833                    8936.06205                   26942.50664
                     775.72367                   11764.81129                    3358.08376
                    2037.64599                   10570.81601                    8986.73838
                    2028.49017                   10838.52026                    7275.43061
                    2708.91075                   10414.27486                    7570.05666
                    2843.95355                   10333.09782                    6883.97199
                    3536.79125                   10247.48660                    6738.13852
                    4201.85406                   10126.26040                    6617.13651
                    4603.74735                    9885.54195                    6285.01322
                    5248.07019                    9639.10100                    5808.18281
                    5875.21875                    9710.33115                    5761.13366
                    6563.55561                    9495.16560                    5488.42590
                    7166.73407                    9403.87677                    5098.29561
                    7738.57143                    9175.61277                    5060.69414
                    8267.04469                    8866.55294                    4541.47419
                    8597.91508                    8742.36553                    4449.60813
                    9058.65734                    8749.62651                    4249.90434
                    9027.28595                    7865.49542                    3858.60723
                    8863.02747                    8992.69644                    4249.32836
                    7933.87078                    3844.57760                    2115.16402
                    5070.73095                   21193.45840                    9753.41243
                    1354.62146                  -46744.60311                  -18810.19242
                   -1873.69209                  272833.79213                  124049.00460
        </DataArray>
        <DataArray type="Float32" Name="Moment" NumberOfComponents="3" format="ascii">
                     211.13566                     -46.35280                     195.87361
                    1358.05714                     241.12134                    -837.39263
                    2333.40594                     338.75469                    -584.83968
                   -1156.22881                    -851.06863                     -15.79844
                   -3438.22407                      82.38114                    1021.28736
                   -3953.99011                    -631.13977                    2512.02437
                   -6272.62533                   -2430.11430                    2139.01712
                   -4793.90126                    -442.60697                    1738.01971
                   -4444.39074                    -845.27215                    2220.36407
                   -1839.67126                    -799.49123                     516.37581
                   -2221.55089                    -230.03846                     810.82455
                   -1097.85367                    -298.95775                     469.46222
                   -1562.41984                    -269.25185                     548.02273
                   -1299.98188                    -238.91578                     477.87068
                   -1309.69991                    -236.51780                     455.12801
                   -1216.21093                    -199.92558                     411.92398
                   -1175.10778                    -190.48069                     405.74833
                   -1112.15664                    -193.84718                     367.23934
                   -1033.48185                    -168.54616                     332.63971
                    -991.27292                    -165.01343                     315.67883
                    -941.27269                    -148.76759                     291.71050
                    -872.34354                    -138.81427                     273.09575
                    -818.93424                    -134.08996                     246.03400
                    -750.95603                    -120.78198                     228.08191
                    -698.65288                    -119.97353                     200.11578
                    -656.70349                    -101.36425                     189.65619
                    -567.54456                     -98.77434                     159.99252
                    -576.44784                     -88.15405                     158.27343
                    -314.21709                     -60.67971                      89.77333
                   -1095.10429                    -162.21338                     290.81920
                    2376.68801                     330.52038                    -654.41395
                  -14815.53754                   -2060.16342                    4004.56270
        </DataArray>
        <DataArray type="Float32" Name="TranslationalVelocity" NumberOfComponents="3" format="ascii">
                       0.79065                       0.44335                      -0.82600
                       0.77557                       0.51411                      -0.98370
                       0.74548                       0.65562                      -1.29904
                       0.71551                       0.79711                      -1.61425
                       0.68567                       0.93860                      -1.92935
                       0.65596                       1.08012                      -2.24436
                       0.62639                       1.22169                      -2.55930
                       0.59694                       1.36330                      -2.87418
                       0.56764                       1.50497                      -3.18903
                       0.53849                       1.64670                      -3.50383
                       0.50953                       1.78850                      -3.81859
                       0.48076                       1.93038                      -4.13332
                       0.45219                       2.07233                      -4.44803
                       0.42382                       2.21435                      -4.76271
                       0.39566                       2.35644                      -5.07737
                       0.36773                       2.49860                      -5.39201
                       0.34005                       2.64084                      -5.70662
                       0.31263                       2.78315                      -6.02120
                       0.28546                       2.92553                      -6.33575
                       0.25853                       3.06796                      -6.65028
                       0.23183                       3.21045                      -6.96478
                       0.20538                       3.35299                      -7.27925
                       0.17918                       3.49559                      -7.59368
                       0.15320                       3.63823                      -7.90809
                       0.12744                       3.78091                      -8.22247
                       0.10182                       3.92362                      -8.53683
                       0.07635                       4.06635                      -8.85118
                       0.05100                       4.20910                      -9.16552
                       0.02573                       4.35187                      -9.47986
                       0.00048                       4.49465                      -9.79421
                      -0.02482                       4.63743                     -10.10860
                      -0.03748                       4.70882                     -10.26579
        </DataArray>
        <DataArray type="Float32" Name="RotationalVelocity" NumberOfComponents="3" format="ascii">
                       1.15354                       0.05543                      -0.08557
                       1.15329                       0.05536                      -0.08538
                       1.15284                       0.05520                      -0.08501
                       1.15247                       0.05505                      -0.08463
                       1.15217                       0.05489                      -0.08425
                       1.15194                       0.05472                      -0.08385
                       1.15176                       0.05454                      -0.08343
                       1.15162                       0.05434                      -0.08298
                       1.15152                       0.05413                      -0.08250
                       1.15143                       0.05390                      -0.08198
                       1.15137                       0.05366                      -0.08143
                       1.15131                       0.05340                      -0.08084
                       1.15126                       0.05312                      -0.08021
                       1.15122                       0.05282                      -0.07955
                       1.15118                       0.05251                      -0.07885
                       1.15113                       0.05219                      -0.07812
                       1.15108                       0.05186                      -0.07737
                       1.15104                       0.05152                      -0.07661
                       1.15098                       0.05118                      -0.07584
                       1.15093                       0.05084                      -0.07507
                       1.15088                       0.05051                      -0.07432
                       1.15083                       0.05018                      -0.07359
                       1.15078                       0.04988                      -0.07289
                       1.15074                       0.04959                      -0.07225
                       1.15071                       0.04933                      -0.07167
                       1.15069                       0.04911                      -0.07117
                       1.15068                       0.04894                      -0.07078
                       1.15070                       0.04882                      -0.07051
                       1.15074                       0.04875                      -0.07037
                       1.15080                       0.04875                      -0.07038
                       1.15090                       0.04883                      -0.07055
                       1.15095                       0.04888                      -0.07068
        </DataArray>
        <DataArray type="Float32" Name="TranslationalAcceleration" NumberOfComponents="3" format="ascii">
                      -0.37924                       1.17872                       0.60360
                      -0.38849                       1.35351                       0.70439
                      -0.40679                       1.70321                       0.90546
                      -0.42454                       2.05322                       1.10535
                      -0.44168                       2.40349                       1.30422
                      -0.45809                       2.75402                       1.50222
                      -0.47370                       3.10479                       1.69945
                      -0.48850                       3.45575                       1.89606
                      -0.50243                       3.80690                       2.09209
                      -0.51527                       4.15825                       2.28752
                      -0.52692                       4.50980                       2.48239
                      -0.53726                       4.86153                       2.67673
                      -0.54621                       5.21346                       2.87055
                      -0.55386                       5.56555                       3.06392
                      -0.56015                       5.91782                       3.25684
                      -0.56484                       6.27028                       3.44925
                      -0.56787                       6.62295                       3.64116
                      -0.56921                       6.97581                       3.83258
                      -0.56881                       7.32888                       4.02350
                      -0.56690                       7.68213                       4.21401
                      -0.56347                       8.03557                       4.40411
                      -0.55837                       8.38920                       4.59376
                      -0.55166                       8.74301                       4.78302
                      -0.54345                       9.09701                       4.97191
                      -0.53389                       9.45116                       5.16049
                      -0.52327                       9.80543                       5.34886
                      -0.51174                      10.15980                       5.53705
                      -0.49938                      10.51425                       5.72512
                      -0.48650                      10.86874                       5.91316
                      -0.47348                      11.22323                       6.10128
                      -0.46073                      11.57765                       6.28961
                      -0.45445                      11.75484                       6.38383
        </DataArray>
        <DataArray type="Float32" Name="RotationalAcceleration" NumberOfComponents="3" format="ascii">
                      -0.13675                      -0.01071                      -0.05338
                      -0.13469                      -0.01118                      -0.05279
                      -0.13085                      -0.01219                      -0.05149
                      -0.12739                      -0.01332                      -0.05000
                      -0.12427                      -0.01459                      -0.04829
                      -0.12144                      -0.01601                      -0.04635
                      -0.11882                      -0.01759                      -0.04416
                      -0.11640                      -0.01938                      -0.04168
                      -0.11415                      -0.02139                      -0.03888
                      -0.11200                      -0.02359                      -0.03583
                      -0.10992                      -0.02597                      -0.03252
                      -0.10788                      -0.02853                      -0.02897
                      -0.10587                      -0.03126                      -0.02519
                      -0.10387                      -0.03417                      -0.02119
                      -0.10187                      -0.03723                      -0.01698
                      -0.09987                      -0.04041                      -0.01263
                      -0.09787                      -0.04368                      -0.00816
                      -0.09588                      -0.04701                      -0.00361
                      -0.09393                      -0.05038                       0.00098
                      -0.09202                      -0.05374                       0.00556
                      -0.09019                      -0.05704                       0.01005
                      -0.08846                      -0.06023                       0.01439
                      -0.08686                      -0.06326                       0.01852
                      -0.08542                      -0.06609                       0.02237
                      -0.08418                      -0.06866                       0.02587
                      -0.08319                      -0.07085                       0.02886
                      -0.08251                      -0.07257                       0.03121
                      -0.08215                      -0.07378                       0.03289
                      -0.08214                      -0.07442                       0.03377
                      -0.08252                      -0.07440                       0.03376
                      -0.08330                      -0.07369                       0.03282
                      -0.08381                      -0.07312                       0.03205
        </DataArray>
        <DataArray type="Float32" Name="OrientationX" NumberOfComponents="3" format="ascii">
                       0.95718                       0.09089                      -0.27484
                       0.95719                       0.09106                      -0.27476
                       0.95720                       0.09145                      -0.27459
                       0.95722                       0.09194                      -0.27437
                       0.95724                       0.09255                      -0.27410
                       0.95726                       0.09328                      -0.27377
                       0.95729                       0.09415                      -0.27339
                       0.96369                       0.08599                      -0.25278
                       0.96865                       0.07950                      -0.23536
                       0.97261                       0.07425                      -0.22026
                       0.97574                       0.07018                      -0.20736
                       0.97833                       0.06696                      -0.19591
                       0.98044                       0.06456                      -0.18593
                       0.98221                       0.06280                      -0.17695
                       0.98372                       0.06159                      -0.16884
                       0.98500                       0.06082                      -0.16146
                       0.98609                       0.06048                      -0.15483
                       0.98705                       0.06041                      -0.14863
                       0.98789                       0.06058                      -0.14287
                       0.98864                       0.06090                      -0.13743
                       0.98931                       0.06132                      -0.13231
                       0.98993                       0.06175                      -0.12738
                       0.99048                       0.06221                      -0.12281
                       0.99101                       0.06253                      -0.11830
                       0.99152                       0.06267                      -0.11387
                       0.99199                       0.06262                      -0.10971
                       0.99245                       0.06225                      -0.10569
                       0.99292                       0.06145                      -0.10168
                       0.99338                       0.06025                      -0.09784
                       0.99385                       0.05853                      -0.09405
                       0.99432                       0.05626                      -0.09032
                       0.99433                       0.05587                      -0.09050
        </DataArray>
        <DataArray type="Float32" Name="OrientationY" NumberOfComponents="3" format="ascii">
                       0.28791                      -0.39760                       0.87122
                       0.28791                      -0.39761                       0.87121
                       0.28791                      -0.39764                       0.87120
                       0.28791                      -0.39766                       0.87119
                       0.28791                      -0.39768                       0.87118
                       0.28791                      -0.39770                       0.87117
                       0.28791                      -0.39771                       0.87117
                       0.26578                      -0.39979                       0.87723
                       0.24723                      -0.40137                       0.88192
                       0.23130                      -0.40263                       0.88566
                       0.21787                      -0.40363                       0.88860
                       0.20611                      -0.40445                       0.89103
                       0.19602                      -0.40513                       0.89300
                       0.18712                      -0.40571                       0.89464
                       0.17923                      -0.40621                       0.89603
                       0.17218                      -0.40665                       0.89721
                       0.16599                      -0.40703                       0.89820
                       0.16031                      -0.40738                       0.89908
                       0.15514                      -0.40771                       0.89984
                       0.15031                      -0.40801                       0.90052
                       0.14583                      -0.40829                       0.90113
                       0.14151                      -0.40856                       0.90169
                       0.13754                      -0.40881                       0.90220
                       0.13357                      -0.40907                       0.90268
                       0.12959                      -0.40932                       0.90314
                       0.12578                      -0.40956                       0.90357
                       0.12198                      -0.40980                       0.90398
                       0.11799                      -0.41005                       0.90440
                       0.11401                      -0.41029                       0.90480
                       0.10984                      -0.41054                       0.90520
                       0.10551                      -0.41079                       0.90561
                       0.10550                      -0.41079                       0.90561
        </DataArray>
        <DataArray type="Float32" Name="OrientationZ" NumberOfComponents="3" format="ascii">
                      -0.03009                      -0.91305                      -0.40674
                      -0.02992                      -0.91302                      -0.40681
                      -0.02952                      -0.91297                      -0.40695
                      -0.02901                      -0.91291                      -0.40712
                      -0.02838                      -0.91284                      -0.40732
                      -0.02762                      -0.91276                      -0.40756
                      -0.02671                      -0.91267                      -0.40783
                      -0.02563                      -0.91257                      -0.40813
                      -0.02436                      -0.91246                      -0.40844
                      -0.02293                      -0.91235                      -0.40878
                      -0.02133                      -0.91223                      -0.40913
                      -0.01958                      -0.91210                      -0.40949
                      -0.01767                      -0.91198                      -0.40986
                      -0.01561                      -0.91184                      -0.41025
                      -0.01340                      -0.91170                      -0.41063
                      -0.01109                      -0.91156                      -0.41102
                      -0.00870                      -0.91141                      -0.41141
                      -0.00624                      -0.91126                      -0.41179
                      -0.00374                      -0.91110                      -0.41217
                      -0.00123                      -0.91095                      -0.41252
                       0.00124                      -0.91079                      -0.41286
                       0.00364                      -0.91064                      -0.41318
                       0.00592                      -0.91050                      -0.41348
                       0.00805                      -0.91036                      -0.41374
                       0.00999                      -0.91024                      -0.41397
                       0.01165                      -0.91013                      -0.41416
                       0.01295                      -0.91005                      -0.41430
                       0.01388                      -0.90999                      -0.41440
                       0.01437                      -0.90996                      -0.41445
                       0.01437                      -0.90996                      -0.41444
                       0.01385                      -0.90999                      -0.41439
                       0.01342                      -0.91002                      -0.41435
        </DataArray>
      </PointData>
      <Lines>
        <DataArray type="Int32" Name="connectivity" format="ascii">
      0      1
      1      2
      2      3
      3      4
      4      5
      5      6
      6      7
      7      8
      8      9
      9     10
     10     11
     11     12
     12     13
     13     14
     14     15
     15     16
     16     17
     17     18
     18     19
     19     20
     20     21
     21     22
     22     23
     23     24
     24     25
     25     26
     26     27
     27     28
     28     29
     29     30
     30     31
        </DataArray>
        <DataArray type="Int32" Name="offsets" format="ascii">
      2
      4
      6
      8
     10
     12
     14
     16
     18
     20
     22
     24
     26
     28
     30
     32
     34
     36
     38
     40
     42
     44
     46
     48
     50
     52
     54
     56
     58
     60
     62
        </DataArray>
      </Lines>
    </Piece>
  </PolyData>
</VTKFile>
