<?xml version="1.0"?>
<VTKFile type="PolyData" version="0.1" byte_order="LittleEndian">
  <PolyData>
    <Piece NumberOfPoints="     32" NumberOfVerts="  0" NumberOfLines="     31"
           NumberOfStrips="  0" NumberOfPolys="      0">
      <Points>
        <DataArray type="Float32" NumberOfComponents="3" format="ascii">
                      -4.74214                      -0.59597                     -19.13968
                      -4.74079                      -0.68432                     -19.01847
                      -4.73799                      -0.86104                     -18.77606
                      -4.73493                      -1.03780                     -18.53368
                      -4.73152                      -1.21461                     -18.29134
                      -4.72763                      -1.39149                     -18.04907
                      -4.72316                      -1.56848                     -17.80688
                      -4.71806                      -1.74556                     -17.56477
                      -4.71226                      -1.92274                     -17.32276
                      -4.70554                      -2.10005                     -17.08085
                      -4.69777                      -2.27747                     -16.83907
                      -4.68881                      -2.45502                     -16.59741
                      -4.67853                      -2.63269                     -16.35590
                      -4.66699                      -2.81046                     -16.11452
                      -4.65413                      -2.98833                     -15.87328
                      -4.63968                      -3.16630                     -15.63220
                      -4.62356                      -3.34436                     -15.39130
                      -4.60571                      -3.52250                     -15.15058
                      -4.58608                      -3.70072                     -14.91005
                      -4.56488                      -3.87898                     -14.66969
                      -4.54211                      -4.05728                     -14.42950
                      -4.51759                      -4.23561                     -14.18951
                      -4.49139                      -4.41397                     -13.94971
                      -4.46361                      -4.59233                     -13.71009
                      -4.43441                      -4.77069                     -13.47064
                      -4.40412                      -4.94904                     -13.23132
                      -4.37284                      -5.12738                     -12.99212
                      -4.34071                      -5.30571                     -12.75302
                      -4.30803                      -5.48403                     -12.51398
                      -4.27518                      -5.66234                     -12.27497
                      -4.24263                      -5.84067                     -12.03592
                      -4.22645                      -5.92983                     -11.91639
        </DataArray>
      </Points>
      <PointData>
        <DataArray type="Float32" Name="Force" NumberOfComponents="3" format="ascii">
                   -6173.89538                   -5358.30781                  -11159.46073
                    9727.20902                   18314.95524                   27886.05059
                    3785.44755                   -6909.40874                   38589.99320
                   14803.99186                   52581.83285                   61754.57253
                  -16593.09057                  -42842.25228                  -25644.82417
                  -15672.51000                  -11326.06186                  -47736.02830
                  -22892.02869                    1224.95553                  -50517.87908
                    5708.30879                   35577.59537                  -15588.31102
                   -2321.32204                   13563.00915                  -22692.54120
                    2184.01923                   22982.45512                   -2621.74625
                     214.55755                    4181.91934                   -8835.63644
                    1612.31294                    8374.76920                   -6823.35765
                    2332.55593                    6889.88752                   -7233.65679
                    3596.63392                    6936.23645                   -6801.54793
                    4604.35819                    6268.59449                   -6797.11816
                    5932.93620                    6063.91176                   -6717.21424
                    7259.02662                    5869.12634                   -6622.27288
                    8445.64650                    5517.98966                   -6499.44036
                    9716.36615                    5108.95515                   -6396.74211
                   11004.99926                    5042.85572                   -6461.80842
                   12371.24126                    4809.04285                   -6390.49516
                   13597.53131                    4535.44636                   -6411.34727
                   14741.93984                    4471.96744                   -6306.86200
                   15862.89690                    4123.30188                   -6223.73450
                   16767.90028                    4053.38909                   -6185.89074
                   17684.27388                    3948.63480                   -6222.82563
                   18264.70530                    3630.92244                   -5786.56132
                   18560.80526                    3920.50543                   -6241.86126
                   18535.92288                    2288.35142                   -3834.50633
                   16021.77361                    7734.59448                  -11219.73772
                   16890.58676                  -13460.18434                   19272.28250
                  -13591.23210                   89514.08942                 -119787.67084
        </DataArray>
        <DataArray type="Float32" Name="Moment" NumberOfComponents="3" format="ascii">
                      71.82013                     183.36589                      96.16395
                    1351.36586                    -676.92912                    -415.08418
                    2151.78026                    -274.13237                    -403.55315
                    -784.22415                    -263.45500                     647.76345
                   -3218.21928                     768.77057                       7.17276
                   -3608.97094                    1851.51815                     853.54605
                   -5596.51815                    1072.76520                    2313.51512
                   -4083.21215                    1096.56003                     530.05673
                   -3848.27986                    1436.18347                     992.49698
                   -1472.80819                     200.00767                     639.83507
                   -1834.37854                     505.23601                     250.33062
                    -861.01395                     283.54155                     241.94793
                   -1226.38155                     309.60433                     247.78255
                    -990.10609                     259.80930                     210.95842
                    -980.25584                     240.72496                     201.79185
                    -888.52026                     213.52837                     175.26198
                    -841.47829                     201.89785                     169.17126
                    -777.61680                     174.02393                     168.91982
                    -705.90287                     148.56533                     154.64637
                    -662.26446                     130.07183                     147.95491
                    -614.59381                     117.93562                     132.68297
                    -556.54870                     106.63117                     127.57860
                    -509.67619                      87.44030                     120.89927
                    -456.86583                      79.03118                     111.39174
                    -413.60476                      60.64277                     108.52457
                    -380.25205                      55.11871                      93.68765
                    -320.83768                      43.40685                      86.88362
                    -315.47679                      40.40187                      80.52372
                    -174.62191                      21.34370                      53.33784
                    -558.83591                      66.67813                     139.24960
                    1193.06538                    -165.36128                    -278.92254
                   -7494.91961                     953.66815                    1735.97825
        </DataArray>
        <DataArray type="Float32" Name="TranslationalVelocity" NumberOfComponents="3" format="ascii">
                       0.67558                      -1.06195                      -0.57843
                       0.67882                      -1.21822                      -0.69237
                       0.68510                      -1.53087                      -0.92037
                       0.69093                      -1.84374                      -1.14860
                       0.69638                      -2.15677                      -1.37706
                       0.70152                      -2.46990                      -1.60577
                       0.70642                      -2.78310                      -1.83473
                       0.71114                      -3.09633                      -2.06393
                       0.71574                      -3.40957                      -2.29337
                       0.72024                      -3.72282                      -2.52309
                       0.72471                      -4.03605                      -2.75309
                       0.72920                      -4.34925                      -2.98337
                       0.73375                      -4.66242                      -3.21395
                       0.73839                      -4.97555                      -3.44478
                       0.74314                      -5.28864                      -3.67587
                       0.74806                      -5.60166                      -3.90725
                       0.75317                      -5.91461                      -4.13891
                       0.75850                      -6.22747                      -4.37084
                       0.76406                      -6.54025                      -4.60303
                       0.76985                      -6.85293                      -4.83544
                       0.77587                      -7.16552                      -5.06806
                       0.78214                      -7.47799                      -5.30090
                       0.78868                      -7.79035                      -5.53393
                       0.79546                      -8.10258                      -5.76712
                       0.80246                      -8.41469                      -6.00046
                       0.80965                      -8.72669                      -6.23389
                       0.81700                      -9.03860                      -6.46739
                       0.82449                      -9.35041                      -6.70096
                       0.83209                      -9.66214                      -6.93455
                       0.83972                      -9.97382                      -7.16812
                       0.84732                     -10.28548                      -7.40165
                       0.85111                     -10.44130                      -7.51840
        </DataArray>
        <DataArray type="Float32" Name="RotationalVelocity" NumberOfComponents="3" format="ascii">
                       1.28854                       0.03780                      -0.01385
                       1.28911                       0.03716                      -0.01432
                       1.29016                       0.03596                      -0.01520
                       1.29106                       0.03492                      -0.01597
                       1.29183                       0.03403                      -0.01663
                       1.29250                       0.03330                      -0.01717
                       1.29310                       0.03272                      -0.01760
                       1.29365                       0.03230                      -0.01791
                       1.29417                       0.03204                      -0.01810
                       1.29467                       0.03192                      -0.01820
                       1.29516                       0.03191                      -0.01821
                       1.29565                       0.03202                      -0.01814
                       1.29614                       0.03223                      -0.01799
                       1.29664                       0.03255                      -0.01776
                       1.29715                       0.03297                      -0.01746
                       1.29767                       0.03346                      -0.01710
                       1.29819                       0.03402                      -0.01670
                       1.29872                       0.03463                      -0.01627
                       1.29925                       0.03528                      -0.01580
                       1.29977                       0.03596                      -0.01530
                       1.30027                       0.03666                      -0.01480
                       1.30074                       0.03735                      -0.01430
                       1.30118                       0.03803                      -0.01382
                       1.30158                       0.03867                      -0.01336
                       1.30191                       0.03926                      -0.01293
                       1.30218                       0.03977                      -0.01255
                       1.30234                       0.04019                      -0.01225
                       1.30241                       0.04050                      -0.01203
                       1.30237                       0.04068                      -0.01189
                       1.30222                       0.04072                      -0.01187
                       1.30193                       0.04060                      -0.01195
                       1.30176                       0.04049                      -0.01203
        </DataArray>
        <DataArray type="Float32" Name="TranslationalAcceleration" NumberOfComponents="3" format="ascii">
                       1.08993                       0.75716                      -1.11169
                       1.08757                       0.89572                      -1.31938
                       1.08384                       1.17816                      -1.73129
                       1.08211                       1.47317                      -2.13499
                       1.08095                       1.77878                      -2.53174
                       1.07897                       2.09353                      -2.92245
                       1.07477                       2.41634                      -3.30780
                       1.06744                       2.74563                      -3.68882
                       1.05619                       3.08099                      -4.06573
                       1.03920                       3.42266                      -4.43830
                       1.01515                       3.77020                      -4.80674
                       0.98280                       4.12331                      -5.17112
                       0.94101                       4.48179                      -5.53142
                       0.89006                       4.84492                      -5.88804
                       0.82941                       5.21261                      -6.24090
                       0.75701                       5.58536                      -6.58937
                       0.67215                       5.96306                      -6.93328
                       0.57428                       6.34558                      -7.27247
                       0.46305                       6.73274                      -7.60679
                       0.33990                       7.12382                      -7.93675
                       0.20483                       7.51867                      -8.26230
                       0.05649                       7.91746                      -8.58292
                      -0.10469                       8.31978                      -8.89875
                      -0.27790                       8.72514                      -9.21009
                      -0.46203                       9.13294                      -9.51743
                      -0.65465                       9.54239                      -9.82173
                      -0.85477                       9.95305                     -10.12345
                      -1.06159                      10.36438                     -10.42307
                      -1.27268                      10.77552                     -10.72174
                      -1.48515                      11.18552                     -11.02080
                      -1.69547                      11.59331                     -11.32186
                      -1.79998                      11.79669                     -11.47289
        </DataArray>
        <DataArray type="Float32" Name="RotationalAcceleration" NumberOfComponents="3" format="ascii">
                       0.09468                       0.06432                      -0.04915
                       0.06810                       0.06859                      -0.04709
                       0.01897                       0.07529                      -0.04416
                      -0.02412                       0.07893                      -0.04322
                      -0.06176                       0.07933                      -0.04438
                      -0.09498                       0.07648                      -0.04766
                      -0.12466                       0.07034                      -0.05309
                      -0.15129                       0.06037                      -0.06102
                      -0.17567                       0.04663                      -0.07141
                      -0.19863                       0.02975                      -0.08386
                      -0.22057                       0.00990                      -0.09825
                      -0.24184                      -0.01275                      -0.11447
                      -0.26272                      -0.03801                      -0.13239
                      -0.28343                      -0.06594                      -0.15205
                      -0.30414                      -0.09619                      -0.17323
                      -0.32489                      -0.12820                      -0.19554
                      -0.34565                      -0.16164                      -0.21878
                      -0.36634                      -0.19619                      -0.24273
                      -0.38682                      -0.23148                      -0.26713
                      -0.40684                      -0.26707                      -0.29169
                      -0.42603                      -0.30227                      -0.31595
                      -0.44414                      -0.33652                      -0.33953
                      -0.46084                      -0.36929                      -0.36207
                      -0.47579                      -0.39997                      -0.38316
                      -0.48860                      -0.42794                      -0.40238
                      -0.49848                      -0.45198                      -0.41889
                      -0.50483                      -0.47099                      -0.43194
                      -0.50753                      -0.48459                      -0.44129
                      -0.50617                      -0.49196                      -0.44635
                      -0.50032                      -0.49221                      -0.44651
                      -0.48994                      -0.48502                      -0.44156
                      -0.48331                      -0.47903                      -0.43745
        </DataArray>
        <DataArray type="Float32" Name="OrientationX" NumberOfComponents="3" format="ascii">
                       0.97345                      -0.17986                      -0.14156
                       0.97345                      -0.17967                      -0.14183
                       0.97344                      -0.17920                      -0.14247
                       0.97343                      -0.17858                      -0.14332
                       0.97341                      -0.17778                      -0.14442
                       0.97339                      -0.17679                      -0.14578
                       0.97336                      -0.17559                      -0.14742
                       0.97833                      -0.15595                      -0.13619
                       0.98205                      -0.13902                      -0.12745
                       0.98492                      -0.12403                      -0.12059
                       0.98710                      -0.11088                      -0.11552
                       0.98880                      -0.09889                      -0.11175
                       0.99010                      -0.08807                      -0.10925
                       0.99111                      -0.07800                      -0.10776
                       0.99188                      -0.06857                      -0.10712
                       0.99245                      -0.05970                      -0.10719
                       0.99283                      -0.05140                      -0.10791
                       0.99309                      -0.04344                      -0.10905
                       0.99322                      -0.03584                      -0.11057
                       0.99327                      -0.02851                      -0.11230
                       0.99323                      -0.02151                      -0.11416
                       0.99314                      -0.01474                      -0.11599
                       0.99300                      -0.00842                      -0.11781
                       0.99285                      -0.00229                      -0.11935
                       0.99270                       0.00356                      -0.12052
                       0.99258                       0.00890                      -0.12129
                       0.99251                       0.01376                      -0.12140
                       0.99252                       0.01824                      -0.12072
                       0.99262                       0.02214                      -0.11924
                       0.99283                       0.02550                      -0.11676
                       0.99317                       0.02831                      -0.11323
                       0.99327                       0.02774                      -0.11245
        </DataArray>
        <DataArray type="Float32" Name="OrientationY" NumberOfComponents="3" format="ascii">
                       0.22873                       0.78787                       0.57179
                       0.22873                       0.78789                       0.57176
                       0.22873                       0.78792                       0.57172
                       0.22873                       0.78794                       0.57169
                       0.22873                       0.78797                       0.57166
                       0.22872                       0.78799                       0.57163
                       0.22872                       0.78801                       0.57160
                       0.20624                       0.79186                       0.57482
                       0.18742                       0.79473                       0.57731
                       0.17128                       0.79691                       0.57930
                       0.15769                       0.79856                       0.58090
                       0.14579                       0.79984                       0.58223
                       0.13560                       0.80083                       0.58334
                       0.12661                       0.80160                       0.58430
                       0.11866                       0.80221                       0.58513
                       0.11156                       0.80269                       0.58586
                       0.10533                       0.80306                       0.58651
                       0.09961                       0.80335                       0.58711
                       0.09442                       0.80358                       0.58766
                       0.08957                       0.80375                       0.58818
                       0.08507                       0.80388                       0.58867
                       0.08074                       0.80398                       0.58915
                       0.07676                       0.80404                       0.58960
                       0.07279                       0.80407                       0.59006
                       0.06881                       0.80408                       0.59053
                       0.06500                       0.80406                       0.59098
                       0.06120                       0.80402                       0.59144
                       0.05722                       0.80396                       0.59192
                       0.05324                       0.80388                       0.59240
                       0.04908                       0.80377                       0.59291
                       0.04475                       0.80365                       0.59342
                       0.04474                       0.80364                       0.59343
        </DataArray>
        <DataArray type="Float32" Name="OrientationZ" NumberOfComponents="3" format="ascii">
                       0.00869                      -0.58899                       0.80810
                       0.00902                      -0.58902                       0.80807
                       0.00980                      -0.58913                       0.80798
                       0.01084                      -0.58928                       0.80786
                       0.01217                      -0.58949                       0.80768
                       0.01381                      -0.58976                       0.80746
                       0.01580                      -0.59009                       0.80718
                       0.01820                      -0.59045                       0.80687
                       0.02103                      -0.59084                       0.80652
                       0.02425                      -0.59123                       0.80614
                       0.02784                      -0.59162                       0.80574
                       0.03180                      -0.59201                       0.80531
                       0.03612                      -0.59238                       0.80485
                       0.04080                      -0.59275                       0.80435
                       0.04581                      -0.59309                       0.80384
                       0.05106                      -0.59340                       0.80329
                       0.05651                      -0.59367                       0.80272
                       0.06210                      -0.59392                       0.80213
                       0.06779                      -0.59412                       0.80152
                       0.07349                      -0.59428                       0.80089
                       0.07911                      -0.59440                       0.80027
                       0.08456                      -0.59448                       0.79965
                       0.08976                      -0.59452                       0.79906
                       0.09461                      -0.59453                       0.79849
                       0.09901                      -0.59451                       0.79797
                       0.10278                      -0.59448                       0.79752
                       0.10575                      -0.59444                       0.79716
                       0.10785                      -0.59440                       0.79690
                       0.10897                      -0.59438                       0.79677
                       0.10897                      -0.59439                       0.79676
                       0.10779                      -0.59443                       0.79689
                       0.10683                      -0.59446                       0.79699
        </DataArray>
      </PointData>
      <Lines>
        <DataArray type="Int32" Name="connectivity" format="ascii">
      0      1
      1      2
      2      3
      3      4
      4      5
      5      6
      6      7
      7      8
      8      9
      9     10
     10     11
     11     12
     12     13
     13     14
     14     15
     15     16
     16     17
     17     18
     18     19
     19     20
     20     21
     21     22
     22     23
     23     24
     24     25
     25     26
     26     27
     27     28
     28     29
     29     30
     30     31
        </DataArray>
        <DataArray type="Int32" Name="offsets" format="ascii">
      2
      4
      6
      8
     10
     12
     14
     16
     18
     20
     22
     24
     26
     28
     30
     32
     34
     36
     38
     40
     42
     44
     46
     48
     50
     52
     54
     56
     58
     60
     62
        </DataArray>
      </Lines>
    </Piece>
  </PolyData>
</VTKFile>
