<?xml version="1.0"?>
<VTKFile type="PolyData" version="0.1" byte_order="LittleEndian">
  <PolyData>
    <Piece NumberOfPoints="     32" NumberOfVerts="  0" NumberOfLines="     31"
           NumberOfStrips="  0" NumberOfPolys="      0">
      <Points>
        <DataArray type="Float32" NumberOfComponents="3" format="ascii">
                      -3.72641                       0.87243                     -19.25922
                      -3.72189                       1.00940                     -19.19822
                      -3.71284                       1.28333                     -19.07625
                      -3.70373                       1.55729                     -18.95432
                      -3.69455                       1.83125                     -18.83243
                      -3.68525                       2.10523                     -18.71056
                      -3.67578                       2.37920                     -18.58870
                      -3.66613                       2.65317                     -18.46684
                      -3.65628                       2.92713                     -18.34499
                      -3.64615                       3.20108                     -18.22313
                      -3.63569                       3.47501                     -18.10127
                      -3.62487                       3.74893                     -17.97941
                      -3.61363                       4.02284                     -17.85755
                      -3.60199                       4.29673                     -17.73569
                      -3.58994                       4.57060                     -17.61384
                      -3.57738                       4.84445                     -17.49199
                      -3.56428                       5.11828                     -17.37015
                      -3.55064                       5.39210                     -17.24833
                      -3.53642                       5.66589                     -17.12652
                      -3.52169                       5.93966                     -17.00473
                      -3.50646                       6.21341                     -16.88296
                      -3.49067                       6.48714                     -16.76122
                      -3.47433                       6.76085                     -16.63950
                      -3.45749                       7.03454                     -16.51780
                      -3.44019                       7.30821                     -16.39613
                      -3.42253                       7.58187                     -16.27448
                      -3.40456                       7.85552                     -16.15285
                      -3.38631                       8.12916                     -16.03123
                      -3.36788                       8.40278                     -15.90962
                      -3.34940                       8.67640                     -15.78801
                      -3.33101                       8.95003                     -15.66639
                      -3.32184                       9.08684                     -15.60557
        </DataArray>
      </Points>
      <PointData>
        <DataArray type="Float32" Name="Force" NumberOfComponents="3" format="ascii">
                   -4403.48378                  -13199.10480                   15065.93333
                    8631.64533                   20835.87326                  -17629.16490
                    9618.00601                   36597.94645                    6819.05228
                   16358.01955                   48512.75378                  -58189.08955
                   -8566.64174                  -18971.39792                   58850.80615
                  -12712.98503                  -49700.23447                   31838.81552
                  -23312.17310                  -56617.39388                   19416.08269
                    1643.43202                  -27453.58703                  -27298.65895
                   -6320.13102                  -29677.49012                   -3091.49563
                   -3996.60476                  -10300.09865                  -18460.63559
                   -5321.62027                  -12358.38176                    2516.83157
                   -4965.23893                  -11102.52028                   -2763.98134
                   -4782.63102                  -11072.73868                   -1464.85357
                   -4265.23938                  -10467.52742                   -2008.61976
                   -3994.28382                  -10156.09107                   -1648.91679
                   -3283.30876                   -9852.52060                   -1813.96790
                   -2575.35659                   -9520.68112                   -1982.15871
                   -1981.74650                   -9107.99285                   -1958.00904
                   -1099.98916                   -8703.73607                   -1842.13083
                    -224.63640                   -8556.97889                   -2061.59437
                     781.56800                   -8196.71851                   -2115.33563
                    1826.60125                   -7944.99101                   -2071.12857
                    2883.40234                   -7605.28437                   -2285.75497
                    4028.67001                   -7221.28508                   -2140.16891
                    5060.53211                   -6992.76458                   -2281.33197
                    6223.32492                   -6859.51725                   -2358.30062
                    7086.94587                   -6134.16835                   -2257.62345
                    7865.12921                   -6769.48534                   -2652.35201
                    8353.92383                   -3268.00318                   -1347.15130
                    7221.62766                  -14668.09683                   -6221.71465
                    9018.25785                   30296.10969                   12311.90967
                  -10773.37857                 -180673.96730                  -79541.07252
        </DataArray>
        <DataArray type="Float32" Name="Moment" NumberOfComponents="3" format="ascii">
                    -232.78134                      62.46621                    -182.30414
                     867.34410                    -250.82190                     635.90137
                    2629.07204                    -381.01403                     160.00023
                    -717.08986                     521.64108                     105.91668
                   -3083.08399                    -494.53856                    -580.99997
                   -4066.11340                      79.65000                   -1906.27388
                   -6318.90630                    1754.62724                   -1302.48186
                   -4715.50461                     -23.44363                   -1083.11479
                   -4397.83214                     457.13888                   -1510.94171
                   -1728.64698                     447.22109                    -314.37122
                   -2064.95996                     -17.52546                    -506.65040
                   -1025.47484                      67.71497                    -337.68918
                   -1420.19686                      58.48353                    -335.23434
                   -1164.99811                      51.83336                    -298.09428
                   -1154.60905                      66.58532                    -267.11971
                   -1055.44200                      49.13784                    -233.49503
                   -1005.58769                      53.51299                    -225.75026
                    -935.74238                      66.04390                    -194.71295
                    -855.84039                      53.23743                    -170.79182
                    -808.37402                      59.08262                    -158.01125
                    -754.84572                      54.46606                    -139.34212
                    -689.64257                      52.49645                    -128.02642
                    -636.29263                      54.38863                    -110.25469
                    -574.97638                      49.15666                    -100.30730
                    -525.28443                      52.08664                     -83.07198
                    -486.09060                      42.99496                     -77.26840
                    -413.23307                      44.87400                     -62.99213
                    -412.40983                      39.50186                     -58.27825
                    -219.71018                      25.61152                     -36.79451
                    -770.02549                      87.97650                     -91.23355
                    1696.70601                    -207.53484                     195.49279
                  -10122.55195                    1221.58611                   -1227.69609
        </DataArray>
        <DataArray type="Float32" Name="TranslationalVelocity" NumberOfComponents="3" format="ascii">
                       0.99200                      -0.50018                       1.27714
                       1.00709                      -0.57095                       1.43491
                       1.03725                      -0.71247                       1.75053
                       1.06733                      -0.85400                       2.06628
                       1.09729                      -0.99553                       2.38213
                       1.12707                      -1.13707                       2.69805
                       1.15661                      -1.27862                       3.01400
                       1.18589                      -1.42019                       3.32996
                       1.21487                      -1.56177                       3.64593
                       1.24345                      -1.70338                       3.96189
                       1.27157                      -1.84499                       4.27784
                       1.29915                      -1.98663                       4.59376
                       1.32614                      -2.12828                       4.90966
                       1.35256                      -2.26995                       5.22555
                       1.37838                      -2.41162                       5.54141
                       1.40347                      -2.55330                       5.85725
                       1.42779                      -2.69499                       6.17307
                       1.45131                      -2.83667                       6.48888
                       1.47402                      -2.97835                       6.80469
                       1.49600                      -3.12001                       7.12048
                       1.51725                      -3.26167                       7.43628
                       1.53769                      -3.40330                       7.75208
                       1.55735                      -3.54491                       8.06789
                       1.57628                      -3.68650                       8.38370
                       1.59456                      -3.82807                       8.69952
                       1.61232                      -3.96961                       9.01535
                       1.62963                      -4.11113                       9.33118
                       1.64653                      -4.25263                       9.64702
                       1.66319                      -4.39412                       9.96285
                       1.67976                      -4.53560                      10.27866
                       1.69647                      -4.67709                      10.59445
                       1.70486                      -4.74784                      10.75234
        </DataArray>
        <DataArray type="Float32" Name="RotationalVelocity" NumberOfComponents="3" format="ascii">
                       1.15354                       0.05543                      -0.08557
                       1.15378                       0.05540                      -0.08551
                       1.15422                       0.05530                      -0.08532
                       1.15456                       0.05515                      -0.08502
                       1.15483                       0.05495                      -0.08458
                       1.15503                       0.05468                      -0.08400
                       1.15516                       0.05435                      -0.08325
                       1.15524                       0.05393                      -0.08233
                       1.15530                       0.05343                      -0.08121
                       1.15534                       0.05286                      -0.07992
                       1.15537                       0.05221                      -0.07847
                       1.15540                       0.05148                      -0.07685
                       1.15543                       0.05069                      -0.07507
                       1.15547                       0.04982                      -0.07312
                       1.15552                       0.04889                      -0.07104
                       1.15558                       0.04791                      -0.06884
                       1.15566                       0.04689                      -0.06656
                       1.15574                       0.04584                      -0.06420
                       1.15584                       0.04477                      -0.06181
                       1.15595                       0.04369                      -0.05940
                       1.15606                       0.04263                      -0.05703
                       1.15618                       0.04160                      -0.05472
                       1.15630                       0.04062                      -0.05252
                       1.15642                       0.03970                      -0.05047
                       1.15653                       0.03886                      -0.04860
                       1.15662                       0.03815                      -0.04700
                       1.15668                       0.03759                      -0.04574
                       1.15671                       0.03719                      -0.04485
                       1.15671                       0.03697                      -0.04437
                       1.15665                       0.03697                      -0.04436
                       1.15654                       0.03719                      -0.04485
                       1.15647                       0.03737                      -0.04525
        </DataArray>
        <DataArray type="Float32" Name="TranslationalAcceleration" NumberOfComponents="3" format="ascii">
                      -0.25434                      -1.15071                      -0.74447
                      -0.24504                      -1.32543                      -0.84582
                      -0.22653                      -1.67486                      -1.04893
                      -0.20822                      -2.02432                      -1.25296
                      -0.18994                      -2.37375                      -1.45773
                      -0.17151                      -2.72316                      -1.66308
                      -0.15273                      -3.07250                      -1.86887
                      -0.13350                      -3.42177                      -2.07499
                      -0.11370                      -3.77098                      -2.28138
                      -0.09307                      -4.12011                      -2.48802
                      -0.07141                      -4.46915                      -2.69485
                      -0.04850                      -4.81812                      -2.90186
                      -0.02417                      -5.16701                      -3.10903
                       0.00158                      -5.51585                      -3.31632
                       0.02883                      -5.86464                      -3.52374
                       0.05791                      -6.21339                      -3.73131
                       0.08896                      -6.56212                      -3.93903
                       0.12207                      -6.91085                      -4.14691
                       0.15732                      -7.25960                      -4.35494
                       0.19447                      -7.60839                      -4.56312
                       0.23353                      -7.95722                      -4.77145
                       0.27473                      -8.30612                      -4.97994
                       0.31798                      -8.65511                      -5.18859
                       0.36318                      -9.00420                      -5.39738
                       0.41014                      -9.35339                      -5.60629
                       0.45845                      -9.70266                      -5.81529
                       0.50798                     -10.05201                      -6.02436
                       0.55857                     -10.40143                      -6.23346
                       0.60986                     -10.75090                      -6.44254
                       0.66137                     -11.10039                      -6.65155
                       0.71254                     -11.44983                      -6.86039
                       0.73802                     -11.62454                      -6.96477
        </DataArray>
        <DataArray type="Float32" Name="RotationalAcceleration" NumberOfComponents="3" format="ascii">
                      -0.13675                      -0.01071                      -0.05338
                      -0.13851                      -0.01093                      -0.05297
                      -0.14172                      -0.01135                      -0.05241
                      -0.14443                      -0.01175                      -0.05229
                      -0.14669                      -0.01211                      -0.05268
                      -0.14853                      -0.01244                      -0.05361
                      -0.15003                      -0.01273                      -0.05511
                      -0.15123                      -0.01299                      -0.05728
                      -0.15222                      -0.01322                      -0.06013
                      -0.15309                      -0.01342                      -0.06360
                      -0.15386                      -0.01359                      -0.06767
                      -0.15458                      -0.01374                      -0.07233
                      -0.15527                      -0.01386                      -0.07755
                      -0.15596                      -0.01395                      -0.08336
                      -0.15666                      -0.01402                      -0.08969
                      -0.15740                      -0.01407                      -0.09642
                      -0.15817                      -0.01410                      -0.10347
                      -0.15896                      -0.01412                      -0.11077
                      -0.15979                      -0.01412                      -0.11825
                      -0.16063                      -0.01412                      -0.12579
                      -0.16147                      -0.01410                      -0.13326
                      -0.16229                      -0.01408                      -0.14054
                      -0.16307                      -0.01405                      -0.14749
                      -0.16379                      -0.01402                      -0.15399
                      -0.16443                      -0.01399                      -0.15992
                      -0.16493                      -0.01396                      -0.16500
                      -0.16526                      -0.01393                      -0.16902
                      -0.16540                      -0.01391                      -0.17189
                      -0.16530                      -0.01389                      -0.17344
                      -0.16493                      -0.01388                      -0.17350
                      -0.16428                      -0.01387                      -0.17201
                      -0.16387                      -0.01387                      -0.17077
        </DataArray>
        <DataArray type="Float32" Name="OrientationX" NumberOfComponents="3" format="ascii">
                       0.98730                      -0.09066                       0.13048
                       0.98730                      -0.09069                       0.13047
                       0.98729                      -0.09078                       0.13042
                       0.98729                      -0.09096                       0.13034
                       0.98728                      -0.09124                       0.13022
                       0.98726                      -0.09163                       0.13005
                       0.98725                      -0.09213                       0.12982
                       0.99056                      -0.08360                       0.10867
                       0.99290                      -0.07670                       0.09089
                       0.99461                      -0.07102                       0.07556
                       0.99582                      -0.06649                       0.06255
                       0.99672                      -0.06277                       0.05106
                       0.99736                      -0.05985                       0.04111
                       0.99782                      -0.05754                       0.03222
                       0.99815                      -0.05575                       0.02424
                       0.99838                      -0.05438                       0.01702
                       0.99852                      -0.05343                       0.01057
                       0.99860                      -0.05274                       0.00458
                       0.99863                      -0.05228                      -0.00095
                       0.99863                      -0.05198                      -0.00616
                       0.99860                      -0.05179                      -0.01104
                       0.99854                      -0.05163                      -0.01574
                       0.99847                      -0.05153                      -0.02009
                       0.99838                      -0.05133                      -0.02440
                       0.99829                      -0.05101                      -0.02865
                       0.99819                      -0.05056                      -0.03265
                       0.99809                      -0.04988                      -0.03655
                       0.99798                      -0.04887                      -0.04049
                       0.99788                      -0.04757                      -0.04431
                       0.99779                      -0.04586                      -0.04813
                       0.99769                      -0.04374                      -0.05196
                       0.99771                      -0.04346                      -0.05184
        </DataArray>
        <DataArray type="Float32" Name="OrientationY" NumberOfComponents="3" format="ascii">
                       0.15601                       0.39765                      -0.90418
                       0.15600                       0.39755                      -0.90422
                       0.15600                       0.39738                      -0.90430
                       0.15599                       0.39722                      -0.90437
                       0.15599                       0.39709                      -0.90442
                       0.15598                       0.39698                      -0.90447
                       0.15598                       0.39688                      -0.90452
                       0.13319                       0.39882                      -0.90731
                       0.11415                       0.40027                      -0.90926
                       0.09784                       0.40141                      -0.91066
                       0.08412                       0.40228                      -0.91164
                       0.07212                       0.40300                      -0.91236
                       0.06185                       0.40356                      -0.91286
                       0.05279                       0.40403                      -0.91322
                       0.04477                       0.40442                      -0.91348
                       0.03763                       0.40475                      -0.91365
                       0.03135                       0.40503                      -0.91377
                       0.02560                       0.40527                      -0.91384
                       0.02036                       0.40549                      -0.91387
                       0.01548                       0.40568                      -0.91388
                       0.01095                       0.40586                      -0.91387
                       0.00658                       0.40603                      -0.91384
                       0.00257                       0.40618                      -0.91379
                      -0.00144                       0.40634                      -0.91372
                      -0.00545                       0.40651                      -0.91363
                      -0.00928                       0.40667                      -0.91353
                      -0.01312                       0.40685                      -0.91340
                      -0.01712                       0.40704                      -0.91325
                      -0.02113                       0.40724                      -0.91308
                      -0.02531                       0.40746                      -0.91287
                      -0.02966                       0.40769                      -0.91264
                      -0.02966                       0.40771                      -0.91263
        </DataArray>
        <DataArray type="Float32" Name="OrientationZ" NumberOfComponents="3" format="ascii">
                       0.03009                       0.91305                       0.40674
                       0.03013                       0.91309                       0.40665
                       0.03026                       0.91315                       0.40649
                       0.03049                       0.91320                       0.40636
                       0.03081                       0.91323                       0.40628
                       0.03125                       0.91324                       0.40622
                       0.03181                       0.91323                       0.40619
                       0.03251                       0.91321                       0.40618
                       0.03336                       0.91318                       0.40619
                       0.03434                       0.91314                       0.40619
                       0.03545                       0.91310                       0.40620
                       0.03669                       0.91305                       0.40620
                       0.03805                       0.91299                       0.40620
                       0.03953                       0.91293                       0.40619
                       0.04112                       0.91287                       0.40617
                       0.04280                       0.91281                       0.40614
                       0.04454                       0.91274                       0.40610
                       0.04634                       0.91267                       0.40605
                       0.04816                       0.91261                       0.40600
                       0.05000                       0.91254                       0.40593
                       0.05181                       0.91247                       0.40585
                       0.05357                       0.91240                       0.40577
                       0.05525                       0.91234                       0.40569
                       0.05682                       0.91228                       0.40561
                       0.05825                       0.91222                       0.40553
                       0.05947                       0.91217                       0.40547
                       0.06043                       0.91213                       0.40541
                       0.06111                       0.91210                       0.40538
                       0.06148                       0.91208                       0.40537
                       0.06148                       0.91207                       0.40539
                       0.06111                       0.91207                       0.40545
                       0.06080                       0.91208                       0.40549
        </DataArray>
      </PointData>
      <Lines>
        <DataArray type="Int32" Name="connectivity" format="ascii">
      0      1
      1      2
      2      3
      3      4
      4      5
      5      6
      6      7
      7      8
      8      9
      9     10
     10     11
     11     12
     12     13
     13     14
     14     15
     15     16
     16     17
     17     18
     18     19
     19     20
     20     21
     21     22
     22     23
     23     24
     24     25
     25     26
     26     27
     27     28
     28     29
     29     30
     30     31
        </DataArray>
        <DataArray type="Int32" Name="offsets" format="ascii">
      2
      4
      6
      8
     10
     12
     14
     16
     18
     20
     22
     24
     26
     28
     30
     32
     34
     36
     38
     40
     42
     44
     46
     48
     50
     52
     54
     56
     58
     60
     62
        </DataArray>
      </Lines>
    </Piece>
  </PolyData>
</VTKFile>
