<?xml version="1.0"?>
<VTKFile type="PolyData" version="0.1" byte_order="LittleEndian">
  <PolyData>
    <Piece NumberOfPoints="     32" NumberOfVerts="  0" NumberOfLines="     31"
           NumberOfStrips="  0" NumberOfPolys="      0">
      <Points>
        <DataArray type="Float32" NumberOfComponents="3" format="ascii">
                      -3.82668                       0.91660                     -19.39062
                      -3.82362                       1.05974                     -19.34586
                      -3.81748                       1.34602                     -19.25638
                      -3.81128                       1.63231                     -19.16696
                      -3.80499                       1.91861                     -19.07757
                      -3.79856                       2.20492                     -18.98820
                      -3.79193                       2.49123                     -18.89884
                      -3.78510                       2.77753                     -18.80949
                      -3.77803                       3.06383                     -18.72013
                      -3.77064                       3.35011                     -18.63076
                      -3.76287                       3.63638                     -18.54139
                      -3.75467                       3.92264                     -18.45201
                      -3.74599                       4.20888                     -18.36262
                      -3.73685                       4.49511                     -18.27323
                      -3.72723                       4.78132                     -18.18384
                      -3.71701                       5.06751                     -18.09445
                      -3.70618                       5.35368                     -18.00507
                      -3.69470                       5.63983                     -17.91569
                      -3.68256                       5.92595                     -17.82633
                      -3.66983                       6.21206                     -17.73698
                      -3.65652                       6.49814                     -17.64765
                      -3.64255                       6.78419                     -17.55834
                      -3.62795                       7.07023                     -17.46905
                      -3.61276                       7.35624                     -17.37979
                      -3.59704                       7.64222                     -17.29054
                      -3.58091                       7.92819                     -17.20132
                      -3.56441                       8.21415                     -17.11212
                      -3.54758                       8.50009                     -17.02292
                      -3.53055                       8.78602                     -16.93374
                      -3.51346                       9.07194                     -16.84455
                      -3.49647                       9.35787                     -16.75535
                      -3.48801                       9.50084                     -16.71074
        </DataArray>
      </Points>
      <PointData>
        <DataArray type="Float32" Name="Force" NumberOfComponents="3" format="ascii">
                   -4420.45583                  -11552.27802                   16790.38900
                    8646.56484                   18820.44357                  -19865.01090
                    9223.66825                   37558.03167                    2730.88163
                   16287.28150                   42081.26673                  -64107.38446
                   -9282.10072                  -12224.54616                   61287.64047
                  -13291.69978                  -46455.78146                   37934.96466
                  -24081.87553                  -55125.38016                   26276.73314
                    1328.41298                  -31007.63235                  -24263.55223
                   -6873.56727                  -30518.49195                     416.41753
                   -4535.12972                  -12681.24122                  -17483.71174
                   -5978.68252                  -12314.41336                    4030.82663
                   -5548.25692                  -11679.92520                   -1485.11207
                   -5328.50856                  -11512.52987                    -181.17136
                   -4738.07487                  -10973.55202                    -814.57544
                   -4385.79717                  -10629.58708                    -493.65776
                   -3577.69904                  -10352.04452                    -705.09136
                   -2760.48447                  -10047.06555                    -924.41546
                   -2053.62769                   -9635.59108                    -955.32744
                   -1050.25887                   -9220.23226                    -888.16252
                     -36.12506                   -9111.99731                   -1135.78335
                    1124.05475                   -8762.63791                   -1237.25917
                    2324.88307                   -8514.30028                   -1222.74765
                    3536.07770                   -8205.60083                   -1486.93943
                    4836.39965                   -7806.13686                   -1379.75034
                    6010.67453                   -7603.67015                   -1552.32914
                    7321.88126                   -7493.18737                   -1645.79973
                    8310.33031                   -6734.26374                   -1627.20838
                    9191.08933                   -7478.21676                   -1965.90213
                    9723.13744                   -3610.19831                   -1011.48921
                    8571.16771                  -16358.77256                   -4793.75286
                   10207.87157                   33758.19212                    9343.06225
                  -10673.42704                 -202043.93197                  -62260.77047
        </DataArray>
        <DataArray type="Float32" Name="Moment" NumberOfComponents="3" format="ascii">
                    -235.48625                      38.97328                    -188.37222
                     850.30730                    -169.47171                     671.62016
                    2673.84519                    -343.25279                     217.44446
                    -749.44335                     524.45406                      35.18237
                   -3100.15170                    -606.30541                    -543.26164
                   -4121.26978                    -199.74174                   -1957.35714
                   -6428.17265                    1545.32004                   -1556.77195
                   -4808.61363                    -204.56434                   -1123.67097
                   -4480.64559                     233.59042                   -1610.23415
                   -1774.52554                     392.14418                    -385.23095
                   -2110.08550                    -105.00816                    -526.08297
                   -1053.64038                      10.63132                    -360.72205
                   -1458.55462                       0.35349                    -359.16392
                   -1199.99847                       0.72960                    -318.97439
                   -1191.29343                      19.58671                    -289.65315
                   -1091.33863                       7.73908                    -253.18358
                   -1041.84049                      14.35219                    -245.46857
                    -971.63446                      32.42898                    -215.23289
                    -890.50202                      24.33955                    -188.69881
                    -842.91128                      32.87201                    -175.53730
                    -788.81566                      31.10352                    -155.83786
                    -722.22118                      31.92604                    -143.83867
                    -667.87016                      37.14353                    -125.20872
                    -604.80208                      34.02920                    -114.19665
                    -553.85205                      40.38396                     -96.22964
                    -513.64850                      32.16072                     -88.76055
                    -437.63050                      36.65952                     -73.89200
                    -438.08716                      32.17748                     -68.37394
                    -233.11652                      21.19725                     -43.12653
                    -823.07728                      78.91002                    -110.90096
                    1815.76702                    -189.63576                     239.98213
                  -10836.81237                    1105.43232                   -1496.43055
        </DataArray>
        <DataArray type="Float32" Name="TranslationalVelocity" NumberOfComponents="3" format="ascii">
                       1.01488                      -0.38199                       1.35129
                       1.02889                      -0.43450                       1.51827
                       1.05689                      -0.53947                       1.85219
                       1.08479                      -0.64436                       2.18604
                       1.11254                      -0.74917                       2.51980
                       1.14006                      -0.85394                       2.85347
                       1.16728                      -0.95868                       3.18703
                       1.19417                      -1.06340                       3.52050
                       1.22069                      -1.16810                       3.85386
                       1.24671                      -1.27280                       4.18712
                       1.27214                      -1.37750                       4.52026
                       1.29691                      -1.48219                       4.85328
                       1.32094                      -1.58688                       5.18620
                       1.34426                      -1.69156                       5.51901
                       1.36683                      -1.79623                       5.85172
                       1.38850                      -1.90089                       6.18432
                       1.40922                      -2.00553                       6.51681
                       1.42895                      -2.11014                       6.84920
                       1.44767                      -2.21471                       7.18149
                       1.46549                      -2.31925                       7.51369
                       1.48241                      -2.42375                       7.84582
                       1.49833                      -2.52820                       8.17787
                       1.51329                      -2.63259                       8.50984
                       1.52734                      -2.73692                       8.84175
                       1.54058                      -2.84120                       9.17360
                       1.55318                      -2.94544                       9.50542
                       1.56523                      -3.04964                       9.83720
                       1.57679                      -3.15381                      10.16896
                       1.58803                      -3.25795                      10.50071
                       1.59917                      -3.36210                      10.83247
                       1.61048                      -3.46628                      11.16423
                       1.61619                      -3.51838                      11.33012
        </DataArray>
        <DataArray type="Float32" Name="RotationalVelocity" NumberOfComponents="3" format="ascii">
                       1.16798                       0.05751                      -0.07999
                       1.16781                       0.05749                      -0.07991
                       1.16748                       0.05742                      -0.07967
                       1.16717                       0.05730                      -0.07927
                       1.16686                       0.05712                      -0.07869
                       1.16655                       0.05689                      -0.07791
                       1.16624                       0.05659                      -0.07694
                       1.16593                       0.05622                      -0.07572
                       1.16563                       0.05576                      -0.07425
                       1.16535                       0.05524                      -0.07256
                       1.16507                       0.05465                      -0.07065
                       1.16481                       0.05399                      -0.06854
                       1.16456                       0.05327                      -0.06622
                       1.16432                       0.05249                      -0.06369
                       1.16409                       0.05164                      -0.06098
                       1.16388                       0.05076                      -0.05813
                       1.16368                       0.04984                      -0.05517
                       1.16350                       0.04889                      -0.05213
                       1.16333                       0.04792                      -0.04903
                       1.16318                       0.04695                      -0.04592
                       1.16305                       0.04600                      -0.04285
                       1.16294                       0.04507                      -0.03987
                       1.16285                       0.04418                      -0.03702
                       1.16277                       0.04335                      -0.03437
                       1.16272                       0.04260                      -0.03196
                       1.16269                       0.04195                      -0.02989
                       1.16268                       0.04144                      -0.02827
                       1.16269                       0.04108                      -0.02711
                       1.16271                       0.04089                      -0.02649
                       1.16274                       0.04089                      -0.02649
                       1.16278                       0.04109                      -0.02713
                       1.16280                       0.04125                      -0.02766
        </DataArray>
        <DataArray type="Float32" Name="TranslationalAcceleration" NumberOfComponents="3" format="ascii">
                      -0.19509                      -1.23234                      -0.68717
                      -0.18228                      -1.42150                      -0.77078
                      -0.15639                      -1.80002                      -0.93722
                      -0.12984                      -2.17899                      -1.10180
                      -0.10260                      -2.55831                      -1.26481
                      -0.07464                      -2.93786                      -1.42648
                      -0.04592                      -3.31757                      -1.58699
                      -0.01649                      -3.69736                      -1.74657
                       0.01368                      -4.07722                      -1.90530
                       0.04473                      -4.45710                      -2.06315
                       0.07672                      -4.83700                      -2.22018
                       0.10969                      -5.21689                      -2.37644
                       0.14369                      -5.59677                      -2.53195
                       0.17863                      -5.97665                      -2.68679
                       0.21452                      -6.35654                      -2.84096
                       0.25154                      -6.73644                      -2.99437
                       0.28969                      -7.11637                      -3.14701
                       0.32901                      -7.49636                      -3.29888
                       0.36948                      -7.87643                      -3.44996
                       0.41098                      -8.25658                      -3.60035
                       0.45349                      -8.63683                      -3.75006
                       0.49712                      -9.01721                      -3.89902
                       0.54180                      -9.39773                      -4.04728
                       0.58748                      -9.77838                      -4.19489
                       0.63405                     -10.15918                      -4.34193
                       0.68130                     -10.54008                      -4.48857
                       0.72916                     -10.92109                      -4.63487
                       0.77754                     -11.30217                      -4.78092
                       0.82625                     -11.68328                      -4.92689
                       0.87504                     -12.06437                      -5.07299
                       0.92361                     -12.44535                      -5.21944
                       0.94783                     -12.63581                      -5.29276
        </DataArray>
        <DataArray type="Float32" Name="RotationalAcceleration" NumberOfComponents="3" format="ascii">
                      -0.15396                      -0.02068                      -0.05705
                      -0.15078                      -0.02059                      -0.05806
                      -0.14490                      -0.02048                      -0.06015
                      -0.13975                      -0.02048                      -0.06237
                      -0.13528                      -0.02063                      -0.06473
                      -0.13137                      -0.02093                      -0.06726
                      -0.12793                      -0.02141                      -0.06998
                      -0.12491                      -0.02207                      -0.07294
                      -0.12223                      -0.02294                      -0.07616
                      -0.11977                      -0.02400                      -0.07960
                      -0.11746                      -0.02525                      -0.08325
                      -0.11528                      -0.02669                      -0.08710
                      -0.11317                      -0.02830                      -0.09115
                      -0.11110                      -0.03010                      -0.09538
                      -0.10906                      -0.03207                      -0.09979
                      -0.10703                      -0.03416                      -0.10431
                      -0.10501                      -0.03637                      -0.10894
                      -0.10300                      -0.03865                      -0.11362
                      -0.10102                      -0.04099                      -0.11833
                      -0.09908                      -0.04336                      -0.12300
                      -0.09723                      -0.04570                      -0.12758
                      -0.09549                      -0.04798                      -0.13199
                      -0.09388                      -0.05016                      -0.13618
                      -0.09245                      -0.05220                      -0.14007
                      -0.09123                      -0.05406                      -0.14359
                      -0.09031                      -0.05566                      -0.14659
                      -0.08973                      -0.05692                      -0.14894
                      -0.08952                      -0.05781                      -0.15058
                      -0.08972                      -0.05830                      -0.15141
                      -0.09037                      -0.05831                      -0.15132
                      -0.09147                      -0.05784                      -0.15027
                      -0.09216                      -0.05744                      -0.14944
        </DataArray>
        <DataArray type="Float32" Name="OrientationX" NumberOfComponents="3" format="ascii">
                       0.98717                      -0.06648                       0.14516
                       0.98717                      -0.06651                       0.14515
                       0.98717                      -0.06662                       0.14512
                       0.98716                      -0.06684                       0.14505
                       0.98716                      -0.06718                       0.14494
                       0.98715                      -0.06766                       0.14480
                       0.98713                      -0.06827                       0.14461
                       0.99050                      -0.06232                       0.12259
                       0.99290                      -0.05764                       0.10410
                       0.99465                      -0.05390                       0.08818
                       0.99590                      -0.05107                       0.07468
                       0.99683                      -0.04889                       0.06279
                       0.99750                      -0.04735                       0.05251
                       0.99799                      -0.04631                       0.04334
                       0.99834                      -0.04569                       0.03513
                       0.99858                      -0.04543                       0.02772
                       0.99874                      -0.04550                       0.02112
                       0.99884                      -0.04578                       0.01501
                       0.99889                      -0.04625                       0.00937
                       0.99889                      -0.04683                       0.00407
                       0.99887                      -0.04749                      -0.00089
                       0.99882                      -0.04814                      -0.00566
                       0.99876                      -0.04881                      -0.01007
                       0.99868                      -0.04935                      -0.01445
                       0.99859                      -0.04974                      -0.01877
                       0.99849                      -0.04994                      -0.02286
                       0.99839                      -0.04987                      -0.02686
                       0.99830                      -0.04943                      -0.03093
                       0.99821                      -0.04863                      -0.03488
                       0.99812                      -0.04738                      -0.03888
                       0.99803                      -0.04566                      -0.04291
                       0.99805                      -0.04532                      -0.04281
        </DataArray>
        <DataArray type="Float32" Name="OrientationY" NumberOfComponents="3" format="ascii">
                       0.15836                       0.29167                      -0.94332
                       0.15835                       0.29156                      -0.94336
                       0.15835                       0.29135                      -0.94342
                       0.15835                       0.29118                      -0.94347
                       0.15834                       0.29103                      -0.94352
                       0.15834                       0.29090                      -0.94356
                       0.15834                       0.29079                      -0.94360
                       0.13555                       0.29219                      -0.94671
                       0.11651                       0.29324                      -0.94891
                       0.10020                       0.29407                      -0.95052
                       0.08648                       0.29471                      -0.95166
                       0.07448                       0.29524                      -0.95252
                       0.06420                       0.29566                      -0.95313
                       0.05515                       0.29601                      -0.95359
                       0.04713                       0.29631                      -0.95393
                       0.03998                       0.29656                      -0.95418
                       0.03370                       0.29677                      -0.95435
                       0.02795                       0.29696                      -0.95448
                       0.02271                       0.29713                      -0.95457
                       0.01783                       0.29729                      -0.95462
                       0.01329                       0.29744                      -0.95465
                       0.00893                       0.29758                      -0.95465
                       0.00492                       0.29772                      -0.95464
                       0.00091                       0.29786                      -0.95461
                      -0.00310                       0.29802                      -0.95456
                      -0.00694                       0.29817                      -0.95449
                      -0.01077                       0.29834                      -0.95440
                      -0.01478                       0.29853                      -0.95428
                      -0.01879                       0.29874                      -0.95415
                      -0.02297                       0.29897                      -0.95399
                      -0.02732                       0.29921                      -0.95380
                      -0.02732                       0.29924                      -0.95379
        </DataArray>
        <DataArray type="Float32" Name="OrientationZ" NumberOfComponents="3" format="ascii">
                       0.02037                       0.95421                       0.29845
                       0.02042                       0.95424                       0.29835
                       0.02057                       0.95429                       0.29817
                       0.02083                       0.95433                       0.29803
                       0.02121                       0.95435                       0.29793
                       0.02172                       0.95436                       0.29788
                       0.02237                       0.95435                       0.29786
                       0.02318                       0.95433                       0.29786
                       0.02417                       0.95430                       0.29788
                       0.02530                       0.95426                       0.29790
                       0.02659                       0.95422                       0.29792
                       0.02803                       0.95417                       0.29794
                       0.02961                       0.95412                       0.29796
                       0.03133                       0.95406                       0.29797
                       0.03318                       0.95400                       0.29797
                       0.03512                       0.95393                       0.29796
                       0.03715                       0.95386                       0.29793
                       0.03924                       0.95379                       0.29790
                       0.04136                       0.95371                       0.29785
                       0.04349                       0.95364                       0.29780
                       0.04560                       0.95356                       0.29773
                       0.04764                       0.95348                       0.29766
                       0.04959                       0.95341                       0.29759
                       0.05141                       0.95333                       0.29751
                       0.05307                       0.95326                       0.29744
                       0.05449                       0.95320                       0.29738
                       0.05560                       0.95316                       0.29733
                       0.05640                       0.95312                       0.29730
                       0.05682                       0.95309                       0.29729
                       0.05683                       0.95309                       0.29732
                       0.05639                       0.95309                       0.29738
                       0.05604                       0.95310                       0.29742
        </DataArray>
      </PointData>
      <Lines>
        <DataArray type="Int32" Name="connectivity" format="ascii">
      0      1
      1      2
      2      3
      3      4
      4      5
      5      6
      6      7
      7      8
      8      9
      9     10
     10     11
     11     12
     12     13
     13     14
     14     15
     15     16
     16     17
     17     18
     18     19
     19     20
     20     21
     21     22
     22     23
     23     24
     24     25
     25     26
     26     27
     27     28
     28     29
     29     30
     30     31
        </DataArray>
        <DataArray type="Int32" Name="offsets" format="ascii">
      2
      4
      6
      8
     10
     12
     14
     16
     18
     20
     22
     24
     26
     28
     30
     32
     34
     36
     38
     40
     42
     44
     46
     48
     50
     52
     54
     56
     58
     60
     62
        </DataArray>
      </Lines>
    </Piece>
  </PolyData>
</VTKFile>
