<?xml version="1.0"?>
<VTKFile type="PolyData" version="0.1" byte_order="LittleEndian">
  <PolyData>
    <Piece NumberOfPoints="     32" NumberOfVerts="  0" NumberOfLines="     31"
           NumberOfStrips="  0" NumberOfPolys="      0">
      <Points>
        <DataArray type="Float32" NumberOfComponents="3" format="ascii">
                      -3.44330                       0.67535                     -18.91625
                      -3.43404                       0.78386                     -18.81310
                      -3.41550                       1.00090                     -18.60683
                      -3.39691                       1.21797                     -18.40059
                      -3.37827                       1.43506                     -18.19437
                      -3.35953                       1.65216                     -17.98818
                      -3.34068                       1.86926                     -17.78199
                      -3.32169                       2.08636                     -17.57582
                      -3.30256                       2.30346                     -17.36965
                      -3.28323                       2.52054                     -17.16350
                      -3.26368                       2.73761                     -16.95735
                      -3.24386                       2.95467                     -16.75121
                      -3.22376                       3.17172                     -16.54509
                      -3.20338                       3.38874                     -16.33897
                      -3.18271                       3.60576                     -16.13287
                      -3.16168                       3.82276                     -15.92679
                      -3.14029                       4.03974                     -15.72073
                      -3.11851                       4.25670                     -15.51469
                      -3.09634                       4.47365                     -15.30867
                      -3.07381                       4.69058                     -15.10268
                      -3.05093                       4.90751                     -14.89672
                      -3.02767                       5.12441                     -14.69078
                      -3.00403                       5.34131                     -14.48487
                      -2.98003                       5.55819                     -14.27900
                      -2.95572                       5.77506                     -14.07314
                      -2.93117                       5.99193                     -13.86731
                      -2.90639                       6.20879                     -13.66150
                      -2.88142                       6.42564                     -13.45570
                      -2.85633                       6.64248                     -13.24991
                      -2.83121                       6.85932                     -13.04413
                      -2.80614                       7.07616                     -12.83832
                      -2.79363                       7.18458                     -12.73542
        </DataArray>
      </Points>
      <PointData>
        <DataArray type="Float32" Name="Force" NumberOfComponents="3" format="ascii">
                   -4586.85003                  -16437.05499                    9078.18277
                    8851.55049                   25327.89643                  -10188.38474
                   11005.29817                   31574.97170                   17422.47736
                   17419.61135                   62895.52275                  -38047.69399
                   -6886.37236                  -36133.20323                   47414.43012
                  -11373.51372                  -54677.46999                   12567.48568
                  -21367.14152                  -56204.20103                    -750.09307
                    2835.86795                  -15557.00205                  -33768.35601
                   -4652.95570                  -25001.83541                  -12497.72448
                   -2111.15869                   -2961.75629                  -20004.91870
                   -3327.58653                  -11355.00327                   -1948.67576
                   -3115.85973                   -8544.32453                   -6203.39837
                   -3041.18831                   -8900.42848                   -4990.71271
                   -2702.91343                   -8179.62109                   -5238.63056
                   -2623.56035                   -7991.32241                   -4778.03111
                   -2144.65873                   -7659.83759                   -4785.89082
                   -1689.80288                   -7303.75840                   -4782.05603
                   -1356.88400                   -6937.04821                   -4589.93738
                    -763.60993                   -6609.80434                   -4328.96341
                    -213.10965                   -6398.50764                   -4427.46684
                     439.37290                   -6060.27754                   -4323.83616
                    1120.31722                   -5841.10934                   -4172.91362
                    1797.17907                   -5474.80500                   -4210.15744
                    2559.87466                   -5179.33909                   -3943.19300
                    3228.00501                   -4927.03506                   -3957.00993
                    4005.07956                   -4771.74487                   -3945.88302
                    4549.66757                   -4199.28178                   -3629.87906
                    5015.29637                   -4550.58518                   -4069.84621
                    5333.64056                   -2186.53433                   -2070.36872
                    4060.88761                   -9580.85423                   -8863.10341
                    6316.26278                   19916.66836                   17685.09758
                  -11789.48133                 -117035.04020                 -110409.55840
        </DataArray>
        <DataArray type="Float32" Name="Moment" NumberOfComponents="3" format="ascii">
                    -207.44189                     128.32555                    -149.98154
                     934.20798                    -459.05091                     483.91484
                    2486.52672                    -456.98264                     -16.68256
                    -636.78737                     474.03924                     308.48591
                   -3047.84401                    -139.35381                    -599.72522
                   -3896.18040                     841.43991                   -1573.50055
                   -5986.31003                    2203.02509                    -452.68638
                   -4445.66440                     468.80764                    -848.19137
                   -4153.88429                    1026.69636                   -1091.25484
                   -1595.86613                     561.26497                     -78.48429
                   -1938.83530                     216.77787                    -392.81694
                    -944.83995                     211.29558                    -234.01766
                   -1313.27266                     206.60960                    -230.17368
                   -1067.74228                     180.97876                    -205.81331
                   -1053.39214                     182.12724                    -174.25224
                    -957.03775                     150.95487                    -152.95446
                    -906.64353                     148.88869                    -146.98918
                    -838.20324                     145.77950                    -118.26983
                    -762.12303                     122.54595                    -104.68188
                    -715.26730                     121.15056                     -94.40809
                    -663.63970                     108.89157                     -80.98980
                    -602.40577                     100.11184                     -73.80335
                    -551.97304                      93.72665                     -60.38213
                    -495.53843                      83.47104                     -55.00298
                    -449.36535                      78.17647                     -41.82976
                    -413.05240                      67.45107                     -40.87052
                    -348.66532                      62.52055                     -30.02383
                    -344.59619                      55.47519                     -28.21262
                    -184.58798                      35.14978                     -17.77064
                    -629.42237                     105.23377                     -37.17354
                    1379.35877                    -237.86904                      76.85105
                   -8242.11008                    1424.81736                    -499.86590
        </DataArray>
        <DataArray type="Float32" Name="TranslationalVelocity" NumberOfComponents="3" format="ascii">
                       0.89056                      -0.79888                       0.99463
                       0.90646                      -0.91567                       1.11608
                       0.93827                      -1.14923                       1.35897
                       0.97012                      -1.38273                       1.60185
                       1.00196                      -1.61617                       1.84472
                       1.03377                      -1.84956                       2.08757
                       1.06552                      -2.08293                       2.33039
                       1.09718                      -2.31626                       2.57318
                       1.12874                      -2.54957                       2.81593
                       1.16014                      -2.78286                       3.05864
                       1.19136                      -3.01613                       3.30131
                       1.22235                      -3.24937                       3.54393
                       1.25310                      -3.48260                       3.78650
                       1.28359                      -3.71580                       4.02904
                       1.31383                      -3.94898                       4.27154
                       1.34375                      -4.18214                       4.51400
                       1.37333                      -4.41528                       4.75641
                       1.40256                      -4.64838                       4.99879
                       1.43142                      -4.88146                       5.24113
                       1.45996                      -5.11451                       5.48344
                       1.48818                      -5.34753                       5.72572
                       1.51603                      -5.58052                       5.96798
                       1.54353                      -5.81348                       6.21021
                       1.57070                      -6.04641                       6.45243
                       1.59757                      -6.27931                       6.69463
                       1.62422                      -6.51219                       6.93681
                       1.65066                      -6.74506                       7.17899
                       1.67691                      -6.97791                       7.42116
                       1.70305                      -7.21075                       7.66333
                       1.72916                      -7.44361                       7.90550
                       1.75532                      -7.67647                       8.14767
                       1.76842                      -7.79291                       8.26876
        </DataArray>
        <DataArray type="Float32" Name="RotationalVelocity" NumberOfComponents="3" format="ascii">
                       1.12336                       0.04787                      -0.10092
                       1.12327                       0.04792                      -0.10097
                       1.12311                       0.04800                      -0.10104
                       1.12296                       0.04803                      -0.10106
                       1.12282                       0.04800                      -0.10101
                       1.12268                       0.04791                      -0.10090
                       1.12255                       0.04775                      -0.10073
                       1.12242                       0.04752                      -0.10047
                       1.12229                       0.04721                      -0.10013
                       1.12217                       0.04683                      -0.09973
                       1.12205                       0.04639                      -0.09925
                       1.12193                       0.04589                      -0.09871
                       1.12182                       0.04533                      -0.09811
                       1.12171                       0.04470                      -0.09744
                       1.12160                       0.04402                      -0.09672
                       1.12150                       0.04330                      -0.09595
                       1.12141                       0.04255                      -0.09515
                       1.12132                       0.04176                      -0.09432
                       1.12123                       0.04096                      -0.09347
                       1.12115                       0.04016                      -0.09261
                       1.12108                       0.03936                      -0.09177
                       1.12102                       0.03858                      -0.09094
                       1.12096                       0.03784                      -0.09016
                       1.12092                       0.03714                      -0.08942
                       1.12088                       0.03651                      -0.08875
                       1.12086                       0.03597                      -0.08818
                       1.12085                       0.03554                      -0.08772
                       1.12085                       0.03523                      -0.08740
                       1.12086                       0.03506                      -0.08723
                       1.12088                       0.03506                      -0.08723
                       1.12091                       0.03522                      -0.08740
                       1.12092                       0.03536                      -0.08754
        </DataArray>
        <DataArray type="Float32" Name="TranslationalAcceleration" NumberOfComponents="3" format="ascii">
                      -0.40647                      -0.83773                      -1.06625
                      -0.40987                      -0.96972                      -1.20477
                      -0.41633                      -1.23369                      -1.48182
                      -0.42200                      -1.49761                      -1.75883
                      -0.42691                      -1.76149                      -2.03581
                      -0.43110                      -2.02533                      -2.31274
                      -0.43461                      -2.28913                      -2.58962
                      -0.43751                      -2.55289                      -2.86646
                      -0.43982                      -2.81660                      -3.14324
                      -0.44146                      -3.08024                      -3.41998
                      -0.44246                      -3.34382                      -3.69666
                      -0.44280                      -3.60732                      -3.97330
                      -0.44248                      -3.87075                      -4.24988
                      -0.44159                      -4.13410                      -4.52643
                      -0.44011                      -4.39738                      -4.80293
                      -0.43798                      -4.66058                      -5.07938
                      -0.43519                      -4.92370                      -5.35579
                      -0.43175                      -5.18674                      -5.63215
                      -0.42766                      -5.44970                      -5.90847
                      -0.42302                      -5.71260                      -6.18475
                      -0.41782                      -5.97544                      -6.46099
                      -0.41203                      -6.23822                      -6.73720
                      -0.40568                      -6.50095                      -7.01337
                      -0.39880                      -6.76364                      -7.28950
                      -0.39146                      -7.02629                      -7.56562
                      -0.38377                      -7.28892                      -7.84171
                      -0.37577                      -7.55154                      -8.11778
                      -0.36750                      -7.81415                      -8.39384
                      -0.35907                      -8.07676                      -8.66989
                      -0.35060                      -8.33939                      -8.94593
                      -0.34225                      -8.60205                      -9.22197
                      -0.33811                      -8.73338                      -9.35999
        </DataArray>
        <DataArray type="Float32" Name="RotationalAcceleration" NumberOfComponents="3" format="ascii">
                      -0.06278                      -0.02826                      -0.04880
                      -0.06291                      -0.02728                      -0.04968
                      -0.06312                      -0.02541                      -0.05141
                      -0.06327                      -0.02369                      -0.05313
                      -0.06335                      -0.02210                      -0.05485
                      -0.06339                      -0.02065                      -0.05658
                      -0.06341                      -0.01931                      -0.05835
                      -0.06342                      -0.01811                      -0.06016
                      -0.06344                      -0.01701                      -0.06204
                      -0.06349                      -0.01600                      -0.06398
                      -0.06355                      -0.01508                      -0.06598
                      -0.06363                      -0.01423                      -0.06806
                      -0.06372                      -0.01346                      -0.07021
                      -0.06384                      -0.01275                      -0.07242
                      -0.06398                      -0.01210                      -0.07471
                      -0.06413                      -0.01150                      -0.07703
                      -0.06431                      -0.01095                      -0.07939
                      -0.06449                      -0.01045                      -0.08177
                      -0.06469                      -0.00998                      -0.08414
                      -0.06489                      -0.00956                      -0.08649
                      -0.06510                      -0.00917                      -0.08877
                      -0.06531                      -0.00882                      -0.09097
                      -0.06550                      -0.00851                      -0.09305
                      -0.06569                      -0.00824                      -0.09498
                      -0.06585                      -0.00800                      -0.09672
                      -0.06599                      -0.00781                      -0.09820
                      -0.06608                      -0.00768                      -0.09936
                      -0.06613                      -0.00761                      -0.10017
                      -0.06612                      -0.00759                      -0.10058
                      -0.06604                      -0.00764                      -0.10054
                      -0.06590                      -0.00776                      -0.10004
                      -0.06580                      -0.00785                      -0.09964
        </DataArray>
        <DataArray type="Float32" Name="OrientationX" NumberOfComponents="3" format="ascii">
                       0.98544                      -0.15353                       0.07306
                       0.98544                      -0.15355                       0.07304
                       0.98543                      -0.15362                       0.07297
                       0.98542                      -0.15373                       0.07286
                       0.98541                      -0.15390                       0.07270
                       0.98539                      -0.15412                       0.07249
                       0.98536                      -0.15441                       0.07222
                       0.98872                      -0.13923                       0.05521
                       0.99110                      -0.12666                       0.04088
                       0.99284                      -0.11601                       0.02850
                       0.99408                      -0.10719                       0.01795
                       0.99499                      -0.09959                       0.00861
                       0.99564                      -0.09324                       0.00048
                       0.99612                      -0.08777                      -0.00683
                       0.99645                      -0.08308                      -0.01342
                       0.99668                      -0.07901                      -0.01942
                       0.99683                      -0.07558                      -0.02482
                       0.99692                      -0.07252                      -0.02986
                       0.99696                      -0.06985                      -0.03453
                       0.99696                      -0.06741                      -0.03896
                       0.99694                      -0.06520                      -0.04312
                       0.99690                      -0.06308                      -0.04712
                       0.99683                      -0.06116                      -0.05084
                       0.99676                      -0.05919                      -0.05450
                       0.99667                      -0.05714                      -0.05809
                       0.99659                      -0.05511                      -0.06145
                       0.99650                      -0.05295                      -0.06469
                       0.99641                      -0.05052                      -0.06793
                       0.99632                      -0.04794                      -0.07101
                       0.99624                      -0.04505                      -0.07404
                       0.99615                      -0.04185                      -0.07702
                       0.99617                      -0.04170                      -0.07688
        </DataArray>
        <DataArray type="Float32" Name="OrientationY" NumberOfComponents="3" format="ascii">
                       0.15843                       0.67318                      -0.72231
                       0.15842                       0.67311                      -0.72238
                       0.15841                       0.67299                      -0.72249
                       0.15840                       0.67288                      -0.72259
                       0.15839                       0.67279                      -0.72268
                       0.15839                       0.67272                      -0.72275
                       0.15838                       0.67265                      -0.72281
                       0.13564                       0.67597                      -0.72434
                       0.11663                       0.67847                      -0.72532
                       0.10035                       0.68041                      -0.72593
                       0.08664                       0.68190                      -0.72630
                       0.07466                       0.68310                      -0.72650
                       0.06441                       0.68405                      -0.72659
                       0.05537                       0.68482                      -0.72660
                       0.04736                       0.68547                      -0.72656
                       0.04023                       0.68600                      -0.72649
                       0.03396                       0.68645                      -0.72639
                       0.02821                       0.68683                      -0.72627
                       0.02299                       0.68716                      -0.72614
                       0.01811                       0.68745                      -0.72600
                       0.01358                       0.68772                      -0.72585
                       0.00923                       0.68796                      -0.72569
                       0.00522                       0.68817                      -0.72553
                       0.00122                       0.68838                      -0.72535
                      -0.00279                       0.68859                      -0.72515
                      -0.00661                       0.68878                      -0.72494
                      -0.01044                       0.68898                      -0.72471
                      -0.01444                       0.68918                      -0.72445
                      -0.01844                       0.68938                      -0.72416
                      -0.02261                       0.68959                      -0.72384
                      -0.02696                       0.68981                      -0.72349
                      -0.02696                       0.68982                      -0.72348
        </DataArray>
        <DataArray type="Float32" Name="OrientationZ" NumberOfComponents="3" format="ascii">
                       0.06172                       0.72337                       0.68770
                       0.06176                       0.72343                       0.68763
                       0.06188                       0.72353                       0.68752
                       0.06206                       0.72360                       0.68743
                       0.06230                       0.72365                       0.68735
                       0.06263                       0.72367                       0.68730
                       0.06303                       0.72367                       0.68726
                       0.06353                       0.72366                       0.68723
                       0.06414                       0.72363                       0.68720
                       0.06483                       0.72359                       0.68717
                       0.06561                       0.72355                       0.68714
                       0.06647                       0.72351                       0.68711
                       0.06742                       0.72346                       0.68707
                       0.06845                       0.72340                       0.68702
                       0.06956                       0.72335                       0.68697
                       0.07072                       0.72330                       0.68691
                       0.07193                       0.72324                       0.68684
                       0.07318                       0.72319                       0.68676
                       0.07445                       0.72314                       0.68668
                       0.07572                       0.72309                       0.68659
                       0.07698                       0.72305                       0.68650
                       0.07820                       0.72300                       0.68640
                       0.07936                       0.72297                       0.68631
                       0.08045                       0.72293                       0.68622
                       0.08143                       0.72290                       0.68614
                       0.08228                       0.72287                       0.68607
                       0.08294                       0.72285                       0.68601
                       0.08342                       0.72283                       0.68598
                       0.08367                       0.72281                       0.68596
                       0.08367                       0.72279                       0.68598
                       0.08341                       0.72278                       0.68602
                       0.08320                       0.72278                       0.68606
        </DataArray>
      </PointData>
      <Lines>
        <DataArray type="Int32" Name="connectivity" format="ascii">
      0      1
      1      2
      2      3
      3      4
      4      5
      5      6
      6      7
      7      8
      8      9
      9     10
     10     11
     11     12
     12     13
     13     14
     14     15
     15     16
     16     17
     17     18
     18     19
     19     20
     20     21
     21     22
     22     23
     23     24
     24     25
     25     26
     26     27
     27     28
     28     29
     29     30
     30     31
        </DataArray>
        <DataArray type="Int32" Name="offsets" format="ascii">
      2
      4
      6
      8
     10
     12
     14
     16
     18
     20
     22
     24
     26
     28
     30
     32
     34
     36
     38
     40
     42
     44
     46
     48
     50
     52
     54
     56
     58
     60
     62
        </DataArray>
      </Lines>
    </Piece>
  </PolyData>
</VTKFile>
