<?xml version="1.0"?>
<VTKFile type="PolyData" version="0.1" byte_order="LittleEndian">
  <PolyData>
    <Piece NumberOfPoints="     32" NumberOfVerts="  0" NumberOfLines="     31"
           NumberOfStrips="  0" NumberOfPolys="      0">
      <Points>
        <DataArray type="Float32" NumberOfComponents="3" format="ascii">
                      -4.90606                      -0.12233                     -19.00526
                      -4.90594                      -0.14063                     -18.85638
                      -4.90563                      -0.17723                     -18.55862
                      -4.90511                      -0.21386                     -18.26086
                      -4.90438                      -0.25052                     -17.96311
                      -4.90344                      -0.28722                     -17.66537
                      -4.90227                      -0.32396                     -17.36763
                      -4.90090                      -0.36074                     -17.06989
                      -4.89932                      -0.39755                     -16.77217
                      -4.89748                      -0.43440                     -16.47444
                      -4.89538                      -0.47128                     -16.17673
                      -4.89299                      -0.50820                     -15.87902
                      -4.89031                      -0.54516                     -15.58131
                      -4.88735                      -0.58214                     -15.28362
                      -4.88412                      -0.61915                     -14.98593
                      -4.88055                      -0.65619                     -14.68824
                      -4.87665                      -0.69326                     -14.39057
                      -4.87240                      -0.73035                     -14.09290
                      -4.86781                      -0.76748                     -13.79524
                      -4.86291                      -0.80462                     -13.49759
                      -4.85771                      -0.84178                     -13.19995
                      -4.85218                      -0.87896                     -12.90231
                      -4.84633                      -0.91615                     -12.60468
                      -4.84019                      -0.95337                     -12.30706
                      -4.83378                      -0.99059                     -12.00945
                      -4.82716                      -1.02783                     -11.71184
                      -4.82037                      -1.06507                     -11.41424
                      -4.81342                      -1.10232                     -11.11664
                      -4.80637                      -1.13957                     -10.81905
                      -4.79929                      -1.17683                     -10.52146
                      -4.79227                      -1.21408                     -10.22386
                      -4.78878                      -1.23271                     -10.07506
        </DataArray>
      </Points>
      <PointData>
        <DataArray type="Float32" Name="Force" NumberOfComponents="3" format="ascii">
                   -6404.04286                  -11862.28409                   -7395.48508
                    9196.62724                   27634.68406                   15273.27017
                    -248.38216                   11325.56325                   36703.63021
                   10903.51452                   72833.87028                   28454.43349
                  -17583.29556                  -52651.91195                   -1470.34254
                  -12544.41381                  -37255.80697                  -36092.36531
                  -14107.44292                  -28726.67639                  -44863.54314
                   16625.04048                   17121.59690                  -31017.01098
                   11397.63523                   -5166.47954                  -26591.80908
                   17624.42039                   12344.96683                  -13900.42901
                   17255.04536                   -6363.09819                  -10229.57633
                   19472.71953                   -1566.20502                  -10438.35922
                   20707.22047                   -2694.99869                   -9997.70092
                   21912.63710                   -2073.73295                   -9547.00929
                   22214.17992                   -2180.42624                   -9100.29822
                   22403.97775                   -1841.59071                   -8780.19073
                   22043.45130                   -1457.26052                   -8424.94789
                   21053.62777                   -1168.32252                   -7960.05109
                   19829.25561                    -938.78103                   -7462.69736
                   18175.32227                    -507.76500                   -7234.18556
                   16238.19789                    -170.74070                   -6795.93541
                   13994.10817                      60.61660                   -6406.96715
                   11473.35918                     474.64611                   -6007.62875
                    8768.23717                     606.63521                   -5493.58894
                    5895.90274                     872.38751                   -5156.86701
                    3109.62035                    1010.85139                   -4869.11422
                     159.58198                    1113.91468                   -4179.15709
                   -2696.99387                    1199.21208                   -4453.83125
                   -5715.27705                     955.96571                   -1888.52793
                   -8150.93733                    1683.85986                   -9720.32088
                   -4596.79967                   -1460.62501                   21405.65644
                   -5965.81001                   15981.10130                 -126047.36067
        </DataArray>
        <DataArray type="Float32" Name="Moment" NumberOfComponents="3" format="ascii">
                     -33.68124                     204.84802                      -4.11448
                    1202.60573                    -784.10169                     -32.36707
                    2231.11791                    -409.45213                    -217.02873
                    -688.34543                      77.61502                     606.18011
                   -3108.54944                     645.87824                    -481.62808
                   -3581.46620                    1978.20532                    -271.25928
                   -5606.12904                    2009.15858                    1327.19025
                   -4045.60899                    1180.09984                    -195.10631
                   -3802.53314                    1686.61157                      81.77486
                   -1452.21534                     466.16612                     401.84533
                   -1785.34796                     541.88221                     -67.17943
                    -838.44925                     346.07917                      56.59630
                   -1187.87969                     365.77680                      29.44661
                    -952.59044                     315.18617                      27.60406
                    -939.02099                     290.80867                      40.39773
                    -846.90289                     250.34341                      27.51295
                    -797.31254                     240.67511                      26.39638
                    -733.58324                     212.61639                      38.03389
                    -662.44390                     184.45146                      27.19733
                    -617.55203                     172.84995                      29.81992
                    -569.34869                     152.69358                      27.07120
                    -512.77899                     138.29321                      24.00847
                    -466.68810                     121.89376                      25.75948
                    -415.64096                     108.60946                      21.23974
                    -374.22727                      93.54808                      23.81394
                    -340.86108                      84.75167                      16.45222
                    -285.95536                      70.71757                      19.60343
                    -278.24128                      64.90924                      14.15128
                    -153.47650                      39.44852                      11.62773
                    -485.35353                     107.86807                      27.01082
                    1037.69041                    -235.07576                     -54.34486
                   -6408.94326                    1448.80779                     334.19972
        </DataArray>
        <DataArray type="Float32" Name="TranslationalVelocity" NumberOfComponents="3" format="ascii">
                       0.09833                      -1.23533                      -0.10218
                       0.10023                      -1.41879                      -0.12473
                       0.10483                      -1.78565                      -0.16983
                       0.11144                      -2.15245                      -0.21496
                       0.12026                      -2.51930                      -0.26016
                       0.13153                      -2.88635                      -0.30543
                       0.14557                      -3.25370                      -0.35082
                       0.16231                      -3.62137                      -0.39631
                       0.18196                      -3.98939                      -0.44192
                       0.20523                      -4.35781                      -0.48766
                       0.23249                      -4.72667                      -0.53355
                       0.26412                      -5.09596                      -0.57960
                       0.30048                      -5.46569                      -0.62582
                       0.34130                      -5.83579                      -0.67221
                       0.38674                      -6.20627                      -0.71876
                       0.43767                      -6.57716                      -0.76552
                       0.49433                      -6.94844                      -0.81250
                       0.55688                      -7.32007                      -0.85971
                       0.62542                      -7.69204                      -0.90715
                       0.69926                      -8.06428                      -0.95482
                       0.77837                      -8.43677                      -1.00270
                       0.86332                      -8.80951                      -1.05085
                       0.95387                      -9.18247                      -1.09924
                       1.04967                      -9.55562                      -1.14787
                       1.15019                      -9.92892                      -1.19673
                       1.25435                     -10.30232                      -1.24576
                       1.36173                     -10.67583                      -1.29495
                       1.47195                     -11.04942                      -1.34429
                       1.58395                     -11.42309                      -1.39372
                       1.69648                     -11.79681                      -1.44318
                       1.80799                     -12.17060                      -1.49260
                       1.86344                     -12.35752                      -1.51730
        </DataArray>
        <DataArray type="Float32" Name="RotationalVelocity" NumberOfComponents="3" format="ascii">
                       1.23248                       0.00980                      -0.00055
                       1.23223                       0.01282                      -0.00018
                       1.23195                       0.01912                       0.00060
                       1.23202                       0.02592                       0.00143
                       1.23245                       0.03336                       0.00234
                       1.23322                       0.04154                       0.00335
                       1.23429                       0.05057                       0.00446
                       1.23555                       0.06065                       0.00569
                       1.23690                       0.07187                       0.00707
                       1.23830                       0.08414                       0.00858
                       1.23974                       0.09744                       0.01021
                       1.24120                       0.11177                       0.01197
                       1.24266                       0.12708                       0.01385
                       1.24410                       0.14343                       0.01586
                       1.24550                       0.16068                       0.01798
                       1.24685                       0.17861                       0.02018
                       1.24815                       0.19707                       0.02245
                       1.24937                       0.21592                       0.02476
                       1.25052                       0.23499                       0.02710
                       1.25157                       0.25404                       0.02944
                       1.25252                       0.27274                       0.03174
                       1.25338                       0.29084                       0.03396
                       1.25414                       0.30805                       0.03608
                       1.25481                       0.32409                       0.03804
                       1.25537                       0.33864                       0.03983
                       1.25583                       0.35106                       0.04136
                       1.25620                       0.36079                       0.04255
                       1.25650                       0.36768                       0.04340
                       1.25675                       0.37128                       0.04384
                       1.25695                       0.37116                       0.04383
                       1.25715                       0.36717                       0.04333
                       1.25724                       0.36392                       0.04294
        </DataArray>
        <DataArray type="Float32" Name="TranslationalAcceleration" NumberOfComponents="3" format="ascii">
                       1.83573                      -0.59127                      -0.85064
                       1.83861                      -0.64082                      -1.08693
                       1.81438                      -0.72014                      -1.55679
                       1.71957                      -0.75294                      -2.02028
                       1.56725                      -0.74752                      -2.47881
                       1.37071                      -0.71093                      -2.93363
                       1.14339                      -0.64947                      -3.38588
                       0.89934                      -0.57044                      -3.83666
                       0.64599                      -0.47664                      -4.28648
                       0.39385                      -0.37001                      -4.73594
                       0.15589                      -0.25379                      -5.18576
                      -0.05541                      -0.13027                      -5.63658
                      -0.22837                      -0.00099                      -6.08901
                      -0.35895                       0.13259                      -6.54333
                      -0.44149                       0.27007                      -6.99987
                      -0.46143                       0.41152                      -7.45942
                      -0.41076                       0.55675                      -7.92255
                      -0.28306                       0.70579                      -8.38981
                      -0.07374                       0.85875                      -8.86168
                       0.21000                       1.01530                      -9.33800
                       0.56903                       1.17550                      -9.81898
                       1.01341                       1.33991                     -10.30552
                       1.54132                       1.50848                     -10.79779
                       2.14846                       1.68096                     -11.29581
                       2.82791                       1.85687                     -11.79931
                       3.56390                       2.03518                     -12.30728
                       4.35015                       2.21530                     -12.81935
                       5.18171                       2.39639                     -13.33529
                       6.04291                       2.57679                     -13.85397
                       6.91487                       2.75441                     -14.37395
                       7.77469                       2.92653                     -14.89354
                       8.20075                       3.01130                     -15.15316
        </DataArray>
        <DataArray type="Float32" Name="RotationalAcceleration" NumberOfComponents="3" format="ascii">
                       0.60395                       0.15010                      -0.01298
                       0.51997                       0.02469                      -0.02505
                       0.36553                      -0.20686                      -0.04644
                       0.23242                      -0.40554                      -0.06305
                       0.12030                      -0.56828                      -0.07432
                       0.02735                      -0.69443                      -0.08002
                      -0.04806                      -0.78376                      -0.08001
                      -0.10584                      -0.83200                      -0.07348
                      -0.14947                      -0.83958                      -0.06036
                      -0.18340                      -0.81152                      -0.04143
                      -0.20970                      -0.74879                      -0.01680
                      -0.23013                      -0.65271                       0.01333
                      -0.24621                      -0.52496                       0.04872
                      -0.25897                      -0.36431                       0.08957
                      -0.26980                      -0.17455                       0.13525
                      -0.27968                       0.03768                       0.18462
                      -0.28908                       0.26912                       0.23711
                      -0.29832                       0.51626                       0.29207
                      -0.30764                       0.77536                       0.34882
                      -0.31713                       1.04259                       0.40658
                      -0.32669                       1.31135                       0.46410
                      -0.33608                       1.57595                       0.52034
                      -0.34498                       1.83139                       0.57431
                      -0.35301                       2.07244                       0.62497
                      -0.35973                       2.29368                       0.67126
                      -0.36424                       2.48516                       0.71111
                      -0.36559                       2.63790                       0.74268
                      -0.36326                       2.74890                       0.76538
                      -0.35640                       2.81164                       0.77785
                      -0.34412                       2.81943                       0.77868
                      -0.32596                       2.77009                       0.76740
                      -0.31493                       2.72706                       0.75787
        </DataArray>
        <DataArray type="Float32" Name="OrientationX" NumberOfComponents="3" format="ascii">
                       0.97490                      -0.22091                      -0.02757
                       0.97490                      -0.22087                      -0.02790
                       0.97490                      -0.22079                      -0.02856
                       0.97490                      -0.22071                      -0.02923
                       0.97490                      -0.22062                      -0.02991
                       0.97490                      -0.22054                      -0.03060
                       0.97490                      -0.22045                      -0.03133
                       0.97976                      -0.19800                      -0.02935
                       0.98342                      -0.17920                      -0.02786
                       0.98625                      -0.16306                      -0.02674
                       0.98843                      -0.14943                      -0.02596
                       0.99018                      -0.13749                      -0.02543
                       0.99155                      -0.12725                      -0.02515
                       0.99268                      -0.11818                      -0.02505
                       0.99360                      -0.11014                      -0.02512
                       0.99436                      -0.10295                      -0.02531
                       0.99499                      -0.09661                      -0.02564
                       0.99553                      -0.09078                      -0.02603
                       0.99599                      -0.08547                      -0.02650
                       0.99639                      -0.08050                      -0.02699
                       0.99674                      -0.07588                      -0.02751
                       0.99705                      -0.07144                      -0.02800
                       0.99732                      -0.06734                      -0.02849
                       0.99758                      -0.06325                      -0.02890
                       0.99782                      -0.05918                      -0.02923
                       0.99804                      -0.05529                      -0.02945
                       0.99824                      -0.05141                      -0.02952
                       0.99844                      -0.04739                      -0.02941
                       0.99863                      -0.04339                      -0.02911
                       0.99882                      -0.03923                      -0.02858
                       0.99900                      -0.03494                      -0.02781
                       0.99901                      -0.03496                      -0.02762
        </DataArray>
        <DataArray type="Float32" Name="OrientationY" NumberOfComponents="3" format="ascii">
                       0.22262                       0.96764                       0.11876
                       0.22262                       0.96765                       0.11873
                       0.22262                       0.96765                       0.11868
                       0.22262                       0.96766                       0.11863
                       0.22262                       0.96766                       0.11859
                       0.22262                       0.96767                       0.11856
                       0.22262                       0.96767                       0.11852
                       0.20011                       0.97250                       0.11919
                       0.18126                       0.97612                       0.11971
                       0.16510                       0.97893                       0.12013
                       0.15149                       0.98109                       0.12047
                       0.13957                       0.98282                       0.12075
                       0.12937                       0.98419                       0.12099
                       0.12037                       0.98530                       0.12120
                       0.11239                       0.98622                       0.12138
                       0.10528                       0.98699                       0.12154
                       0.09903                       0.98762                       0.12168
                       0.09330                       0.98816                       0.12181
                       0.08808                       0.98862                       0.12192
                       0.08322                       0.98903                       0.12203
                       0.07869                       0.98939                       0.12214
                       0.07434                       0.98971                       0.12224
                       0.07034                       0.98999                       0.12234
                       0.06634                       0.99026                       0.12244
                       0.06233                       0.99050                       0.12254
                       0.05850                       0.99072                       0.12265
                       0.05467                       0.99093                       0.12275
                       0.05066                       0.99113                       0.12287
                       0.04665                       0.99131                       0.12299
                       0.04247                       0.99148                       0.12312
                       0.03811                       0.99164                       0.12325
                       0.03811                       0.99164                       0.12326
        </DataArray>
        <DataArray type="Float32" Name="OrientationZ" NumberOfComponents="3" format="ascii">
                       0.00045                      -0.12191                       0.99254
                       0.00078                      -0.12196                       0.99253
                       0.00143                      -0.12206                       0.99252
                       0.00210                      -0.12216                       0.99251
                       0.00277                      -0.12227                       0.99249
                       0.00347                      -0.12239                       0.99248
                       0.00419                      -0.12252                       0.99246
                       0.00495                      -0.12265                       0.99244
                       0.00574                      -0.12277                       0.99242
                       0.00658                      -0.12289                       0.99240
                       0.00747                      -0.12301                       0.99238
                       0.00839                      -0.12312                       0.99236
                       0.00935                      -0.12322                       0.99233
                       0.01036                      -0.12333                       0.99231
                       0.01140                      -0.12342                       0.99229
                       0.01247                      -0.12352                       0.99226
                       0.01356                      -0.12361                       0.99224
                       0.01467                      -0.12369                       0.99221
                       0.01577                      -0.12377                       0.99219
                       0.01687                      -0.12384                       0.99216
                       0.01795                      -0.12391                       0.99213
                       0.01898                      -0.12396                       0.99211
                       0.01996                      -0.12402                       0.99208
                       0.02087                      -0.12406                       0.99206
                       0.02170                      -0.12410                       0.99203
                       0.02240                      -0.12413                       0.99201
                       0.02294                      -0.12415                       0.99200
                       0.02333                      -0.12417                       0.99199
                       0.02352                      -0.12418                       0.99198
                       0.02351                      -0.12419                       0.99198
                       0.02327                      -0.12419                       0.99199
                       0.02308                      -0.12419                       0.99199
        </DataArray>
      </PointData>
      <Lines>
        <DataArray type="Int32" Name="connectivity" format="ascii">
      0      1
      1      2
      2      3
      3      4
      4      5
      5      6
      6      7
      7      8
      8      9
      9     10
     10     11
     11     12
     12     13
     13     14
     14     15
     15     16
     16     17
     17     18
     18     19
     19     20
     20     21
     21     22
     22     23
     23     24
     24     25
     25     26
     26     27
     27     28
     28     29
     29     30
     30     31
        </DataArray>
        <DataArray type="Int32" Name="offsets" format="ascii">
      2
      4
      6
      8
     10
     12
     14
     16
     18
     20
     22
     24
     26
     28
     30
     32
     34
     36
     38
     40
     42
     44
     46
     48
     50
     52
     54
     56
     58
     60
     62
        </DataArray>
      </Lines>
    </Piece>
  </PolyData>
</VTKFile>
