<?xml version="1.0"?>
<VTKFile type="PolyData" version="0.1" byte_order="LittleEndian">
  <PolyData>
    <Piece NumberOfPoints="     32" NumberOfVerts="  0" NumberOfLines="     31"
           NumberOfStrips="  0" NumberOfPolys="      0">
      <Points>
        <DataArray type="Float32" NumberOfComponents="3" format="ascii">
                      -3.50076                      -0.69101                     -20.35006
                      -3.51154                      -0.78719                     -20.46465
                      -3.53304                      -0.97956                     -20.69385
                      -3.55436                      -1.17191                     -20.92309
                      -3.57545                      -1.36422                     -21.15237
                      -3.59624                      -1.55650                     -21.38171
                      -3.61667                      -1.74872                     -21.61113
                      -3.63673                      -1.94088                     -21.84063
                      -3.65638                      -2.13298                     -22.07022
                      -3.67549                      -2.32502                     -22.29991
                      -3.69398                      -2.51697                     -22.52972
                      -3.71179                      -2.70885                     -22.75964
                      -3.72883                      -2.90065                     -22.98969
                      -3.74515                      -3.09237                     -23.21986
                      -3.76071                      -3.28402                     -23.45014
                      -3.77536                      -3.47557                     -23.68056
                      -3.78905                      -3.66705                     -23.91110
                      -3.80174                      -3.85843                     -24.14178
                      -3.81342                      -4.04973                     -24.37258
                      -3.82420                      -4.24095                     -24.60348
                      -3.83408                      -4.43209                     -24.83449
                      -3.84296                      -4.62316                     -25.06561
                      -3.85088                      -4.81414                     -25.29683
                      -3.85790                      -5.00505                     -25.52814
                      -3.86410                      -5.19590                     -25.75952
                      -3.86967                      -5.38670                     -25.99096
                      -3.87468                      -5.57746                     -26.22245
                      -3.87920                      -5.76818                     -26.45398
                      -3.88341                      -5.95888                     -26.68554
                      -3.88753                      -6.14956                     -26.91710
                      -3.89181                      -6.34026                     -27.14865
                      -3.89401                      -6.43561                     -27.26442
        </DataArray>
      </Points>
      <PointData>
        <DataArray type="Float32" Name="Force" NumberOfComponents="3" format="ascii">
                   -6005.01193                   13069.27697                   -2109.12728
                   11857.47552                  -34229.70822                   11023.96023
                    9292.74245                  -38467.09580                  -19643.66053
                   28394.48993                  -82256.20670                   38724.73779
                  -14435.48717                   40334.19594                  -38412.06473
                  -11524.00251                   58862.56304                    1152.26599
                  -20217.41360                   61197.84790                   17132.82158
                   15808.01036                    9523.66920                   45194.28356
                    3010.50787                   24975.20836                   22939.07560
                    8083.60796                   -3186.99792                   28702.39872
                    2979.68217                   10551.31704                    7785.93317
                    4506.55378                    6788.65644                   12609.89130
                    4633.90765                    7844.70507                   11174.11813
                    5493.34097                    7288.32724                   11300.32019
                    5792.08510                    7540.37789                   10658.71397
                    6633.41869                    7514.93003                   10524.77282
                    7427.09060                    7443.64175                   10403.22071
                    7897.54676                    7359.77150                   10024.32302
                    8568.53743                    7330.39564                    9498.95607
                    9232.71196                    7406.22217                    9549.48705
                    9938.97913                    7302.02034                    9238.73966
                   10490.43531                    7376.69182                    8876.64137
                   10982.03494                    7138.32374                    8800.67158
                   11392.82522                    7051.08058                    8203.14938
                   11552.83124                    6940.24993                    8129.19871
                   11865.87592                    7009.53976                    8008.45173
                   11597.40971                    6274.56454                    7251.26530
                   11260.72096                    7212.96505                    8308.10737
                    9907.72594                    2976.45528                    3608.33441
                    7359.47287                   17061.94544                   20345.19880
                    1225.48036                  -38510.88961                  -43198.77973
                    7015.41181                  218949.83248                  265244.92808
        </DataArray>
        <DataArray type="Float32" Name="Moment" NumberOfComponents="3" format="ascii">
                     172.85754                    -137.36180                     157.41314
                    1251.44816                     541.97795                    -675.11863
                    2493.70481                     513.69087                    -459.17078
                   -1254.03963                    -723.28874                    -322.79959
                   -3446.11069                    -204.54210                    1113.28959
                   -4127.12107                   -1526.50047                    2256.45969
                   -6650.57623                   -2980.46249                    1155.16023
                   -5088.64980                   -1012.59060                    1654.20557
                   -4705.77980                   -1626.22505                    1897.88753
                   -1997.38387                    -902.13554                     228.36578
                   -2357.36821                    -484.38350                     772.96249
                   -1189.33473                    -434.76621                     387.92923
                   -1681.80139                    -434.68229                     484.12104
                   -1409.70120                    -384.27045                     420.98234
                   -1423.88378                    -373.22486                     401.00507
                   -1327.45916                    -325.97694                     372.27034
                   -1287.32155                    -318.38344                     367.06122
                   -1223.47565                    -309.85694                     325.11889
                   -1140.95489                    -276.69888                     297.39925
                   -1098.73760                    -268.19365                     278.02215
                   -1046.65182                    -244.81614                     260.64127
                    -973.39429                    -232.46436                     243.25857
                    -917.23645                    -218.88471                     214.65356
                    -843.66169                    -202.27316                     200.11798
                    -787.93391                    -192.49689                     168.42114
                    -742.64667                    -171.28148                     164.20799
                    -643.82485                    -158.71039                     132.68536
                    -656.75862                    -149.35915                     135.00844
                    -355.59093                     -95.18930                      71.78871
                   -1263.40507                    -282.08826                     242.86749
                    2757.55028                     608.93907                    -555.06252
                  -17058.33734                   -3735.75882                    3389.54748
        </DataArray>
        <DataArray type="Float32" Name="TranslationalVelocity" NumberOfComponents="3" format="ascii">
                       0.64364                       0.84832                      -0.54169
                       0.62831                       0.97761                      -0.64877
                       0.59770                       1.23616                      -0.86290
                       0.56726                       1.49464                      -1.07696
                       0.53702                       1.75310                      -1.29097
                       0.50702                       2.01156                      -1.50493
                       0.47731                       2.27006                      -1.71887
                       0.44789                       2.52860                      -1.93278
                       0.41880                       2.78721                      -2.14667
                       0.39013                       3.04589                      -2.36056
                       0.36193                       3.30465                      -2.57443
                       0.33426                       3.56351                      -2.78831
                       0.30718                       3.82246                      -3.00219
                       0.28065                       4.08149                      -3.21608
                       0.25470                       4.34060                      -3.42997
                       0.22945                       4.59981                      -3.64386
                       0.20494                       4.85911                      -3.85776
                       0.18118                       5.11850                      -4.07166
                       0.15821                       5.37797                      -4.28555
                       0.13592                       5.63751                      -4.49944
                       0.11432                       5.89711                      -4.71332
                       0.09349                       6.15678                      -4.92719
                       0.07340                       6.41652                      -5.14104
                       0.05399                       6.67630                      -5.35486
                       0.03521                       6.93613                      -5.56867
                       0.01691                       7.19599                      -5.78246
                      -0.00096                       7.45588                      -5.99624
                      -0.01845                       7.71580                      -6.21001
                      -0.03571                       7.97574                      -6.42377
                      -0.05289                       8.23570                      -6.63754
                      -0.07021                       8.49567                      -6.85132
                      -0.07891                       8.62566                      -6.95821
        </DataArray>
        <DataArray type="Float32" Name="RotationalVelocity" NumberOfComponents="3" format="ascii">
                       1.11849                       0.04531                      -0.10583
                       1.11830                       0.04514                      -0.10567
                       1.11797                       0.04475                      -0.10532
                       1.11773                       0.04430                      -0.10491
                       1.11758                       0.04377                      -0.10445
                       1.11751                       0.04314                      -0.10392
                       1.11752                       0.04240                      -0.10330
                       1.11759                       0.04154                      -0.10259
                       1.11771                       0.04055                      -0.10177
                       1.11786                       0.03944                      -0.10084
                       1.11803                       0.03820                      -0.09983
                       1.11823                       0.03685                      -0.09871
                       1.11844                       0.03539                      -0.09750
                       1.11866                       0.03380                      -0.09619
                       1.11889                       0.03211                      -0.09479
                       1.11912                       0.03034                      -0.09333
                       1.11934                       0.02851                      -0.09181
                       1.11957                       0.02663                      -0.09026
                       1.11978                       0.02472                      -0.08867
                       1.11999                       0.02281                      -0.08709
                       1.12019                       0.02092                      -0.08552
                       1.12037                       0.01910                      -0.08401
                       1.12054                       0.01736                      -0.08256
                       1.12069                       0.01573                      -0.08121
                       1.12083                       0.01426                      -0.07999
                       1.12095                       0.01300                      -0.07894
                       1.12106                       0.01200                      -0.07812
                       1.12114                       0.01130                      -0.07754
                       1.12121                       0.01093                      -0.07723
                       1.12127                       0.01093                      -0.07724
                       1.12131                       0.01133                      -0.07758
                       1.12133                       0.01165                      -0.07785
        </DataArray>
        <DataArray type="Float32" Name="TranslationalAcceleration" NumberOfComponents="3" format="ascii">
                      -0.34253                       0.83789                       0.89254
                      -0.33588                       0.95576                       1.04095
                      -0.32235                       1.19123                       1.33785
                      -0.30828                       1.42608                       1.63488
                      -0.29371                       1.66042                       1.93206
                      -0.27871                       1.89434                       2.22941
                      -0.26331                       2.12792                       2.52693
                      -0.24759                       2.36122                       2.82462
                      -0.23157                       2.59427                       3.12249
                      -0.21524                       2.82706                       3.42057
                      -0.19864                       3.05961                       3.71887
                      -0.18178                       3.29192                       4.01739
                      -0.16468                       3.52400                       4.31614
                      -0.14739                       3.75585                       4.61511
                      -0.12991                       3.98749                       4.91430
                      -0.11223                       4.21887                       5.21374
                      -0.09436                       4.44997                       5.51344
                      -0.07631                       4.68078                       5.81340
                      -0.05809                       4.91129                       6.11363
                      -0.03974                       5.14153                       6.41409
                      -0.02125                       5.37150                       6.71478
                      -0.00262                       5.60115                       7.01573
                       0.01614                       5.83050                       7.31692
                       0.03501                       6.05956                       7.61834
                       0.05398                       6.28836                       7.91995
                       0.07302                       6.51698                       8.22172
                       0.09212                       6.74544                       8.52361
                       0.11128                       6.97377                       8.82561
                       0.13045                       7.20205                       9.12767
                       0.14963                       7.43037                       9.42974
                       0.16876                       7.65886                       9.73174
                       0.17832                       7.77314                       9.88273
        </DataArray>
        <DataArray type="Float32" Name="RotationalAcceleration" NumberOfComponents="3" format="ascii">
                      -0.03400                      -0.02010                      -0.04813
                      -0.03500                      -0.02097                      -0.04764
                      -0.03682                      -0.02264                      -0.04679
                      -0.03838                      -0.02427                      -0.04614
                      -0.03971                      -0.02586                      -0.04570
                      -0.04084                      -0.02744                      -0.04548
                      -0.04181                      -0.02902                      -0.04547
                      -0.04268                      -0.03062                      -0.04570
                      -0.04348                      -0.03225                      -0.04615
                      -0.04424                      -0.03394                      -0.04680
                      -0.04497                      -0.03568                      -0.04763
                      -0.04570                      -0.03749                      -0.04864
                      -0.04642                      -0.03936                      -0.04981
                      -0.04716                      -0.04130                      -0.05114
                      -0.04792                      -0.04330                      -0.05262
                      -0.04870                      -0.04534                      -0.05422
                      -0.04949                      -0.04742                      -0.05590
                      -0.05029                      -0.04952                      -0.05765
                      -0.05110                      -0.05162                      -0.05946
                      -0.05191                      -0.05370                      -0.06130
                      -0.05269                      -0.05573                      -0.06312
                      -0.05344                      -0.05768                      -0.06490
                      -0.05414                      -0.05952                      -0.06661
                      -0.05477                      -0.06123                      -0.06822
                      -0.05532                      -0.06278                      -0.06969
                      -0.05575                      -0.06409                      -0.07096
                      -0.05602                      -0.06511                      -0.07197
                      -0.05614                      -0.06582                      -0.07270
                      -0.05608                      -0.06618                      -0.07312
                      -0.05582                      -0.06614                      -0.07317
                      -0.05535                      -0.06568                      -0.07284
                      -0.05505                      -0.06533                      -0.07255
        </DataArray>
        <DataArray type="Float32" Name="OrientationX" NumberOfComponents="3" format="ascii">
                       0.95712                       0.17094                      -0.23388
                       0.95714                       0.17110                      -0.23369
                       0.95718                       0.17146                      -0.23325
                       0.95723                       0.17192                      -0.23271
                       0.95729                       0.17247                      -0.23205
                       0.95736                       0.17315                      -0.23124
                       0.95745                       0.17394                      -0.23029
                       0.96376                       0.15761                      -0.21525
                       0.96865                       0.14425                      -0.20225
                       0.97258                       0.13308                      -0.19073
                       0.97571                       0.12400                      -0.18061
                       0.97831                       0.11635                      -0.17137
                       0.98045                       0.11015                      -0.16305
                       0.98227                       0.10499                      -0.15531
                       0.98383                       0.10073                      -0.14807
                       0.98519                       0.09722                      -0.14126
                       0.98635                       0.09444                      -0.13490
                       0.98738                       0.09211                      -0.12881
                       0.98830                       0.09021                      -0.12299
                       0.98913                       0.08858                      -0.11739
                       0.98987                       0.08717                      -0.11204
                       0.99056                       0.08584                      -0.10687
                       0.99117                       0.08468                      -0.10204
                       0.99175                       0.08339                      -0.09735
                       0.99230                       0.08193                      -0.09287
                       0.99280                       0.08037                      -0.08877
                       0.99328                       0.07851                      -0.08503
                       0.99375                       0.07620                      -0.08156
                       0.99420                       0.07353                      -0.07854
                       0.99463                       0.07030                      -0.07590
                       0.99506                       0.06652                      -0.07367
                       0.99505                       0.06616                      -0.07410
        </DataArray>
        <DataArray type="Float32" Name="OrientationY" NumberOfComponents="3" format="ascii">
                       0.28056                      -0.74804                       0.60143
                       0.28056                      -0.74802                       0.60146
                       0.28057                      -0.74798                       0.60150
                       0.28057                      -0.74795                       0.60154
                       0.28057                      -0.74792                       0.60157
                       0.28058                      -0.74790                       0.60160
                       0.28058                      -0.74787                       0.60163
                       0.25845                      -0.75166                       0.60680
                       0.23990                      -0.75453                       0.61084
                       0.22398                      -0.75678                       0.61410
                       0.21055                      -0.75853                       0.61668
                       0.19879                      -0.75996                       0.61883
                       0.18870                      -0.76110                       0.62057
                       0.17980                      -0.76206                       0.62204
                       0.17191                      -0.76287                       0.62328
                       0.16487                      -0.76355                       0.62434
                       0.15868                      -0.76414                       0.62523
                       0.15300                      -0.76466                       0.62601
                       0.14783                      -0.76512                       0.62669
                       0.14300                      -0.76554                       0.62730
                       0.13851                      -0.76592                       0.62784
                       0.13420                      -0.76628                       0.62833
                       0.13022                      -0.76661                       0.62877
                       0.12625                      -0.76694                       0.62918
                       0.12227                      -0.76726                       0.62958
                       0.11846                      -0.76756                       0.62994
                       0.11465                      -0.76786                       0.63028
                       0.11066                      -0.76817                       0.63061
                       0.10667                      -0.76847                       0.63093
                       0.10251                      -0.76878                       0.63125
                       0.09817                      -0.76908                       0.63156
                       0.09816                      -0.76909                       0.63156
        </DataArray>
        <DataArray type="Float32" Name="OrientationZ" NumberOfComponents="3" format="ascii">
                      -0.07214                      -0.64126                      -0.76392
                      -0.07190                      -0.64124                      -0.76396
                      -0.07134                      -0.64119                      -0.76406
                      -0.07064                      -0.64110                      -0.76420
                      -0.06980                      -0.64099                      -0.76437
                      -0.06878                      -0.64083                      -0.76459
                      -0.06758                      -0.64065                      -0.76485
                      -0.06615                      -0.64044                      -0.76516
                      -0.06449                      -0.64021                      -0.76549
                      -0.06261                      -0.63998                      -0.76584
                      -0.06053                      -0.63973                      -0.76621
                      -0.05823                      -0.63947                      -0.76661
                      -0.05574                      -0.63921                      -0.76701
                      -0.05305                      -0.63894                      -0.76743
                      -0.05017                      -0.63866                      -0.76785
                      -0.04716                      -0.63838                      -0.76827
                      -0.04404                      -0.63810                      -0.76869
                      -0.04083                      -0.63782                      -0.76910
                      -0.03757                      -0.63754                      -0.76950
                      -0.03430                      -0.63726                      -0.76988
                      -0.03108                      -0.63700                      -0.77024
                      -0.02796                      -0.63674                      -0.77057
                      -0.02498                      -0.63651                      -0.77087
                      -0.02220                      -0.63628                      -0.77114
                      -0.01967                      -0.63609                      -0.77137
                      -0.01751                      -0.63592                      -0.77156
                      -0.01581                      -0.63579                      -0.77170
                      -0.01460                      -0.63570                      -0.77180
                      -0.01396                      -0.63565                      -0.77185
                      -0.01397                      -0.63564                      -0.77186
                      -0.01465                      -0.63568                      -0.77182
                      -0.01520                      -0.63571                      -0.77178
        </DataArray>
      </PointData>
      <Lines>
        <DataArray type="Int32" Name="connectivity" format="ascii">
      0      1
      1      2
      2      3
      3      4
      4      5
      5      6
      6      7
      7      8
      8      9
      9     10
     10     11
     11     12
     12     13
     13     14
     14     15
     15     16
     16     17
     17     18
     18     19
     19     20
     20     21
     21     22
     22     23
     23     24
     24     25
     25     26
     26     27
     27     28
     28     29
     29     30
     30     31
        </DataArray>
        <DataArray type="Int32" Name="offsets" format="ascii">
      2
      4
      6
      8
     10
     12
     14
     16
     18
     20
     22
     24
     26
     28
     30
     32
     34
     36
     38
     40
     42
     44
     46
     48
     50
     52
     54
     56
     58
     60
     62
        </DataArray>
      </Lines>
    </Piece>
  </PolyData>
</VTKFile>
