<?xml version="1.0"?>
<VTKFile type="PolyData" version="0.1" byte_order="LittleEndian">
  <PolyData>
    <Piece NumberOfPoints="     32" NumberOfVerts="  0" NumberOfLines="     31"
           NumberOfStrips="  0" NumberOfPolys="      0">
      <Points>
        <DataArray type="Float32" NumberOfComponents="3" format="ascii">
                      -4.58761                      -0.78770                     -19.27163
                      -4.58565                      -0.90405                     -19.17698
                      -4.58167                      -1.13676                     -18.98769
                      -4.57748                      -1.36950                     -18.79845
                      -4.57301                      -1.60228                     -18.60926
                      -4.56814                      -1.83512                     -18.42015
                      -4.56276                      -2.06803                     -18.23114
                      -4.55684                      -2.30101                     -18.04223
                      -4.55031                      -2.53406                     -17.85343
                      -4.54298                      -2.76719                     -17.66477
                      -4.53473                      -3.00041                     -17.47624
                      -4.52542                      -3.23371                     -17.28787
                      -4.51494                      -3.46709                     -17.09966
                      -4.50335                      -3.70054                     -16.91160
                      -4.49059                      -3.93405                     -16.72368
                      -4.47641                      -4.16762                     -16.53595
                      -4.46075                      -4.40124                     -16.34840
                      -4.44355                      -4.63491                     -16.16104
                      -4.42477                      -4.86861                     -15.97387
                      -4.40458                      -5.10232                     -15.78687
                      -4.38300                      -5.33605                     -15.60004
                      -4.35986                      -5.56978                     -15.41340
                      -4.33522                      -5.80349                     -15.22693
                      -4.30917                      -6.03719                     -15.04063
                      -4.28185                      -6.27087                     -14.85448
                      -4.25355                      -6.50452                     -14.66845
                      -4.22439                      -6.73814                     -14.48252
                      -4.19445                      -6.97174                     -14.29668
                      -4.16402                      -7.20532                     -14.11090
                      -4.13345                      -7.43890                     -13.92513
                      -4.10314                      -7.67248                     -13.73934
                      -4.08806                      -7.78928                     -13.64643
        </DataArray>
      </Points>
      <PointData>
        <DataArray type="Float32" Name="Force" NumberOfComponents="3" format="ascii">
                   -6033.49888                   -1843.65519                  -11574.11569
                   10367.24386                   11178.85214                   32392.05848
                    6648.22389                  -16458.89870                   36092.35585
                   18623.28361                   36098.73353                   74245.57486
                  -15166.36578                  -34517.21708                  -35562.96107
                  -15730.24611                    2008.87233                  -49082.02180
                  -24063.29251                   14941.00560                  -48783.47697
                    4811.97618                   39807.72598                   -5530.38732
                   -4360.05509                   19981.94701                  -18267.14750
                    -207.75392                   24157.65462                    4189.96254
                   -2932.04922                    7089.30301                   -6921.88363
                   -1941.85566                   10751.21863                   -3811.52799
                   -1645.32975                    9393.07929                   -4604.02717
                    -735.07205                    9329.65625                   -4150.16584
                     -53.87261                    8654.79454                   -4318.15942
                    1064.92015                    8416.96833                   -4292.35333
                    2264.66190                    8181.04006                   -4253.66330
                    3402.43033                    7768.57460                   -4234.67892
                    4739.48994                    7292.94283                   -4266.12075
                    6184.54316                    7210.82988                   -4389.02792
                    7804.05391                    6913.63358                   -4427.89001
                    9381.77445                    6597.58326                   -4590.06944
                   10970.86290                    6465.93722                   -4578.77684
                   12616.46529                    6038.40596                   -4684.60235
                   14106.36531                    5921.02641                   -4775.43318
                   15659.63622                    5791.77368                   -4969.77619
                   16902.87221                    5301.62957                   -4723.66469
                   17901.18090                    5747.44229                   -5294.42305
                   18611.08342                    3245.18005                   -3269.59413
                   16773.64973                   11480.37030                  -10038.64962
                   18798.99860                  -20810.55262                   17354.26431
                  -15224.49487                  134107.13548                 -106429.28855
        </DataArray>
        <DataArray type="Float32" Name="Moment" NumberOfComponents="3" format="ascii">
                     120.44968                     154.24099                     136.17788
                    1400.82870                    -550.74555                    -582.45240
                    2142.13390                    -179.85680                    -483.14515
                    -846.90050                    -442.58368                     608.26812
                   -3274.81805                     720.23760                     280.95498
                   -3648.45277                    1559.71037                    1410.07113
                   -5650.66954                     416.60618                    2658.19917
                   -4163.04170                     917.86983                     894.19929
                   -3918.39622                    1144.54932                    1426.61579
                   -1513.12819                       6.84341                     732.18347
                   -1886.51809                     419.57420                     423.08737
                    -890.11796                     199.54359                     347.13084
                   -1270.52973                     230.71417                     359.17448
                   -1031.10896                     194.05003                     306.88618
                   -1024.42851                     178.76469                     292.10264
                    -932.87574                     160.88957                     255.05175
                    -887.18346                     153.87561                     244.67068
                    -823.65208                     127.17280                     235.14517
                    -751.35245                     107.83764                     211.26436
                    -708.26066                      93.02483                     199.29567
                    -660.57831                      85.35388                     179.55827
                    -601.24406                      76.42957                     169.70376
                    -553.64972                      59.64556                     157.02152
                    -498.92221                      54.24272                     143.93008
                    -454.46322                      36.71883                     135.24080
                    -420.18450                      35.80317                     118.24926
                    -356.54347                      24.93995                     107.35249
                    -353.32451                      24.31592                      99.86132
                    -195.45867                       9.98621                      64.30707
                    -635.41950                      40.64051                     173.73323
                    1359.12329                    -116.70399                    -358.82592
                   -8563.71940                     649.98391                    2220.84054
        </DataArray>
        <DataArray type="Float32" Name="TranslationalVelocity" NumberOfComponents="3" format="ascii">
                       0.84757                      -0.83805                      -0.73575
                       0.84978                      -0.95991                      -0.88560
                       0.85413                      -1.20366                      -1.18536
                       0.85824                      -1.44747                      -1.48530
                       0.86202                      -1.69129                      -1.78539
                       0.86537                      -1.93506                      -2.08562
                       0.86818                      -2.17872                      -2.38596
                       0.87042                      -2.42227                      -2.68639
                       0.87201                      -2.66568                      -2.98690
                       0.87276                      -2.90892                      -3.28750
                       0.87255                      -3.15198                      -3.58817
                       0.87123                      -3.39484                      -3.88889
                       0.86871                      -3.63752                      -4.18967
                       0.86501                      -3.88003                      -4.49047
                       0.86010                      -4.12238                      -4.79129
                       0.85372                      -4.36455                      -5.09212
                       0.84579                      -4.60657                      -5.39293
                       0.83626                      -4.84843                      -5.69370
                       0.82509                      -5.09017                      -5.99442
                       0.81245                      -5.33181                      -6.29506
                       0.79837                      -5.57337                      -6.59562
                       0.78266                      -5.81485                      -6.89607
                       0.76539                      -6.05627                      -7.19639
                       0.74667                      -6.29765                      -7.49657
                       0.72663                      -6.53900                      -7.79661
                       0.70556                      -6.78034                      -8.09653
                       0.68360                      -7.02167                      -8.39634
                       0.66084                      -7.26300                      -8.69604
                       0.63758                      -7.50433                      -8.99565
                       0.61416                      -7.74564                      -9.29523
                       0.59101                      -7.98692                      -9.59482
                       0.57952                      -8.10756                      -9.74462
        </DataArray>
        <DataArray type="Float32" Name="RotationalVelocity" NumberOfComponents="3" format="ascii">
                       1.28659                       0.05591                      -0.02604
                       1.28692                       0.05573                      -0.02627
                       1.28750                       0.05528                      -0.02684
                       1.28792                       0.05469                      -0.02757
                       1.28818                       0.05394                      -0.02850
                       1.28830                       0.05300                      -0.02966
                       1.28829                       0.05186                      -0.03105
                       1.28816                       0.05049                      -0.03274
                       1.28796                       0.04886                      -0.03473
                       1.28772                       0.04702                      -0.03700
                       1.28743                       0.04495                      -0.03953
                       1.28712                       0.04266                      -0.04234
                       1.28678                       0.04016                      -0.04540
                       1.28643                       0.03745                      -0.04873
                       1.28609                       0.03454                      -0.05229
                       1.28574                       0.03149                      -0.05603
                       1.28541                       0.02833                      -0.05992
                       1.28508                       0.02507                      -0.06392
                       1.28478                       0.02176                      -0.06798
                       1.28449                       0.01843                      -0.07206
                       1.28424                       0.01515                      -0.07609
                       1.28400                       0.01197                      -0.07999
                       1.28379                       0.00894                      -0.08372
                       1.28360                       0.00611                      -0.08720
                       1.28343                       0.00353                      -0.09036
                       1.28329                       0.00133                      -0.09306
                       1.28317                      -0.00041                      -0.09519
                       1.28306                      -0.00164                      -0.09670
                       1.28297                      -0.00229                      -0.09751
                       1.28288                      -0.00229                      -0.09750
                       1.28279                      -0.00161                      -0.09666
                       1.28274                      -0.00104                      -0.09597
        </DataArray>
        <DataArray type="Float32" Name="TranslationalAcceleration" NumberOfComponents="3" format="ascii">
                       0.56583                       1.24059                      -0.90542
                       0.54996                       1.44097                      -1.05277
                       0.52028                       1.84366                      -1.34538
                       0.49543                       2.25092                      -1.63306
                       0.47434                       2.66195                      -1.91655
                       0.45599                       3.07615                      -2.19633
                       0.43940                       3.49309                      -2.47275
                       0.42357                       3.91221                      -2.74636
                       0.40797                       4.33335                      -3.01728
                       0.39178                       4.75660                      -3.28527
                       0.37411                       5.18180                      -3.55042
                       0.35415                       5.60884                      -3.81276
                       0.33115                       6.03766                      -4.07228
                       0.30493                       6.46801                      -4.32930
                       0.27515                       6.89983                      -4.58379
                       0.24082                       7.33329                      -4.83539
                       0.20146                       7.76831                      -5.08409
                       0.15669                       8.20482                      -5.32986
                       0.10622                       8.64274                      -5.57273
                       0.05059                       9.08180                      -5.81307
                      -0.01023                       9.52194                      -6.05094
                      -0.07693                       9.96315                      -6.28613
                      -0.14936                      10.40528                      -6.51881
                      -0.22721                      10.84813                      -6.74923
                      -0.31002                      11.29150                      -6.97773
                      -0.39671                      11.73516                      -7.20482
                      -0.48684                      12.17898                      -7.43077
                      -0.58008                      12.62277                      -7.65589
                      -0.67536                      13.06628                      -7.88073
                      -0.77138                      13.50927                      -8.10597
                      -0.86655                      13.95144                      -8.33235
                      -0.91387                      14.17235                      -8.44582
        </DataArray>
        <DataArray type="Float32" Name="RotationalAcceleration" NumberOfComponents="3" format="ascii">
                      -0.07064                       0.02585                      -0.06964
                      -0.08248                       0.03160                      -0.06290
                      -0.10427                       0.04219                      -0.05083
                      -0.12326                       0.05131                      -0.04107
                      -0.13975                       0.05892                      -0.03376
                      -0.15425                       0.06507                      -0.02887
                      -0.16725                       0.06981                      -0.02639
                      -0.17907                       0.07298                      -0.02663
                      -0.19012                       0.07468                      -0.02951
                      -0.20073                       0.07517                      -0.03460
                      -0.21104                       0.07454                      -0.04180
                      -0.22121                       0.07288                      -0.05098
                      -0.23136                       0.07026                      -0.06200
                      -0.24158                       0.06667                      -0.07493
                      -0.25193                       0.06224                      -0.08952
                      -0.26239                       0.05715                      -0.10537
                      -0.27294                       0.05151                      -0.12229
                      -0.28353                       0.04540                      -0.14007
                      -0.29407                       0.03893                      -0.15847
                      -0.30442                       0.03220                      -0.17725
                      -0.31439                       0.02538                      -0.19600
                      -0.32383                       0.01862                      -0.21437
                      -0.33257                       0.01206                      -0.23203
                      -0.34042                       0.00583                      -0.24866
                      -0.34718                       0.00008                      -0.26390
                      -0.35244                      -0.00493                      -0.27706
                      -0.35586                      -0.00897                      -0.28755
                      -0.35739                      -0.01195                      -0.29515
                      -0.35680                      -0.01368                      -0.29940
                      -0.35387                      -0.01399                      -0.29982
                      -0.34856                      -0.01280                      -0.29626
                      -0.34516                      -0.01172                      -0.29319
        </DataArray>
        <DataArray type="Float32" Name="OrientationX" NumberOfComponents="3" format="ascii">
                       0.97122                      -0.14047                      -0.19235
                       0.97122                      -0.14028                      -0.19251
                       0.97121                      -0.13979                      -0.19290
                       0.97120                      -0.13913                      -0.19344
                       0.97118                      -0.13824                      -0.19416
                       0.97116                      -0.13713                      -0.19506
                       0.97113                      -0.13577                      -0.19617
                       0.97630                      -0.11990                      -0.18015
                       0.98020                      -0.10605                      -0.16719
                       0.98323                      -0.09362                      -0.15652
                       0.98553                      -0.08254                      -0.14803
                       0.98736                      -0.07227                      -0.14104
                       0.98877                      -0.06283                      -0.13558
                       0.98988                      -0.05389                      -0.13125
                       0.99075                      -0.04537                      -0.12789
                       0.99142                      -0.03723                      -0.12533
                       0.99190                      -0.02949                      -0.12355
                       0.99226                      -0.02198                      -0.12224
                       0.99250                      -0.01472                      -0.12139
                       0.99265                      -0.00767                      -0.12081
                       0.99272                      -0.00090                      -0.12045
                       0.99274                       0.00565                      -0.12013
                       0.99271                       0.01179                      -0.11993
                       0.99267                       0.01770                      -0.11954
                       0.99263                       0.02330                      -0.11889
                       0.99261                       0.02834                      -0.11802
                       0.99262                       0.03282                      -0.11670
                       0.99271                       0.03681                      -0.11476
                       0.99287                       0.04011                      -0.11227
                       0.99312                       0.04273                      -0.10901
                       0.99347                       0.04464                      -0.10497
                       0.99356                       0.04397                      -0.10443
        </DataArray>
        <DataArray type="Float32" Name="OrientationY" NumberOfComponents="3" format="ascii">
                       0.23784                       0.61535                       0.75152
                       0.23784                       0.61535                       0.75152
                       0.23784                       0.61535                       0.75152
                       0.23784                       0.61535                       0.75152
                       0.23784                       0.61535                       0.75152
                       0.23784                       0.61535                       0.75152
                       0.23784                       0.61536                       0.75151
                       0.21540                       0.61833                       0.75583
                       0.19662                       0.62052                       0.75914
                       0.18051                       0.62218                       0.76178
                       0.16694                       0.62341                       0.76387
                       0.15506                       0.62436                       0.76559
                       0.14489                       0.62507                       0.76701
                       0.13591                       0.62561                       0.76820
                       0.12796                       0.62603                       0.76923
                       0.12087                       0.62634                       0.77013
                       0.11465                       0.62656                       0.77090
                       0.10894                       0.62671                       0.77160
                       0.10375                       0.62682                       0.77223
                       0.09890                       0.62688                       0.77281
                       0.09440                       0.62691                       0.77335
                       0.09008                       0.62691                       0.77387
                       0.08610                       0.62688                       0.77434
                       0.08213                       0.62683                       0.77482
                       0.07815                       0.62675                       0.77529
                       0.07434                       0.62666                       0.77574
                       0.07054                       0.62654                       0.77619
                       0.06656                       0.62640                       0.77665
                       0.06258                       0.62625                       0.77711
                       0.05842                       0.62607                       0.77757
                       0.05408                       0.62588                       0.77804
                       0.05408                       0.62588                       0.77804
        </DataArray>
        <DataArray type="Float32" Name="OrientationZ" NumberOfComponents="3" format="ascii">
                       0.01280                      -0.77564                       0.63105
                       0.01304                      -0.77567                       0.63100
                       0.01364                      -0.77576                       0.63088
                       0.01448                      -0.77588                       0.63072
                       0.01558                      -0.77604                       0.63050
                       0.01698                      -0.77623                       0.63022
                       0.01868                      -0.77646                       0.62989
                       0.02077                      -0.77672                       0.62950
                       0.02324                      -0.77699                       0.62909
                       0.02607                      -0.77726                       0.62864
                       0.02923                      -0.77753                       0.62817
                       0.03274                      -0.77779                       0.62767
                       0.03656                      -0.77804                       0.62715
                       0.04071                      -0.77827                       0.62661
                       0.04516                      -0.77848                       0.62604
                       0.04983                      -0.77866                       0.62546
                       0.05467                      -0.77882                       0.62486
                       0.05966                      -0.77894                       0.62426
                       0.06472                      -0.77903                       0.62364
                       0.06981                      -0.77908                       0.62303
                       0.07482                      -0.77909                       0.62243
                       0.07968                      -0.77907                       0.62185
                       0.08432                      -0.77902                       0.62130
                       0.08865                      -0.77896                       0.62078
                       0.09258                      -0.77887                       0.62031
                       0.09595                      -0.77878                       0.61992
                       0.09859                      -0.77870                       0.61961
                       0.10048                      -0.77863                       0.61939
                       0.10148                      -0.77859                       0.61927
                       0.10147                      -0.77859                       0.61927
                       0.10043                      -0.77864                       0.61938
                       0.09957                      -0.77868                       0.61947
        </DataArray>
      </PointData>
      <Lines>
        <DataArray type="Int32" Name="connectivity" format="ascii">
      0      1
      1      2
      2      3
      3      4
      4      5
      5      6
      6      7
      7      8
      8      9
      9     10
     10     11
     11     12
     12     13
     13     14
     14     15
     15     16
     16     17
     17     18
     18     19
     19     20
     20     21
     21     22
     22     23
     23     24
     24     25
     25     26
     26     27
     27     28
     28     29
     29     30
     30     31
        </DataArray>
        <DataArray type="Int32" Name="offsets" format="ascii">
      2
      4
      6
      8
     10
     12
     14
     16
     18
     20
     22
     24
     26
     28
     30
     32
     34
     36
     38
     40
     42
     44
     46
     48
     50
     52
     54
     56
     58
     60
     62
        </DataArray>
      </Lines>
    </Piece>
  </PolyData>
</VTKFile>
