<?xml version="1.0"?>
<VTKFile type="PolyData" version="0.1" byte_order="LittleEndian">
  <PolyData>
    <Piece NumberOfPoints="     32" NumberOfVerts="  0" NumberOfLines="     31"
           NumberOfStrips="  0" NumberOfPolys="      0">
      <Points>
        <DataArray type="Float32" NumberOfComponents="3" format="ascii">
                      -4.22232                      -1.00864                     -19.61768
                      -4.22113                      -1.15629                     -19.59127
                      -4.21869                      -1.45160                     -19.53848
                      -4.21613                      -1.74691                     -19.48573
                      -4.21338                      -2.04224                     -19.43306
                      -4.21039                      -2.33758                     -19.38047
                      -4.20709                      -2.63293                     -19.32797
                      -4.20346                      -2.92830                     -19.27557
                      -4.19945                      -3.22367                     -19.22327
                      -4.19494                      -3.51907                     -19.17108
                      -4.18987                      -3.81447                     -19.11903
                      -4.18415                      -4.10989                     -19.06710
                      -4.17771                      -4.40531                     -19.01531
                      -4.17059                      -4.70074                     -18.96364
                      -4.16275                      -4.99618                     -18.91210
                      -4.15404                      -5.29162                     -18.86070
                      -4.14441                      -5.58705                     -18.80944
                      -4.13384                      -5.88247                     -18.75833
                      -4.12230                      -6.17789                     -18.70737
                      -4.10990                      -6.47329                     -18.65652
                      -4.09664                      -6.76867                     -18.60579
                      -4.08242                      -7.06403                     -18.55520
                      -4.06728                      -7.35936                     -18.50472
                      -4.05128                      -7.65467                     -18.45435
                      -4.03450                      -7.94995                     -18.40408
                      -4.01711                      -8.24521                     -18.35387
                      -3.99919                      -8.54045                     -18.30373
                      -3.98080                      -8.83567                     -18.25365
                      -3.96211                      -9.13087                     -18.20359
                      -3.94332                      -9.42607                     -18.15354
                      -3.92470                      -9.72127                     -18.10347
                      -3.91544                      -9.86888                     -18.07843
        </DataArray>
      </Points>
      <PointData>
        <DataArray type="Float32" Name="Force" NumberOfComponents="3" format="ascii">
                   -6013.29319                    4285.12586                  -10191.75038
                   11758.61493                   -5932.03029                   35144.95985
                   10354.64129                  -32780.92183                   24267.41576
                   25139.12284                   -4287.43120                   85528.59559
                  -13892.71964                  -12783.87941                  -48552.13768
                  -14437.42138                   27120.10353                  -43377.65278
                  -23316.34950                   39142.51014                  -37120.63161
                    8136.65352                   39913.46378                   15020.55846
                   -2790.26302                   28390.17697                   -6761.96054
                    1726.43121                   20723.29397                   16607.37231
                   -2196.55841                   10540.57212                   -2698.41094
                   -1371.90898                   12451.20962                    2162.26294
                   -1455.69018                   11670.09491                     728.35948
                    -893.99893                   11432.81558                    1155.75066
                    -704.15751                   10937.06923                     672.96785
                      13.14587                   10737.15079                     597.95730
                     777.70427                   10523.29481                     546.42642
                    1411.91149                   10125.59018                     388.67751
                    2307.29770                    9671.97792                     133.70908
                    3260.32852                    9651.44123                      16.21658
                    4374.00121                    9338.89748                    -135.03650
                    5477.65455                    9063.71186                    -429.69005
                    6603.69027                    8866.62394                    -432.24642
                    7776.07130                    8405.59713                    -732.07876
                    8814.69436                    8264.21989                    -835.98587
                    9982.51734                    8169.50329                   -1070.57133
                   10798.48501                    7407.61426                   -1041.94918
                   11437.33109                    8253.80804                   -1376.96462
                   11668.72465                    4052.37134                    -614.85059
                    9474.52531                   18074.14625                   -3254.21088
                    9953.69645                  -36919.79678                    7748.61191
                  -11818.29774                  224242.73741                  -37969.39359
        </DataArray>
        <DataArray type="Float32" Name="Moment" NumberOfComponents="3" format="ascii">
                     191.26295                      74.13337                     188.18373
                    1430.00971                    -214.24696                    -807.62846
                    2185.47192                      45.59006                    -591.23636
                    -986.93341                    -735.84541                     394.58618
                   -3370.26379                     470.15693                     723.96263
                   -3762.73435                     657.32013                    2218.48286
                   -5860.98052                   -1010.69645                    2831.42558
                   -4410.23983                     362.55772                    1456.93250
                   -4123.84820                     316.42496                    2051.89836
                   -1638.12886                    -416.92565                     758.05227
                   -2026.60681                     147.86504                     688.27962
                    -973.42902                     -33.52906                     477.37623
                   -1391.67959                       8.90746                     513.10539
                   -1142.91923                       5.12964                     444.35438
                   -1143.82832                      -2.70151                     423.52974
                   -1052.25318                       5.37846                     373.71779
                   -1009.08830                       9.89091                     361.98801
                    -946.20502                      -8.56817                     335.37150
                    -871.87367                      -6.23821                     298.29831
                    -829.50190                     -10.58433                     282.02892
                    -781.23045                      -7.72988                     256.74311
                    -718.18581                      -7.60414                     239.09999
                    -668.38717                     -15.09735                     217.21918
                    -608.28246                     -11.80054                     198.74076
                    -560.69084                     -22.42994                     179.02200
                    -523.38413                     -12.87257                     162.27552
                    -448.75515                     -20.31097                     142.08328
                    -450.96984                     -14.42398                     134.69554
                    -248.14200                     -15.96126                      81.86160
                    -835.25775                     -24.21533                     240.94920
                    1797.79552                      18.94994                    -523.98261
                  -11303.85298                    -172.84442                    3221.98491
        </DataArray>
        <DataArray type="Float32" Name="TranslationalVelocity" NumberOfComponents="3" format="ascii">
                       0.93076                      -0.25069                      -0.93523
                       0.92439                      -0.28339                      -1.11778
                       0.91164                      -0.34879                      -1.48297
                       0.89882                      -0.41415                      -1.84831
                       0.88588                      -0.47945                      -2.21377
                       0.87271                      -0.54468                      -2.57931
                       0.85923                      -0.60981                      -2.94489
                       0.84539                      -0.67484                      -3.31049
                       0.83114                      -0.73977                      -3.67610
                       0.81634                      -0.80458                      -4.04169
                       0.80088                      -0.86927                      -4.40727
                       0.78465                      -0.93384                      -4.77281
                       0.76758                      -0.99829                      -5.13830
                       0.74967                      -1.06263                      -5.50375
                       0.73089                      -1.12688                      -5.86915
                       0.71106                      -1.19102                      -6.23449
                       0.69011                      -1.25508                      -6.59976
                       0.66799                      -1.31905                      -6.96496
                       0.64467                      -1.38296                      -7.33009
                       0.62029                      -1.44682                      -7.69516
                       0.59484                      -1.51064                      -8.06016
                       0.56820                      -1.57444                      -8.42508
                       0.54042                      -1.63822                      -8.78992
                       0.51157                      -1.70200                      -9.15469
                       0.48174                      -1.76579                      -9.51939
                       0.45116                      -1.82959                      -9.88404
                       0.41992                      -1.89340                     -10.24863
                       0.38809                      -1.95723                     -10.61318
                       0.35589                      -2.02108                     -10.97768
                       0.32357                      -2.08493                     -11.34217
                       0.29144                      -2.14877                     -11.70664
                       0.27544                      -2.18069                     -11.88887
        </DataArray>
        <DataArray type="Float32" Name="RotationalVelocity" NumberOfComponents="3" format="ascii">
                       1.23561                       0.06343                      -0.05446
                       1.23589                       0.06343                      -0.05448
                       1.23637                       0.06341                      -0.05462
                       1.23672                       0.06335                      -0.05495
                       1.23695                       0.06325                      -0.05549
                       1.23706                       0.06311                      -0.05628
                       1.23707                       0.06293                      -0.05732
                       1.23697                       0.06269                      -0.05866
                       1.23680                       0.06239                      -0.06031
                       1.23659                       0.06204                      -0.06224
                       1.23633                       0.06165                      -0.06445
                       1.23603                       0.06120                      -0.06693
                       1.23571                       0.06071                      -0.06967
                       1.23537                       0.06017                      -0.07268
                       1.23502                       0.05958                      -0.07592
                       1.23467                       0.05897                      -0.07935
                       1.23431                       0.05832                      -0.08293
                       1.23396                       0.05766                      -0.08661
                       1.23362                       0.05699                      -0.09038
                       1.23330                       0.05630                      -0.09417
                       1.23299                       0.05563                      -0.09791
                       1.23270                       0.05498                      -0.10155
                       1.23244                       0.05436                      -0.10502
                       1.23219                       0.05377                      -0.10827
                       1.23198                       0.05324                      -0.11123
                       1.23180                       0.05279                      -0.11376
                       1.23165                       0.05243                      -0.11576
                       1.23153                       0.05217                      -0.11718
                       1.23144                       0.05204                      -0.11794
                       1.23137                       0.05203                      -0.11794
                       1.23134                       0.05217                      -0.11717
                       1.23132                       0.05229                      -0.11653
        </DataArray>
        <DataArray type="Float32" Name="TranslationalAcceleration" NumberOfComponents="3" format="ascii">
                      -0.11213                       1.51445                      -0.13542
                      -0.13543                       1.74465                      -0.15019
                      -0.18128                       2.20549                      -0.17808
                      -0.22530                       2.66735                      -0.20215
                      -0.26758                       3.12998                      -0.22307
                      -0.30814                       3.59319                      -0.24139
                      -0.34697                       4.05683                      -0.25749
                      -0.38425                       4.52076                      -0.27189
                      -0.41994                       4.98492                      -0.28472
                      -0.45378                       5.44928                      -0.29597
                      -0.48565                       5.91378                      -0.30577
                      -0.51544                       6.37841                      -0.31422
                      -0.54302                       6.84315                      -0.32138
                      -0.56854                       7.30801                      -0.32742
                      -0.59194                       7.77298                      -0.33237
                      -0.61284                       8.23811                      -0.33608
                      -0.63115                       8.70342                      -0.33857
                      -0.64680                       9.16893                      -0.33985
                      -0.65977                       9.63470                      -0.33994
                      -0.67037                      10.10070                      -0.33902
                      -0.67862                      10.56696                      -0.33712
                      -0.68427                      11.03352                      -0.33416
                      -0.68743                      11.50040                      -0.33025
                      -0.68829                      11.96760                      -0.32549
                      -0.68707                      12.43508                      -0.32006
                      -0.68425                      12.90278                      -0.31416
                      -0.68004                      13.37068                      -0.30792
                      -0.67461                      13.83873                      -0.30150
                      -0.66842                      14.30683                      -0.29515
                      -0.66204                      14.77485                      -0.28918
                      -0.65615                      15.24264                      -0.28393
                      -0.65334                      15.47648                      -0.28148
        </DataArray>
        <DataArray type="Float32" Name="RotationalAcceleration" NumberOfComponents="3" format="ascii">
                      -0.16387                       0.00277                      -0.07093
                      -0.17086                       0.00330                      -0.06790
                      -0.18362                       0.00447                      -0.06207
                      -0.19451                       0.00584                      -0.05652
                      -0.20366                       0.00745                      -0.05117
                      -0.21134                       0.00936                      -0.04592
                      -0.21782                       0.01158                      -0.04068
                      -0.22328                       0.01420                      -0.03540
                      -0.22804                       0.01723                      -0.02998
                      -0.23234                       0.02065                      -0.02435
                      -0.23632                       0.02446                      -0.01846
                      -0.24009                       0.02866                      -0.01230
                      -0.24372                       0.03322                      -0.00583
                      -0.24731                       0.03818                       0.00096
                      -0.25092                       0.04349                       0.00805
                      -0.25457                       0.04905                       0.01536
                      -0.25827                       0.05483                       0.02285
                      -0.26201                       0.06077                       0.03046
                      -0.26577                       0.06681                       0.03813
                      -0.26950                       0.07287                       0.04576
                      -0.27314                       0.07884                       0.05322
                      -0.27660                       0.08464                       0.06041
                      -0.27983                       0.09016                       0.06723
                      -0.28272                       0.09532                       0.07355
                      -0.28520                       0.10000                       0.07925
                      -0.28708                       0.10401                       0.08409
                      -0.28820                       0.10715                       0.08784
                      -0.28851                       0.10939                       0.09045
                      -0.28791                       0.11057                       0.09175
                      -0.28626                       0.11056                       0.09157
                      -0.28354                       0.10931                       0.08986
                      -0.28184                       0.10829                       0.08852
        </DataArray>
        <DataArray type="Float32" Name="OrientationX" NumberOfComponents="3" format="ascii">
                       0.96431                      -0.03920                      -0.26186
                       0.96431                      -0.03903                      -0.26189
                       0.96431                      -0.03862                      -0.26196
                       0.96430                      -0.03808                      -0.26206
                       0.96429                      -0.03737                      -0.26218
                       0.96429                      -0.03647                      -0.26234
                       0.96427                      -0.03539                      -0.26253
                       0.97010                      -0.03012                      -0.24084
                       0.97455                      -0.02526                      -0.22274
                       0.97806                      -0.02066                      -0.20728
                       0.98080                      -0.01631                      -0.19434
                       0.98302                      -0.01206                      -0.18308
                       0.98480                      -0.00792                      -0.17351
                       0.98626                      -0.00379                      -0.16515
                       0.98747                       0.00034                      -0.15783
                       0.98847                       0.00444                      -0.15137
                       0.98928                       0.00850                      -0.14576
                       0.98998                       0.01255                      -0.14068
                       0.99056                       0.01655                      -0.13611
                       0.99105                       0.02051                      -0.13187
                       0.99148                       0.02435                      -0.12797
                       0.99186                       0.02808                      -0.12422
                       0.99218                       0.03161                      -0.12078
                       0.99248                       0.03494                      -0.11730
                       0.99278                       0.03804                      -0.11379
                       0.99305                       0.04075                      -0.11038
                       0.99334                       0.04303                      -0.10689
                       0.99365                       0.04487                      -0.10315
                       0.99398                       0.04617                      -0.09932
                       0.99435                       0.04689                      -0.09521
                       0.99476                       0.04700                      -0.09082
                       0.99479                       0.04648                      -0.09073
        </DataArray>
        <DataArray type="Float32" Name="OrientationY" NumberOfComponents="3" format="ascii">
                       0.26466                       0.17191                       0.94890
                       0.26466                       0.17187                       0.94890
                       0.26466                       0.17180                       0.94892
                       0.26466                       0.17174                       0.94893
                       0.26466                       0.17169                       0.94894
                       0.26466                       0.17164                       0.94894
                       0.26466                       0.17161                       0.94895
                       0.24238                       0.17235                       0.95475
                       0.22371                       0.17287                       0.95920
                       0.20769                       0.17324                       0.96273
                       0.19419                       0.17348                       0.96550
                       0.18237                       0.17364                       0.96778
                       0.17224                       0.17373                       0.96962
                       0.16329                       0.17377                       0.97115
                       0.15537                       0.17377                       0.97245
                       0.14830                       0.17374                       0.97356
                       0.14209                       0.17369                       0.97450
                       0.13640                       0.17361                       0.97532
                       0.13122                       0.17352                       0.97605
                       0.12638                       0.17341                       0.97671
                       0.12188                       0.17330                       0.97730
                       0.11756                       0.17317                       0.97785
                       0.11358                       0.17303                       0.97834
                       0.10960                       0.17289                       0.97882
                       0.10562                       0.17273                       0.97929
                       0.10181                       0.17257                       0.97972
                       0.09800                       0.17240                       0.98014
                       0.09402                       0.17223                       0.98056
                       0.09003                       0.17205                       0.98097
                       0.08587                       0.17186                       0.98137
                       0.08152                       0.17166                       0.98178
                       0.08152                       0.17167                       0.98178
        </DataArray>
        <DataArray type="Float32" Name="OrientationZ" NumberOfComponents="3" format="ascii">
                       0.00782                      -0.98433                       0.17615
                       0.00797                      -0.98435                       0.17607
                       0.00835                      -0.98437                       0.17589
                       0.00887                      -0.98441                       0.17569
                       0.00956                      -0.98444                       0.17545
                       0.01042                      -0.98448                       0.17517
                       0.01147                      -0.98453                       0.17485
                       0.01276                      -0.98458                       0.17450
                       0.01428                      -0.98462                       0.17412
                       0.01602                      -0.98466                       0.17373
                       0.01796                      -0.98470                       0.17332
                       0.02012                      -0.98474                       0.17289
                       0.02247                      -0.98476                       0.17245
                       0.02502                      -0.98478                       0.17200
                       0.02775                      -0.98479                       0.17154
                       0.03062                      -0.98478                       0.17108
                       0.03360                      -0.98476                       0.17062
                       0.03666                      -0.98473                       0.17016
                       0.03977                      -0.98469                       0.16971
                       0.04290                      -0.98464                       0.16927
                       0.04598                      -0.98457                       0.16885
                       0.04897                      -0.98449                       0.16846
                       0.05182                      -0.98441                       0.16809
                       0.05448                      -0.98432                       0.16776
                       0.05690                      -0.98423                       0.16746
                       0.05897                      -0.98415                       0.16722
                       0.06061                      -0.98409                       0.16704
                       0.06176                      -0.98403                       0.16691
                       0.06238                      -0.98401                       0.16685
                       0.06238                      -0.98401                       0.16686
                       0.06174                      -0.98403                       0.16693
                       0.06121                      -0.98406                       0.16699
        </DataArray>
      </PointData>
      <Lines>
        <DataArray type="Int32" Name="connectivity" format="ascii">
      0      1
      1      2
      2      3
      3      4
      4      5
      5      6
      6      7
      7      8
      8      9
      9     10
     10     11
     11     12
     12     13
     13     14
     14     15
     15     16
     16     17
     17     18
     18     19
     19     20
     20     21
     21     22
     22     23
     23     24
     24     25
     25     26
     26     27
     27     28
     28     29
     29     30
     30     31
        </DataArray>
        <DataArray type="Int32" Name="offsets" format="ascii">
      2
      4
      6
      8
     10
     12
     14
     16
     18
     20
     22
     24
     26
     28
     30
     32
     34
     36
     38
     40
     42
     44
     46
     48
     50
     52
     54
     56
     58
     60
     62
        </DataArray>
      </Lines>
    </Piece>
  </PolyData>
</VTKFile>
