<?xml version="1.0"?>
<VTKFile type="PolyData" version="0.1" byte_order="LittleEndian">
  <PolyData>
    <Piece NumberOfPoints="     32" NumberOfVerts="  0" NumberOfLines="     31"
           NumberOfStrips="  0" NumberOfPolys="      0">
      <Points>
        <DataArray type="Float32" NumberOfComponents="3" format="ascii">
                      -4.12995                      -1.02618                     -19.71164
                      -4.12950                      -1.17596                     -19.70350
                      -4.12857                      -1.47551                     -19.68723
                      -4.12752                      -1.77507                     -19.67101
                      -4.12630                      -2.07464                     -19.65486
                      -4.12485                      -2.37420                     -19.63877
                      -4.12311                      -2.67377                     -19.62278
                      -4.12107                      -2.97334                     -19.60687
                      -4.11869                      -3.27291                     -19.59106
                      -4.11586                      -3.57249                     -19.57536
                      -4.11252                      -3.87206                     -19.55977
                      -4.10859                      -4.17164                     -19.54430
                      -4.10401                      -4.47121                     -19.52896
                      -4.09882                      -4.77078                     -19.51373
                      -4.09298                      -5.07034                     -19.49862
                      -4.08636                      -5.36990                     -19.48364
                      -4.07891                      -5.66944                     -19.46880
                      -4.07062                      -5.96896                     -19.45408
                      -4.06145                      -6.26846                     -19.43950
                      -4.05151                      -6.56795                     -19.42503
                      -4.04080                      -6.86741                     -19.41066
                      -4.02922                      -7.16685                     -19.39641
                      -4.01682                      -7.46626                     -19.38228
                      -4.00364                      -7.76564                     -19.36824
                      -3.98977                      -8.06500                     -19.35428
                      -3.97535                      -8.36433                     -19.34039
                      -3.96045                      -8.66364                     -19.32655
                      -3.94512                      -8.96293                     -19.31277
                      -3.92953                      -9.26221                     -19.29901
                      -3.91386                      -9.56148                     -19.28525
                      -3.89833                      -9.86076                     -19.27148
                      -3.89060                     -10.01041                     -19.26459
        </DataArray>
      </Points>
      <PointData>
        <DataArray type="Float32" Name="Force" NumberOfComponents="3" format="ascii">
                   -6044.52942                    5562.81550                   -9576.36988
                   12035.38408                  -10300.43875                   34330.81549
                   10808.79366                  -35836.70246                   20101.74640
                   26375.58537                  -14949.64666                   85059.13792
                  -13855.10547                   -6698.87499                  -50137.81046
                  -14114.10585                   32714.02309                  -40260.09287
                  -22980.25649                   44181.29904                  -32574.56899
                    9309.24711                   38381.21352                   19896.08308
                   -1963.21192                   29583.38381                   -3419.10909
                    2757.37360                   18923.11110                   19286.23058
                   -1401.07595                   11063.29299                   -1491.63447
                    -508.79113                   12412.49361                    3674.89686
                    -600.72777                   11825.84330                    2136.56386
                     -47.97064                   11549.93165                    2551.06498
                      86.21587                   11127.08227                    2012.16288
                     756.53481                   10948.33191                    1920.63448
                    1455.57917                   10751.07385                    1853.54396
                    1989.10657                   10375.59580                    1657.70837
                    2780.61774                    9950.24699                    1352.47871
                    3605.07695                    9950.07097                    1246.70212
                    4563.04365                    9647.62141                    1071.14266
                    5500.42230                    9398.88294                     751.89095
                    6446.60823                    9190.21988                     747.43214
                    7418.92667                    8740.73841                     401.74096
                    8244.41212                    8597.27245                     301.34849
                    9194.54549                    8516.59711                      68.37104
                    9771.55103                    7702.32300                      27.04491
                   10181.71291                    8634.20266                    -192.90461
                   10125.30786                    4090.22975                      87.83571
                    7707.71686                   19292.62283                    -876.53589
                    7369.03021                  -40309.46379                    3612.14894
                  -10117.69724                  242254.76901                  -11078.51141
        </DataArray>
        <DataArray type="Float32" Name="Moment" NumberOfComponents="3" format="ascii">
                     201.39268                      50.67947                     195.01424
                    1424.30738                    -121.96503                    -836.67177
                    2207.93436                     105.99529                    -603.90265
                   -1022.81877                    -784.43228                     319.45945
                   -3388.92101                     392.59855                     804.94737
                   -3797.26230                     398.47194                    2340.19823
                   -5932.15858                   -1346.03301                    2764.14869
                   -4483.60602                     201.88235                    1551.37390
                   -4184.23292                      82.29365                    2141.73739
                   -1675.97405                    -513.32080                     729.73704
                   -2065.54088                      70.39665                     731.05009
                    -997.56466                     -93.59518                     488.99208
                   -1425.67856                     -50.69973                     533.32230
                   -1174.19987                     -46.71119                     463.02848
                   -1177.05275                     -52.63155                     441.36957
                   -1085.30730                     -37.82938                     391.06485
                   -1042.65279                     -31.27557                     380.29641
                    -979.86795                     -46.85404                     350.42198
                    -904.80899                     -38.83830                     312.44139
                    -862.50038                     -41.04908                     296.01534
                    -813.98228                     -35.36412                     270.22687
                    -749.82718                     -32.74638                     251.69119
                    -699.34148                     -37.64214                     228.32166
                    -637.69750                     -31.98044                     209.30949
                    -589.18911                     -40.31872                     187.46217
                    -550.97309                     -28.42832                     171.60449
                    -473.37553                     -34.33922                     149.09036
                    -477.01241                     -26.94360                     142.47830
                    -261.98725                     -23.88397                      85.36551
                    -888.92714                     -46.51947                     256.85571
                    1916.62135                      68.22694                    -563.69474
                  -12033.20517                    -471.58337                    3462.40640
        </DataArray>
        <DataArray type="Float32" Name="TranslationalVelocity" NumberOfComponents="3" format="ascii">
                       0.91534                      -0.10024                      -0.94170
                       0.90665                      -0.11019                      -1.12419
                       0.88925                      -0.13007                      -1.48911
                       0.87178                      -0.14988                      -1.85388
                       0.85420                      -0.16962                      -2.21852
                       0.83644                      -0.18927                      -2.58303
                       0.81844                      -0.20883                      -2.94742
                       0.80019                      -0.22829                      -3.31170
                       0.78165                      -0.24767                      -3.67588
                       0.76272                      -0.26693                      -4.03994
                       0.74334                      -0.28608                      -4.40388
                       0.72345                      -0.30513                      -4.76772
                       0.70298                      -0.32407                      -5.13143
                       0.68197                      -0.34291                      -5.49504
                       0.66038                      -0.36167                      -5.85855
                       0.63810                      -0.38033                      -6.22194
                       0.61509                      -0.39891                      -6.58520
                       0.59132                      -0.41741                      -6.94834
                       0.56678                      -0.43584                      -7.31136
                       0.54154                      -0.45421                      -7.67426
                       0.51562                      -0.47254                      -8.03705
                       0.48894                      -0.49083                      -8.39972
                       0.46151                      -0.50908                      -8.76228
                       0.43340                      -0.52732                      -9.12472
                       0.40466                      -0.54554                      -9.48707
                       0.37544                      -0.56376                      -9.84935
                       0.34580                      -0.58198                     -10.21157
                       0.31577                      -0.60020                     -10.57374
                       0.28551                      -0.61843                     -10.93589
                       0.25517                      -0.63666                     -11.29804
                       0.22495                      -0.65489                     -11.66023
                       0.20988                      -0.66401                     -11.84133
        </DataArray>
        <DataArray type="Float32" Name="RotationalVelocity" NumberOfComponents="3" format="ascii">
                       1.21849                       0.06301                      -0.06138
                       1.21822                       0.06300                      -0.06144
                       1.21771                       0.06299                      -0.06162
                       1.21722                       0.06297                      -0.06193
                       1.21675                       0.06295                      -0.06239
                       1.21628                       0.06291                      -0.06300
                       1.21581                       0.06287                      -0.06377
                       1.21535                       0.06281                      -0.06474
                       1.21488                       0.06275                      -0.06591
                       1.21441                       0.06268                      -0.06726
                       1.21393                       0.06259                      -0.06878
                       1.21345                       0.06250                      -0.07046
                       1.21296                       0.06240                      -0.07231
                       1.21246                       0.06229                      -0.07432
                       1.21196                       0.06217                      -0.07647
                       1.21145                       0.06204                      -0.07874
                       1.21095                       0.06191                      -0.08109
                       1.21045                       0.06178                      -0.08352
                       1.20995                       0.06164                      -0.08598
                       1.20947                       0.06151                      -0.08846
                       1.20901                       0.06137                      -0.09090
                       1.20858                       0.06124                      -0.09327
                       1.20818                       0.06112                      -0.09554
                       1.20782                       0.06100                      -0.09765
                       1.20751                       0.06090                      -0.09958
                       1.20725                       0.06081                      -0.10122
                       1.20707                       0.06073                      -0.10252
                       1.20696                       0.06068                      -0.10345
                       1.20693                       0.06066                      -0.10394
                       1.20698                       0.06066                      -0.10394
                       1.20712                       0.06068                      -0.10344
                       1.20721                       0.06071                      -0.10302
        </DataArray>
        <DataArray type="Float32" Name="TranslationalAcceleration" NumberOfComponents="3" format="ascii">
                      -0.19628                       1.49512                       0.07719
                      -0.21869                       1.71915                       0.09110
                      -0.26375                       2.16699                       0.11772
                      -0.30932                       2.61428                       0.14155
                      -0.35505                       3.06107                       0.16304
                      -0.40060                       3.50741                       0.18252
                      -0.44564                       3.95332                       0.20025
                      -0.48994                       4.39886                       0.21656
                      -0.53332                       4.84404                       0.23156
                      -0.57534                       5.28884                       0.24517
                      -0.61569                       5.73327                       0.25747
                      -0.65406                       6.17736                       0.26851
                      -0.69018                       6.62112                       0.27830
                      -0.72410                       7.06460                       0.28698
                      -0.75571                       7.50781                       0.29454
                      -0.78450                       7.95075                       0.30081
                      -0.81030                       8.39342                       0.30578
                      -0.83298                       8.83587                       0.30942
                      -0.85245                       9.27813                       0.31172
                      -0.86906                       9.72023                       0.31285
                      -0.88280                      10.16222                       0.31281
                      -0.89336                      10.60409                       0.31150
                      -0.90083                      11.04589                       0.30896
                      -0.90540                      11.48766                       0.30532
                      -0.90735                      11.92941                       0.30072
                      -0.90726                      12.37118                       0.29541
                      -0.90536                      12.81298                       0.28952
                      -0.90184                      13.25483                       0.28320
                      -0.89729                      13.69674                       0.27673
                      -0.89239                      14.13871                       0.27046
                      -0.88800                      14.58073                       0.26481
                      -0.88596                      14.80175                       0.26213
        </DataArray>
        <DataArray type="Float32" Name="RotationalAcceleration" NumberOfComponents="3" format="ascii">
                      -0.17530                       0.00401                      -0.06797
                      -0.17016                       0.00402                      -0.06915
                      -0.16064                       0.00418                      -0.07097
                      -0.15224                       0.00453                      -0.07193
                      -0.14485                       0.00511                      -0.07197
                      -0.13827                       0.00592                      -0.07108
                      -0.13231                       0.00699                      -0.06926
                      -0.12688                       0.00835                      -0.06637
                      -0.12184                       0.01002                      -0.06241
                      -0.11704                       0.01196                      -0.05756
                      -0.11240                       0.01415                      -0.05187
                      -0.10786                       0.01659                      -0.04538
                      -0.10336                       0.01926                      -0.03814
                      -0.09887                       0.02218                      -0.03015
                      -0.09435                       0.02531                      -0.02149
                      -0.08981                       0.02860                      -0.01233
                      -0.08526                       0.03203                      -0.00276
                      -0.08072                       0.03555                       0.00712
                      -0.07622                       0.03914                       0.01722
                      -0.07181                       0.04274                       0.02740
                      -0.06758                       0.04630                       0.03746
                      -0.06359                       0.04976                       0.04726
                      -0.05990                       0.05305                       0.05663
                      -0.05658                       0.05613                       0.06541
                      -0.05372                       0.05894                       0.07341
                      -0.05149                       0.06134                       0.08029
                      -0.05002                       0.06323                       0.08575
                      -0.04933                       0.06458                       0.08966
                      -0.04951                       0.06529                       0.09180
                      -0.05065                       0.06530                       0.09191
                      -0.05276                       0.06456                       0.08991
                      -0.05412                       0.06395                       0.08823
        </DataArray>
        <DataArray type="Float32" Name="OrientationX" NumberOfComponents="3" format="ascii">
                       0.96248                      -0.01206                      -0.27109
                       0.96248                      -0.01189                      -0.27110
                       0.96248                      -0.01149                      -0.27112
                       0.96247                      -0.01097                      -0.27115
                       0.96247                      -0.01030                      -0.27119
                       0.96247                      -0.00946                      -0.27123
                       0.96246                      -0.00846                      -0.27129
                       0.96845                      -0.00603                      -0.24914
                       0.97304                      -0.00358                      -0.23060
                       0.97668                      -0.00110                      -0.21472
                       0.97952                       0.00143                      -0.20135
                       0.98184                       0.00405                      -0.18965
                       0.98371                       0.00675                      -0.17966
                       0.98525                       0.00957                      -0.17086
                       0.98653                       0.01248                      -0.16308
                       0.98761                       0.01547                      -0.15615
                       0.98850                       0.01851                      -0.15009
                       0.98926                       0.02159                      -0.14454
                       0.98991                       0.02469                      -0.13950
                       0.99048                       0.02778                      -0.13481
                       0.99098                       0.03081                      -0.13045
                       0.99142                       0.03374                      -0.12626
                       0.99181                       0.03653                      -0.12240
                       0.99218                       0.03915                      -0.11854
                       0.99254                       0.04154                      -0.11466
                       0.99287                       0.04361                      -0.11094
                       0.99321                       0.04528                      -0.10720
                       0.99357                       0.04653                      -0.10326
                       0.99393                       0.04729                      -0.09930
                       0.99433                       0.04750                      -0.09513
                       0.99476                       0.04714                      -0.09077
                       0.99478                       0.04666                      -0.09074
        </DataArray>
        <DataArray type="Float32" Name="OrientationY" NumberOfComponents="3" format="ascii">
                       0.27135                       0.05309                       0.96102
                       0.27135                       0.05306                       0.96102
                       0.27135                       0.05301                       0.96102
                       0.27135                       0.05296                       0.96102
                       0.27135                       0.05292                       0.96103
                       0.27135                       0.05289                       0.96103
                       0.27135                       0.05287                       0.96103
                       0.24910                       0.05303                       0.96702
                       0.23047                       0.05312                       0.97163
                       0.21447                       0.05315                       0.97528
                       0.20099                       0.05314                       0.97815
                       0.18918                       0.05310                       0.98051
                       0.17906                       0.05304                       0.98241
                       0.17012                       0.05296                       0.98400
                       0.16221                       0.05286                       0.98534
                       0.15515                       0.05276                       0.98648
                       0.14894                       0.05264                       0.98744
                       0.14325                       0.05251                       0.98829
                       0.13807                       0.05238                       0.98904
                       0.13323                       0.05224                       0.98971
                       0.12874                       0.05210                       0.99031
                       0.12442                       0.05195                       0.99087
                       0.12044                       0.05180                       0.99137
                       0.11646                       0.05164                       0.99185
                       0.11248                       0.05147                       0.99232
                       0.10867                       0.05130                       0.99275
                       0.10486                       0.05113                       0.99317
                       0.10088                       0.05094                       0.99359
                       0.09689                       0.05076                       0.99400
                       0.09273                       0.05056                       0.99441
                       0.08838                       0.05036                       0.99481
                       0.08838                       0.05037                       0.99481
        </DataArray>
        <DataArray type="Float32" Name="OrientationZ" NumberOfComponents="3" format="ascii">
                       0.00280                      -0.99852                       0.05437
                       0.00296                      -0.99852                       0.05430
                       0.00332                      -0.99853                       0.05414
                       0.00382                      -0.99854                       0.05395
                       0.00446                      -0.99855                       0.05373
                       0.00525                      -0.99856                       0.05348
                       0.00622                      -0.99857                       0.05318
                       0.00738                      -0.99857                       0.05286
                       0.00877                      -0.99858                       0.05251
                       0.01034                      -0.99859                       0.05214
                       0.01210                      -0.99859                       0.05176
                       0.01404                      -0.99858                       0.05137
                       0.01616                      -0.99857                       0.05096
                       0.01846                      -0.99855                       0.05055
                       0.02092                      -0.99852                       0.05013
                       0.02350                      -0.99849                       0.04970
                       0.02618                      -0.99844                       0.04928
                       0.02893                      -0.99839                       0.04886
                       0.03173                      -0.99832                       0.04844
                       0.03454                      -0.99825                       0.04804
                       0.03731                      -0.99817                       0.04766
                       0.03999                      -0.99808                       0.04731
                       0.04256                      -0.99799                       0.04698
                       0.04495                      -0.99790                       0.04668
                       0.04712                      -0.99781                       0.04641
                       0.04899                      -0.99773                       0.04620
                       0.05045                      -0.99767                       0.04603
                       0.05149                      -0.99762                       0.04592
                       0.05204                      -0.99759                       0.04587
                       0.05204                      -0.99759                       0.04587
                       0.05146                      -0.99762                       0.04593
                       0.05099                      -0.99764                       0.04598
        </DataArray>
      </PointData>
      <Lines>
        <DataArray type="Int32" Name="connectivity" format="ascii">
      0      1
      1      2
      2      3
      3      4
      4      5
      5      6
      6      7
      7      8
      8      9
      9     10
     10     11
     11     12
     12     13
     13     14
     14     15
     15     16
     16     17
     17     18
     18     19
     19     20
     20     21
     21     22
     22     23
     23     24
     24     25
     25     26
     26     27
     27     28
     28     29
     29     30
     30     31
        </DataArray>
        <DataArray type="Int32" Name="offsets" format="ascii">
      2
      4
      6
      8
     10
     12
     14
     16
     18
     20
     22
     24
     26
     28
     30
     32
     34
     36
     38
     40
     42
     44
     46
     48
     50
     52
     54
     56
     58
     60
     62
        </DataArray>
      </Lines>
    </Piece>
  </PolyData>
</VTKFile>
