<?xml version="1.0"?>
<VTKFile type="PolyData" version="0.1" byte_order="LittleEndian">
  <PolyData>
    <Piece NumberOfPoints="     32" NumberOfVerts="  0" NumberOfLines="     31"
           NumberOfStrips="  0" NumberOfPolys="      0">
      <Points>
        <DataArray type="Float32" NumberOfComponents="3" format="ascii">
                      -4.90695                       0.12150                     -20.99034
                      -4.90698                       0.13977                     -21.13922
                      -4.90697                       0.17631                     -21.43699
                      -4.90679                       0.21280                     -21.73476
                      -4.90646                       0.24927                     -22.03253
                      -4.90596                       0.28573                     -22.33031
                      -4.90531                       0.32218                     -22.62809
                      -4.90452                       0.35862                     -22.92587
                      -4.90358                       0.39506                     -23.22364
                      -4.90247                       0.43150                     -23.52142
                      -4.90119                       0.46794                     -23.81920
                      -4.89972                       0.50438                     -24.11697
                      -4.89807                       0.54082                     -24.41474
                      -4.89624                       0.57726                     -24.71252
                      -4.89423                       0.61369                     -25.01029
                      -4.89203                       0.65013                     -25.30806
                      -4.88961                       0.68656                     -25.60583
                      -4.88698                       0.72298                     -25.90360
                      -4.88414                       0.75940                     -26.20137
                      -4.88112                       0.79581                     -26.49913
                      -4.87791                       0.83222                     -26.79690
                      -4.87450                       0.86862                     -27.09466
                      -4.87090                       0.90500                     -27.39243
                      -4.86712                       0.94139                     -27.69019
                      -4.86318                       0.97776                     -27.98795
                      -4.85912                       1.01413                     -28.28571
                      -4.85495                       1.05050                     -28.58347
                      -4.85069                       1.08686                     -28.88123
                      -4.84637                       1.12323                     -29.17898
                      -4.84203                       1.15960                     -29.47674
                      -4.83773                       1.19599                     -29.77449
                      -4.83559                       1.21418                     -29.92337
        </DataArray>
      </Points>
      <PointData>
        <DataArray type="Float32" Name="Force" NumberOfComponents="3" format="ascii">
                   -6789.08645                   14923.51945                    8470.84318
                   10560.26417                  -29839.76586                  -16939.73978
                    3152.30898                  -11091.50014                  -42376.53472
                   17548.67255                  -87437.21243                  -33622.35302
                  -17468.14569                   62489.52062                    1984.65292
                  -13769.06361                   47137.34716                   45333.91208
                  -20066.90535                   37557.26715                   58709.63951
                   17628.59001                  -23843.44758                   41701.23811
                    8621.30438                    5117.66752                   36743.96932
                   15098.32413                  -20265.74278                   19480.31439
                   12998.71917                    5953.73860                   14593.24518
                   15035.46579                    -805.95888                   15299.67549
                   15855.17066                     788.28914                   15080.62370
                   16794.42097                     -99.75034                   14776.67154
                   16815.08191                     208.99275                   14499.57111
                   17072.47539                    -124.21115                   14397.44660
                   16877.82065                    -518.49795                   14252.77219
                   15987.76797                    -712.02331                   13879.70405
                   15167.68324                    -744.57666                   13444.95731
                   13967.09023                   -1147.74856                   13507.06016
                   12563.04813                   -1394.60296                   13152.22838
                   10944.70966                   -1421.15933                   12890.39357
                    9120.53653                   -1871.86203                   12589.25546
                    7216.24883                   -1757.45503                   12014.18318
                    5084.38367                   -2006.21807                   11808.98722
                    3166.33465                   -2050.62561                   11722.11397
                     793.97530                   -2094.18533                   10513.55945
                   -1446.75570                   -2233.25133                   12023.13727
                   -4254.22943                   -1545.17328                    5053.38574
                   -8376.71492                   -3770.45148                   28915.59158
                  -10509.48808                    5467.88704                  -63493.59956
                   -6089.13268                  -45524.79906                  375265.44773
        </DataArray>
        <DataArray type="Float32" Name="Moment" NumberOfComponents="3" format="ascii">
                      10.40749                    -203.51613                      13.05951
                    1070.04420                     825.92137                      31.80054
                    2832.20257                     508.04997                     270.36083
                   -1219.39885                    -209.86908                    -704.67281
                   -3546.91455                    -731.69589                     642.19526
                   -4600.79995                   -2522.96000                     459.62022
                   -7221.03653                   -2566.39538                   -1625.50887
                   -5642.36741                   -1667.93436                     312.17173
                   -5214.01755                   -2313.03610                     -30.59933
                   -2181.51457                    -702.60752                    -532.74877
                   -2582.95991                    -789.98282                     136.98276
                   -1324.61694                    -538.80181                     -49.46194
                   -1852.70219                    -574.03796                      -9.87287
                   -1559.55200                    -516.85680                      -9.97733
                   -1573.38478                    -489.48811                     -36.34757
                   -1469.77263                    -435.14073                     -17.72019
                   -1426.71846                    -432.21511                     -17.78654
                   -1355.96631                    -393.59558                     -42.32728
                   -1265.50988                    -353.31132                     -24.06046
                   -1218.56678                    -342.88063                     -32.05510
                   -1161.53837                    -312.92221                     -30.98851
                   -1081.82472                    -292.74114                     -26.94014
                   -1019.01650                    -267.24771                     -33.69119
                    -938.45933                    -246.58262                     -26.72370
                    -876.02216                    -219.77680                     -35.18325
                    -826.14959                    -207.51765                     -21.15737
                    -716.20776                    -178.10905                     -32.33057
                    -732.04183                    -172.11250                     -21.26873
                    -392.32414                    -103.25231                     -18.36149
                   -1420.77099                    -315.50843                     -57.78985
                    3125.78770                     699.42275                     137.52497
                  -19077.92210                   -4326.08601                    -804.48478
        </DataArray>
        <DataArray type="Float32" Name="TranslationalVelocity" NumberOfComponents="3" format="ascii">
                       0.07902                       1.21123                       0.19834
                       0.07787                       1.39472                       0.22086
                       0.07609                       1.76168                       0.26589
                       0.07563                       2.12865                       0.31086
                       0.07664                       2.49571                       0.35582
                       0.07930                       2.86294                       0.40079
                       0.08382                       3.23042                       0.44577
                       0.09018                       3.59814                       0.49080
                       0.09850                       3.96613                       0.53585
                       0.10929                       4.33442                       0.58096
                       0.12281                       4.70304                       0.62613
                       0.13931                       5.07199                       0.67136
                       0.15906                       5.44125                       0.71666
                       0.18186                       5.81081                       0.76202
                       0.20784                       6.18064                       0.80745
                       0.23758                       6.55079                       0.85296
                       0.27126                       6.92122                       0.89855
                       0.30899                       7.29194                       0.94423
                       0.35085                       7.66292                       0.99001
                       0.39634                       8.03411                       1.03586
                       0.44547                       8.40550                       1.08180
                       0.49861                       8.77710                       1.12783
                       0.55561                       9.14888                       1.17395
                       0.61623                       9.52081                       1.22016
                       0.68009                       9.89288                       1.26646
                       0.74647                      10.26503                       1.31282
                       0.81505                      10.63727                       1.35924
                       0.88560                      11.00958                       1.40572
                       0.95738                      11.38194                       1.45225
                       1.02952                      11.75434                       1.49879
                       1.10096                      12.12678                       1.54533
                       1.13647                      12.31300                       1.56860
        </DataArray>
        <DataArray type="Float32" Name="RotationalVelocity" NumberOfComponents="3" format="ascii">
                       1.23248                       0.00980                      -0.00055
                       1.23240                       0.00782                      -0.00079
                       1.23237                       0.00367                      -0.00130
                       1.23256                      -0.00084                      -0.00186
                       1.23298                      -0.00580                      -0.00247
                       1.23361                      -0.01130                      -0.00314
                       1.23443                      -0.01739                      -0.00389
                       1.23538                      -0.02423                      -0.00473
                       1.23638                      -0.03186                      -0.00567
                       1.23741                      -0.04023                      -0.00670
                       1.23847                      -0.04932                      -0.00781
                       1.23953                      -0.05913                      -0.00902
                       1.24060                      -0.06962                      -0.01031
                       1.24165                      -0.08083                      -0.01169
                       1.24268                      -0.09268                      -0.01314
                       1.24367                      -0.10499                      -0.01465
                       1.24463                      -0.11768                      -0.01621
                       1.24554                      -0.13064                      -0.01781
                       1.24639                      -0.14376                      -0.01942
                       1.24719                      -0.15687                      -0.02103
                       1.24790                      -0.16974                      -0.02261
                       1.24855                      -0.18220                      -0.02414
                       1.24913                      -0.19405                      -0.02560
                       1.24964                      -0.20509                      -0.02695
                       1.25007                      -0.21511                      -0.02818
                       1.25042                      -0.22366                      -0.02923
                       1.25070                      -0.23037                      -0.03006
                       1.25091                      -0.23512                      -0.03064
                       1.25107                      -0.23760                      -0.03095
                       1.25119                      -0.23753                      -0.03094
                       1.25128                      -0.23478                      -0.03060
                       1.25132                      -0.23255                      -0.03033
        </DataArray>
        <DataArray type="Float32" Name="TranslationalAcceleration" NumberOfComponents="3" format="ascii">
                       1.54540                       0.23590                       2.32301
                       1.50963                       0.29410                       2.56049
                       1.41592                       0.40441                       3.03459
                       1.27019                       0.50042                       3.50672
                       1.08257                       0.58484                       3.97742
                       0.86316                       0.66025                       4.44723
                       0.62216                       0.72926                       4.91668
                       0.37004                       0.79460                       5.38618
                       0.11244                       0.85760                       5.85599
                      -0.14250                       0.91979                       6.32649
                      -0.38507                       0.98280                       6.79801
                      -0.60599                       1.04781                       7.27089
                      -0.79664                       1.11571                       7.74541
                      -0.95426                       1.18664                       8.22160
                      -1.07468                       1.26089                       8.69964
                      -1.14695                       1.33920                       9.17999
                      -1.16518                       1.42177                       9.66293
                      -1.12468                       1.50863                      10.14869
                      -1.02208                       1.59969                      10.63749
                      -0.86298                       1.69431                      11.12912
                      -0.64676                       1.79235                      11.62366
                      -0.36586                       1.89398                      12.12158
                      -0.02169                       1.99884                      12.62289
                       0.38245                       2.10650                      13.12751
                       0.84132                       2.21651                      13.63522
                       1.34296                       2.32824                      14.14540
                       1.88261                       2.44141                      14.65779
                       2.45654                       2.55583                      15.17220
                       3.05287                       2.67108                      15.68796
                       3.65731                       2.78681                      16.20423
                       4.25243                       2.90279                      16.72004
                       4.54706                       2.96081                      16.97779
        </DataArray>
        <DataArray type="Float32" Name="RotationalAcceleration" NumberOfComponents="3" format="ascii">
                       0.60395                       0.15010                      -0.01298
                       0.57797                       0.24299                      -0.00367
                       0.53024                       0.41376                       0.01283
                       0.48953                       0.55913                       0.02564
                       0.45624                       0.67697                       0.03439
                       0.43034                       0.76697                       0.03892
                       0.41182                       0.82902                       0.03916
                       0.40136                       0.85982                       0.03449
                       0.39772                       0.85985                       0.02492
                       0.39887                       0.83317                       0.01103
                       0.40391                       0.78064                      -0.00704
                       0.41208                       0.70337                      -0.02915
                       0.42270                       0.60268                      -0.05510
                       0.43535                       0.47773                      -0.08503
                       0.44933                       0.33134                      -0.11847
                       0.46403                       0.16845                      -0.15459
                       0.47913                      -0.00853                      -0.19297
                       0.49432                      -0.19699                      -0.23315
                       0.50934                      -0.39415                      -0.27462
                       0.52383                      -0.59714                      -0.31682
                       0.53747                      -0.80106                      -0.35884
                       0.55014                      -1.00166                      -0.39992
                       0.56170                      -1.19520                      -0.43935
                       0.57201                      -1.37778                      -0.47637
                       0.58094                      -1.54530                      -0.51019
                       0.58822                      -1.69027                      -0.53931
                       0.59381                      -1.80588                      -0.56240
                       0.59790                      -1.88986                      -0.57901
                       0.60057                      -1.93723                      -0.58814
                       0.60195                      -1.94289                      -0.58876
                       0.60224                      -1.90515                      -0.58053
                       0.60210                      -1.87232                      -0.57357
        </DataArray>
        <DataArray type="Float32" Name="OrientationX" NumberOfComponents="3" format="ascii">
                       0.97493                       0.22091                       0.02670
                       0.97493                       0.22088                       0.02694
                       0.97493                       0.22082                       0.02742
                       0.97493                       0.22076                       0.02789
                       0.97493                       0.22070                       0.02837
                       0.97493                       0.22065                       0.02885
                       0.97493                       0.22059                       0.02934
                       0.97979                       0.19817                       0.02712
                       0.98345                       0.17940                       0.02537
                       0.98629                       0.16329                       0.02396
                       0.98847                       0.14971                       0.02288
                       0.99021                       0.13781                       0.02202
                       0.99159                       0.12761                       0.02139
                       0.99272                       0.11859                       0.02092
                       0.99365                       0.11060                       0.02060
                       0.99442                       0.10346                       0.02039
                       0.99506                       0.09717                       0.02030
                       0.99561                       0.09140                       0.02028
                       0.99608                       0.08614                       0.02031
                       0.99649                       0.08122                       0.02039
                       0.99685                       0.07666                       0.02048
                       0.99717                       0.07226                       0.02058
                       0.99746                       0.06822                       0.02068
                       0.99772                       0.06417                       0.02074
                       0.99797                       0.06014                       0.02075
                       0.99820                       0.05628                       0.02070
                       0.99841                       0.05244                       0.02056
                       0.99862                       0.04843                       0.02031
                       0.99881                       0.04443                       0.01994
                       0.99900                       0.04028                       0.01942
                       0.99918                       0.03597                       0.01875
                       0.99918                       0.03598                       0.01864
        </DataArray>
        <DataArray type="Float32" Name="OrientationY" NumberOfComponents="3" format="ascii">
                       0.22252                      -0.96764                      -0.11896
                       0.22252                      -0.96766                      -0.11882
                       0.22252                      -0.96769                      -0.11858
                       0.22252                      -0.96772                      -0.11838
                       0.22252                      -0.96774                      -0.11820
                       0.22252                      -0.96776                      -0.11805
                       0.22252                      -0.96777                      -0.11791
                       0.20000                      -0.97261                      -0.11844
                       0.18115                      -0.97625                      -0.11884
                       0.16499                      -0.97907                      -0.11915
                       0.15138                      -0.98124                      -0.11938
                       0.13946                      -0.98298                      -0.11956
                       0.12926                      -0.98436                      -0.11970
                       0.12025                      -0.98549                      -0.11981
                       0.11228                      -0.98642                      -0.11990
                       0.10516                      -0.98719                      -0.11996
                       0.09891                      -0.98783                      -0.12001
                       0.09318                      -0.98839                      -0.12005
                       0.08796                      -0.98886                      -0.12007
                       0.08309                      -0.98928                      -0.12009
                       0.07857                      -0.98965                      -0.12011
                       0.07422                      -0.98998                      -0.12012
                       0.07022                      -0.99027                      -0.12014
                       0.06621                      -0.99054                      -0.12016
                       0.06220                      -0.99080                      -0.12019
                       0.05837                      -0.99103                      -0.12023
                       0.05454                      -0.99124                      -0.12029
                       0.05053                      -0.99144                      -0.12036
                       0.04652                      -0.99163                      -0.12045
                       0.04234                      -0.99180                      -0.12056
                       0.03798                      -0.99196                      -0.12069
                       0.03798                      -0.99196                      -0.12073
        </DataArray>
        <DataArray type="Float32" Name="OrientationZ" NumberOfComponents="3" format="ascii">
                      -0.00045                       0.12191                      -0.99254
                      -0.00018                       0.12184                      -0.99255
                       0.00034                       0.12171                      -0.99257
                       0.00086                       0.12161                      -0.99258
                       0.00137                       0.12155                      -0.99258
                       0.00187                       0.12150                      -0.99259
                       0.00239                       0.12148                      -0.99259
                       0.00291                       0.12147                      -0.99259
                       0.00345                       0.12147                      -0.99259
                       0.00400                       0.12146                      -0.99259
                       0.00457                       0.12146                      -0.99259
                       0.00517                       0.12146                      -0.99258
                       0.00578                       0.12146                      -0.99258
                       0.00641                       0.12146                      -0.99258
                       0.00706                       0.12145                      -0.99257
                       0.00772                       0.12144                      -0.99257
                       0.00839                       0.12143                      -0.99257
                       0.00907                       0.12141                      -0.99256
                       0.00975                       0.12139                      -0.99256
                       0.01041                       0.12136                      -0.99255
                       0.01107                       0.12134                      -0.99255
                       0.01169                       0.12131                      -0.99255
                       0.01228                       0.12128                      -0.99254
                       0.01283                       0.12126                      -0.99254
                       0.01333                       0.12124                      -0.99253
                       0.01375                       0.12122                      -0.99253
                       0.01408                       0.12122                      -0.99253
                       0.01430                       0.12122                      -0.99252
                       0.01442                       0.12123                      -0.99252
                       0.01441                       0.12126                      -0.99252
                       0.01426                       0.12131                      -0.99251
                       0.01415                       0.12133                      -0.99251
        </DataArray>
      </PointData>
      <Lines>
        <DataArray type="Int32" Name="connectivity" format="ascii">
      0      1
      1      2
      2      3
      3      4
      4      5
      5      6
      6      7
      7      8
      8      9
      9     10
     10     11
     11     12
     12     13
     13     14
     14     15
     15     16
     16     17
     17     18
     18     19
     19     20
     20     21
     21     22
     22     23
     23     24
     24     25
     25     26
     26     27
     27     28
     28     29
     29     30
     30     31
        </DataArray>
        <DataArray type="Int32" Name="offsets" format="ascii">
      2
      4
      6
      8
     10
     12
     14
     16
     18
     20
     22
     24
     26
     28
     30
     32
     34
     36
     38
     40
     42
     44
     46
     48
     50
     52
     54
     56
     58
     60
     62
        </DataArray>
      </Lines>
    </Piece>
  </PolyData>
</VTKFile>
