<?xml version="1.0"?>
<VTKFile type="PolyData" version="0.1" byte_order="LittleEndian">
  <PolyData>
    <Piece NumberOfPoints="     32" NumberOfVerts="  0" NumberOfLines="     31"
           NumberOfStrips="  0" NumberOfPolys="      0">
      <Points>
        <DataArray type="Float32" NumberOfComponents="3" format="ascii">
                      -4.43534                       0.89210                     -20.26302
                      -4.43730                       1.02859                     -20.32521
                      -4.44117                       1.30155                     -20.44961
                      -4.44488                       1.57450                     -20.57406
                      -4.44835                       1.84743                     -20.69854
                      -4.45149                       2.12037                     -20.82302
                      -4.45419                       2.39332                     -20.94747
                      -4.45642                       2.66630                     -21.07188
                      -4.45812                       2.93930                     -21.19625
                      -4.45911                       3.21233                     -21.32056
                      -4.45929                       3.48540                     -21.44480
                      -4.45855                       3.75849                     -21.56897
                      -4.45677                       4.03162                     -21.69307
                      -4.45400                       4.30476                     -21.81711
                      -4.45019                       4.57792                     -21.94108
                      -4.44513                       4.85109                     -22.06498
                      -4.43875                       5.12427                     -22.18880
                      -4.43100                       5.39745                     -22.31256
                      -4.42184                       5.67061                     -22.43625
                      -4.41143                       5.94375                     -22.55988
                      -4.39977                       6.21687                     -22.68345
                      -4.38673                       6.48995                     -22.80697
                      -4.37235                       6.76299                     -22.93044
                      -4.35672                       7.03598                     -23.05385
                      -4.33996                       7.30892                     -23.17722
                      -4.32232                       7.58183                     -23.30056
                      -4.30390                       7.85470                     -23.42387
                      -4.28480                       8.12753                     -23.54715
                      -4.26527                       8.40034                     -23.67042
                      -4.24560                       8.67314                     -23.79367
                      -4.22616                       8.94597                     -23.91692
                      -4.21651                       9.08239                     -23.97854
        </DataArray>
      </Points>
      <PointData>
        <DataArray type="Float32" Name="Force" NumberOfComponents="3" format="ascii">
                   -5417.70595                    2296.57742                   20632.89941
                    9429.51132                     881.39959                  -29205.95461
                    6244.20798                   31464.34052                  -25494.93628
                   16932.85670                  -12847.41047                  -83142.81653
                  -15577.62870                   32310.10348                   55625.81930
                  -18353.58570                  -11658.10236                   62891.27311
                  -29699.57601                  -27768.86439                   60650.47391
                    1087.97656                  -44262.57247                    1984.24531
                   -8443.55906                  -26158.42812                   22245.47996
                   -4542.77101                  -24681.63901                   -6214.79488
                   -6552.25447                   -8213.02123                   11841.83587
                   -5127.08161                  -11908.16445                    6835.83266
                   -4377.94708                  -10861.94032                    7943.36170
                   -3079.70354                  -10938.82957                    7124.75494
                   -2038.49608                  -10461.05330                    7285.93863
                    -560.91334                  -10440.95288                    7038.69348
                     933.51186                  -10417.20284                    6758.90180
                    2256.92476                  -10140.91321                    6557.19420
                    3809.45386                   -9771.23636                    6450.22208
                    5428.02238                   -9951.49233                    6311.82623
                    7231.43364                   -9783.82137                    6110.07188
                    8922.50966                   -9610.15467                    6102.67823
                   10607.75301                   -9616.80066                    5769.79891
                   12335.88433                   -9205.76345                    5715.87433
                   13800.84686                   -9228.77565                    5543.37557
                   15421.66808                   -9274.59282                    5531.73184
                   16543.47472                   -8534.28724                    5004.70770
                   17372.97532                   -9716.59370                    5483.36797
                   17714.10033                   -4729.91190                    2896.03177
                   15270.76341                  -22051.98010                   10967.87727
                   17443.34520                   45004.49459                  -21723.52430
                  -18115.60263                 -275704.09316                  125510.87609
        </DataArray>
        <DataArray type="Float32" Name="Moment" NumberOfComponents="3" format="ascii">
                    -184.58971                    -111.76040                    -166.82534
                     829.02361                     378.75644                     668.18594
                    2871.36910                       9.15059                     474.93981
                    -976.88936                     384.21760                    -393.49749
                   -3268.00391                   -1047.04127                     -45.82142
                   -4418.45417                   -1849.65413                   -1513.80464
                   -6985.69840                    -217.83630                   -2523.23904
                   -5339.53846                   -1268.90074                    -891.52528
                   -4940.79149                   -1265.65261                   -1599.92509
                   -2031.20452                     -80.48751                    -659.47190
                   -2384.93024                    -625.45499                    -401.10953
                   -1217.74027                    -363.07562                    -330.59940
                   -1690.37508                    -380.70358                    -341.28590
                   -1412.54273                    -335.57789                    -298.68252
                   -1415.59465                    -304.06370                    -288.75250
                   -1312.52200                    -279.78991                    -252.95532
                   -1266.46531                    -262.64165                    -252.01193
                   -1194.70635                    -218.51259                    -244.57966
                   -1107.26981                    -191.59577                    -219.93427
                   -1059.74538                    -165.75754                    -211.90320
                   -1003.09284                    -151.24839                    -193.88650
                    -928.13504                    -133.66285                    -188.40758
                    -868.02527                    -105.86765                    -175.45899
                    -794.28621                     -94.84365                    -165.35526
                    -735.52096                     -64.90070                    -155.53151
                    -689.65246                     -62.75773                    -139.42964
                    -593.43325                     -42.41875                    -128.63669
                    -602.37185                     -38.80076                    -122.79436
                    -319.97158                     -22.25183                     -76.90225
                   -1159.33610                     -29.71809                    -237.10121
                    2562.71035                      47.74795                     530.47345
                  -15409.23897                    -367.98641                   -3216.87773
        </DataArray>
        <DataArray type="Float32" Name="TranslationalVelocity" NumberOfComponents="3" format="ascii">
                       0.94758                       0.49600                       1.42612
                       0.94931                       0.57479                       1.59898
                       0.95266                       0.73236                       1.94461
                       0.95573                       0.88991                       2.29005
                       0.95849                       1.04741                       2.63530
                       0.96089                       1.20483                       2.98040
                       0.96288                       1.36213                       3.32536
                       0.96445                       1.51930                       3.67020
                       0.96558                       1.67635                       4.01491
                       0.96614                       1.83324                       4.35950
                       0.96608                       1.98996                       4.70396
                       0.96533                       2.14652                       5.04828
                       0.96383                       2.30291                       5.39245
                       0.96162                       2.45916                       5.73649
                       0.95867                       2.61528                       6.08038
                       0.95485                       2.77123                       6.42409
                       0.95012                       2.92705                       6.76760
                       0.94444                       3.08274                       7.11091
                       0.93780                       3.23831                       7.45399
                       0.93031                       3.39379                       7.79686
                       0.92198                       3.54919                       8.13952
                       0.91270                       3.70451                       8.48193
                       0.90252                       3.85976                       8.82410
                       0.89150                       4.01497                       9.16603
                       0.87972                       4.17015                       9.50775
                       0.86735                       4.32531                       9.84929
                       0.85445                       4.48045                      10.19067
                       0.84110                       4.63558                      10.53193
                       0.82746                       4.79071                      10.87311
                       0.81374                       4.94583                      11.21427
                       0.80018                       5.10094                      11.55551
                       0.79345                       5.17849                      11.72615
        </DataArray>
        <DataArray type="Float32" Name="RotationalVelocity" NumberOfComponents="3" format="ascii">
                       1.26593                       0.05989                      -0.04040
                       1.26563                       0.06005                      -0.04003
                       1.26504                       0.06040                      -0.03925
                       1.26449                       0.06079                      -0.03838
                       1.26396                       0.06123                      -0.03739
                       1.26346                       0.06174                      -0.03627
                       1.26296                       0.06230                      -0.03502
                       1.26249                       0.06294                      -0.03359
                       1.26205                       0.06367                      -0.03198
                       1.26162                       0.06447                      -0.03020
                       1.26121                       0.06535                      -0.02827
                       1.26081                       0.06630                      -0.02618
                       1.26042                       0.06731                      -0.02393
                       1.26004                       0.06840                      -0.02154
                       1.25968                       0.06955                      -0.01900
                       1.25932                       0.07074                      -0.01636
                       1.25897                       0.07198                      -0.01364
                       1.25864                       0.07324                      -0.01086
                       1.25832                       0.07451                      -0.00805
                       1.25801                       0.07579                      -0.00524
                       1.25774                       0.07704                      -0.00248
                       1.25748                       0.07826                       0.00019
                       1.25725                       0.07941                       0.00274
                       1.25705                       0.08049                       0.00511
                       1.25688                       0.08147                       0.00726
                       1.25676                       0.08230                       0.00910
                       1.25668                       0.08296                       0.01054
                       1.25664                       0.08342                       0.01156
                       1.25664                       0.08367                       0.01209
                       1.25669                       0.08366                       0.01208
                       1.25677                       0.08339                       0.01149
                       1.25683                       0.08317                       0.01101
        </DataArray>
        <DataArray type="Float32" Name="TranslationalAcceleration" NumberOfComponents="3" format="ascii">
                       0.48356                      -1.56976                       0.41336
                       0.50751                      -1.79628                       0.49539
                       0.55509                      -2.24829                       0.66131
                       0.60188                      -2.69786                       0.83157
                       0.64780                      -3.14541                       1.00534
                       0.69273                      -3.59124                       1.18193
                       0.73650                      -4.03560                       1.36081
                       0.77913                      -4.47883                       1.54141
                       0.82049                      -4.92100                       1.72353
                       0.86026                      -5.36209                       1.90715
                       0.89820                      -5.80218                       2.09209
                       0.93407                      -6.24131                       2.27826
                       0.96765                      -6.67949                       2.46561
                       0.99902                      -7.11682                       2.65399
                       1.02806                      -7.55326                       2.84341
                       1.05431                      -7.98868                       3.03404
                       1.07758                      -8.42303                       3.22591
                       1.09777                      -8.85624                       3.41906
                       1.11479                      -9.28828                       3.61354
                       1.12899                      -9.71926                       3.80919
                       1.14038                     -10.14916                       4.00602
                       1.14864                     -10.57784                       4.20417
                       1.15389                     -11.00532                       4.40358
                       1.15631                     -11.43168                       4.60416
                       1.15618                     -11.85702                       4.80574
                       1.15409                     -12.28160                       5.00806
                       1.15025                     -12.70552                       5.21097
                       1.14488                     -13.12892                       5.41429
                       1.13853                     -13.55208                       5.61768
                       1.13187                     -13.97538                       5.82070
                       1.12572                     -14.39924                       6.02284
                       1.12280                     -14.61130                       6.12370
        </DataArray>
        <DataArray type="Float32" Name="RotationalAcceleration" NumberOfComponents="3" format="ascii">
                      -0.13687                      -0.01578                      -0.07046
                      -0.12809                      -0.01563                      -0.06920
                      -0.11204                      -0.01539                      -0.06659
                      -0.09824                      -0.01522                      -0.06375
                      -0.08656                      -0.01511                      -0.06057
                      -0.07667                      -0.01503                      -0.05696
                      -0.06825                      -0.01495                      -0.05285
                      -0.06110                      -0.01489                      -0.04813
                      -0.05486                      -0.01482                      -0.04275
                      -0.04918                      -0.01471                      -0.03672
                      -0.04392                      -0.01455                      -0.03000
                      -0.03893                      -0.01432                      -0.02259
                      -0.03410                      -0.01402                      -0.01451
                      -0.02932                      -0.01364                      -0.00570
                      -0.02453                      -0.01317                       0.00373
                      -0.01968                      -0.01265                       0.01365
                      -0.01477                      -0.01207                       0.02396
                      -0.00981                      -0.01145                       0.03457
                      -0.00484                      -0.01080                       0.04537
                       0.00010                      -0.01012                       0.05622
                       0.00491                      -0.00944                       0.06690
                       0.00950                      -0.00877                       0.07727
                       0.01378                      -0.00813                       0.08715
                       0.01764                      -0.00753                       0.09637
                       0.02096                      -0.00699                       0.10475
                       0.02353                      -0.00652                       0.11190
                       0.02512                      -0.00616                       0.11753
                       0.02569                      -0.00591                       0.12153
                       0.02508                      -0.00577                       0.12367
                       0.02315                      -0.00576                       0.12370
                       0.01985                      -0.00589                       0.12154
                       0.01776                      -0.00599                       0.11976
        </DataArray>
        <DataArray type="Float32" Name="OrientationX" NumberOfComponents="3" format="ascii">
                       0.98088                       0.09232                       0.17130
                       0.98089                       0.09219                       0.17136
                       0.98089                       0.09180                       0.17154
                       0.98090                       0.09121                       0.17180
                       0.98091                       0.09039                       0.17218
                       0.98092                       0.08932                       0.17267
                       0.98094                       0.08798                       0.17327
                       0.98516                       0.07697                       0.15340
                       0.98828                       0.06715                       0.13706
                       0.99066                       0.05817                       0.12331
                       0.99245                       0.04996                       0.11202
                       0.99385                       0.04218                       0.10242
                       0.99491                       0.03486                       0.09450
                       0.99575                       0.02775                       0.08780
                       0.99640                       0.02084                       0.08215
                       0.99690                       0.01410                       0.07738
                       0.99727                       0.00758                       0.07346
                       0.99754                       0.00116                       0.07006
                       0.99773                      -0.00512                       0.06716
                       0.99785                      -0.01126                       0.06459
                       0.99791                      -0.01721                       0.06231
                       0.99793                      -0.02296                       0.06013
                       0.99790                      -0.02839                       0.05819
                       0.99786                      -0.03357                       0.05613
                       0.99781                      -0.03842                       0.05392
                       0.99775                      -0.04274                       0.05167
                       0.99771                      -0.04648                       0.04915
                       0.99770                      -0.04967                       0.04619
                       0.99772                      -0.05214                       0.04290
                       0.99778                      -0.05387                       0.03909
                       0.99789                      -0.05483                       0.03473
                       0.99794                      -0.05414                       0.03441
        </DataArray>
        <DataArray type="Float32" Name="OrientationY" NumberOfComponents="3" format="ascii">
                       0.19414                      -0.40428                      -0.89379
                       0.19414                      -0.40442                      -0.89373
                       0.19414                      -0.40469                      -0.89361
                       0.19415                      -0.40491                      -0.89351
                       0.19415                      -0.40511                      -0.89342
                       0.19415                      -0.40528                      -0.89334
                       0.19415                      -0.40543                      -0.89327
                       0.17150                      -0.40748                      -0.89697
                       0.15256                      -0.40899                      -0.89969
                       0.13633                      -0.41014                      -0.90177
                       0.12265                      -0.41100                      -0.90335
                       0.11069                      -0.41166                      -0.90459
                       0.10045                      -0.41216                      -0.90556
                       0.09142                      -0.41255                      -0.90634
                       0.08342                      -0.41285                      -0.90697
                       0.07628                      -0.41307                      -0.90750
                       0.07002                      -0.41324                      -0.90793
                       0.06427                      -0.41336                      -0.90830
                       0.05904                      -0.41345                      -0.90861
                       0.05417                      -0.41350                      -0.90889
                       0.04964                      -0.41353                      -0.90914
                       0.04528                      -0.41353                      -0.90936
                       0.04127                      -0.41351                      -0.90956
                       0.03727                      -0.41346                      -0.90976
                       0.03326                      -0.41337                      -0.90995
                       0.02943                      -0.41326                      -0.91014
                       0.02560                      -0.41312                      -0.91032
                       0.02159                      -0.41294                      -0.91050
                       0.01759                      -0.41273                      -0.91069
                       0.01341                      -0.41247                      -0.91087
                       0.00906                      -0.41218                      -0.91106
                       0.00906                      -0.41214                      -0.91108
        </DataArray>
        <DataArray type="Float32" Name="OrientationZ" NumberOfComponents="3" format="ascii">
                      -0.01327                       0.90996                      -0.41447
                      -0.01309                       0.90991                      -0.41459
                      -0.01261                       0.90984                      -0.41477
                      -0.01193                       0.90979                      -0.41489
                      -0.01101                       0.90979                      -0.41492
                      -0.00981                       0.90982                      -0.41489
                      -0.00834                       0.90988                      -0.41479
                      -0.00653                       0.90997                      -0.41463
                      -0.00436                       0.91006                      -0.41445
                      -0.00188                       0.91016                      -0.41424
                       0.00091                       0.91026                      -0.41403
                       0.00400                       0.91036                      -0.41380
                       0.00738                       0.91044                      -0.41357
                       0.01107                       0.91051                      -0.41333
                       0.01502                       0.91056                      -0.41310
                       0.01916                       0.91059                      -0.41287
                       0.02347                       0.91059                      -0.41264
                       0.02791                       0.91057                      -0.41242
                       0.03242                       0.91051                      -0.41221
                       0.03695                       0.91043                      -0.41200
                       0.04141                       0.91033                      -0.41181
                       0.04575                       0.91020                      -0.41163
                       0.04988                       0.91006                      -0.41147
                       0.05374                       0.90991                      -0.41132
                       0.05725                       0.90975                      -0.41119
                       0.06025                       0.90961                      -0.41108
                       0.06262                       0.90949                      -0.41099
                       0.06430                       0.90940                      -0.41092
                       0.06519                       0.90936                      -0.41087
                       0.06519                       0.90938                      -0.41083
                       0.06427                       0.90945                      -0.41081
                       0.06351                       0.90951                      -0.41080
        </DataArray>
      </PointData>
      <Lines>
        <DataArray type="Int32" Name="connectivity" format="ascii">
      0      1
      1      2
      2      3
      3      4
      4      5
      5      6
      6      7
      7      8
      8      9
      9     10
     10     11
     11     12
     12     13
     13     14
     14     15
     15     16
     16     17
     17     18
     18     19
     19     20
     20     21
     21     22
     22     23
     23     24
     24     25
     25     26
     26     27
     27     28
     28     29
     29     30
     30     31
        </DataArray>
        <DataArray type="Int32" Name="offsets" format="ascii">
      2
      4
      6
      8
     10
     12
     14
     16
     18
     20
     22
     24
     26
     28
     30
     32
     34
     36
     38
     40
     42
     44
     46
     48
     50
     52
     54
     56
     58
     60
     62
        </DataArray>
      </Lines>
    </Piece>
  </PolyData>
</VTKFile>
