<?xml version="1.0"?>
<VTKFile type="PolyData" version="0.1" byte_order="LittleEndian">
  <PolyData>
    <Piece NumberOfPoints="     32" NumberOfVerts="  0" NumberOfLines="     31"
           NumberOfStrips="  0" NumberOfPolys="      0">
      <Points>
        <DataArray type="Float32" NumberOfComponents="3" format="ascii">
                      -4.91000                       0.00000                     -19.00000
                      -4.91000                       0.00000                     -18.85000
                      -4.91000                       0.00000                     -18.55000
                      -4.91000                       0.00000                     -18.25000
                      -4.91000                       0.00000                     -17.95000
                      -4.91000                       0.00000                     -17.65000
                      -4.91000                       0.00000                     -17.35000
                      -4.91000                       0.00000                     -17.05000
                      -4.91000                       0.00000                     -16.75000
                      -4.91000                       0.00000                     -16.45000
                      -4.91000                       0.00000                     -16.15000
                      -4.91000                       0.00000                     -15.85000
                      -4.91000                       0.00000                     -15.55000
                      -4.91000                       0.00000                     -15.25000
                      -4.91000                       0.00000                     -14.95000
                      -4.91000                       0.00000                     -14.65000
                      -4.91000                       0.00000                     -14.35000
                      -4.91000                       0.00000                     -14.05000
                      -4.91000                       0.00000                     -13.75000
                      -4.91000                       0.00000                     -13.45000
                      -4.91000                       0.00000                     -13.15000
                      -4.91000                       0.00000                     -12.85000
                      -4.91000                       0.00000                     -12.55000
                      -4.91000                       0.00000                     -12.25000
                      -4.91000                       0.00000                     -11.95000
                      -4.91000                       0.00000                     -11.65000
                      -4.91000                       0.00000                     -11.35000
                      -4.91000                       0.00000                     -11.05000
                      -4.91000                       0.00000                     -10.75000
                      -4.91000                       0.00000                     -10.45000
                      -4.91000                       0.00000                     -10.15000
                      -4.91000                       0.00000                     -10.00000
        </DataArray>
      </Points>
      <PointData>
        <DataArray type="Float32" Name="Force" NumberOfComponents="3" format="ascii">
                   -5488.38839                  -13097.89938                   -5903.29677
                    9986.07195                   28937.99376                   11806.59353
                    4537.46727                   14293.43108                   35081.52002
                   15140.54593                   74416.19586                   19509.05929
                  -14857.33819                  -53531.30368                    5095.52111
                  -12135.82241                  -42055.80637                  -31245.85393
                  -16644.36728                  -33948.19495                  -41093.39055
                   11505.45703                   13695.34893                  -32840.33453
                    4039.48042                   -7661.19293                  -25708.83963
                    8291.36588                   11342.28753                  -15207.12345
                    5855.99380                   -6722.94335                   -9240.43409
                    6513.17235                   -2088.95740                  -10004.11950
                    6400.22284                   -3301.71291                   -9394.67070
                    6381.35573                   -2786.87554                   -8988.90318
                    5909.05336                   -3078.40876                   -8504.26779
                    5817.87866                   -3018.95713                   -8200.48455
                    5445.80101                   -2920.47448                   -7873.59791
                    4897.35485                   -2944.40386                   -7436.32578
                    4562.79812                   -3048.82647                   -6965.50545
                    4280.82282                   -3006.52679                   -6795.92064
                    4179.26753                   -3035.69177                   -6416.38583
                    4237.21777                   -3177.47321                   -6083.15596
                    4433.47457                   -3107.88683                   -5773.17119
                    4808.97333                   -3269.66743                   -5324.51090
                    5321.74521                   -3267.47183                   -5076.99773
                    6186.04649                   -3324.62725                   -4865.36815
                    6993.40943                   -3267.49985                   -4260.60100
                    7921.09365                   -3212.75296                   -4605.24587
                    8536.91375                   -2921.95035                   -2116.69271
                    8107.56089                   -2558.14277                   -9976.86286
                    5368.67616                    -669.03221                   21161.76985
                  -27564.98521                    1797.70195                 -126286.56811
        </DataArray>
        <DataArray type="Float32" Name="Moment" NumberOfComponents="3" format="ascii">
                     -59.97699                     194.93238                     -29.69730
                    1163.37216                    -763.27905                      59.39460
                    2260.72514                    -431.96637                    -163.33516
                    -673.44464                     148.65726                     582.73020
                   -3085.48036                     576.59580                    -565.15762
                   -3588.27330                    1924.92042                    -521.21350
                   -5634.85995                    2154.60628                    1042.36202
                   -4062.66015                    1149.07149                    -366.82832
                   -3813.40955                    1684.49708                    -146.38145
                   -1460.25949                     510.94479                     330.56093
                   -1786.34465                     529.62215                    -145.12697
                    -841.27885                     349.26408                       9.02870
                   -1189.69284                     364.50170                     -27.26620
                    -953.80883                     316.60754                     -21.42661
                    -940.06198                     293.36576                      -3.15494
                    -847.65500                     250.35502                     -11.86601
                    -797.60962                     241.50165                     -12.29045
                    -733.85326                     214.04869                       2.69338
                    -662.34946                     184.47855                      -6.85188
                    -617.18041                     174.94991                      -2.79192
                    -568.79722                     154.06171                      -1.72808
                    -512.07875                     138.73168                      -3.51538
                    -465.86909                     123.21225                       0.17813
                    -414.67758                     109.04475                      -2.38979
                    -373.24634                      94.60898                       1.61367
                    -339.62852                      85.60582                      -3.88183
                    -284.85383                      71.78890                       2.16381
                    -276.98228                      65.28845                      -2.65853
                    -152.27911                      40.14819                       0.87079
                    -483.99511                     108.87141                      -0.17086
                    1037.66260                    -236.18381                      -2.06041
                   -6371.46745                    1467.21567                       1.03020
        </DataArray>
        <DataArray type="Float32" Name="TranslationalVelocity" NumberOfComponents="3" format="ascii">
                       0.00000                      -1.20428                       0.00000
                       0.00000                      -1.38492                       0.00000
                       0.00000                      -1.74620                       0.00000
                       0.00000                      -2.10749                       0.00000
                       0.00000                      -2.46877                       0.00000
                       0.00000                      -2.83005                       0.00000
                       0.00000                      -3.19133                       0.00000
                       0.00000                      -3.55262                       0.00000
                       0.00000                      -3.91390                       0.00000
                       0.00000                      -4.27518                       0.00000
                       0.00000                      -4.63647                       0.00000
                       0.00000                      -4.99775                       0.00000
                       0.00000                      -5.35903                       0.00000
                       0.00000                      -5.72032                       0.00000
                       0.00000                      -6.08160                       0.00000
                       0.00000                      -6.44288                       0.00000
                       0.00000                      -6.80417                       0.00000
                       0.00000                      -7.16545                       0.00000
                       0.00000                      -7.52673                       0.00000
                       0.00000                      -7.88802                       0.00000
                       0.00000                      -8.24930                       0.00000
                       0.00000                      -8.61058                       0.00000
                       0.00000                      -8.97187                       0.00000
                       0.00000                      -9.33315                       0.00000
                       0.00000                      -9.69443                       0.00000
                       0.00000                     -10.05571                       0.00000
                       0.00000                     -10.41700                       0.00000
                       0.00000                     -10.77828                       0.00000
                       0.00000                     -11.13956                       0.00000
                       0.00000                     -11.50085                       0.00000
                       0.00000                     -11.86213                       0.00000
                       0.00000                     -12.04277                       0.00000
        </DataArray>
        <DataArray type="Float32" Name="RotationalVelocity" NumberOfComponents="3" format="ascii">
                       1.20428                      -0.00000                       0.00000
                       1.20428                      -0.00000                       0.00000
                       1.20428                      -0.00000                       0.00000
                       1.20428                      -0.00000                       0.00000
                       1.20428                      -0.00000                       0.00000
                       1.20428                      -0.00000                       0.00000
                       1.20428                      -0.00000                       0.00000
                       1.20428                      -0.00000                       0.00000
                       1.20428                      -0.00000                       0.00000
                       1.20428                      -0.00000                       0.00000
                       1.20428                      -0.00000                       0.00000
                       1.20428                      -0.00000                       0.00000
                       1.20428                      -0.00000                       0.00000
                       1.20428                      -0.00000                       0.00000
                       1.20428                      -0.00000                       0.00000
                       1.20428                      -0.00000                       0.00000
                       1.20428                      -0.00000                       0.00000
                       1.20428                      -0.00000                       0.00000
                       1.20428                      -0.00000                       0.00000
                       1.20428                      -0.00000                       0.00000
                       1.20428                      -0.00000                       0.00000
                       1.20428                      -0.00000                       0.00000
                       1.20428                      -0.00000                       0.00000
                       1.20428                      -0.00000                       0.00000
                       1.20428                      -0.00000                       0.00000
                       1.20428                      -0.00000                       0.00000
                       1.20428                      -0.00000                       0.00000
                       1.20428                      -0.00000                       0.00000
                       1.20428                      -0.00000                       0.00000
                       1.20428                      -0.00000                       0.00000
                       1.20428                      -0.00000                       0.00000
                       1.20428                      -0.00000                       0.00000
        </DataArray>
        <DataArray type="Float32" Name="TranslationalAcceleration" NumberOfComponents="3" format="ascii">
                       0.54906                      -0.96945                      -1.00995
                       0.57234                      -1.12183                      -1.22749
                       0.63622                      -1.42775                      -1.66258
                       0.74465                      -1.73730                      -2.09766
                       0.90420                      -2.05313                      -2.53275
                       1.12280                      -2.37797                      -2.96783
                       1.40959                      -2.71429                      -3.40292
                       1.76463                      -3.06195                      -3.83800
                       2.19383                      -3.42150                      -4.27309
                       2.71649                      -3.79501                      -4.70817
                       3.34364                      -4.18286                      -5.14326
                       4.08619                      -4.58528                      -5.57834
                       4.95453                      -5.00233                      -6.01343
                       5.94173                      -5.43224                      -6.44851
                       7.05283                      -5.87490                      -6.88360
                       8.31134                      -6.33170                      -7.31868
                       9.72413                      -6.80221                      -7.75377
                      11.29619                      -7.28585                      -8.18885
                      13.03026                      -7.78193                      -8.62394
                      14.90790                      -8.28834                      -9.05902
                      16.92832                      -8.80459                      -9.49411
                      19.10736                      -9.33108                      -9.92919
                      21.43880                      -9.86675                     -10.36428
                      23.91273                     -10.41042                     -10.79936
                      26.51509                     -10.96084                     -11.23445
                      29.21673                     -11.51621                     -11.66954
                      32.00583                     -12.07581                     -12.10462
                      34.87252                     -12.63902                     -12.53971
                      37.78805                     -13.20459                     -12.97479
                      40.71803                     -13.77135                     -13.40988
                      43.62060                     -14.33833                     -13.84496
                      45.06383                     -14.62180                     -14.06250
        </DataArray>
        <DataArray type="Float32" Name="RotationalAcceleration" NumberOfComponents="3" format="ascii">
                       1.01263                       0.08968                       0.00000
                       1.01585                       0.15522                      -0.00000
                       1.02624                       0.29509                      -0.00000
                       1.04334                       0.45160                      -0.00000
                       1.06781                       0.62855                      -0.00000
                       1.09950                       0.82874                      -0.00000
                       1.13761                       1.05466                      -0.00000
                       1.18012                       1.31230                      -0.00000
                       1.22445                       1.60374                      -0.00000
                       1.26993                       1.92569                      -0.00000
                       1.31622                       2.27798                      -0.00000
                       1.36295                       2.65995                      -0.00000
                       1.40979                       3.07047                      -0.00000
                       1.45627                       3.51086                      -0.00000
                       1.50186                       3.97742                      -0.00000
                       1.54628                       4.46353                      -0.00000
                       1.58925                       4.96540                      -0.00000
                       1.63050                       5.47870                      -0.00000
                       1.66974                       5.99865                      -0.00000
                       1.70635                       6.51893                      -0.00000
                       1.73994                       7.03023                      -0.00000
                       1.77059                       7.52540                      -0.00000
                       1.79809                       7.99680                      -0.00000
                       1.82225                       8.43627                      -0.00000
                       1.84293                       8.83508                      -0.00000
                       1.85956                       9.17587                      -0.00000
                       1.87212                       9.44332                      -0.00000
                       1.88116                       9.63274                      -0.00000
                       1.88689                       9.73239                      -0.00000
                       1.88962                       9.73001                      -0.00000
                       1.88986                       9.62149                      -0.00000
                       1.88933                       9.53309                      -0.00000
        </DataArray>
        <DataArray type="Float32" Name="OrientationX" NumberOfComponents="3" format="ascii">
                       0.97492                      -0.22257                       0.00000
                       0.97492                      -0.22257                       0.00000
                       0.97492                      -0.22257                       0.00000
                       0.97492                      -0.22257                       0.00000
                       0.97492                      -0.22257                       0.00000
                       0.97492                      -0.22257                       0.00000
                       0.97492                      -0.22257                       0.00000
                       0.97979                      -0.20005                       0.00000
                       0.98345                      -0.18121                       0.00000
                       0.98629                      -0.16505                       0.00000
                       0.98847                      -0.15143                       0.00000
                       0.99022                      -0.13952                       0.00000
                       0.99160                      -0.12931                       0.00000
                       0.99274                      -0.12031                       0.00000
                       0.99367                      -0.11234                       0.00000
                       0.99445                      -0.10522                       0.00000
                       0.99509                      -0.09897                       0.00000
                       0.99564                      -0.09324                       0.00000
                       0.99612                      -0.08803                       0.00000
                       0.99654                      -0.08316                       0.00000
                       0.99690                      -0.07863                       0.00000
                       0.99724                      -0.07428                       0.00000
                       0.99753                      -0.07028                       0.00000
                       0.99780                      -0.06627                       0.00000
                       0.99806                      -0.06227                       0.00000
                       0.99829                      -0.05844                       0.00000
                       0.99851                      -0.05460                       0.00000
                       0.99872                      -0.05059                       0.00000
                       0.99891                      -0.04658                       0.00000
                       0.99910                      -0.04240                       0.00000
                       0.99928                      -0.03804                       0.00000
                       0.99928                      -0.03804                       0.00000
        </DataArray>
        <DataArray type="Float32" Name="OrientationY" NumberOfComponents="3" format="ascii">
                       0.22257                       0.97492                      -0.00000
                       0.22257                       0.97492                      -0.00000
                       0.22257                       0.97492                      -0.00000
                       0.22257                       0.97492                      -0.00000
                       0.22257                       0.97492                      -0.00000
                       0.22257                       0.97492                      -0.00000
                       0.22257                       0.97492                      -0.00000
                       0.20005                       0.97979                      -0.00000
                       0.18121                       0.98345                      -0.00000
                       0.16505                       0.98629                      -0.00000
                       0.15143                       0.98847                      -0.00000
                       0.13952                       0.99022                      -0.00000
                       0.12931                       0.99160                      -0.00000
                       0.12031                       0.99274                      -0.00000
                       0.11234                       0.99367                      -0.00000
                       0.10522                       0.99445                      -0.00000
                       0.09897                       0.99509                      -0.00000
                       0.09324                       0.99564                      -0.00000
                       0.08803                       0.99612                      -0.00000
                       0.08316                       0.99654                      -0.00000
                       0.07863                       0.99690                      -0.00000
                       0.07428                       0.99724                      -0.00000
                       0.07028                       0.99753                      -0.00000
                       0.06627                       0.99780                      -0.00000
                       0.06227                       0.99806                      -0.00000
                       0.05844                       0.99829                      -0.00000
                       0.05460                       0.99851                      -0.00000
                       0.05059                       0.99872                      -0.00000
                       0.04658                       0.99891                      -0.00000
                       0.04240                       0.99910                      -0.00000
                       0.03804                       0.99928                      -0.00000
                       0.03804                       0.99928                      -0.00000
        </DataArray>
        <DataArray type="Float32" Name="OrientationZ" NumberOfComponents="3" format="ascii">
                       0.00000                       0.00000                       1.00000
                      -0.00000                       0.00000                       1.00000
                       0.00000                       0.00000                       1.00000
                      -0.00000                       0.00000                       1.00000
                       0.00000                       0.00000                       1.00000
                       0.00000                       0.00000                       1.00000
                       0.00000                       0.00000                       1.00000
                      -0.00000                       0.00000                       1.00000
                      -0.00000                       0.00000                       1.00000
                      -0.00000                       0.00000                       1.00000
                       0.00000                       0.00000                       1.00000
                       0.00000                       0.00000                       1.00000
                       0.00000                       0.00000                       1.00000
                      -0.00000                       0.00000                       1.00000
                       0.00000                       0.00000                       1.00000
                      -0.00000                       0.00000                       1.00000
                       0.00000                       0.00000                       1.00000
                       0.00000                       0.00000                       1.00000
                      -0.00000                       0.00000                       1.00000
                       0.00000                       0.00000                       1.00000
                      -0.00000                       0.00000                       1.00000
                      -0.00000                       0.00000                       1.00000
                      -0.00000                       0.00000                       1.00000
                       0.00000                       0.00000                       1.00000
                      -0.00000                       0.00000                       1.00000
                       0.00000                       0.00000                       1.00000
                       0.00000                       0.00000                       1.00000
                      -0.00000                       0.00000                       1.00000
                       0.00000                       0.00000                       1.00000
                       0.00000                       0.00000                       1.00000
                      -0.00000                       0.00000                       1.00000
                       0.00000                       0.00000                       1.00000
        </DataArray>
      </PointData>
      <Lines>
        <DataArray type="Int32" Name="connectivity" format="ascii">
      0      1
      1      2
      2      3
      3      4
      4      5
      5      6
      6      7
      7      8
      8      9
      9     10
     10     11
     11     12
     12     13
     13     14
     14     15
     15     16
     16     17
     17     18
     18     19
     19     20
     20     21
     21     22
     22     23
     23     24
     24     25
     25     26
     26     27
     27     28
     28     29
     29     30
     30     31
        </DataArray>
        <DataArray type="Int32" Name="offsets" format="ascii">
      2
      4
      6
      8
     10
     12
     14
     16
     18
     20
     22
     24
     26
     28
     30
     32
     34
     36
     38
     40
     42
     44
     46
     48
     50
     52
     54
     56
     58
     60
     62
        </DataArray>
      </Lines>
    </Piece>
  </PolyData>
</VTKFile>
