<?xml version="1.0"?>
<VTKFile type="PolyData" version="0.1" byte_order="LittleEndian">
  <PolyData>
    <Piece NumberOfPoints="     32" NumberOfVerts="  0" NumberOfLines="     31"
           NumberOfStrips="  0" NumberOfPolys="      0">
      <Points>
        <DataArray type="Float32" NumberOfComponents="3" format="ascii">
                      -4.13556                       0.97086                     -19.82038
                      -4.13596                       1.12063                     -19.82855
                      -4.13675                       1.42018                     -19.84492
                      -4.13744                       1.71973                     -19.86134
                      -4.13797                       2.01928                     -19.87779
                      -4.13828                       2.31883                     -19.89426
                      -4.13828                       2.61838                     -19.91071
                      -4.13795                       2.91793                     -19.92714
                      -4.13724                       3.21748                     -19.94355
                      -4.13603                       3.51703                     -19.95992
                      -4.13423                       3.81658                     -19.97625
                      -4.13176                       4.11612                     -19.99255
                      -4.12853                       4.41567                     -20.00881
                      -4.12459                       4.71520                     -20.02503
                      -4.11989                       5.01473                     -20.04123
                      -4.11428                       5.31424                     -20.05739
                      -4.10770                       5.61373                     -20.07352
                      -4.10011                       5.91320                     -20.08963
                      -4.09150                       6.21265                     -20.10573
                      -4.08198                       6.51206                     -20.12181
                      -4.07154                       6.81145                     -20.13788
                      -4.06008                       7.11080                     -20.15394
                      -4.04765                       7.41011                     -20.17000
                      -4.03430                       7.70939                     -20.18606
                      -4.02012                       8.00862                     -20.20213
                      -4.00529                       8.30782                     -20.21819
                      -3.98990                       8.60700                     -20.23426
                      -3.97401                       8.90614                     -20.25034
                      -3.95780                       9.20527                     -20.26641
                      -3.94149                       9.50440                     -20.28248
                      -3.92534                       9.80353                     -20.29853
                      -3.91732                       9.95311                     -20.30655
        </DataArray>
      </Points>
      <PointData>
        <DataArray type="Float32" Name="Force" NumberOfComponents="3" format="ascii">
                   -4770.74040                   -5172.01016                   20185.49366
                    8895.79879                   11137.26648                  -25800.07495
                    7578.03178                   37462.95162                  -11107.57168
                   16142.01055                   17844.54600                  -78190.96452
                  -12529.77907                    9982.12663                   62999.83833
                  -16013.35014                  -32009.09514                   53494.54799
                  -27241.56324                  -45309.73182                   45625.79400
                     436.91215                  -39718.26277                  -12744.40890
                   -8510.35073                  -30472.22650                   11474.53221
                   -5700.80842                  -19364.64304                  -13045.37647
                   -7480.80679                  -11051.25556                    8364.58056
                   -6650.60469                  -12525.85588                    2648.25616
                   -6212.45354                  -11929.50452                    3919.72176
                   -5295.08720                  -11668.03387                    3113.14565
                   -4607.80144                  -11251.58943                    3344.68036
                   -3443.83967                  -11094.62125                    3063.88443
                   -2247.51162                  -10917.86786                    2761.18795
                   -1169.87910                  -10555.64238                    2610.73890
                     199.48027                  -10146.78728                    2567.12948
                    1647.13101                  -10187.94791                    2314.35979
                    3278.95143                   -9917.04064                    2122.74659
                    4894.89706                   -9706.77065                    2098.34749
                    6529.17291                   -9543.17327                    1750.00476
                    8246.89201                   -9130.02867                    1763.54617
                    9784.18215                   -9041.49092                    1549.53016
                   11478.00461                   -9022.72765                    1459.86641
                   12747.93109                   -8225.87020                    1217.52171
                   13820.59099                   -9272.97104                    1190.99472
                   14398.30794                   -4515.44120                     658.91039
                   12847.71422                  -20676.84187                    1730.37109
                   14298.62827                   42349.55739                   -3459.62964
                  -12563.95297                 -256414.10529                   14672.32371
        </DataArray>
        <DataArray type="Float32" Name="Moment" NumberOfComponents="3" format="ascii">
                    -224.12764                     -38.95875                    -191.43435
                     818.73748                      95.67728                     721.05387
                    2791.58573                    -191.98038                     372.88358
                    -858.55700                     489.29107                    -181.98514
                   -3169.65492                    -890.53829                    -343.70253
                   -4278.22209                   -1063.46925                   -1902.46065
                   -6734.76506                     754.04979                   -2184.70855
                   -5086.07160                    -764.14179                   -1113.79979
                   -4723.22759                    -507.18121                   -1749.34552
                   -1910.11015                     179.89019                    -561.27174
                   -2249.53894                    -378.72282                    -517.88143
                   -1138.47139                    -178.72748                    -384.89441
                   -1576.79486                    -191.38867                    -388.32528
                   -1308.24368                    -168.56320                    -343.01391
                   -1305.26353                    -140.51185                    -322.12378
                   -1203.41577                    -133.79010                    -282.10981
                   -1155.44473                    -120.77560                    -276.39329
                   -1084.36405                     -86.97487                    -253.98976
                    -999.81419                     -77.73697                    -224.04237
                    -952.11564                     -60.39322                    -211.44524
                    -896.53766                     -53.51852                    -191.00927
                    -825.68074                     -43.49433                    -179.92442
                    -768.34690                     -26.91702                    -161.38990
                    -699.84995                     -22.77866                    -149.16692
                    -644.97950                      -4.46656                    -132.11204
                    -601.78113                      -8.66329                    -119.66710
                    -515.66493                       4.11057                    -105.13562
                    -520.32548                       3.39571                     -98.25513
                    -276.36325                       3.68185                     -61.75130
                    -992.15759                      39.18683                    -174.55656
                    2193.03886                    -105.47198                     386.05716
                  -13126.21834                     573.20322                   -2367.26221
        </DataArray>
        <DataArray type="Float32" Name="TranslationalVelocity" NumberOfComponents="3" format="ascii">
                       1.03107                       0.03259                       1.49203
                       1.03972                       0.04258                       1.67460
                       1.05695                       0.06258                       2.03981
                       1.07400                       0.08265                       2.40517
                       1.09080                       0.10275                       2.77063
                       1.10725                       0.12286                       3.13615
                       1.12328                       0.14293                       3.50168
                       1.13884                       0.16297                       3.86721
                       1.15388                       0.18295                       4.23272
                       1.16824                       0.20287                       4.59818
                       1.18181                       0.22271                       4.96359
                       1.19448                       0.24248                       5.32894
                       1.20615                       0.26218                       5.69422
                       1.21686                       0.28182                       6.05942
                       1.22657                       0.30141                       6.42455
                       1.23507                       0.32095                       6.78960
                       1.24230                       0.34045                       7.15455
                       1.24819                       0.35993                       7.51942
                       1.25274                       0.37941                       7.88419
                       1.25607                       0.39889                       8.24888
                       1.25820                       0.41839                       8.61349
                       1.25900                       0.43791                       8.97801
                       1.25850                       0.45749                       9.34244
                       1.25679                       0.47712                       9.70678
                       1.25399                       0.49680                      10.07106
                       1.25034                       0.51654                      10.43526
                       1.24595                       0.53633                      10.79942
                       1.24089                       0.55616                      11.16352
                       1.23541                       0.57601                      11.52757
                       1.22981                       0.59587                      11.89160
                       1.22443                       0.61569                      12.25562
                       1.22180                       0.62560                      12.43762
        </DataArray>
        <DataArray type="Float32" Name="RotationalVelocity" NumberOfComponents="3" format="ascii">
                       1.21849                       0.06301                      -0.06138
                       1.21880                       0.06302                      -0.06117
                       1.21933                       0.06305                      -0.06064
                       1.21974                       0.06309                      -0.05992
                       1.22003                       0.06314                      -0.05898
                       1.22022                       0.06321                      -0.05778
                       1.22031                       0.06329                      -0.05632
                       1.22034                       0.06338                      -0.05454
                       1.22032                       0.06350                      -0.05242
                       1.22028                       0.06363                      -0.05001
                       1.22022                       0.06378                      -0.04730
                       1.22017                       0.06394                      -0.04430
                       1.22011                       0.06412                      -0.04103
                       1.22006                       0.06431                      -0.03747
                       1.22002                       0.06452                      -0.03366
                       1.22001                       0.06474                      -0.02965
                       1.22001                       0.06496                      -0.02550
                       1.22002                       0.06520                      -0.02122
                       1.22006                       0.06543                      -0.01687
                       1.22012                       0.06567                      -0.01251
                       1.22019                       0.06591                      -0.00820
                       1.22027                       0.06613                      -0.00402
                       1.22036                       0.06635                      -0.00004
                       1.22045                       0.06655                       0.00368
                       1.22054                       0.06674                       0.00706
                       1.22061                       0.06690                       0.00995
                       1.22066                       0.06702                       0.01223
                       1.22068                       0.06711                       0.01385
                       1.22066                       0.06716                       0.01471
                       1.22058                       0.06716                       0.01471
                       1.22045                       0.06711                       0.01382
                       1.22036                       0.06707                       0.01309
        </DataArray>
        <DataArray type="Float32" Name="TranslationalAcceleration" NumberOfComponents="3" format="ascii">
                       0.10023                      -1.49391                      -0.11817
                       0.12274                      -1.71822                      -0.13354
                       0.16821                      -2.16706                      -0.16542
                       0.21471                      -2.61638                      -0.19998
                       0.26202                      -3.06604                      -0.23676
                       0.30998                      -3.51590                      -0.27543
                       0.35840                      -3.96588                      -0.31573
                       0.40709                      -4.41588                      -0.35732
                       0.45597                      -4.86588                      -0.40010
                       0.50490                      -5.31584                      -0.44409
                       0.55376                      -5.76573                      -0.48919
                       0.60241                      -6.21551                      -0.53532
                       0.65075                      -6.66519                      -0.58242
                       0.69874                      -7.11478                      -0.63033
                       0.74633                      -7.56427                      -0.67905
                       0.79340                      -8.01365                      -0.72864
                       0.83987                      -8.46295                      -0.77907
                       0.88569                      -8.91216                      -0.83030
                       0.93083                      -9.36131                      -0.88229
                       0.97533                      -9.81041                      -0.93492
                       1.01921                     -10.25947                      -0.98814
                       1.06236                     -10.70850                      -1.04197
                       1.10480                     -11.15751                      -1.09635
                       1.14657                     -11.60651                      -1.15116
                       1.18772                     -12.05549                      -1.20631
                       1.22839                     -12.50447                      -1.26165
                       1.26863                     -12.95345                      -1.31713
                       1.30848                     -13.40240                      -1.37263
                       1.34808                     -13.85131                      -1.42801
                       1.38759                     -14.30017                      -1.48311
                       1.42721                     -14.74892                      -1.53776
                       1.44705                     -14.97328                      -1.56498
        </DataArray>
        <DataArray type="Float32" Name="RotationalAcceleration" NumberOfComponents="3" format="ascii">
                      -0.17530                       0.00401                      -0.06797
                      -0.18029                       0.00357                      -0.06977
                      -0.18945                       0.00260                      -0.07303
                      -0.19736                       0.00145                      -0.07579
                      -0.20412                       0.00008                      -0.07802
                      -0.20992                      -0.00156                      -0.07976
                      -0.21495                      -0.00347                      -0.08101
                      -0.21932                      -0.00572                      -0.08171
                      -0.22322                      -0.00833                      -0.08190
                      -0.22680                      -0.01126                      -0.08168
                      -0.23015                      -0.01453                      -0.08108
                      -0.23334                      -0.01811                      -0.08015
                      -0.23643                      -0.02200                      -0.07890
                      -0.23946                      -0.02621                      -0.07734
                      -0.24248                      -0.03071                      -0.07551
                      -0.24550                      -0.03542                      -0.07347
                      -0.24852                      -0.04030                      -0.07126
                      -0.25153                      -0.04531                      -0.06890
                      -0.25452                      -0.05041                      -0.06643
                      -0.25745                      -0.05552                      -0.06388
                      -0.26027                      -0.06055                      -0.06132
                      -0.26292                      -0.06543                      -0.05879
                      -0.26536                      -0.07008                      -0.05635
                      -0.26754                      -0.07442                      -0.05404
                      -0.26938                      -0.07836                      -0.05192
                      -0.27076                      -0.08174                      -0.05009
                      -0.27158                      -0.08439                      -0.04862
                      -0.27182                      -0.08627                      -0.04756
                      -0.27140                      -0.08726                      -0.04697
                      -0.27026                      -0.08725                      -0.04692
                      -0.26837                      -0.08620                      -0.04744
                      -0.26720                      -0.08533                      -0.04789
        </DataArray>
        <DataArray type="Float32" Name="OrientationX" NumberOfComponents="3" format="ascii">
                       0.98488                       0.01218                       0.17282
                       0.98488                       0.01211                       0.17283
                       0.98488                       0.01187                       0.17284
                       0.98488                       0.01147                       0.17286
                       0.98488                       0.01087                       0.17289
                       0.98488                       0.01007                       0.17294
                       0.98488                       0.00905                       0.17299
                       0.98861                       0.00652                       0.15036
                       0.99131                       0.00392                       0.13147
                       0.99333                       0.00124                       0.11531
                       0.99481                      -0.00153                       0.10173
                       0.99594                      -0.00443                       0.08989
                       0.99679                      -0.00745                       0.07977
                       0.99743                      -0.01063                       0.07088
                       0.99791                      -0.01395                       0.06304
                       0.99828                      -0.01737                       0.05607
                       0.99853                      -0.02086                       0.04997
                       0.99872                      -0.02441                       0.04440
                       0.99883                      -0.02800                       0.03936
                       0.99890                      -0.03158                       0.03466
                       0.99892                      -0.03509                       0.03031
                       0.99892                      -0.03850                       0.02612
                       0.99888                      -0.04174                       0.02228
                       0.99883                      -0.04479                       0.01842
                       0.99876                      -0.04758                       0.01455
                       0.99869                      -0.04998                       0.01084
                       0.99863                      -0.05192                       0.00710
                       0.99857                      -0.05337                       0.00316
                       0.99853                      -0.05424                      -0.00081
                       0.99850                      -0.05447                      -0.00500
                       0.99850                      -0.05402                      -0.00939
                       0.99853                      -0.05347                      -0.00942
        </DataArray>
        <DataArray type="Float32" Name="OrientationY" NumberOfComponents="3" format="ascii">
                       0.17323                      -0.05306                      -0.98345
                       0.17323                      -0.05319                      -0.98344
                       0.17323                      -0.05342                      -0.98343
                       0.17323                      -0.05361                      -0.98342
                       0.17323                      -0.05378                      -0.98341
                       0.17323                      -0.05393                      -0.98340
                       0.17323                      -0.05407                      -0.98340
                       0.15049                      -0.05437                      -0.98711
                       0.13149                      -0.05458                      -0.98981
                       0.11521                      -0.05473                      -0.99183
                       0.10150                      -0.05483                      -0.99332
                       0.08951                      -0.05488                      -0.99447
                       0.07925                      -0.05491                      -0.99534
                       0.07020                      -0.05491                      -0.99602
                       0.06219                      -0.05490                      -0.99655
                       0.05504                      -0.05488                      -0.99697
                       0.04877                      -0.05484                      -0.99730
                       0.04301                      -0.05480                      -0.99757
                       0.03778                      -0.05474                      -0.99779
                       0.03290                      -0.05468                      -0.99796
                       0.02836                      -0.05461                      -0.99810
                       0.02400                      -0.05452                      -0.99822
                       0.01999                      -0.05443                      -0.99832
                       0.01598                      -0.05432                      -0.99840
                       0.01197                      -0.05419                      -0.99846
                       0.00813                      -0.05404                      -0.99851
                       0.00430                      -0.05387                      -0.99854
                       0.00029                      -0.05367                      -0.99856
                      -0.00372                      -0.05344                      -0.99856
                      -0.00790                      -0.05319                      -0.99855
                      -0.01226                      -0.05290                      -0.99852
                      -0.01226                      -0.05287                      -0.99853
        </DataArray>
        <DataArray type="Float32" Name="OrientationZ" NumberOfComponents="3" format="ascii">
                      -0.00280                       0.99852                      -0.05437
                      -0.00271                       0.99851                      -0.05448
                      -0.00244                       0.99850                      -0.05466
                      -0.00201                       0.99850                      -0.05479
                      -0.00139                       0.99849                      -0.05485
                      -0.00058                       0.99849                      -0.05486
                       0.00045                       0.99850                      -0.05482
                       0.00174                       0.99850                      -0.05473
                       0.00329                       0.99850                      -0.05462
                       0.00508                       0.99850                      -0.05451
                       0.00710                       0.99849                      -0.05439
                       0.00934                       0.99848                      -0.05426
                       0.01180                       0.99846                      -0.05414
                       0.01448                       0.99843                      -0.05403
                       0.01736                       0.99839                      -0.05392
                       0.02039                       0.99834                      -0.05383
                       0.02355                       0.99828                      -0.05375
                       0.02679                       0.99820                      -0.05368
                       0.03009                       0.99811                      -0.05362
                       0.03341                       0.99800                      -0.05358
                       0.03668                       0.99789                      -0.05356
                       0.03986                       0.99777                      -0.05354
                       0.04289                       0.99764                      -0.05354
                       0.04572                       0.99752                      -0.05354
                       0.04829                       0.99740                      -0.05355
                       0.05049                       0.99729                      -0.05356
                       0.05223                       0.99720                      -0.05357
                       0.05346                       0.99713                      -0.05358
                       0.05412                       0.99710                      -0.05357
                       0.05412                       0.99710                      -0.05354
                       0.05345                       0.99714                      -0.05348
                       0.05289                       0.99717                      -0.05345
        </DataArray>
      </PointData>
      <Lines>
        <DataArray type="Int32" Name="connectivity" format="ascii">
      0      1
      1      2
      2      3
      3      4
      4      5
      5      6
      6      7
      7      8
      8      9
      9     10
     10     11
     11     12
     12     13
     13     14
     14     15
     15     16
     16     17
     17     18
     18     19
     19     20
     20     21
     21     22
     22     23
     23     24
     24     25
     25     26
     26     27
     27     28
     28     29
     29     30
     30     31
        </DataArray>
        <DataArray type="Int32" Name="offsets" format="ascii">
      2
      4
      6
      8
     10
     12
     14
     16
     18
     20
     22
     24
     26
     28
     30
     32
     34
     36
     38
     40
     42
     44
     46
     48
     50
     52
     54
     56
     58
     60
     62
        </DataArray>
      </Lines>
    </Piece>
  </PolyData>
</VTKFile>
