<?xml version="1.0"?>
<VTKFile type="PolyData" version="0.1" byte_order="LittleEndian">
  <PolyData>
    <Piece NumberOfPoints="     32" NumberOfVerts="  0" NumberOfLines="     31"
           NumberOfStrips="  0" NumberOfPolys="      0">
      <Points>
        <DataArray type="Float32" NumberOfComponents="3" format="ascii">
                      -4.85310                      -0.36739                     -19.04684
                      -4.85241                      -0.42208                     -18.90717
                      -4.85092                      -0.53149                     -18.62784
                      -4.84913                      -0.64092                     -18.34851
                      -4.84697                      -0.75040                     -18.06921
                      -4.84436                      -0.85995                     -17.78994
                      -4.84120                      -0.96960                     -17.51072
                      -4.83748                      -1.07934                     -17.23153
                      -4.83315                      -1.18918                     -16.95240
                      -4.82802                      -1.29913                     -16.67332
                      -4.82199                      -1.40919                     -16.39430
                      -4.81496                      -1.51938                     -16.11536
                      -4.80681                      -1.62968                     -15.83649
                      -4.79762                      -1.74009                     -15.55770
                      -4.78732                      -1.85059                     -15.27898
                      -4.77571                      -1.96120                     -15.00036
                      -4.76271                      -2.07192                     -14.72184
                      -4.74828                      -2.18273                     -14.44343
                      -4.73240                      -2.29363                     -14.16513
                      -4.71521                      -2.40460                     -13.88694
                      -4.69674                      -2.51562                     -13.60886
                      -4.67683                      -2.62671                     -13.33089
                      -4.65555                      -2.73785                     -13.05305
                      -4.63297                      -2.84904                     -12.77533
                      -4.60923                      -2.96025                     -12.49772
                      -4.58458                      -3.07148                     -12.22019
                      -4.55914                      -3.18272                     -11.94274
                      -4.53300                      -3.29398                     -11.66536
                      -4.50641                      -3.40525                     -11.38803
                      -4.47968                      -3.51652                     -11.11071
                      -4.45320                      -3.62779                     -10.83337
                      -4.44004                      -3.68343                     -10.69469
        </DataArray>
      </Points>
      <PointData>
        <DataArray type="Float32" Name="Force" NumberOfComponents="3" format="ascii">
                   -6384.85303                   -8942.43681                   -9805.10945
                    9295.79997                   23709.28545                   21907.16008
                    1426.57349                    2419.32833                   38620.56342
                   12443.90570                   64761.11781                   45862.69731
                  -17246.62311                  -49208.01666                  -14195.98398
                  -13434.96680                  -25213.90733                  -43688.30140
                  -17765.35166                  -14103.64372                  -49670.34323
                   11521.79505                   27398.86398                  -24815.75590
                    4779.85658                    4687.72909                  -26046.66743
                   10013.61123                   18651.27897                   -9318.24593
                    8862.02685                    -625.29489                  -10501.17286
                   10777.02266                    3957.90653                   -9610.99022
                   11894.99963                    2569.01180                   -9595.07870
                   13317.38111                    2862.74233                   -9152.68931
                   14276.35683                    2399.32280                   -8922.54861
                   15358.00887                    2398.82854                   -8722.37872
                   16215.44981                    2421.12226                   -8491.65482
                   16711.18718                    2316.82509                   -8178.63171
                   17110.52843                    2158.25755                   -7849.84776
                   17307.83821                    2278.74629                   -7733.48557
                   17386.88198                    2273.38599                   -7426.35919
                   17194.33946                    2200.71689                   -7175.22794
                   16772.14025                    2337.46395                   -6841.08584
                   16218.07116                    2194.26501                   -6442.36886
                   15385.23473                    2273.18624                   -6143.50966
                   14513.01054                    2277.80188                   -5896.60414
                   13326.28681                    2178.21698                   -5195.27962
                   11941.58498                    2368.91235                   -5433.76907
                   10269.11683                    1506.21871                   -2779.10463
                    6675.42929                    4468.05129                  -10345.68500
                    5505.85570                   -7127.39377                   21063.85303
                   -8723.41344                   50278.90791                 -124848.73938
        </DataArray>
        <DataArray type="Float32" Name="Moment" NumberOfComponents="3" format="ascii">
                      18.77097                     202.80635                      46.99938
                    1283.36818                    -758.67721                    -228.44564
                    2181.81598                    -351.45318                    -315.05392
                    -730.13514                     -85.61906                     643.66155
                   -3161.19790                     742.31253                    -259.69545
                   -3585.06446                    1989.68985                     270.29017
                   -5578.85491                    1612.35483                    1851.98315
                   -4042.21135                    1182.74454                     156.66800
                   -3807.41084                    1615.65908                     532.06380
                   -1451.15186                     353.36335                     521.55023
                   -1799.49763                     543.44294                      80.46577
                    -842.99819                     329.76618                     137.63241
                   -1197.82859                     353.77151                     133.14379
                    -963.06137                     298.49525                     114.56035
                    -950.77084                     275.83599                     114.29637
                    -858.89121                     242.07793                      96.58080
                    -810.54512                     229.58056                      94.72331
                    -746.57846                     201.92479                     101.76424
                    -675.38804                     174.74952                      93.15317
                    -631.15617                     156.99490                      92.38254
                    -583.28129                     140.68286                      82.58026
                    -526.23579                     128.25578                      80.06490
                    -479.90481                     109.32467                      78.71113
                    -428.39513                      98.60326                      72.09511
                    -386.22565                      81.41689                      73.35217
                    -353.22043                      73.01328                      61.96252
                    -296.76662                      60.19601                      59.42143
                    -289.92493                      55.65739                      53.90954
                    -160.35600                      32.31298                      37.00325
                    -507.69737                      91.88695                      93.73225
                    1083.26091                    -209.34170                    -183.53084
                   -6759.13198                    1247.02251                    1148.31970
        </DataArray>
        <DataArray type="Float32" Name="TranslationalVelocity" NumberOfComponents="3" format="ascii">
                       0.41334                      -1.20248                      -0.33361
                       0.41666                      -1.38024                      -0.40324
                       0.42318                      -1.73579                      -0.54253
                       0.42945                      -2.09141                      -0.68190
                       0.43577                      -2.44713                      -0.82138
                       0.44246                      -2.80297                      -0.96104
                       0.44986                      -3.15900                      -1.10092
                       0.45815                      -3.51520                      -1.24105
                       0.46754                      -3.87159                      -1.38143
                       0.47849                      -4.22822                      -1.52213
                       0.49136                      -4.58509                      -1.66319
                       0.50649                      -4.94222                      -1.80464
                       0.52421                      -5.29958                      -1.94651
                       0.54445                      -5.65715                      -2.08878
                       0.56737                      -6.01491                      -2.23148
                       0.59355                      -6.37288                      -2.37468
                       0.62321                      -6.73101                      -2.51843
                       0.65650                      -7.08929                      -2.66275
                       0.69354                      -7.44768                      -2.80768
                       0.73392                      -7.80613                      -2.95315
                       0.77765                      -8.16462                      -3.09919
                       0.82512                      -8.52312                      -3.24586
                       0.87619                      -8.88161                      -3.39316
                       0.93065                      -9.24004                      -3.54107
                       0.98817                      -9.59840                      -3.68954
                       1.04808                      -9.95669                      -3.83845
                       1.11010                     -10.31490                      -3.98775
                       1.17398                     -10.67302                      -4.13740
                       1.23906                     -11.03108                      -4.28727
                       1.30452                     -11.38910                      -4.43721
                       1.36937                     -11.74715                      -4.58703
                       1.40161                     -11.92617                      -4.66191
        </DataArray>
        <DataArray type="Float32" Name="RotationalVelocity" NumberOfComponents="3" format="ascii">
                       1.27261                       0.02677                      -0.00571
                       1.27271                       0.02614                      -0.00595
                       1.27297                       0.02527                      -0.00629
                       1.27334                       0.02511                      -0.00636
                       1.27385                       0.02575                      -0.00611
                       1.27451                       0.02722                      -0.00554
                       1.27533                       0.02957                      -0.00462
                       1.27630                       0.03295                      -0.00330
                       1.27736                       0.03736                      -0.00158
                       1.27851                       0.04270                       0.00051
                       1.27971                       0.04895                       0.00295
                       1.28096                       0.05606                       0.00573
                       1.28225                       0.06400                       0.00883
                       1.28356                       0.07281                       0.01227
                       1.28489                       0.08238                       0.01601
                       1.28621                       0.09252                       0.01998
                       1.28752                       0.10313                       0.02413
                       1.28880                       0.11412                       0.02843
                       1.29005                       0.12535                       0.03282
                       1.29124                       0.13669                       0.03725
                       1.29235                       0.14790                       0.04164
                       1.29338                       0.15881                       0.04591
                       1.29432                       0.16925                       0.04999
                       1.29515                       0.17901                       0.05381
                       1.29586                       0.18790                       0.05729
                       1.29643                       0.19553                       0.06027
                       1.29685                       0.20155                       0.06263
                       1.29711                       0.20585                       0.06431
                       1.29722                       0.20817                       0.06522
                       1.29717                       0.20823                       0.06524
                       1.29699                       0.20594                       0.06435
                       1.29685                       0.20405                       0.06360
        </DataArray>
        <DataArray type="Float32" Name="TranslationalAcceleration" NumberOfComponents="3" format="ascii">
                       1.62968                       0.39711                      -1.30869
                       1.62397                       0.49220                      -1.53240
                       1.60208                       0.68211                      -1.97995
                       1.55512                       0.87149                      -2.42777
                       1.48613                       1.06080                      -2.87574
                       1.39795                       1.25029                      -3.32386
                       1.29324                       1.44005                      -3.77222
                       1.17592                       1.62989                      -4.22091
                       1.04735                       1.81970                      -4.67002
                       0.90818                       2.00920                      -5.11973
                       0.76060                       2.19817                      -5.57018
                       0.60665                       2.38641                      -6.02151
                       0.44820                       2.57380                      -6.47384
                       0.28708                       2.76034                      -6.92714
                       0.12419                       2.94600                      -7.38149
                      -0.03940                       3.13061                      -7.83714
                      -0.20242                       3.31418                      -8.29420
                      -0.36379                       3.49674                      -8.75282
                      -0.52264                       3.67837                      -9.21308
                      -0.67872                       3.85926                      -9.67487
                      -0.83170                       4.03952                     -10.13822
                      -0.98080                       4.21918                     -10.60336
                      -1.12578                       4.39844                     -11.07030
                      -1.26661                       4.57748                     -11.53894
                      -1.40344                       4.75649                     -12.00915
                      -1.53699                       4.93561                     -12.48056
                      -1.66754                       5.11495                     -12.95302
                      -1.79522                       5.29467                     -13.42637
                      -1.92079                       5.47493                     -13.90018
                      -2.04520                       5.65583                     -14.37396
                      -2.16958                       5.83751                     -14.84714
                      -2.23184                       5.92852                     -15.08357
        </DataArray>
        <DataArray type="Float32" Name="RotationalAcceleration" NumberOfComponents="3" format="ascii">
                      -0.04840                       0.03930                      -0.03330
                      -0.04688                      -0.00061                      -0.05001
                      -0.04462                      -0.07622                      -0.08119
                      -0.04343                      -0.14500                      -0.10865
                      -0.04303                      -0.20674                      -0.13216
                      -0.04298                      -0.26174                      -0.15179
                      -0.04282                      -0.31031                      -0.16759
                      -0.04179                      -0.35204                      -0.17921
                      -0.03963                      -0.38740                      -0.18680
                      -0.03657                      -0.41746                      -0.19095
                      -0.03271                      -0.44253                      -0.19181
                      -0.02812                      -0.46295                      -0.18957
                      -0.02285                      -0.47904                      -0.18442
                      -0.01688                      -0.49069                      -0.17625
                      -0.01032                      -0.49842                      -0.16543
                      -0.00332                      -0.50307                      -0.15255
                       0.00405                      -0.50496                      -0.13788
                       0.01169                      -0.50444                      -0.12173
                       0.01949                      -0.50186                      -0.10440
                       0.02731                      -0.49739                      -0.08618
                       0.03495                      -0.49153                      -0.06757
                       0.04226                      -0.48482                      -0.04907
                       0.04907                      -0.47757                      -0.03104
                       0.05523                      -0.47009                      -0.01390
                       0.06055                      -0.46268                       0.00195
                       0.06470                      -0.45572                       0.01580
                       0.06740                      -0.44963                       0.02696
                       0.06861                      -0.44460                       0.03521
                       0.06814                      -0.44088                       0.04006
                       0.06581                      -0.43868                       0.04103
                       0.06159                      -0.43809                       0.03795
                       0.05888                      -0.43831                       0.03511
        </DataArray>
        <DataArray type="Float32" Name="OrientationX" NumberOfComponents="3" format="ascii">
                       0.97454                      -0.20725                      -0.08553
                       0.97454                      -0.20710                      -0.08592
                       0.97454                      -0.20676                      -0.08677
                       0.97453                      -0.20636                      -0.08781
                       0.97452                      -0.20587                      -0.08905
                       0.97451                      -0.20529                      -0.09052
                       0.97449                      -0.20462                      -0.09224
                       0.97936                      -0.18285                      -0.08607
                       0.98302                      -0.16439                      -0.08155
                       0.98584                      -0.14832                      -0.07827
                       0.98798                      -0.13451                      -0.07619
                       0.98967                      -0.12218                      -0.07499
                       0.99097                      -0.11134                      -0.07466
                       0.99200                      -0.10151                      -0.07503
                       0.99280                      -0.09255                      -0.07601
                       0.99342                      -0.08431                      -0.07748
                       0.99388                      -0.07683                      -0.07940
                       0.99422                      -0.06979                      -0.08161
                       0.99445                      -0.06320                      -0.08407
                       0.99461                      -0.05693                      -0.08666
                       0.99470                      -0.05101                      -0.08931
                       0.99474                      -0.04530                      -0.09188
                       0.99473                      -0.04000                      -0.09438
                       0.99471                      -0.03480                      -0.09661
                       0.99469                      -0.02973                      -0.09850
                       0.99468                      -0.02502                      -0.09997
                       0.99469                      -0.02056                      -0.10082
                       0.99476                      -0.01619                      -0.10094
                       0.99488                      -0.01213                      -0.10031
                       0.99508                      -0.00824                      -0.09876
                       0.99535                      -0.00455                      -0.09625
                       0.99542                      -0.00484                      -0.09551
        </DataArray>
        <DataArray type="Float32" Name="OrientationY" NumberOfComponents="3" format="ascii">
                       0.22416                       0.90780                       0.35447
                       0.22416                       0.90782                       0.35441
                       0.22416                       0.90787                       0.35430
                       0.22416                       0.90790                       0.35420
                       0.22416                       0.90794                       0.35412
                       0.22416                       0.90796                       0.35405
                       0.22416                       0.90799                       0.35398
                       0.20165                       0.91249                       0.35596
                       0.18281                       0.91585                       0.35749
                       0.16666                       0.91844                       0.35874
                       0.15305                       0.92041                       0.35974
                       0.14114                       0.92198                       0.36060
                       0.13094                       0.92320                       0.36132
                       0.12195                       0.92419                       0.36195
                       0.11398                       0.92499                       0.36250
                       0.10687                       0.92564                       0.36300
                       0.10063                       0.92617                       0.36344
                       0.09491                       0.92661                       0.36386
                       0.08970                       0.92697                       0.36424
                       0.08484                       0.92728                       0.36461
                       0.08033                       0.92755                       0.36497
                       0.07600                       0.92777                       0.36532
                       0.07201                       0.92796                       0.36566
                       0.06802                       0.92812                       0.36601
                       0.06403                       0.92826                       0.36637
                       0.06021                       0.92838                       0.36673
                       0.05640                       0.92847                       0.36710
                       0.05241                       0.92855                       0.36750
                       0.04841                       0.92860                       0.36791
                       0.04425                       0.92864                       0.36834
                       0.03990                       0.92866                       0.36879
                       0.03990                       0.92865                       0.36881
        </DataArray>
        <DataArray type="Float32" Name="OrientationZ" NumberOfComponents="3" format="ascii">
                       0.00419                      -0.36462                       0.93115
                       0.00460                      -0.36465                       0.93114
                       0.00552                      -0.36473                       0.93110
                       0.00663                      -0.36487                       0.93104
                       0.00795                      -0.36506                       0.93095
                       0.00950                      -0.36531                       0.93084
                       0.01132                      -0.36562                       0.93069
                       0.01345                      -0.36597                       0.93053
                       0.01592                      -0.36633                       0.93035
                       0.01868                      -0.36670                       0.93015
                       0.02173                      -0.36708                       0.92994
                       0.02508                      -0.36746                       0.92970
                       0.02870                      -0.36783                       0.92945
                       0.03260                      -0.36820                       0.92917
                       0.03676                      -0.36855                       0.92888
                       0.04111                      -0.36889                       0.92856
                       0.04561                      -0.36920                       0.92823
                       0.05023                      -0.36950                       0.92787
                       0.05491                      -0.36976                       0.92750
                       0.05960                      -0.37000                       0.92712
                       0.06422                      -0.37021                       0.92673
                       0.06869                      -0.37038                       0.92634
                       0.07296                      -0.37053                       0.92595
                       0.07693                      -0.37064                       0.92558
                       0.08055                      -0.37073                       0.92524
                       0.08363                      -0.37080                       0.92494
                       0.08606                      -0.37084                       0.92470
                       0.08778                      -0.37086                       0.92453
                       0.08869                      -0.37088                       0.92444
                       0.08868                      -0.37090                       0.92443
                       0.08771                      -0.37092                       0.92452
                       0.08691                      -0.37093                       0.92459
        </DataArray>
      </PointData>
      <Lines>
        <DataArray type="Int32" Name="connectivity" format="ascii">
      0      1
      1      2
      2      3
      3      4
      4      5
      5      6
      6      7
      7      8
      8      9
      9     10
     10     11
     11     12
     12     13
     13     14
     14     15
     15     16
     16     17
     17     18
     18     19
     19     20
     20     21
     21     22
     22     23
     23     24
     24     25
     25     26
     26     27
     27     28
     28     29
     29     30
     30     31
        </DataArray>
        <DataArray type="Int32" Name="offsets" format="ascii">
      2
      4
      6
      8
     10
     12
     14
     16
     18
     20
     22
     24
     26
     28
     30
     32
     34
     36
     38
     40
     42
     44
     46
     48
     50
     52
     54
     56
     58
     60
     62
        </DataArray>
      </Lines>
    </Piece>
  </PolyData>
</VTKFile>
