<?xml version="1.0"?>
<VTKFile type="PolyData" version="0.1" byte_order="LittleEndian">
  <PolyData>
    <Piece NumberOfPoints="     32" NumberOfVerts="  0" NumberOfLines="     31"
           NumberOfStrips="  0" NumberOfPolys="      0">
      <Points>
        <DataArray type="Float32" NumberOfComponents="3" format="ascii">
                      -4.80405                      -0.48550                     -19.08724
                      -4.80304                      -0.55756                     -18.95568
                      -4.80091                      -0.70167                     -18.69257
                      -4.79851                      -0.84579                     -18.42947
                      -4.79574                      -0.98995                     -18.16639
                      -4.79251                      -1.13417                     -17.90335
                      -4.78869                      -1.27848                     -17.64037
                      -4.78426                      -1.42288                     -17.37745
                      -4.77914                      -1.56738                     -17.11459
                      -4.77312                      -1.71199                     -16.85181
                      -4.76608                      -1.85673                     -16.58913
                      -4.75788                      -2.00158                     -16.32655
                      -4.74839                      -2.14656                     -16.06408
                      -4.73768                      -2.29164                     -15.80171
                      -4.72569                      -2.43683                     -15.53946
                      -4.71215                      -2.58212                     -15.27734
                      -4.69700                      -2.72751                     -15.01536
                      -4.68016                      -2.87299                     -14.75353
                      -4.66160                      -3.01855                     -14.49187
                      -4.64152                      -3.16416                     -14.23035
                      -4.61992                      -3.30983                     -13.96898
                      -4.59662                      -3.45554                     -13.70778
                      -4.57169                      -3.60128                     -13.44674
                      -4.54524                      -3.74705                     -13.18587
                      -4.51741                      -3.89283                     -12.92515
                      -4.48851                      -4.03861                     -12.66455
                      -4.45867                      -4.18439                     -12.40405
                      -4.42800                      -4.33017                     -12.14365
                      -4.39680                      -4.47594                     -11.88331
                      -4.36543                      -4.62172                     -11.62299
                      -4.33436                      -4.76752                     -11.36264
                      -4.31890                      -4.84042                     -11.23246
        </DataArray>
      </Points>
      <PointData>
        <DataArray type="Float32" Name="Force" NumberOfComponents="3" format="ascii">
                   -6213.49622                   -7359.85533                  -10716.16676
                    9535.58485                   21072.40414                   24933.31070
                    3144.37692                   -2364.94299                   38774.44474
                   13975.91716                   59081.05973                   53998.03084
                  -16705.87790                  -46435.69722                  -20170.98791
                  -14597.11293                  -18338.18250                  -46143.74881
                  -21142.29989                   -6184.71105                  -50436.75191
                    7313.11766                   32159.52447                  -20325.58155
                    -399.33270                    9680.86136                  -24439.23616
                    4149.16237                   21529.87927                   -5901.23036
                    2309.07312                    2383.68388                   -9546.90176
                    3727.95958                    6822.90729                   -8062.00415
                    4477.24766                    5380.35599                   -8230.97748
                    5731.39723                    5544.99756                   -7771.46532
                    6704.93079                    4958.37368                   -7637.95793
                    7970.77635                    4828.94940                   -7490.73551
                    9202.56289                    4708.67484                   -7328.54270
                   10265.25142                    4439.49693                   -7119.18222
                   11381.28994                    4110.45454                   -6919.60016
                   12483.40886                    4088.97205                   -6922.60597
                   13622.21886                    3919.91481                   -6769.33618
                   14595.91029                    3697.27707                   -6697.45018
                   15452.07213                    3687.66439                   -6528.52563
                   16253.60161                    3398.17342                   -6341.34474
                   16819.91575                    3364.06228                   -6230.95889
                   17366.48345                    3279.90699                   -6184.54324
                   17564.06580                    3047.10495                   -5666.90507
                   17475.39007                    3265.99071                   -6062.37898
                   17029.76378                    2027.01665                   -3549.98212
                   14191.10093                    6188.72059                  -11071.47474
                   14221.80796                   -9958.33946                   20085.05605
                  -11325.47549                   69265.04532                 -122980.25028
        </DataArray>
        <DataArray type="Float32" Name="Moment" NumberOfComponents="3" format="ascii">
                      44.50790                     193.99129                      72.56814
                    1321.84915                    -722.67230                    -322.78531
                    2164.16844                    -315.50657                    -359.84623
                    -756.31430                    -173.92709                     651.71586
                   -3189.84435                     764.29385                    -127.77799
                   -3594.90493                    1939.69781                     561.74028
                   -5582.76205                    1360.14949                    2093.60682
                   -4057.14530                    1151.62522                     341.78907
                   -3823.56612                    1540.67282                     761.89567
                   -1459.44112                     282.53518                     581.74262
                   -1814.44979                     530.46661                     162.74490
                    -850.46900                     311.66557                     187.32856
                   -1209.92912                     336.58019                     189.07034
                    -974.59412                     282.74273                     161.29091
                    -963.43678                     261.81816                     156.00403
                    -871.65036                     231.14555                     134.39751
                    -823.93007                     218.49110                     130.68355
                    -759.99932                     190.68641                     134.50464
                    -688.55736                     163.89250                     124.05631
                    -644.58911                     144.98309                     120.45217
                    -596.85718                     130.74694                     107.79019
                    -539.35823                     118.81407                     104.47370
                    -492.76353                      99.35373                     100.71007
                    -440.69503                      89.74486                      92.83928
                    -397.97712                      71.69900                      92.42225
                    -364.87141                      64.40746                      79.19136
                    -307.11819                      52.20436                      74.44719
                    -300.92644                      48.32797                      68.63617
                    -166.51842                      27.00966                      46.17086
                    -529.60620                      79.63827                     118.81192
                    1130.13991                    -188.30594                    -234.82878
                   -7078.54789                    1103.13433                    1465.87732
        </DataArray>
        <DataArray type="Float32" Name="TranslationalVelocity" NumberOfComponents="3" format="ascii">
                       0.55017                      -1.14737                      -0.47153
                       0.55350                      -1.31616                      -0.56400
                       0.56028                      -1.65372                      -0.74895
                       0.56734                      -1.99126                      -0.93391
                       0.57471                      -2.32880                      -1.11895
                       0.58246                      -2.66631                      -1.30410
                       0.59063                      -3.00380                      -1.48941
                       0.59924                      -3.34127                      -1.67490
                       0.60831                      -3.67871                      -1.86057
                       0.61797                      -4.01612                      -2.04648
                       0.62828                      -4.35347                      -2.23263
                       0.63933                      -4.69076                      -2.41905
                       0.65117                      -5.02798                      -2.60574
                       0.66376                      -5.36511                      -2.79268
                       0.67714                      -5.70215                      -2.97988
                       0.69145                      -6.03907                      -3.16737
                       0.70673                      -6.37585                      -3.35516
                       0.72303                      -6.71246                      -3.54324
                       0.74035                      -7.04889                      -3.73161
                       0.75858                      -7.38515                      -3.92024
                       0.77772                      -7.72121                      -4.10912
                       0.79786                      -8.05706                      -4.29826
                       0.81896                      -8.39268                      -4.48766
                       0.84097                      -8.72806                      -4.67729
                       0.86380                      -9.06324                      -4.86713
                       0.88725                      -9.39824                      -5.05712
                       0.91126                      -9.73308                      -5.24725
                       0.93575                     -10.06778                      -5.43750
                       0.96056                     -10.40239                      -5.62782
                       0.98546                     -10.73697                      -5.81818
                       1.01018                     -11.07161                      -6.00851
                       1.02250                     -11.23894                      -6.10367
        </DataArray>
        <DataArray type="Float32" Name="RotationalVelocity" NumberOfComponents="3" format="ascii">
                       1.28294                       0.03001                      -0.00937
                       1.28291                       0.03037                      -0.00917
                       1.28287                       0.03114                      -0.00875
                       1.28290                       0.03200                      -0.00828
                       1.28298                       0.03298                      -0.00774
                       1.28312                       0.03408                      -0.00714
                       1.28331                       0.03534                      -0.00645
                       1.28354                       0.03677                      -0.00567
                       1.28378                       0.03839                      -0.00479
                       1.28404                       0.04018                      -0.00381
                       1.28431                       0.04214                      -0.00273
                       1.28458                       0.04427                      -0.00157
                       1.28485                       0.04656                      -0.00032
                       1.28513                       0.04902                       0.00103
                       1.28540                       0.05162                       0.00245
                       1.28566                       0.05434                       0.00394
                       1.28591                       0.05714                       0.00547
                       1.28615                       0.06001                       0.00704
                       1.28638                       0.06292                       0.00863
                       1.28660                       0.06583                       0.01023
                       1.28679                       0.06869                       0.01179
                       1.28697                       0.07146                       0.01331
                       1.28713                       0.07410                       0.01475
                       1.28727                       0.07656                       0.01610
                       1.28739                       0.07879                       0.01732
                       1.28749                       0.08070                       0.01836
                       1.28756                       0.08220                       0.01918
                       1.28762                       0.08326                       0.01976
                       1.28766                       0.08381                       0.02007
                       1.28769                       0.08380                       0.02006
                       1.28771                       0.08320                       0.01973
                       1.28772                       0.08270                       0.01946
        </DataArray>
        <DataArray type="Float32" Name="TranslationalAcceleration" NumberOfComponents="3" format="ascii">
                       1.27368                       0.90614                      -1.12654
                       1.27667                       1.01712                      -1.34760
                       1.28380                       1.23330                      -1.79290
                       1.29331                       1.43596                      -2.24565
                       1.30362                       1.62781                      -2.70443
                       1.31293                       1.81103                      -3.16812
                       1.31926                       1.98746                      -3.63576
                       1.32137                       2.15899                      -4.10628
                       1.31808                       2.32632                      -4.57931
                       1.30681                       2.48974                      -5.05464
                       1.28537                       2.64996                      -5.53180
                       1.25159                       2.80741                      -6.01042
                       1.20342                       2.96230                      -6.49017
                       1.14101                       3.11500                      -6.97069
                       1.06333                       3.26549                      -7.45182
                       0.96692                       3.41343                      -7.93338
                       0.85037                       3.55867                      -8.41511
                       0.71259                       3.70105                      -8.89675
                       0.55286                       3.84038                      -9.37800
                       0.37346                       3.97689                      -9.85872
                       0.17435                       4.11051                     -10.33873
                      -0.04682                       4.24082                     -10.81772
                      -0.28932                       4.36784                     -11.29545
                      -0.55187                       4.49176                     -11.77176
                      -0.83257                       4.61291                     -12.24655
                      -1.12740                       4.73199                     -12.71996
                      -1.43470                       4.84939                     -13.19201
                      -1.75309                       4.96557                     -13.66261
                      -2.07857                       5.08154                     -14.13192
                      -2.40633                       5.19852                     -14.60024
                      -2.73057                       5.31805                     -15.06790
                      -2.89162                       5.37843                     -15.30161
        </DataArray>
        <DataArray type="Float32" Name="RotationalAcceleration" NumberOfComponents="3" format="ascii">
                       0.03016                       0.07184                      -0.03983
                       0.05814                       0.07640                      -0.03732
                       0.10920                       0.08352                      -0.03322
                       0.15268                       0.08702                      -0.03078
                       0.18891                       0.08625                      -0.03034
                       0.21882                       0.08082                      -0.03208
                       0.24332                       0.07045                      -0.03612
                       0.26294                       0.05436                      -0.04286
                       0.27899                       0.03230                      -0.05239
                       0.29266                       0.00482                      -0.06448
                       0.30455                      -0.02807                      -0.07915
                       0.31515                      -0.06628                      -0.09633
                       0.32489                      -0.10959                      -0.11594
                       0.33411                      -0.15826                      -0.13811
                       0.34316                      -0.21167                      -0.16254
                       0.35224                      -0.26869                      -0.18871
                       0.36143                      -0.32874                      -0.21632
                       0.37075                      -0.39116                      -0.24508
                       0.38019                      -0.45521                      -0.27464
                       0.38967                      -0.52005                      -0.30460
                       0.39899                      -0.58434                      -0.33433
                       0.40795                      -0.64700                      -0.36333
                       0.41634                      -0.70696                      -0.39110
                       0.42389                      -0.76311                      -0.41711
                       0.43033                      -0.81426                      -0.44082
                       0.43511                      -0.85817                      -0.46116
                       0.43771                      -0.89283                      -0.47722
                       0.43793                      -0.91760                      -0.48870
                       0.43536                      -0.93100                      -0.49491
                       0.42960                      -0.93148                      -0.49513
                       0.42047                      -0.91855                      -0.48914
                       0.41482                      -0.90778                      -0.48415
        </DataArray>
        <DataArray type="Float32" Name="OrientationX" NumberOfComponents="3" format="ascii">
                       0.97411                      -0.19520                      -0.11405
                       0.97411                      -0.19504                      -0.11435
                       0.97410                      -0.19465                      -0.11506
                       0.97409                      -0.19415                      -0.11598
                       0.97408                      -0.19350                      -0.11716
                       0.97406                      -0.19270                      -0.11862
                       0.97404                      -0.19174                      -0.12036
                       0.97895                      -0.17083                      -0.11169
                       0.98263                      -0.15295                      -0.10513
                       0.98546                      -0.13724                      -0.10018
                       0.98760                      -0.12359                      -0.09676
                       0.98929                      -0.11127                      -0.09445
                       0.99058                      -0.10027                      -0.09326
                       0.99158                      -0.09016                      -0.09295
                       0.99234                      -0.08080                      -0.09340
                       0.99291                      -0.07209                      -0.09446
                       0.99331                      -0.06404                      -0.09610
                       0.99358                      -0.05637                      -0.09811
                       0.99373                      -0.04912                      -0.10044
                       0.99379                      -0.04216                      -0.10295
                       0.99378                      -0.03554                      -0.10554
                       0.99372                      -0.02916                      -0.10807
                       0.99360                      -0.02320                      -0.11055
                       0.99347                      -0.01740                      -0.11274
                       0.99335                      -0.01181                      -0.11454
                       0.99324                      -0.00668                      -0.11588
                       0.99318                      -0.00193                      -0.11654
                       0.99320                       0.00258                      -0.11639
                       0.99330                       0.00661                      -0.11540
                       0.99350                       0.01027                      -0.11337
                       0.99381                       0.01353                      -0.11026
                       0.99391                       0.01308                      -0.10944
        </DataArray>
        <DataArray type="Float32" Name="OrientationY" NumberOfComponents="3" format="ascii">
                       0.22599                       0.85506                       0.46669
                       0.22599                       0.85510                       0.46661
                       0.22599                       0.85518                       0.46647
                       0.22599                       0.85525                       0.46635
                       0.22599                       0.85531                       0.46624
                       0.22598                       0.85536                       0.46615
                       0.22598                       0.85541                       0.46606
                       0.20348                       0.85963                       0.46864
                       0.18465                       0.86279                       0.47064
                       0.16850                       0.86521                       0.47224
                       0.15490                       0.86705                       0.47353
                       0.14299                       0.86850                       0.47461
                       0.13280                       0.86963                       0.47552
                       0.12380                       0.87053                       0.47630
                       0.11584                       0.87125                       0.47698
                       0.10873                       0.87183                       0.47759
                       0.10249                       0.87229                       0.47813
                       0.09677                       0.87267                       0.47863
                       0.09157                       0.87298                       0.47909
                       0.08672                       0.87323                       0.47953
                       0.08221                       0.87344                       0.47995
                       0.07788                       0.87361                       0.48036
                       0.07389                       0.87374                       0.48075
                       0.06991                       0.87384                       0.48116
                       0.06592                       0.87392                       0.48158
                       0.06211                       0.87397                       0.48199
                       0.05830                       0.87400                       0.48242
                       0.05432                       0.87400                       0.48288
                       0.05034                       0.87398                       0.48335
                       0.04618                       0.87393                       0.48385
                       0.04184                       0.87386                       0.48437
                       0.04184                       0.87385                       0.48439
        </DataArray>
        <DataArray type="Float32" Name="OrientationZ" NumberOfComponents="3" format="ascii">
                       0.00642                      -0.48038                       0.87704
                       0.00677                      -0.48037                       0.87704
                       0.00760                      -0.48039                       0.87702
                       0.00866                      -0.48048                       0.87696
                       0.00999                      -0.48064                       0.87686
                       0.01163                      -0.48087                       0.87672
                       0.01360                      -0.48116                       0.87653
                       0.01595                      -0.48151                       0.87630
                       0.01873                      -0.48187                       0.87604
                       0.02186                      -0.48226                       0.87576
                       0.02537                      -0.48265                       0.87545
                       0.02922                      -0.48304                       0.87511
                       0.03342                      -0.48342                       0.87475
                       0.03797                      -0.48379                       0.87436
                       0.04283                      -0.48415                       0.87394
                       0.04793                      -0.48448                       0.87349
                       0.05321                      -0.48478                       0.87302
                       0.05864                      -0.48505                       0.87252
                       0.06415                      -0.48528                       0.87200
                       0.06968                      -0.48548                       0.87147
                       0.07513                      -0.48564                       0.87093
                       0.08041                      -0.48576                       0.87039
                       0.08544                      -0.48584                       0.86986
                       0.09014                      -0.48590                       0.86935
                       0.09441                      -0.48593                       0.86889
                       0.09806                      -0.48593                       0.86848
                       0.10093                      -0.48593                       0.86815
                       0.10297                      -0.48592                       0.86792
                       0.10405                      -0.48592                       0.86779
                       0.10404                      -0.48594                       0.86778
                       0.10291                      -0.48599                       0.86789
                       0.10197                      -0.48602                       0.86798
        </DataArray>
      </PointData>
      <Lines>
        <DataArray type="Int32" Name="connectivity" format="ascii">
      0      1
      1      2
      2      3
      3      4
      4      5
      5      6
      6      7
      7      8
      8      9
      9     10
     10     11
     11     12
     12     13
     13     14
     14     15
     15     16
     16     17
     17     18
     18     19
     19     20
     20     21
     21     22
     22     23
     23     24
     24     25
     25     26
     26     27
     27     28
     28     29
     29     30
     30     31
        </DataArray>
        <DataArray type="Int32" Name="offsets" format="ascii">
      2
      4
      6
      8
     10
     12
     14
     16
     18
     20
     22
     24
     26
     28
     30
     32
     34
     36
     38
     40
     42
     44
     46
     48
     50
     52
     54
     56
     58
     60
     62
        </DataArray>
      </Lines>
    </Piece>
  </PolyData>
</VTKFile>
