<?xml version="1.0"?>
<VTKFile type="PolyData" version="0.1" byte_order="LittleEndian">
  <PolyData>
    <Piece NumberOfPoints="     32" NumberOfVerts="  0" NumberOfLines="     31"
           NumberOfStrips="  0" NumberOfPolys="      0">
      <Points>
        <DataArray type="Float32" NumberOfComponents="3" format="ascii">
                      -4.86147                       0.36185                     -20.90914
                      -4.86206                       0.41653                     -21.04882
                      -4.86314                       0.52586                     -21.32818
                      -4.86402                       0.63514                     -21.60757
                      -4.86463                       0.74441                     -21.88696
                      -4.86492                       0.85368                     -22.16635
                      -4.86481                       0.96297                     -22.44574
                      -4.86430                       1.07230                     -22.72510
                      -4.86334                       1.18168                     -23.00445
                      -4.86181                       1.29111                     -23.28378
                      -4.85962                       1.40060                     -23.56308
                      -4.85670                       1.51015                     -23.84234
                      -4.85297                       1.61977                     -24.12157
                      -4.84848                       1.72944                     -24.40077
                      -4.84318                       1.83917                     -24.67993
                      -4.83692                       1.94896                     -24.95905
                      -4.82965                       2.05881                     -25.23812
                      -4.82133                       2.16871                     -25.51715
                      -4.81194                       2.27865                     -25.79612
                      -4.80160                       2.38863                     -26.07504
                      -4.79032                       2.49864                     -26.35391
                      -4.77798                       2.60868                     -26.63273
                      -4.76463                       2.71874                     -26.91149
                      -4.75034                       2.82882                     -27.19020
                      -4.73519                       2.93892                     -27.46885
                      -4.71938                       3.04902                     -27.74747
                      -4.70299                       3.15914                     -28.02605
                      -4.68608                       3.26925                     -28.30460
                      -4.66885                       3.37938                     -28.58312
                      -4.65151                       3.48952                     -28.86164
                      -4.63436                       3.59967                     -29.14015
                      -4.62584                       3.65475                     -29.27942
        </DataArray>
      </Points>
      <PointData>
        <DataArray type="Float32" Name="Force" NumberOfComponents="3" format="ascii">
                   -6804.65630                   13828.07506                   12503.44323
                   10240.04013                  -22978.39136                  -23160.99529
                    2907.24020                    1330.72793                  -43084.09118
                   16600.00526                  -74378.62480                  -53731.76294
                  -18713.19415                   61056.63391                   17583.80036
                  -17153.11882                   34623.57786                   55391.98208
                  -26237.50221                   21280.70914                   65697.19447
                   10050.82942                  -33839.93562                   34007.33742
                     476.70457                   -4798.78083                   36328.78980
                    6495.72475                  -24904.47184                   13445.84833
                    4262.32797                    1568.08607                   15228.20353
                    6333.44298                   -5006.06195                   14283.12584
                    7329.19462                   -3320.91757                   14513.19517
                    8756.65857                   -3981.20490                   14069.70413
                    9617.18438                   -3484.40714                   13957.80379
                   10790.71258                   -3662.45786                   13862.64651
                   11729.94601                   -3888.40160                   13718.51802
                   12200.42915                   -3865.29504                   13406.27547
                   12748.50256                   -3693.83964                   13075.12042
                   13112.12036                   -4005.40340                   13126.69714
                   13447.02530                   -4077.18182                   12819.32461
                   13487.68615                   -3987.07872                   12639.06483
                   13339.86168                   -4310.18658                   12302.59825
                   13088.68010                   -4048.02871                   11831.93893
                   12466.51241                   -4243.37805                   11595.67570
                   11991.63157                   -4299.38551                   11511.38280
                   10961.08667                   -4097.12921                   10321.32401
                    9701.60917                   -4688.50441                   11651.19004
                    8025.64863                   -2442.27488                    5098.47194
                    3505.40157                  -10611.04726                   26901.53008
                    4406.15045                   20680.51699                  -58531.70952
                  -18269.86712                 -135444.85324                  343930.31726
        </DataArray>
        <DataArray type="Float32" Name="Moment" NumberOfComponents="3" format="ascii">
                     -43.07134                    -201.58550                     -38.80942
                     989.72319                     789.42812                     235.28212
                    2875.28999                     422.35896                     386.25648
                   -1178.44186                     -31.62811                    -683.37426
                   -3492.83373                    -877.47116                     536.22937
                   -4596.10856                   -2581.62913                     -39.81030
                   -7228.45002                   -2117.31272                   -2061.82902
                   -5637.49496                   -1715.74128                       4.49596
                   -5203.58896                   -2246.63277                    -495.22428
                   -2173.10008                    -574.36952                    -595.74479
                   -2568.10990                    -817.51366                      23.15815
                   -1318.32749                    -537.04373                     -92.32241
                   -1840.32493                    -575.92211                     -83.08698
                   -1549.35233                    -510.57982                     -71.89167
                   -1561.43463                    -480.95915                     -85.68358
                   -1457.43090                    -434.78609                     -65.35162
                   -1414.21510                    -425.48768                     -70.84612
                   -1342.30043                    -384.64662                     -92.17141
                   -1251.81077                    -345.96188                     -82.07139
                   -1204.85910                    -323.89087                     -91.07339
                   -1147.45115                    -297.77648                     -83.99970
                   -1067.65751                    -279.33243                     -85.92601
                   -1004.59174                    -248.19839                     -92.39619
                    -924.35275                    -230.64934                     -87.38999
                    -861.39610                    -198.99210                     -97.87305
                    -812.23670                    -186.15680                     -83.35545
                    -702.81071                    -157.64934                     -87.79844
                    -718.05325                    -152.26156                     -82.80469
                    -383.47892                     -91.27497                     -53.87512
                   -1392.85857                    -263.85837                    -187.64881
                    3069.33768                     578.43952                     426.11224
                  -18662.49330                   -3582.57098                   -2557.44371
        </DataArray>
        <DataArray type="Float32" Name="TranslationalVelocity" NumberOfComponents="3" format="ascii">
                       0.36766                       1.16754                       0.59464
                       0.36420                       1.34524                       0.66422
                       0.35728                       1.70055                       0.80330
                       0.35037                       2.05567                       0.94223
                       0.34370                       2.41069                       1.08108
                       0.33752                       2.76565                       1.21991
                       0.33209                       3.12064                       1.35878
                       0.32754                       3.47567                       1.49772
                       0.32404                       3.83078                       1.63674
                       0.32197                       4.18600                       1.77589
                       0.32163                       4.54135                       1.91519
                       0.32328                       4.89683                       2.05466
                       0.32721                       5.25245                       2.19432
                       0.33333                       5.60819                       2.33416
                       0.34178                       5.96405                       2.47420
                       0.35306                       6.32002                       2.61447
                       0.36732                       6.67609                       2.75500
                       0.38472                       7.03223                       2.89579
                       0.40533                       7.38843                       3.03686
                       0.42881                       7.74466                       3.17819
                       0.45516                       8.10089                       3.31979
                       0.48470                       8.45712                       3.46169
                       0.51733                       8.81332                       3.60388
                       0.55285                       9.16948                       3.74638
                       0.59099                       9.52558                       3.88914
                       0.63116                       9.88162                       4.03212
                       0.67312                      10.23761                       4.17529
                       0.71668                      10.59356                       4.31865
                       0.76126                      10.94947                       4.46212
                       0.80616                      11.30539                       4.60565
                       0.85052                      11.66136                       4.74916
                       0.87255                      11.83936                       4.82091
        </DataArray>
        <DataArray type="Float32" Name="RotationalVelocity" NumberOfComponents="3" format="ascii">
                       1.27261                       0.02677                      -0.00571
                       1.27216                       0.02694                      -0.00564
                       1.27140                       0.02698                      -0.00562
                       1.27087                       0.02649                      -0.00581
                       1.27059                       0.02540                      -0.00623
                       1.27053                       0.02365                      -0.00692
                       1.27070                       0.02122                      -0.00787
                       1.27105                       0.01798                      -0.00914
                       1.27153                       0.01390                      -0.01074
                       1.27209                       0.00908                      -0.01263
                       1.27273                       0.00353                      -0.01481
                       1.27341                      -0.00273                      -0.01726
                       1.27413                      -0.00967                      -0.01998
                       1.27488                      -0.01731                      -0.02298
                       1.27562                      -0.02558                      -0.02622
                       1.27635                      -0.03431                      -0.02964
                       1.27707                      -0.04343                      -0.03322
                       1.27776                      -0.05285                      -0.03691
                       1.27842                      -0.06247                      -0.04068
                       1.27903                      -0.07216                      -0.04447
                       1.27960                      -0.08173                      -0.04823
                       1.28011                      -0.09104                      -0.05187
                       1.28057                      -0.09994                      -0.05536
                       1.28097                      -0.10826                      -0.05862
                       1.28131                      -0.11582                      -0.06158
                       1.28159                      -0.12231                      -0.06412
                       1.28181                      -0.12743                      -0.06613
                       1.28198                      -0.13107                      -0.06756
                       1.28211                      -0.13303                      -0.06832
                       1.28220                      -0.13306                      -0.06834
                       1.28228                      -0.13110                      -0.06757
                       1.28231                      -0.12947                      -0.06693
        </DataArray>
        <DataArray type="Float32" Name="TranslationalAcceleration" NumberOfComponents="3" format="ascii">
                       1.61924                      -0.87351                       1.67302
                       1.61422                      -0.96203                       1.89921
                       1.59737                      -1.12840                       2.35563
                       1.56435                      -1.26973                       2.82153
                       1.51743                      -1.39061                       3.29527
                       1.45853                      -1.49456                       3.77562
                       1.38938                      -1.58425                       4.26166
                       1.31247                      -1.66286                       4.75224
                       1.22869                      -1.73128                       5.24702
                       1.13843                      -1.78931                       5.74619
                       1.04293                      -1.83781                       6.24944
                       0.94320                      -1.87732                       6.75658
                       0.84013                      -1.90813                       7.26755
                       0.73471                      -1.93132                       7.78189
                       0.62734                      -1.94694                       8.29961
                       0.51834                      -1.95399                       8.82118
                       0.40827                      -1.95243                       9.34666
                       0.29761                      -1.94226                       9.87611
                       0.18675                      -1.92353                      10.40955
                       0.07599                      -1.89739                      10.94650
                      -0.03450                      -1.86398                      11.48693
                      -0.14446                      -1.82272                      12.03116
                      -0.25371                      -1.77420                      12.57900
                      -0.36212                      -1.71921                      13.13013
                      -0.46961                      -1.65883                      13.68409
                      -0.57628                      -1.59471                      14.24009
                      -0.68214                      -1.52771                      14.79774
                      -0.78716                      -1.45895                      15.35657
                      -0.89146                      -1.39036                      15.91568
                      -0.99523                      -1.32420                      16.47398
                      -1.09873                      -1.26315                      17.03023
                      -1.15045                      -1.23381                      17.30786
        </DataArray>
        <DataArray type="Float32" Name="RotationalAcceleration" NumberOfComponents="3" format="ascii">
                      -0.04840                       0.03930                      -0.03330
                      -0.00033                       0.06557                      -0.02286
                       0.08768                       0.11486                      -0.00367
                       0.16342                       0.15907                       0.01278
                       0.22790                       0.19833                       0.02643
                       0.28310                       0.23312                       0.03740
                       0.33089                       0.26378                       0.04576
                       0.37259                       0.29004                       0.05121
                       0.41014                       0.31242                       0.05392
                       0.44508                       0.33191                       0.05442
                       0.47818                       0.34892                       0.05287
                       0.51012                       0.36375                       0.04944
                       0.54144                       0.37669                       0.04426
                       0.57263                       0.38777                       0.03733
                       0.60405                       0.39727                       0.02885
                       0.63580                       0.40552                       0.01920
                       0.66784                       0.41266                       0.00854
                       0.70005                       0.41878                      -0.00295
                       0.73223                       0.42399                      -0.01510
                       0.76397                       0.42828                      -0.02771
                       0.79465                       0.43175                      -0.04047
                       0.82376                       0.43457                      -0.05309
                       0.85073                       0.43677                      -0.06534
                       0.87492                       0.43840                      -0.07696
                       0.89563                       0.43950                      -0.08768
                       0.91149                       0.44004                      -0.09702
                       0.92131                       0.44005                      -0.10453
                       0.92483                       0.43962                      -0.11004
                       0.92123                       0.43876                      -0.11323
                       0.90968                       0.43748                      -0.11373
                       0.88998                       0.43581                      -0.11143
                       0.87755                       0.43487                      -0.10938
        </DataArray>
        <DataArray type="Float32" Name="OrientationX" NumberOfComponents="3" format="ascii">
                       0.97527                       0.20725                       0.07677
                       0.97527                       0.20715                       0.07701
                       0.97527                       0.20693                       0.07757
                       0.97528                       0.20666                       0.07827
                       0.97528                       0.20633                       0.07912
                       0.97528                       0.20593                       0.08015
                       0.97528                       0.20545                       0.08136
                       0.98011                       0.18391                       0.07459
                       0.98373                       0.16570                       0.06939
                       0.98654                       0.14991                       0.06538
                       0.98868                       0.13641                       0.06250
                       0.99039                       0.12442                       0.06044
                       0.99172                       0.11394                       0.05919
                       0.99280                       0.10451                       0.05857
                       0.99366                       0.09597                       0.05851
                       0.99436                       0.08817                       0.05888
                       0.99491                       0.08114                       0.05968
                       0.99537                       0.07456                       0.06074
                       0.99572                       0.06844                       0.06203
                       0.99602                       0.06265                       0.06346
                       0.99625                       0.05719                       0.06497
                       0.99644                       0.05193                       0.06644
                       0.99658                       0.04706                       0.06789
                       0.99671                       0.04226                       0.06915
                       0.99683                       0.03755                       0.07015
                       0.99693                       0.03315                       0.07086
                       0.99705                       0.02893                       0.07112
                       0.99718                       0.02473                       0.07084
                       0.99733                       0.02075                       0.06999
                       0.99751                       0.01686                       0.06846
                       0.99772                       0.01306                       0.06621
                       0.99775                       0.01327                       0.06566
        </DataArray>
        <DataArray type="Float32" Name="OrientationY" NumberOfComponents="3" format="ascii">
                       0.22097                      -0.90780                      -0.35647
                       0.22097                      -0.90786                      -0.35631
                       0.22097                      -0.90798                      -0.35601
                       0.22097                      -0.90808                      -0.35575
                       0.22097                      -0.90817                      -0.35553
                       0.22097                      -0.90824                      -0.35534
                       0.22097                      -0.90831                      -0.35517
                       0.19845                      -0.91286                      -0.35681
                       0.17959                      -0.91627                      -0.35805
                       0.16343                      -0.91891                      -0.35902
                       0.14981                      -0.92093                      -0.35978
                       0.13789                      -0.92255                      -0.36040
                       0.12768                      -0.92382                      -0.36091
                       0.11867                      -0.92485                      -0.36133
                       0.11070                      -0.92570                      -0.36169
                       0.10358                      -0.92640                      -0.36201
                       0.09733                      -0.92698                      -0.36227
                       0.09159                      -0.92747                      -0.36251
                       0.08638                      -0.92788                      -0.36273
                       0.08151                      -0.92825                      -0.36293
                       0.07699                      -0.92856                      -0.36312
                       0.07263                      -0.92883                      -0.36331
                       0.06863                      -0.92907                      -0.36349
                       0.06463                      -0.92928                      -0.36369
                       0.06062                      -0.92946                      -0.36390
                       0.05680                      -0.92962                      -0.36412
                       0.05297                      -0.92975                      -0.36436
                       0.04896                      -0.92986                      -0.36463
                       0.04496                      -0.92995                      -0.36493
                       0.04078                      -0.93001                      -0.36526
                       0.03643                      -0.93005                      -0.36561
                       0.03643                      -0.93004                      -0.36565
        </DataArray>
        <DataArray type="Float32" Name="OrientationZ" NumberOfComponents="3" format="ascii">
                      -0.00419                       0.36462                      -0.93115
                      -0.00389                       0.36451                      -0.93119
                      -0.00323                       0.36435                      -0.93126
                      -0.00244                       0.36425                      -0.93130
                      -0.00150                       0.36423                      -0.93131
                      -0.00038                       0.36427                      -0.93129
                       0.00093                       0.36437                      -0.93126
                       0.00247                       0.36451                      -0.93120
                       0.00426                       0.36468                      -0.93112
                       0.00626                       0.36487                      -0.93104
                       0.00848                       0.36507                      -0.93094
                       0.01092                       0.36527                      -0.93084
                       0.01356                       0.36548                      -0.93072
                       0.01641                       0.36568                      -0.93059
                       0.01945                       0.36588                      -0.93046
                       0.02263                       0.36606                      -0.93031
                       0.02592                       0.36624                      -0.93016
                       0.02930                       0.36639                      -0.93000
                       0.03273                       0.36653                      -0.92983
                       0.03617                       0.36665                      -0.92965
                       0.03956                       0.36676                      -0.92948
                       0.04284                       0.36684                      -0.92930
                       0.04597                       0.36691                      -0.92912
                       0.04889                       0.36696                      -0.92895
                       0.05154                       0.36700                      -0.92879
                       0.05381                       0.36703                      -0.92865
                       0.05559                       0.36705                      -0.92854
                       0.05685                       0.36707                      -0.92845
                       0.05752                       0.36710                      -0.92840
                       0.05751                       0.36714                      -0.92839
                       0.05680                       0.36719                      -0.92841
                       0.05622                       0.36722                      -0.92843
        </DataArray>
      </PointData>
      <Lines>
        <DataArray type="Int32" Name="connectivity" format="ascii">
      0      1
      1      2
      2      3
      3      4
      4      5
      5      6
      6      7
      7      8
      8      9
      9     10
     10     11
     11     12
     12     13
     13     14
     14     15
     15     16
     16     17
     17     18
     18     19
     19     20
     20     21
     21     22
     22     23
     23     24
     24     25
     25     26
     26     27
     27     28
     28     29
     29     30
     30     31
        </DataArray>
        <DataArray type="Int32" Name="offsets" format="ascii">
      2
      4
      6
      8
     10
     12
     14
     16
     18
     20
     22
     24
     26
     28
     30
     32
     34
     36
     38
     40
     42
     44
     46
     48
     50
     52
     54
     56
     58
     60
     62
        </DataArray>
      </Lines>
    </Piece>
  </PolyData>
</VTKFile>
