<?xml version="1.0"?>
<VTKFile type="PolyData" version="0.1" byte_order="LittleEndian">
  <PolyData>
    <Piece NumberOfPoints="     32" NumberOfVerts="  0" NumberOfLines="     31"
           NumberOfStrips="  0" NumberOfPolys="      0">
      <Points>
        <DataArray type="Float32" NumberOfComponents="3" format="ascii">
                      -4.50011                      -0.86497                     -19.34940
                      -4.49802                      -0.99248                     -19.27042
                      -4.49378                      -1.24749                     -19.11245
                      -4.48936                      -1.50251                     -18.95452
                      -4.48467                      -1.75757                     -18.79665
                      -4.47962                      -2.01266                     -18.63885
                      -4.47413                      -2.26781                     -18.48114
                      -4.46815                      -2.52300                     -18.32353
                      -4.46162                      -2.77824                     -18.16603
                      -4.45438                      -3.03355                     -18.00865
                      -4.44631                      -3.28891                     -17.85141
                      -4.43730                      -3.54434                     -17.69432
                      -4.42725                      -3.79981                     -17.53738
                      -4.41621                      -4.05534                     -17.38059
                      -4.40412                      -4.31090                     -17.22393
                      -4.39077                      -4.56651                     -17.06745
                      -4.37610                      -4.82215                     -16.91114
                      -4.36005                      -5.07781                     -16.75500
                      -4.34260                      -5.33349                     -16.59903
                      -4.32389                      -5.58917                     -16.44322
                      -4.30394                      -5.84485                     -16.28756
                      -4.28260                      -6.10052                     -16.13207
                      -4.25992                      -6.35617                     -15.97674
                      -4.23599                      -6.61179                     -15.82155
                      -4.21092                      -6.86739                     -15.66649
                      -4.18498                      -7.12296                     -15.51153
                      -4.15827                      -7.37850                     -15.35666
                      -4.13087                      -7.63402                     -15.20187
                      -4.10304                      -7.88952                     -15.04712
                      -4.07507                      -8.14501                     -14.89239
                      -4.04734                      -8.40052                     -14.73764
                      -4.03354                      -8.52828                     -14.66026
        </DataArray>
      </Points>
      <PointData>
        <DataArray type="Float32" Name="Force" NumberOfComponents="3" format="ascii">
                   -6037.55490                    -220.50932                  -11542.19516
                   10701.85378                    7093.13693                   33858.20611
                    7815.14849                  -21016.08522                   33932.91487
                   20431.32046                   26697.73032                   78898.24721
                  -14650.01420                  -29641.24499                  -39760.37113
                  -15362.75721                    8523.92396                  -48742.89759
                  -23863.06599                   21420.72823                  -46931.25839
                    5576.04706                   40798.80254                    -401.86844
                   -3985.94503                   22591.79040                  -15740.62417
                     259.23775                   23931.97781                    7462.67030
                   -2698.31509                    8181.96513                   -5949.35854
                   -1733.28827                   11501.93705                   -2325.89977
                   -1513.02752                   10263.27718                   -3290.98344
                    -682.82786                   10165.21650                   -2825.48422
                    -123.15824                    9527.47058                   -3066.99258
                     874.25485                    9301.73583                   -3055.14866
                    1929.82396                    9073.88742                   -3026.40854
                    2911.77845                    8663.16582                   -3037.93867
                    4105.14031                    8187.58439                   -3111.36658
                    5389.10556                    8122.90117                   -3225.00085
                    6837.44815                    7816.83041                   -3281.29395
                    8255.16417                    7502.99879                   -3468.28157
                    9690.26716                    7352.68077                   -3450.78605
                   11186.03889                    6904.42844                   -3595.62912
                   12543.17582                    6774.60577                   -3687.91513
                   13999.90556                    6643.39974                   -3898.81996
                   15135.29730                    6072.15273                   -3697.38374
                   16050.66956                    6608.38958                   -4245.22893
                   16681.49091                    3653.77365                   -2443.67176
                   14801.98754                   13363.77675                   -8579.38451
                   16710.44835                  -24797.64964                   16148.39056
                  -15054.43597                  157574.59232                  -95058.79471
        </DataArray>
        <DataArray type="Float32" Name="Moment" NumberOfComponents="3" format="ascii">
                     141.52045                     135.79375                     153.72637
                    1418.13437                    -476.20900                    -654.29490
                    2145.12236                    -127.31347                    -517.95059
                    -880.72343                    -527.27521                     571.16010
                   -3301.73574                     672.19133                     409.18630
                   -3672.91173                    1365.11092                    1657.94757
                   -5690.22265                      61.45876                    2771.10712
                   -4215.09180                     798.22290                    1060.99844
                   -3962.32085                     961.78178                    1619.88151
                   -1539.21180                     -99.49231                     760.94345
                   -1917.75795                     360.78700                     502.80296
                    -908.14073                     145.82241                     392.37380
                   -1297.35249                     180.44018                     408.42905
                   -1055.86509                     151.87472                     350.18511
                   -1050.98604                     138.41847                     333.41098
                    -959.53426                     126.43754                     291.63076
                    -914.49854                     122.50349                     279.90210
                    -851.17768                      97.21468                     265.60362
                    -778.51942                      82.63391                     237.06408
                    -735.63509                      70.51528                     223.25774
                    -687.88466                      65.27147                     201.64047
                    -627.78511                      58.24912                     189.28040
                    -579.73373                      43.46586                     173.81041
                    -523.84716                      39.98292                     158.94967
                    -478.70903                      23.70710                     147.20648
                    -443.78830                      25.43243                     129.71716
                    -377.65985                      15.09075                     116.60275
                    -375.70384                      15.99847                     108.70687
                    -207.65410                       4.21910                      69.00447
                    -680.97511                      27.23184                     190.14861
                    1458.50811                     -90.10904                    -398.65828
                   -9192.27933                     488.12255                    2462.18590
        </DataArray>
        <DataArray type="Float32" Name="TranslationalVelocity" NumberOfComponents="3" format="ascii">
                       0.89519                      -0.70337                      -0.81632
                       0.89552                      -0.80436                      -0.97935
                       0.89607                      -1.00629                      -1.30535
                       0.89634                      -1.20809                      -1.63122
                       0.89622                      -1.40974                      -1.95699
                       0.89563                      -1.61121                      -2.28267
                       0.89446                      -1.81248                      -2.60825
                       0.89269                      -2.01355                      -2.93375
                       0.89024                      -2.21443                      -3.25918
                       0.88693                      -2.41507                      -3.58452
                       0.88262                      -2.61549                      -3.90979
                       0.87722                      -2.81567                      -4.23496
                       0.87059                      -3.01563                      -4.56005
                       0.86281                      -3.21539                      -4.88504
                       0.85381                      -3.41496                      -5.20993
                       0.84336                      -3.61434                      -5.53470
                       0.83139                      -3.81352                      -5.85933
                       0.81784                      -4.01253                      -6.18381
                       0.80269                      -4.21140                      -6.50811
                       0.78611                      -4.41014                      -6.83225
                       0.76811                      -4.60878                      -7.15623
                       0.74852                      -4.80733                      -7.48000
                       0.72742                      -5.00580                      -7.80358
                       0.70490                      -5.20422                      -8.12695
                       0.68109                      -5.40261                      -8.45013
                       0.65629                      -5.60098                      -8.77315
                       0.63061                      -5.79935                      -9.09605
                       0.60416                      -5.99771                      -9.41882
                       0.57722                      -6.19609                      -9.74152
                       0.55013                      -6.39447                     -10.06421
                       0.52330                      -6.59285                     -10.38695
                       0.50997                      -6.69204                     -10.54834
        </DataArray>
        <DataArray type="Float32" Name="RotationalVelocity" NumberOfComponents="3" format="ascii">
                       1.27796                       0.05840                      -0.03312
                       1.27767                       0.05820                      -0.03345
                       1.27709                       0.05772                      -0.03420
                       1.27650                       0.05713                      -0.03514
                       1.27590                       0.05641                      -0.03628
                       1.27526                       0.05555                      -0.03766
                       1.27460                       0.05453                      -0.03929
                       1.27391                       0.05332                      -0.04123
                       1.27321                       0.05191                      -0.04348
                       1.27251                       0.05032                      -0.04602
                       1.27180                       0.04856                      -0.04884
                       1.27108                       0.04664                      -0.05194
                       1.27036                       0.04455                      -0.05529
                       1.26963                       0.04229                      -0.05891
                       1.26890                       0.03989                      -0.06278
                       1.26817                       0.03737                      -0.06682
                       1.26746                       0.03477                      -0.07100
                       1.26675                       0.03209                      -0.07530
                       1.26607                       0.02938                      -0.07966
                       1.26541                       0.02666                      -0.08403
                       1.26479                       0.02398                      -0.08834
                       1.26421                       0.02139                      -0.09251
                       1.26368                       0.01891                      -0.09649
                       1.26320                       0.01660                      -0.10021
                       1.26279                       0.01451                      -0.10358
                       1.26246                       0.01271                      -0.10647
                       1.26222                       0.01130                      -0.10874
                       1.26206                       0.01030                      -0.11035
                       1.26201                       0.00977                      -0.11120
                       1.26204                       0.00978                      -0.11120
                       1.26218                       0.01034                      -0.11029
                       1.26227                       0.01080                      -0.10955
        </DataArray>
        <DataArray type="Float32" Name="TranslationalAcceleration" NumberOfComponents="3" format="ascii">
                       0.39501                       1.49205                      -0.61824
                       0.37489                       1.70890                      -0.73296
                       0.33320                       2.14080                      -0.96499
                       0.28813                       2.56840                      -1.20311
                       0.24038                       2.99241                      -1.44617
                       0.19056                       3.41333                      -1.69330
                       0.13926                       3.83154                      -1.94383
                       0.08710                       4.24756                      -2.19698
                       0.03440                       4.66154                      -2.45254
                      -0.01845                       5.07337                      -2.71056
                      -0.07097                       5.48319                      -2.97083
                      -0.12274                       5.89106                      -3.23325
                      -0.17340                       6.29703                      -3.49780
                      -0.22282                       6.70133                      -3.76424
                      -0.27083                       7.10395                      -4.03262
                      -0.31700                       7.50469                      -4.30323
                      -0.36110                       7.90353                      -4.57618
                      -0.40294                       8.30047                      -4.85154
                      -0.44238                       8.69555                      -5.12939
                      -0.47964                       9.08902                      -5.40947
                      -0.51468                       9.48089                      -5.69180
                      -0.54721                       9.87107                      -5.97663
                      -0.57728                      10.25966                      -6.26389
                      -0.60501                      10.64683                      -6.55339
                      -0.63058                      11.03281                      -6.84486
                      -0.65445                      11.41795                      -7.13778
                      -0.67680                      11.80240                      -7.43191
                      -0.69778                      12.18639                      -7.72693
                      -0.71783                      12.57029                      -8.02222
                      -0.73752                      12.95455                      -8.31701
                      -0.75753                      13.33966                      -8.61039
                      -0.76764                      13.53243                      -8.75674
        </DataArray>
        <DataArray type="Float32" Name="RotationalAcceleration" NumberOfComponents="3" format="ascii">
                      -0.12573                       0.03683                      -0.07234
                      -0.11231                       0.03419                      -0.07794
                      -0.08765                       0.02959                      -0.08827
                      -0.06631                       0.02610                      -0.09721
                      -0.04798                       0.02378                      -0.10478
                      -0.03212                       0.02261                      -0.11108
                      -0.01824                       0.02259                      -0.11617
                      -0.00601                       0.02389                      -0.11996
                       0.00507                       0.02646                      -0.12257
                       0.01541                       0.03007                      -0.12426
                       0.02524                       0.03468                      -0.12513
                       0.03474                       0.04021                      -0.12527
                       0.04405                       0.04659                      -0.12476
                       0.05331                       0.05385                      -0.12360
                       0.06261                       0.06187                      -0.12189
                       0.07197                       0.07047                      -0.11975
                       0.08139                       0.07956                      -0.11725
                       0.09083                       0.08902                      -0.11444
                       0.10023                       0.09875                      -0.11137
                       0.10947                       0.10862                      -0.10811
                       0.11837                       0.11843                      -0.10474
                       0.12680                       0.12801                      -0.10136
                       0.13459                       0.13720                      -0.09803
                       0.14156                       0.14584                      -0.09483
                       0.14753                       0.15373                      -0.09183
                       0.15211                       0.16053                      -0.08917
                       0.15497                       0.16594                      -0.08697
                       0.15605                       0.16983                      -0.08529
                       0.15513                       0.17197                      -0.08423
                       0.15197                       0.17212                      -0.08389
                       0.14655                       0.17017                      -0.08431
                       0.14311                       0.16852                      -0.08478
        </DataArray>
        <DataArray type="Float32" Name="OrientationX" NumberOfComponents="3" format="ascii">
                       0.96968                      -0.11723                      -0.21444
                       0.96967                      -0.11704                      -0.21455
                       0.96967                      -0.11656                      -0.21485
                       0.96966                      -0.11590                      -0.21526
                       0.96964                      -0.11503                      -0.21579
                       0.96962                      -0.11394                      -0.21647
                       0.96959                      -0.11260                      -0.21730
                       0.97491                      -0.09912                      -0.19929
                       0.97894                      -0.08727                      -0.18456
                       0.98207                      -0.07658                      -0.17225
                       0.98448                      -0.06697                      -0.16224
                       0.98640                      -0.05800                      -0.15381
                       0.98789                      -0.04970                      -0.14698
                       0.98908                      -0.04177                      -0.14131
                       0.99003                      -0.03417                      -0.13665
                       0.99078                      -0.02685                      -0.13282
                       0.99134                      -0.01985                      -0.12979
                       0.99178                      -0.01303                      -0.12726
                       0.99211                      -0.00641                      -0.12521
                       0.99235                       0.00003                      -0.12345
                       0.99252                       0.00624                      -0.12195
                       0.99263                       0.01224                      -0.12053
                       0.99270                       0.01789                      -0.11929
                       0.99275                       0.02329                      -0.11791
                       0.99280                       0.02840                      -0.11633
                       0.99286                       0.03298                      -0.11464
                       0.99295                       0.03701                      -0.11261
                       0.99310                       0.04055                      -0.11008
                       0.99330                       0.04341                      -0.10713
                       0.99358                       0.04559                      -0.10357
                       0.99394                       0.04707                      -0.09937
                       0.99401                       0.04642                      -0.09897
        </DataArray>
        <DataArray type="Float32" Name="OrientationY" NumberOfComponents="3" format="ascii">
                       0.24400                       0.51359                       0.82261
                       0.24400                       0.51360                       0.82261
                       0.24400                       0.51362                       0.82259
                       0.24400                       0.51364                       0.82258
                       0.24400                       0.51366                       0.82257
                       0.24400                       0.51367                       0.82256
                       0.24400                       0.51370                       0.82255
                       0.22160                       0.51616                       0.82733
                       0.20284                       0.51798                       0.83099
                       0.18676                       0.51936                       0.83390
                       0.17320                       0.52037                       0.83619
                       0.16133                       0.52115                       0.83808
                       0.15117                       0.52172                       0.83962
                       0.14220                       0.52216                       0.84091
                       0.13425                       0.52249                       0.84201
                       0.12717                       0.52273                       0.84296
                       0.12094                       0.52289                       0.84378
                       0.11523                       0.52300                       0.84451
                       0.11004                       0.52307                       0.84516
                       0.10520                       0.52310                       0.84575
                       0.10070                       0.52310                       0.84630
                       0.09637                       0.52308                       0.84682
                       0.09239                       0.52303                       0.84729
                       0.08841                       0.52296                       0.84776
                       0.08443                       0.52286                       0.84822
                       0.08063                       0.52275                       0.84866
                       0.07682                       0.52262                       0.84910
                       0.07284                       0.52247                       0.84954
                       0.06885                       0.52230                       0.84998
                       0.06469                       0.52211                       0.85042
                       0.06035                       0.52190                       0.85087
                       0.06035                       0.52190                       0.85087
        </DataArray>
        <DataArray type="Float32" Name="OrientationZ" NumberOfComponents="3" format="ascii">
                       0.01370                      -0.84999                       0.52662
                       0.01392                      -0.85001                       0.52658
                       0.01447                      -0.85006                       0.52648
                       0.01523                      -0.85014                       0.52633
                       0.01622                      -0.85025                       0.52613
                       0.01747                      -0.85039                       0.52587
                       0.01900                      -0.85055                       0.52555
                       0.02087                      -0.85074                       0.52518
                       0.02308                      -0.85093                       0.52478
                       0.02560                      -0.85112                       0.52435
                       0.02842                      -0.85131                       0.52389
                       0.03155                      -0.85149                       0.52342
                       0.03496                      -0.85167                       0.52292
                       0.03866                      -0.85182                       0.52240
                       0.04263                      -0.85196                       0.52186
                       0.04679                      -0.85208                       0.52132
                       0.05111                      -0.85217                       0.52077
                       0.05556                      -0.85223                       0.52021
                       0.06007                      -0.85227                       0.51965
                       0.06461                      -0.85227                       0.51910
                       0.06908                      -0.85225                       0.51856
                       0.07341                      -0.85220                       0.51804
                       0.07755                      -0.85213                       0.51756
                       0.08141                      -0.85204                       0.51711
                       0.08492                      -0.85194                       0.51670
                       0.08792                      -0.85185                       0.51636
                       0.09028                      -0.85176                       0.51610
                       0.09196                      -0.85169                       0.51591
                       0.09285                      -0.85166                       0.51581
                       0.09285                      -0.85166                       0.51581
                       0.09192                      -0.85171                       0.51589
                       0.09115                      -0.85175                       0.51597
        </DataArray>
      </PointData>
      <Lines>
        <DataArray type="Int32" Name="connectivity" format="ascii">
      0      1
      1      2
      2      3
      3      4
      4      5
      5      6
      6      7
      7      8
      8      9
      9     10
     10     11
     11     12
     12     13
     13     14
     14     15
     15     16
     16     17
     17     18
     18     19
     19     20
     20     21
     21     22
     22     23
     23     24
     24     25
     25     26
     26     27
     27     28
     28     29
     29     30
     30     31
        </DataArray>
        <DataArray type="Int32" Name="offsets" format="ascii">
      2
      4
      6
      8
     10
     12
     14
     16
     18
     20
     22
     24
     26
     28
     30
     32
     34
     36
     38
     40
     42
     44
     46
     48
     50
     52
     54
     56
     58
     60
     62
        </DataArray>
      </Lines>
    </Piece>
  </PolyData>
</VTKFile>
