<?xml version="1.0"?>
<VTKFile type="PolyData" version="0.1" byte_order="LittleEndian">
  <PolyData>
    <Piece NumberOfPoints="     32" NumberOfVerts="  0" NumberOfLines="     31"
           NumberOfStrips="  0" NumberOfPolys="      0">
      <Points>
        <DataArray type="Float32" NumberOfComponents="3" format="ascii">
                      -4.03955                      -1.02883                     -19.80520
                      -4.04008                      -1.17850                     -19.81518
                      -4.04110                      -1.47783                     -19.83517
                      -4.04201                      -1.77716                     -19.85521
                      -4.04276                      -2.07648                     -19.87531
                      -4.04329                      -2.37580                     -19.89549
                      -4.04356                      -2.67512                     -19.91576
                      -4.04354                      -2.97443                     -19.93611
                      -4.04320                      -3.27373                     -19.95655
                      -4.04245                      -3.57302                     -19.97710
                      -4.04122                      -3.87231                     -19.99777
                      -4.03945                      -4.17158                     -20.01855
                      -4.03707                      -4.47084                     -20.03945
                      -4.03413                      -4.77009                     -20.06046
                      -4.03058                      -5.06933                     -20.08159
                      -4.02631                      -5.36854                     -20.10284
                      -4.02128                      -5.66774                     -20.12422
                      -4.01546                      -5.96691                     -20.14572
                      -4.00883                      -6.26606                     -20.16735
                      -4.00148                      -6.56518                     -20.18909
                      -3.99342                      -6.86427                     -20.21094
                      -3.98456                      -7.16334                     -20.23289
                      -3.97494                      -7.46237                     -20.25495
                      -3.96460                      -7.76137                     -20.27710
                      -3.95360                      -8.06034                     -20.29933
                      -3.94211                      -8.35929                     -20.32163
                      -3.93017                      -8.65822                     -20.34398
                      -3.91784                      -8.95713                     -20.36637
                      -3.90526                      -9.25603                     -20.38878
                      -3.89260                      -9.55492                     -20.41121
                      -3.88008                      -9.85382                     -20.43361
                      -3.87386                     -10.00327                     -20.44481
        </DataArray>
      </Points>
      <PointData>
        <DataArray type="Float32" Name="Force" NumberOfComponents="3" format="ascii">
                   -6063.22673                    6743.26874                   -8737.90286
                   12267.46712                  -14527.19273                   33072.22373
                   10893.33173                  -38364.77210                   15690.90762
                   27189.01764                  -25495.48233                   83385.41099
                  -14196.51409                    -510.20785                  -50871.33645
                  -14176.43199                   37892.54200                  -36397.73347
                  -23060.83386                   48669.68868                  -27353.80506
                   10027.09393                   36260.23632                   24613.60370
                   -1590.16405                   30370.11913                      89.80365
                    3305.84996                   16789.90903                   21742.57229
                   -1092.71230                   11434.99595                    -235.57292
                    -129.38824                   12182.61289                    5149.79253
                    -219.96975                   11801.52278                    3516.03638
                     345.94341                   11486.48353                    3896.87904
                     457.49781                   11142.59453                    3295.20398
                    1120.93243                   10986.19693                    3175.12632
                    1801.90602                   10807.00991                    3080.67118
                    2293.80305                   10459.23026                    2835.41537
                    3043.83599                   10070.13393                    2470.25490
                    3812.35049                   10091.04248                    2366.52516
                    4699.78690                    9805.40059                    2155.44882
                    5554.96409                    9591.14303                    1803.94907
                    6410.41443                    9376.07542                    1786.19120
                    7274.22024                    8950.92984                    1386.48782
                    7979.25278                    8811.78241                    1282.80442
                    8806.10996                    8752.90319                    1049.71624
                    9228.70582                    7902.38015                     926.82598
                    9486.70417                    8912.12762                     840.18330
                    9194.94944                    4093.12136                     582.43456
                    6590.59728                   20264.31807                    1542.12967
                    5317.08020                  -43104.94298                   -1339.91970
                   -8341.33458                  256776.70971                   19213.73775
        </DataArray>
        <DataArray type="Float32" Name="Moment" NumberOfComponents="3" format="ascii">
                     208.79984                      29.49011                     199.12863
                    1412.81841                     -26.13746                    -853.41868
                    2234.34746                     166.56937                    -609.93202
                   -1057.96195                    -820.35776                     238.86160
                   -3404.67926                     314.13221                     874.28301
                   -3833.44289                     136.92065                    2429.26328
                   -6009.60538                   -1659.20629                    2657.32571
                   -4559.49374                      39.30001                    1626.53681
                   -4246.86986                    -153.93357                    2203.28162
                   -1715.54991                    -600.63003                     689.62790
                   -2104.91520                      -6.83035                     764.29140
                   -1022.36750                    -150.62892                     493.08186
                   -1460.14044                    -108.81590                     546.47393
                   -1205.94025                     -97.57202                     475.35750
                   -1210.67168                    -101.50611                     453.08362
                   -1118.64073                     -80.38789                     403.33790
                   -1076.45963                     -72.38083                     393.74964
                   -1013.71104                     -84.97287                     361.08919
                    -937.83790                     -71.75911                     323.07471
                    -895.59512                     -72.19253                     306.58087
                    -846.77651                     -63.70214                     280.68646
                    -781.45051                     -58.81630                     261.69354
                    -730.25671                     -61.19637                     237.09854
                    -667.02775                     -53.30559                     217.91791
                    -617.57958                     -59.34249                     194.20971
                    -578.43850                     -45.36940                     179.47243
                    -497.86305                     -49.48057                     154.78378
                    -502.89678                     -40.82632                     149.20735
                    -275.67930                     -32.48081                      88.15571
                    -942.41833                     -71.96813                     270.88271
                    2035.43529                     125.14334                    -599.12590
                  -12758.24513                    -816.73404                    3676.23021
        </DataArray>
        <DataArray type="Float32" Name="TranslationalVelocity" NumberOfComponents="3" format="ascii">
                       0.89200                       0.04643                      -0.93121
                       0.88119                       0.05846                      -1.11097
                       0.85957                       0.08254                      -1.47053
                       0.83792                       0.10668                      -1.83022
                       0.81621                       0.13090                      -2.18999
                       0.79440                       0.15520                      -2.54983
                       0.77247                       0.17959                      -2.90971
                       0.75038                       0.20406                      -3.26962
                       0.72811                       0.22862                      -3.62955
                       0.70560                       0.25328                      -3.98949
                       0.68281                       0.27803                      -4.34943
                       0.65968                       0.30289                      -4.70938
                       0.63618                       0.32784                      -5.06931
                       0.61233                       0.35288                      -5.42924
                       0.58809                       0.37800                      -5.78915
                       0.56339                       0.40321                      -6.14906
                       0.53820                       0.42850                      -6.50895
                       0.51251                       0.45387                      -6.86883
                       0.48629                       0.47931                      -7.22869
                       0.45960                       0.50481                      -7.58853
                       0.43244                       0.53036                      -7.94837
                       0.40477                       0.55595                      -8.30818
                       0.37659                       0.58159                      -8.66798
                       0.34795                       0.60725                      -9.02777
                       0.31888                       0.63294                      -9.38753
                       0.28948                       0.65864                      -9.74728
                       0.25979                       0.68434                     -10.10702
                       0.22984                       0.71005                     -10.46674
                       0.19973                       0.73576                     -10.82645
                       0.16957                       0.76147                     -11.18614
                       0.13950                       0.78717                     -11.54582
                       0.12449                       0.80002                     -11.72566
        </DataArray>
        <DataArray type="Float32" Name="RotationalVelocity" NumberOfComponents="3" format="ascii">
                       1.20105                       0.06212                      -0.06807
                       1.20127                       0.06212                      -0.06807
                       1.20165                       0.06213                      -0.06813
                       1.20196                       0.06213                      -0.06827
                       1.20219                       0.06215                      -0.06850
                       1.20235                       0.06217                      -0.06884
                       1.20245                       0.06220                      -0.06929
                       1.20249                       0.06224                      -0.06986
                       1.20248                       0.06229                      -0.07058
                       1.20244                       0.06234                      -0.07142
                       1.20238                       0.06241                      -0.07238
                       1.20230                       0.06248                      -0.07347
                       1.20221                       0.06256                      -0.07467
                       1.20210                       0.06265                      -0.07599
                       1.20198                       0.06274                      -0.07741
                       1.20187                       0.06284                      -0.07892
                       1.20175                       0.06295                      -0.08050
                       1.20163                       0.06306                      -0.08212
                       1.20152                       0.06317                      -0.08378
                       1.20141                       0.06328                      -0.08546
                       1.20131                       0.06339                      -0.08711
                       1.20121                       0.06350                      -0.08872
                       1.20112                       0.06360                      -0.09025
                       1.20104                       0.06370                      -0.09169
                       1.20097                       0.06378                      -0.09300
                       1.20090                       0.06386                      -0.09412
                       1.20084                       0.06392                      -0.09500
                       1.20078                       0.06396                      -0.09563
                       1.20073                       0.06398                      -0.09596
                       1.20069                       0.06398                      -0.09596
                       1.20064                       0.06396                      -0.09562
                       1.20062                       0.06394                      -0.09534
        </DataArray>
        <DataArray type="Float32" Name="TranslationalAcceleration" NumberOfComponents="3" format="ascii">
                      -0.27630                       1.43845                       0.05146
                      -0.29581                       1.65320                       0.09340
                      -0.33454                       2.08275                       0.17822
                      -0.37253                       2.51239                       0.26522
                      -0.40970                       2.94210                       0.35399
                      -0.44589                       3.37184                       0.44419
                      -0.48093                       3.80157                       0.53554
                      -0.51478                       4.23129                       0.62774
                      -0.54734                       4.66097                       0.72070
                      -0.57823                       5.09062                       0.81439
                      -0.60722                       5.52022                       0.90869
                      -0.63408                       5.94977                       1.00354
                      -0.65856                       6.37929                       1.09889
                      -0.68077                       6.80879                       1.19466
                      -0.70058                       7.23827                       1.29084
                      -0.71753                       7.66775                       1.38748
                      -0.73145                       8.09725                       1.48456
                      -0.74221                       8.52680                       1.58209
                      -0.74975                       8.95642                       1.68006
                      -0.75442                       9.38611                       1.77842
                      -0.75624                       9.81590                       1.87716
                      -0.75486                      10.24581                       1.97630
                      -0.75043                      10.67586                       2.07583
                      -0.74312                      11.10606                       2.17569
                      -0.73322                      11.53640                       2.27582
                      -0.72133                      11.96687                       2.37612
                      -0.70767                      12.39745                       2.47656
                      -0.69245                      12.82813                       2.57704
                      -0.67625                      13.25888                       2.67746
                      -0.65977                      13.68964                       2.77766
                      -0.64383                      14.12035                       2.87748
                      -0.63603                      14.33569                       2.92729
        </DataArray>
        <DataArray type="Float32" Name="RotationalAcceleration" NumberOfComponents="3" format="ascii">
                      -0.17576                      -0.03795                      -0.06467
                      -0.17958                      -0.03799                      -0.06359
                      -0.18652                      -0.03803                      -0.06132
                      -0.19237                      -0.03799                      -0.05878
                      -0.19716                      -0.03787                      -0.05589
                      -0.20105                      -0.03765                      -0.05255
                      -0.20417                      -0.03735                      -0.04870
                      -0.20661                      -0.03693                      -0.04422
                      -0.20857                      -0.03639                      -0.03906
                      -0.21020                      -0.03575                      -0.03324
                      -0.21159                      -0.03502                      -0.02675
                      -0.21280                      -0.03419                      -0.01959
                      -0.21388                      -0.03326                      -0.01178
                      -0.21488                      -0.03225                      -0.00328
                      -0.21586                      -0.03114                       0.00583
                      -0.21684                      -0.02998                       0.01540
                      -0.21783                      -0.02876                       0.02536
                      -0.21884                      -0.02751                       0.03561
                      -0.21987                      -0.02622                       0.04603
                      -0.22090                      -0.02493                       0.05652
                      -0.22192                      -0.02365                       0.06685
                      -0.22290                      -0.02241                       0.07688
                      -0.22381                      -0.02122                       0.08644
                      -0.22462                      -0.02011                       0.09536
                      -0.22528                      -0.01909                       0.10346
                      -0.22574                      -0.01823                       0.11038
                      -0.22593                      -0.01754                       0.11581
                      -0.22581                      -0.01705                       0.11965
                      -0.22534                      -0.01679                       0.12167
                      -0.22447                      -0.01679                       0.12161
                      -0.22317                      -0.01705                       0.11940
                      -0.22238                      -0.01727                       0.11761
        </DataArray>
        <DataArray type="Float32" Name="OrientationX" NumberOfComponents="3" format="ascii">
                       0.96076                       0.01489                      -0.27697
                       0.96076                       0.01505                      -0.27696
                       0.96076                       0.01544                      -0.27693
                       0.96077                       0.01594                      -0.27690
                       0.96077                       0.01657                      -0.27686
                       0.96077                       0.01736                      -0.27680
                       0.96077                       0.01830                      -0.27674
                       0.96690                       0.01793                      -0.25451
                       0.97162                       0.01800                      -0.23585
                       0.97537                       0.01841                      -0.21981
                       0.97831                       0.01917                      -0.20626
                       0.98072                       0.02021                      -0.19437
                       0.98266                       0.02152                      -0.18414
                       0.98428                       0.02307                      -0.17508
                       0.98564                       0.02484                      -0.16703
                       0.98678                       0.02678                      -0.15982
                       0.98773                       0.02887                      -0.15345
                       0.98856                       0.03105                      -0.14759
                       0.98927                       0.03331                      -0.14224
                       0.98990                       0.03560                      -0.13722
                       0.99045                       0.03787                      -0.13255
                       0.99096                       0.04008                      -0.12806
                       0.99140                       0.04219                      -0.12391
                       0.99182                       0.04415                      -0.11978
                       0.99223                       0.04589                      -0.11565
                       0.99261                       0.04736                      -0.11172
                       0.99299                       0.04846                      -0.10782
                       0.99339                       0.04914                      -0.10377
                       0.99379                       0.04938                      -0.09975
                       0.99421                       0.04908                      -0.09559
                       0.99465                       0.04823                      -0.09130
                       0.99467                       0.04779                      -0.09133
        </DataArray>
        <DataArray type="Float32" Name="OrientationY" NumberOfComponents="3" format="ascii">
                       0.27735                      -0.06488                       0.95858
                       0.27735                      -0.06492                       0.95857
                       0.27735                      -0.06499                       0.95857
                       0.27735                      -0.06504                       0.95857
                       0.27735                      -0.06509                       0.95856
                       0.27735                      -0.06513                       0.95856
                       0.27735                      -0.06516                       0.95856
                       0.25514                      -0.06560                       0.96468
                       0.23653                      -0.06596                       0.96938
                       0.22056                      -0.06627                       0.97312
                       0.20709                      -0.06654                       0.97606
                       0.19530                      -0.06679                       0.97847
                       0.18519                      -0.06702                       0.98042
                       0.17626                      -0.06723                       0.98204
                       0.16836                      -0.06744                       0.98342
                       0.16130                      -0.06763                       0.98459
                       0.15510                      -0.06782                       0.98557
                       0.14941                      -0.06801                       0.98643
                       0.14423                      -0.06820                       0.98719
                       0.13940                      -0.06838                       0.98787
                       0.13491                      -0.06856                       0.98848
                       0.13059                      -0.06875                       0.98905
                       0.12662                      -0.06892                       0.98955
                       0.12264                      -0.06911                       0.99004
                       0.11866                      -0.06930                       0.99051
                       0.11485                      -0.06949                       0.99095
                       0.11104                      -0.06968                       0.99137
                       0.10706                      -0.06988                       0.99179
                       0.10307                      -0.07007                       0.99220
                       0.09890                      -0.07027                       0.99261
                       0.09456                      -0.07047                       0.99302
                       0.09456                      -0.07046                       0.99302
        </DataArray>
        <DataArray type="Float32" Name="OrientationZ" NumberOfComponents="3" format="ascii">
                      -0.00370                      -0.99778                      -0.06647
                      -0.00355                      -0.99778                      -0.06655
                      -0.00320                      -0.99777                      -0.06672
                      -0.00273                      -0.99776                      -0.06691
                      -0.00213                      -0.99774                      -0.06714
                      -0.00139                      -0.99773                      -0.06739
                      -0.00049                      -0.99771                      -0.06768
                       0.00060                      -0.99768                      -0.06800
                       0.00189                      -0.99766                      -0.06834
                       0.00335                      -0.99763                      -0.06870
                       0.00499                      -0.99760                      -0.06907
                       0.00679                      -0.99756                      -0.06945
                       0.00875                      -0.99752                      -0.06984
                       0.01089                      -0.99747                      -0.07024
                       0.01317                      -0.99741                      -0.07065
                       0.01556                      -0.99735                      -0.07106
                       0.01804                      -0.99728                      -0.07147
                       0.02059                      -0.99720                      -0.07187
                       0.02318                      -0.99712                      -0.07227
                       0.02579                      -0.99702                      -0.07265
                       0.02835                      -0.99693                      -0.07302
                       0.03084                      -0.99683                      -0.07336
                       0.03321                      -0.99673                      -0.07367
                       0.03543                      -0.99663                      -0.07396
                       0.03744                      -0.99654                      -0.07421
                       0.03917                      -0.99646                      -0.07442
                       0.04052                      -0.99639                      -0.07457
                       0.04149                      -0.99634                      -0.07467
                       0.04200                      -0.99632                      -0.07472
                       0.04200                      -0.99632                      -0.07472
                       0.04146                      -0.99635                      -0.07466
                       0.04102                      -0.99637                      -0.07461
        </DataArray>
      </PointData>
      <Lines>
        <DataArray type="Int32" Name="connectivity" format="ascii">
      0      1
      1      2
      2      3
      3      4
      4      5
      5      6
      6      7
      7      8
      8      9
      9     10
     10     11
     11     12
     12     13
     13     14
     14     15
     15     16
     16     17
     17     18
     18     19
     19     20
     20     21
     21     22
     22     23
     23     24
     24     25
     25     26
     26     27
     27     28
     28     29
     29     30
     30     31
        </DataArray>
        <DataArray type="Int32" Name="offsets" format="ascii">
      2
      4
      6
      8
     10
     12
     14
     16
     18
     20
     22
     24
     26
     28
     30
     32
     34
     36
     38
     40
     42
     44
     46
     48
     50
     52
     54
     56
     58
     60
     62
        </DataArray>
      </Lines>
    </Piece>
  </PolyData>
</VTKFile>
