<?xml version="1.0"?>
<VTKFile type="PolyData" version="0.1" byte_order="LittleEndian">
  <PolyData>
    <Piece NumberOfPoints="     32" NumberOfVerts="  0" NumberOfLines="     31"
           NumberOfStrips="  0" NumberOfPolys="      0">
      <Points>
        <DataArray type="Float32" NumberOfComponents="3" format="ascii">
                      -4.23797                       0.96003                     -19.96998
                      -4.23912                       1.10768                     -19.99642
                      -4.24139                       1.40296                     -20.04933
                      -4.24355                       1.69824                     -20.10230
                      -4.24552                       1.99352                     -20.15531
                      -4.24723                       2.28879                     -20.20832
                      -4.24858                       2.58407                     -20.26132
                      -4.24956                       2.87935                     -20.31430
                      -4.25011                       3.17464                     -20.36724
                      -4.25008                       3.46994                     -20.42015
                      -4.24939                       3.76525                     -20.47301
                      -4.24793                       4.06056                     -20.52582
                      -4.24563                       4.35587                     -20.57858
                      -4.24251                       4.65119                     -20.63130
                      -4.23854                       4.94650                     -20.68398
                      -4.23353                       5.24180                     -20.73662
                      -4.22744                       5.53709                     -20.78922
                      -4.22021                       5.83236                     -20.84178
                      -4.21182                       6.12761                     -20.89431
                      -4.20240                       6.42283                     -20.94682
                      -4.19195                       6.71802                     -20.99930
                      -4.18035                       7.01316                     -21.05177
                      -4.16766                       7.30827                     -21.10422
                      -4.15392                       7.60333                     -21.15666
                      -4.13925                       7.89835                     -21.20909
                      -4.12386                       8.19333                     -21.26152
                      -4.10783                       8.48828                     -21.31394
                      -4.09123                       8.78320                     -21.36635
                      -4.07426                       9.07810                     -21.41877
                      -4.05719                       9.37300                     -21.47117
                      -4.04031                       9.66791                     -21.52356
                      -4.03193                       9.81536                     -21.54975
        </DataArray>
      </Points>
      <PointData>
        <DataArray type="Float32" Name="Force" NumberOfComponents="3" format="ascii">
                   -4955.76763                   -2734.04584                   20690.30151
                    9064.34304                    7983.02398                  -27300.18657
                    7161.65118                   36184.34806                  -15979.48218
                   16398.19528                    8186.37270                  -81087.14101
                  -13570.11466                   17605.88521                   61565.17905
                  -16860.04789                  -25779.10612                   57438.90368
                  -28179.69128                  -40270.85475                   51274.59739
                     467.83036                  -41792.51640                   -8167.70398
                   -8693.60071                  -29531.10276                   15142.48625
                   -5577.79454                  -21353.38159                  -11084.72844
                   -7412.31551                  -10273.89414                    9591.31168
                   -6370.50757                  -12498.75216                    3993.06008
                   -5792.61957                  -11754.42681                    5219.49114
                   -4716.25961                  -11604.79031                    4382.32650
                   -3878.74762                  -11169.54907                    4582.80914
                   -2574.79915                  -11060.98918                    4298.44319
                   -1252.69130                  -10937.04180                    3988.01929
                     -72.48063                  -10602.51513                    3810.64274
                    1391.89331                  -10205.95259                    3739.53622
                    2919.60411                  -10299.05621                    3512.46416
                    4625.96445                  -10062.19985                    3310.46052
                    6283.76529                   -9865.80139                    3289.60599
                    7953.95786                   -9758.88688                    2935.92709
                    9692.32530                   -9344.73346                    2928.89472
                   11222.46974                   -9294.93316                    2725.40503
                   12914.67906                   -9301.89560                    2661.33952
                   14155.15428                   -8510.15306                    2331.80862
                   15150.69521                   -9626.08530                    2461.88163
                   15644.06209                   -4692.74526                    1300.55966
                   13826.48510                  -21577.12960                    4520.06687
                   15383.57167                   44116.65797                   -9110.87425
                  -14086.22965                 -268118.71622                   48509.67476
        </DataArray>
        <DataArray type="Float32" Name="Moment" NumberOfComponents="3" format="ascii">
                    -214.24355                     -64.41621                    -186.42086
                     817.62251                     189.89195                     716.29992
                    2823.17167                    -129.58830                     415.05039
                    -897.83555                     462.31540                    -254.36498
                   -3199.73313                    -959.74284                    -252.79533
                   -4327.27278                   -1342.36194                   -1810.20314
                   -6825.99336                     444.81652                   -2335.85673
                   -5174.76486                    -943.92784                   -1063.67622
                   -4799.60382                    -764.75600                   -1734.32239
                   -1952.85668                      96.72831                    -604.16317
                   -2295.91551                    -466.99154                    -491.11715
                   -1165.96068                    -243.04295                    -375.79417
                   -1615.89832                    -256.86004                    -381.64093
                   -1344.09758                    -226.41294                    -336.23805
                   -1343.15249                    -196.55183                    -318.90842
                   -1240.84441                    -183.64080                    -279.47667
                   -1193.48090                    -168.88558                    -275.08704
                   -1122.17247                    -130.80337                    -257.02410
                   -1036.60304                    -115.39202                    -227.82840
                    -988.92162                     -95.04761                    -216.24118
                    -932.94438                     -85.45035                    -196.29475
                    -860.68935                     -72.53677                    -186.59927
                    -802.38986                     -52.01935                    -169.25980
                    -732.09762                     -45.42857                    -157.37776
                    -675.90429                     -22.97120                    -141.98052
                    -631.75599                     -25.29059                    -128.06984
                    -542.20390                      -9.82148                    -114.40214
                    -548.32388                      -9.05770                    -107.57590
                    -291.18443                      -3.96139                     -67.51886
                   -1049.39776                      20.05884                    -196.61773
                    2320.01238                     -63.42464                     436.96264
                  -13905.34188                     312.59449                   -2667.89934
        </DataArray>
        <DataArray type="Float32" Name="TranslationalVelocity" NumberOfComponents="3" format="ascii">
                       1.01562                       0.18547                       1.49827
                       1.02193                       0.21819                       1.68074
                       1.03448                       0.28367                       2.04563
                       1.04678                       0.34919                       2.41036
                       1.05878                       0.41472                       2.77495
                       1.07040                       0.48022                       3.13939
                       1.08156                       0.54565                       3.50368
                       1.09224                       0.61102                       3.86783
                       1.10238                       0.67631                       4.23184
                       1.11183                       0.74150                       4.59570
                       1.12050                       0.80658                       4.95940
                       1.12829                       0.87155                       5.32294
                       1.13511                       0.93642                       5.68630
                       1.14101                       1.00120                       6.04951
                       1.14594                       1.06590                       6.41255
                       1.14972                       1.13051                       6.77541
                       1.15228                       1.19506                       7.13807
                       1.15358                       1.25955                       7.50052
                       1.15360                       1.32400                       7.86277
                       1.15248                       1.38843                       8.22483
                       1.15022                       1.45285                       8.58670
                       1.14670                       1.51728                       8.94837
                       1.14196                       1.58173                       9.30983
                       1.13608                       1.64620                       9.67110
                       1.12918                       1.71072                      10.03219
                       1.12147                       1.77527                      10.39315
                       1.11307                       1.83986                      10.75399
                       1.10404                       1.90448                      11.11474
                       1.09462                       1.96912                      11.47542
                       1.08508                       2.03376                      11.83610
                       1.07576                       2.09838                      12.19682
                       1.07116                       2.13067                      12.37720
        </DataArray>
        <DataArray type="Float32" Name="RotationalVelocity" NumberOfComponents="3" format="ascii">
                       1.23561                       0.06343                      -0.05446
                       1.23539                       0.06348                      -0.05415
                       1.23495                       0.06361                      -0.05344
                       1.23453                       0.06376                      -0.05256
                       1.23410                       0.06395                      -0.05148
                       1.23367                       0.06418                      -0.05019
                       1.23323                       0.06445                      -0.04865
                       1.23279                       0.06477                      -0.04684
                       1.23237                       0.06514                      -0.04473
                       1.23196                       0.06557                      -0.04235
                       1.23156                       0.06604                      -0.03972
                       1.23117                       0.06655                      -0.03683
                       1.23080                       0.06711                      -0.03370
                       1.23043                       0.06771                      -0.03032
                       1.23008                       0.06835                      -0.02672
                       1.22975                       0.06902                      -0.02295
                       1.22942                       0.06972                      -0.01905
                       1.22912                       0.07043                      -0.01505
                       1.22884                       0.07115                      -0.01099
                       1.22857                       0.07188                      -0.00692
                       1.22834                       0.07259                      -0.00292
                       1.22812                       0.07329                       0.00097
                       1.22794                       0.07395                       0.00467
                       1.22778                       0.07457                       0.00812
                       1.22766                       0.07513                       0.01126
                       1.22757                       0.07560                       0.01394
                       1.22752                       0.07598                       0.01605
                       1.22749                       0.07625                       0.01754
                       1.22750                       0.07639                       0.01833
                       1.22753                       0.07639                       0.01832
                       1.22759                       0.07624                       0.01748
                       1.22762                       0.07612                       0.01679
        </DataArray>
        <DataArray type="Float32" Name="TranslationalAcceleration" NumberOfComponents="3" format="ascii">
                       0.20471                      -1.55119                       0.07521
                       0.22831                      -1.78087                       0.09191
                       0.27524                      -2.23984                       0.12674
                       0.32156                      -2.69787                       0.16492
                       0.36735                      -3.15507                       0.20582
                       0.41271                      -3.61150                       0.24897
                       0.45769                      -4.06722                       0.29399
                       0.50240                      -4.52234                       0.34046
                       0.54686                      -4.97688                       0.38823
                       0.59110                      -5.43078                       0.43734
                       0.63515                      -5.88408                       0.48766
                       0.67903                      -6.33678                       0.53914
                       0.72276                      -6.78890                       0.59175
                       0.76637                      -7.24050                       0.64539
                       0.80986                      -7.69159                       0.70007
                       0.85322                      -8.14209                       0.75595
                       0.89646                      -8.59202                       0.81309
                       0.93959                      -9.04138                       0.87154
                       0.98261                      -9.49018                       0.93133
                       1.02554                      -9.93849                       0.99234
                       1.06838                     -10.38634                       1.05457
                       1.11114                     -10.83368                       1.11817
                       1.15382                     -11.28056                       1.18309
                       1.19644                     -11.72702                       1.24924
                       1.23900                     -12.17312                       1.31648
                       1.28152                     -12.61897                       1.38454
                       1.32401                     -13.06461                       1.45326
                       1.36648                     -13.51008                       1.52251
                       1.40893                     -13.95550                       1.59192
                       1.45138                     -14.40098                       1.66110
                       1.49383                     -14.84663                       1.72954
                       1.51506                     -15.06950                       1.76358
        </DataArray>
        <DataArray type="Float32" Name="RotationalAcceleration" NumberOfComponents="3" format="ascii">
                      -0.16387                       0.00277                      -0.07093
                      -0.15784                       0.00265                      -0.06980
                      -0.14678                       0.00224                      -0.06769
                      -0.13719                       0.00157                      -0.06581
                      -0.12897                       0.00059                      -0.06411
                      -0.12189                      -0.00070                      -0.06257
                      -0.11573                      -0.00233                      -0.06116
                      -0.11036                      -0.00435                      -0.05989
                      -0.10556                      -0.00678                      -0.05873
                      -0.10111                      -0.00957                      -0.05763
                      -0.09692                      -0.01269                      -0.05654
                      -0.09289                      -0.01614                      -0.05545
                      -0.08895                      -0.01989                      -0.05435
                      -0.08504                      -0.02397                      -0.05322
                      -0.08112                      -0.02832                      -0.05207
                      -0.07716                      -0.03289                      -0.05089
                      -0.07318                      -0.03762                      -0.04971
                      -0.06918                      -0.04248                      -0.04851
                      -0.06519                      -0.04743                      -0.04733
                      -0.06126                      -0.05238                      -0.04615
                      -0.05745                      -0.05727                      -0.04502
                      -0.05384                      -0.06201                      -0.04394
                      -0.05048                      -0.06653                      -0.04292
                      -0.04747                      -0.07076                      -0.04199
                      -0.04487                      -0.07460                      -0.04115
                      -0.04287                      -0.07789                      -0.04045
                      -0.04159                      -0.08048                      -0.03990
                      -0.04109                      -0.08232                      -0.03952
                      -0.04145                      -0.08330                      -0.03932
                      -0.04278                      -0.08330                      -0.03932
                      -0.04511                      -0.08228                      -0.03951
                      -0.04659                      -0.08144                      -0.03968
        </DataArray>
        <DataArray type="Float32" Name="OrientationX" NumberOfComponents="3" format="ascii">
                       0.98363                       0.03929                       0.17588
                       0.98363                       0.03920                       0.17590
                       0.98363                       0.03891                       0.17595
                       0.98363                       0.03843                       0.17604
                       0.98364                       0.03774                       0.17616
                       0.98364                       0.03683                       0.17632
                       0.98365                       0.03567                       0.17653
                       0.98754                       0.03023                       0.15444
                       0.99038                       0.02515                       0.13606
                       0.99252                       0.02028                       0.12040
                       0.99410                       0.01561                       0.10732
                       0.99532                       0.01100                       0.09598
                       0.99624                       0.00645                       0.08638
                       0.99695                       0.00186                       0.07800
                       0.99749                      -0.00276                       0.07069
                       0.99791                      -0.00739                       0.06427
                       0.99820                      -0.01200                       0.05872
                       0.99842                      -0.01661                       0.05370
                       0.99856                      -0.02120                       0.04920
                       0.99865                      -0.02575                       0.04505
                       0.99869                      -0.03018                       0.04123
                       0.99870                      -0.03447                       0.03757
                       0.99867                      -0.03854                       0.03422
                       0.99863                      -0.04239                       0.03083
                       0.99857                      -0.04595                       0.02739
                       0.99851                      -0.04907                       0.02404
                       0.99845                      -0.05167                       0.02061
                       0.99841                      -0.05374                       0.01690
                       0.99839                      -0.05518                       0.01308
                       0.99840                      -0.05591                       0.00895
                       0.99842                      -0.05592                       0.00452
                       0.99846                      -0.05531                       0.00441
        </DataArray>
        <DataArray type="Float32" Name="OrientationY" NumberOfComponents="3" format="ascii">
                       0.18005                      -0.17189                      -0.96852
                       0.18005                      -0.17203                      -0.96850
                       0.18005                      -0.17230                      -0.96845
                       0.18005                      -0.17253                      -0.96841
                       0.18005                      -0.17272                      -0.96837
                       0.18005                      -0.17289                      -0.96834
                       0.18006                      -0.17305                      -0.96832
                       0.15735                      -0.17395                      -0.97210
                       0.13836                      -0.17461                      -0.97487
                       0.12209                      -0.17510                      -0.97695
                       0.10840                      -0.17546                      -0.97850
                       0.09642                      -0.17573                      -0.97971
                       0.08616                      -0.17592                      -0.98063
                       0.07711                      -0.17606                      -0.98136
                       0.06910                      -0.17615                      -0.98193
                       0.06196                      -0.17622                      -0.98240
                       0.05569                      -0.17625                      -0.98277
                       0.04994                      -0.17627                      -0.98307
                       0.04471                      -0.17627                      -0.98333
                       0.03983                      -0.17625                      -0.98354
                       0.03529                      -0.17621                      -0.98372
                       0.03093                      -0.17616                      -0.98388
                       0.02692                      -0.17609                      -0.98401
                       0.02291                      -0.17600                      -0.98412
                       0.01890                      -0.17588                      -0.98423
                       0.01507                      -0.17575                      -0.98432
                       0.01123                      -0.17558                      -0.98440
                       0.00722                      -0.17538                      -0.98447
                       0.00322                      -0.17515                      -0.98454
                      -0.00097                      -0.17489                      -0.98459
                      -0.00532                      -0.17459                      -0.98463
                      -0.00532                      -0.17455                      -0.98463
        </DataArray>
        <DataArray type="Float32" Name="OrientationZ" NumberOfComponents="3" format="ascii">
                      -0.00782                       0.98433                      -0.17615
                      -0.00770                       0.98431                      -0.17627
                      -0.00736                       0.98428                      -0.17648
                      -0.00685                       0.98425                      -0.17662
                      -0.00612                       0.98425                      -0.17669
                      -0.00518                       0.98425                      -0.17669
                      -0.00399                       0.98427                      -0.17664
                      -0.00252                       0.98429                      -0.17654
                      -0.00076                       0.98432                      -0.17641
                       0.00127                       0.98434                      -0.17627
                       0.00355                       0.98436                      -0.17612
                       0.00609                       0.98438                      -0.17597
                       0.00887                       0.98438                      -0.17581
                       0.01191                       0.98438                      -0.17566
                       0.01516                       0.98436                      -0.17552
                       0.01858                       0.98432                      -0.17539
                       0.02214                       0.98427                      -0.17527
                       0.02580                       0.98420                      -0.17516
                       0.02952                       0.98411                      -0.17507
                       0.03326                       0.98401                      -0.17498
                       0.03695                       0.98389                      -0.17492
                       0.04054                       0.98376                      -0.17486
                       0.04395                       0.98362                      -0.17482
                       0.04714                       0.98348                      -0.17478
                       0.05004                       0.98334                      -0.17476
                       0.05253                       0.98321                      -0.17474
                       0.05448                       0.98311                      -0.17473
                       0.05587                       0.98303                      -0.17471
                       0.05661                       0.98299                      -0.17469
                       0.05662                       0.98300                      -0.17466
                       0.05585                       0.98305                      -0.17461
                       0.05522                       0.98309                      -0.17458
        </DataArray>
      </PointData>
      <Lines>
        <DataArray type="Int32" Name="connectivity" format="ascii">
      0      1
      1      2
      2      3
      3      4
      4      5
      5      6
      6      7
      7      8
      8      9
      9     10
     10     11
     11     12
     12     13
     13     14
     14     15
     15     16
     16     17
     17     18
     18     19
     19     20
     20     21
     21     22
     22     23
     23     24
     24     25
     25     26
     26     27
     27     28
     28     29
     29     30
     30     31
        </DataArray>
        <DataArray type="Int32" Name="offsets" format="ascii">
      2
      4
      6
      8
     10
     12
     14
     16
     18
     20
     22
     24
     26
     28
     30
     32
     34
     36
     38
     40
     42
     44
     46
     48
     50
     52
     54
     56
     58
     60
     62
        </DataArray>
      </Lines>
    </Piece>
  </PolyData>
</VTKFile>
