<?xml version="1.0"?>
<VTKFile type="PolyData" version="0.1" byte_order="LittleEndian">
  <PolyData>
    <Piece NumberOfPoints="     32" NumberOfVerts="  0" NumberOfLines="     31"
           NumberOfStrips="  0" NumberOfPolys="      0">
      <Points>
        <DataArray type="Float32" NumberOfComponents="3" format="ascii">
                      -4.75953                       0.58200                     -20.75587
                      -4.76079                       0.67033                     -20.87710
                      -4.76323                       0.84698                     -21.11957
                      -4.76545                       1.02358                     -21.36207
                      -4.76737                       1.20017                     -21.60458
                      -4.76890                       1.37677                     -21.84709
                      -4.76994                       1.55340                     -22.08958
                      -4.77048                       1.73009                     -22.33203
                      -4.77044                       1.90682                     -22.57444
                      -4.76965                       2.08363                     -22.81680
                      -4.76801                       2.26051                     -23.05911
                      -4.76539                       2.43746                     -23.30135
                      -4.76170                       2.61449                     -23.54352
                      -4.75698                       2.79158                     -23.78562
                      -4.75119                       2.96874                     -24.02766
                      -4.74410                       3.14596                     -24.26962
                      -4.73565                       3.32323                     -24.51149
                      -4.72579                       3.50056                     -24.75327
                      -4.71449                       3.67792                     -24.99496
                      -4.70190                       3.85531                     -25.23657
                      -4.68803                       4.03273                     -25.47809
                      -4.67274                       4.21015                     -25.71952
                      -4.65607                       4.38759                     -25.96085
                      -4.63813                       4.56502                     -26.20209
                      -4.61902                       4.74244                     -26.44324
                      -4.59902                       4.91985                     -26.68433
                      -4.57823                       5.09726                     -26.92536
                      -4.55673                       5.27466                     -27.16634
                      -4.53479                       5.45205                     -27.40728
                      -4.51271                       5.62944                     -27.64820
                      -4.49087                       5.80686                     -27.88913
                      -4.48003                       5.89557                     -28.00960
        </DataArray>
      </Points>
      <PointData>
        <DataArray type="Float32" Name="Force" NumberOfComponents="3" format="ascii">
                   -6362.13433                   10816.22382                   16038.06142
                   10167.45319                  -15487.21505                  -27571.24125
                    4178.94947                   13236.38923                  -40238.21463
                   17432.39706                  -56404.01493                  -69601.73168
                  -17721.73961                   54919.50260                   32508.15511
                  -18474.57776                   19464.62377                   61742.63885
                  -28874.81977                    3884.57255                   68159.87323
                    5980.07645                  -40866.85852                   23844.11445
                   -3772.82436                  -13778.45634                   33259.66572
                    1672.81829                  -27166.24605                    6408.08872
                    -555.69868                   -2425.79044                   14683.83525
                    1408.75053                   -8402.48164                   12133.83889
                    2386.51550                   -6817.28457                   12764.74487
                    3908.23267                   -7283.43570                   12185.72658
                    5025.07413                   -6727.89360                   12220.97228
                    6492.42411                   -6819.12873                   12110.86690
                    7840.07788                   -6938.60708                   11954.99491
                    8847.86037                   -6780.75297                   11714.94391
                    9972.47645                   -6483.93247                   11501.64154
                   11047.80973                   -6737.81280                   11540.59973
                   12209.53135                   -6685.96946                   11313.31762
                   13118.49259                   -6521.82752                   11249.33705
                   13925.09059                   -6713.35334                   10944.03675
                   14687.83694                   -6336.57881                   10661.06779
                   15090.73161                   -6454.04520                   10478.60747
                   15666.00521                   -6495.61796                   10467.50751
                   15699.07745                   -6036.88455                    9476.11745
                   15407.33722                   -6946.68165                   10598.76937
                   14732.19292                   -3325.84215                    5082.72247
                   10733.97856                  -16285.07838                   23169.26978
                   13411.22071                   33334.08141                  -48343.32807
                  -23275.07766                 -208967.05559                  285028.37224
        </DataArray>
        <DataArray type="Float32" Name="Moment" NumberOfComponents="3" format="ascii">
                     -95.77588                    -185.95829                     -87.98324
                     917.82423                     694.03057                     423.05289
                    2897.95523                     300.47830                     465.92886
                   -1121.68051                     132.48035                    -619.10484
                   -3423.37750                    -996.44491                     373.16924
                   -4559.76364                   -2496.39326                    -579.69693
                   -7190.71516                   -1550.77651                   -2385.45893
                   -5581.82868                   -1671.50216                    -328.42547
                   -5150.73295                   -2044.20251                    -950.68229
                   -2144.59056                    -426.93856                    -649.45339
                   -2527.59155                    -807.22604                    -123.48983
                   -1297.34988                    -514.92944                    -170.41127
                   -1807.54755                    -547.96151                    -177.93882
                   -1519.88643                    -483.17269                    -153.60694
                   -1529.68197                    -452.35023                    -158.57238
                   -1425.72288                    -412.18947                    -133.93212
                   -1381.87172                    -397.75983                    -139.61959
                   -1309.61054                    -353.33549                    -153.81086
                   -1219.54712                    -314.99482                    -142.31581
                   -1172.42003                    -286.83135                    -146.54882
                   -1115.03082                    -264.29024                    -134.95874
                   -1036.01547                    -244.82662                    -137.34007
                    -973.32491                    -210.91514                    -138.33757
                    -894.33246                    -194.84562                    -132.75339
                    -831.82793                    -159.83654                    -138.46735
                    -783.43935                    -149.05964                    -122.44671
                    -676.72127                    -122.10997                    -120.89999
                    -690.37482                    -116.27930                    -117.52425
                    -367.73703                     -69.53858                     -74.05621
                   -1337.03497                    -182.68513                    -251.48137
                    2950.33553                     393.21705                     567.32386
                  -17870.58802                   -2459.98682                   -3416.15261
        </DataArray>
        <DataArray type="Float32" Name="TranslationalVelocity" NumberOfComponents="3" format="ascii">
                       0.63080                       1.02082                       0.94010
                       0.62738                       1.17700                       1.05394
                       0.62045                       1.48933                       1.28154
                       0.61333                       1.80155                       1.50898
                       0.60613                       2.11367                       1.73632
                       0.59896                       2.42572                       1.96360
                       0.59193                       2.73769                       2.19088
                       0.58514                       3.04960                       2.41820
                       0.57864                       3.36145                       2.64556
                       0.57259                       3.67325                       2.87300
                       0.56710                       3.98498                       3.10052
                       0.56231                       4.29665                       3.32814
                       0.55833                       4.60826                       3.55587
                       0.55513                       4.91979                       3.78368
                       0.55279                       5.23125                       4.01160
                       0.55148                       5.54262                       4.23961
                       0.55130                       5.85387                       4.46774
                       0.55228                       6.16500                       4.69596
                       0.55448                       6.47599                       4.92428
                       0.55776                       6.78683                       5.15268
                       0.56214                       7.09753                       5.38116
                       0.56773                       7.40806                       5.60972
                       0.57450                       7.71841                       5.83836
                       0.58237                       8.02857                       6.06707
                       0.59125                       8.33857                       6.29584
                       0.60091                       8.64842                       6.52465
                       0.61126                       8.95815                       6.75351
                       0.62222                       9.26776                       6.98241
                       0.63358                       9.57730                       7.21133
                       0.64506                       9.88682                       7.44028
                       0.65635                      10.19639                       7.66926
                       0.66194                      10.35118                       7.78375
        </DataArray>
        <DataArray type="Float32" Name="RotationalVelocity" NumberOfComponents="3" format="ascii">
                       1.28854                       0.03780                      -0.01385
                       1.28821                       0.03812                      -0.01361
                       1.28763                       0.03865                      -0.01322
                       1.28716                       0.03896                      -0.01299
                       1.28682                       0.03902                      -0.01294
                       1.28659                       0.03884                      -0.01307
                       1.28647                       0.03838                      -0.01340
                       1.28645                       0.03762                      -0.01395
                       1.28649                       0.03655                      -0.01474
                       1.28659                       0.03519                      -0.01572
                       1.28673                       0.03357                      -0.01691
                       1.28690                       0.03168                      -0.01829
                       1.28708                       0.02955                      -0.01985
                       1.28728                       0.02715                      -0.02160
                       1.28748                       0.02452                      -0.02351
                       1.28768                       0.02172                      -0.02556
                       1.28788                       0.01877                      -0.02771
                       1.28807                       0.01571                      -0.02994
                       1.28825                       0.01257                      -0.03224
                       1.28841                       0.00939                      -0.03455
                       1.28856                       0.00623                      -0.03685
                       1.28869                       0.00316                      -0.03909
                       1.28881                       0.00022                      -0.04124
                       1.28890                      -0.00253                      -0.04325
                       1.28899                      -0.00504                      -0.04508
                       1.28906                      -0.00720                      -0.04665
                       1.28912                      -0.00890                      -0.04789
                       1.28917                      -0.01012                      -0.04878
                       1.28922                      -0.01078                      -0.04926
                       1.28928                      -0.01081                      -0.04928
                       1.28934                      -0.01017                      -0.04882
                       1.28938                      -0.00964                      -0.04844
        </DataArray>
        <DataArray type="Float32" Name="TranslationalAcceleration" NumberOfComponents="3" format="ascii">
                       1.13065                      -1.04565                       1.68665
                       1.13246                      -1.17949                       1.89740
                       1.13403                      -1.44502                       2.32030
                       1.13066                      -1.70555                       2.74642
                       1.12267                      -1.96209                       3.17512
                       1.11029                      -2.21549                       3.60589
                       1.09366                      -2.46637                       4.03835
                       1.07336                      -2.71538                       4.47207
                       1.04942                      -2.96273                       4.90692
                       1.02140                      -3.20845                       5.34288
                       0.98927                      -3.45273                       5.77979
                       0.95298                      -3.69567                       6.21755
                       0.91244                      -3.93733                       6.65605
                       0.86806                      -4.17785                       7.09517
                       0.81980                      -4.41722                       7.53486
                       0.76709                      -4.65527                       7.97515
                       0.70986                      -4.89194                       8.41596
                       0.64809                      -5.12719                       8.85726
                       0.58180                      -5.36099                       9.29898
                       0.51155                      -5.59349                       9.74102
                       0.43740                      -5.82469                      10.18332
                       0.35899                      -6.05444                      10.62586
                       0.27652                      -6.28283                      11.06855
                       0.19031                      -6.50996                      11.51130
                       0.10075                      -6.73602                      11.95402
                       0.00863                      -6.96131                      12.39664
                      -0.08574                      -7.18601                      12.83911
                      -0.18206                      -7.41032                      13.28131
                      -0.27956                      -7.63465                      13.72318
                      -0.37735                      -7.85948                      14.16462
                      -0.47432                      -8.08539                      14.60553
                      -0.52257                      -8.19861                      14.82587
        </DataArray>
        <DataArray type="Float32" Name="RotationalAcceleration" NumberOfComponents="3" format="ascii">
                       0.09468                       0.06432                      -0.04915
                       0.10531                       0.07086                      -0.04424
                       0.12465                       0.08354                      -0.03485
                       0.14107                       0.09571                      -0.02612
                       0.15477                       0.10749                      -0.01801
                       0.16620                       0.11905                      -0.01043
                       0.17580                       0.13050                      -0.00330
                       0.18393                       0.14196                       0.00338
                       0.19108                       0.15358                       0.00969
                       0.19762                       0.16546                       0.01578
                       0.20372                       0.17768                       0.02169
                       0.20956                       0.19026                       0.02747
                       0.21525                       0.20325                       0.03314
                       0.22093                       0.21668                       0.03873
                       0.22668                       0.23050                       0.04425
                       0.23253                       0.24460                       0.04970
                       0.23849                       0.25891                       0.05508
                       0.24453                       0.27334                       0.06037
                       0.25062                       0.28777                       0.06554
                       0.25668                       0.30205                       0.07056
                       0.26259                       0.31595                       0.07535
                       0.26823                       0.32931                       0.07990
                       0.27348                       0.34194                       0.08415
                       0.27820                       0.35364                       0.08803
                       0.28225                       0.36418                       0.09150
                       0.28532                       0.37312                       0.09440
                       0.28716                       0.38006                       0.09661
                       0.28769                       0.38490                       0.09810
                       0.28673                       0.38732                       0.09880
                       0.28407                       0.38703                       0.09858
                       0.27967                       0.38391                       0.09743
                       0.27691                       0.38145                       0.09655
        </DataArray>
        <DataArray type="Float32" Name="OrientationX" NumberOfComponents="3" format="ascii">
                       0.97627                       0.17987                       0.12060
                       0.97627                       0.17972                       0.12080
                       0.97628                       0.17936                       0.12130
                       0.97628                       0.17887                       0.12197
                       0.97629                       0.17824                       0.12284
                       0.97630                       0.17745                       0.12393
                       0.97630                       0.17649                       0.12525
                       0.98103                       0.15711                       0.11355
                       0.98457                       0.14049                       0.10431
                       0.98730                       0.12587                       0.09691
                       0.98938                       0.11312                       0.09126
                       0.99103                       0.10157                       0.08685
                       0.99231                       0.09123                       0.08369
                       0.99332                       0.08168                       0.08147
                       0.99413                       0.07282                       0.08007
                       0.99476                       0.06453                       0.07934
                       0.99523                       0.05685                       0.07925
                       0.99560                       0.04951                       0.07955
                       0.99587                       0.04255                       0.08022
                       0.99606                       0.03586                       0.08110
                       0.99618                       0.02949                       0.08213
                       0.99626                       0.02334                       0.08316
                       0.99629                       0.01760                       0.08421
                       0.99631                       0.01202                       0.08504
                       0.99631                       0.00666                       0.08558
                       0.99631                       0.00174                       0.08579
                       0.99634                      -0.00279                       0.08548
                       0.99640                      -0.00704                       0.08450
                       0.99650                      -0.01082                       0.08287
                       0.99666                      -0.01420                       0.08039
                       0.99688                      -0.01716                       0.07704
                       0.99694                      -0.01669                       0.07641
        </DataArray>
        <DataArray type="Float32" Name="OrientationY" NumberOfComponents="3" format="ascii">
                       0.21639                      -0.78787                      -0.57657
                       0.21639                      -0.78798                      -0.57642
                       0.21639                      -0.78818                      -0.57615
                       0.21639                      -0.78835                      -0.57592
                       0.21639                      -0.78849                      -0.57572
                       0.21639                      -0.78862                      -0.57554
                       0.21639                      -0.78874                      -0.57539
                       0.19385                      -0.79269                      -0.57799
                       0.17498                      -0.79564                      -0.57995
                       0.15880                      -0.79792                      -0.58147
                       0.14517                      -0.79965                      -0.58266
                       0.13324                      -0.80102                      -0.58362
                       0.12303                      -0.80209                      -0.58440
                       0.11401                      -0.80295                      -0.58504
                       0.10603                      -0.80364                      -0.58559
                       0.09891                      -0.80421                      -0.58606
                       0.09266                      -0.80467                      -0.58645
                       0.08692                      -0.80504                      -0.58681
                       0.08171                      -0.80536                      -0.58713
                       0.07684                      -0.80562                      -0.58743
                       0.07231                      -0.80584                      -0.58771
                       0.06796                      -0.80602                      -0.58798
                       0.06396                      -0.80616                      -0.58823
                       0.05996                      -0.80627                      -0.58850
                       0.05596                      -0.80635                      -0.58878
                       0.05213                      -0.80640                      -0.58906
                       0.04831                      -0.80642                      -0.58936
                       0.04431                      -0.80641                      -0.58969
                       0.04031                      -0.80637                      -0.59004
                       0.03613                      -0.80629                      -0.59041
                       0.03179                      -0.80618                      -0.59081
                       0.03179                      -0.80616                      -0.59085
        </DataArray>
        <DataArray type="Float32" Name="OrientationZ" NumberOfComponents="3" format="ascii">
                      -0.00869                       0.58899                      -0.80810
                      -0.00841                       0.58889                      -0.80817
                      -0.00773                       0.58873                      -0.80829
                      -0.00686                       0.58865                      -0.80836
                      -0.00575                       0.58865                      -0.80837
                      -0.00440                       0.58872                      -0.80833
                      -0.00276                       0.58885                      -0.80824
                      -0.00080                       0.58904                      -0.80811
                       0.00151                       0.58925                      -0.80795
                       0.00414                       0.58948                      -0.80777
                       0.00707                       0.58972                      -0.80758
                       0.01030                       0.58996                      -0.80737
                       0.01381                       0.59020                      -0.80714
                       0.01763                       0.59042                      -0.80690
                       0.02171                       0.59064                      -0.80664
                       0.02599                       0.59083                      -0.80638
                       0.03043                       0.59100                      -0.80610
                       0.03499                       0.59114                      -0.80581
                       0.03962                       0.59126                      -0.80551
                       0.04427                       0.59135                      -0.80520
                       0.04885                       0.59140                      -0.80489
                       0.05330                       0.59143                      -0.80459
                       0.05754                       0.59144                      -0.80429
                       0.06149                       0.59142                      -0.80401
                       0.06509                       0.59140                      -0.80375
                       0.06816                       0.59136                      -0.80352
                       0.07058                       0.59133                      -0.80334
                       0.07229                       0.59131                      -0.80320
                       0.07321                       0.59131                      -0.80311
                       0.07320                       0.59135                      -0.80309
                       0.07225                       0.59142                      -0.80312
                       0.07146                       0.59147                      -0.80316
        </DataArray>
      </PointData>
      <Lines>
        <DataArray type="Int32" Name="connectivity" format="ascii">
      0      1
      1      2
      2      3
      3      4
      4      5
      5      6
      6      7
      7      8
      8      9
      9     10
     10     11
     11     12
     12     13
     13     14
     14     15
     15     16
     16     17
     17     18
     18     19
     19     20
     20     21
     21     22
     22     23
     23     24
     24     25
     25     26
     26     27
     27     28
     28     29
     29     30
     30     31
        </DataArray>
        <DataArray type="Int32" Name="offsets" format="ascii">
      2
      4
      6
      8
     10
     12
     14
     16
     18
     20
     22
     24
     26
     28
     30
     32
     34
     36
     38
     40
     42
     44
     46
     48
     50
     52
     54
     56
     58
     60
     62
        </DataArray>
      </Lines>
    </Piece>
  </PolyData>
</VTKFile>
