<?xml version="1.0"?>
<VTKFile type="PolyData" version="0.1" byte_order="LittleEndian">
  <PolyData>
    <Piece NumberOfPoints="     32" NumberOfVerts="  0" NumberOfLines="     31"
           NumberOfStrips="  0" NumberOfPolys="      0">
      <Points>
        <DataArray type="Float32" NumberOfComponents="3" format="ascii">
                      -4.31573                      -0.97589                     -19.52472
                      -4.31401                      -1.11912                     -19.48019
                      -4.31052                      -1.40558                     -19.39116
                      -4.30689                      -1.69205                     -19.30217
                      -4.30306                      -1.97854                     -19.21324
                      -4.29895                      -2.26506                     -19.12440
                      -4.29449                      -2.55159                     -19.03564
                      -4.28965                      -2.83815                     -18.94698
                      -4.28439                      -3.12473                     -18.85842
                      -4.27857                      -3.41134                     -18.76999
                      -4.27211                      -3.69798                     -18.68168
                      -4.26492                      -3.98464                     -18.59351
                      -4.25693                      -4.27132                     -18.50548
                      -4.24816                      -4.55802                     -18.41758
                      -4.23857                      -4.84473                     -18.32981
                      -4.22801                      -5.13146                     -18.24219
                      -4.21642                      -5.41819                     -18.15472
                      -4.20376                      -5.70492                     -18.06741
                      -4.19000                      -5.99165                     -17.98024
                      -4.17527                      -6.27837                     -17.89321
                      -4.15958                      -6.56508                     -17.80630
                      -4.14280                      -6.85177                     -17.71953
                      -4.12498                      -7.13843                     -17.63289
                      -4.10619                      -7.42507                     -17.54637
                      -4.08652                      -7.71168                     -17.45995
                      -4.06617                      -7.99826                     -17.37361
                      -4.04521                      -8.28483                     -17.28734
                      -4.02372                      -8.57137                     -17.20112
                      -4.00190                      -8.85789                     -17.11494
                      -3.97997                      -9.14441                     -17.02878
                      -3.95822                      -9.43094                     -16.94259
                      -3.94740                      -9.57421                     -16.89949
        </DataArray>
      </Points>
      <PointData>
        <DataArray type="Float32" Name="Force" NumberOfComponents="3" format="ascii">
                   -6017.39030                    2874.42042                  -10833.99518
                   11420.03878                   -1533.56433                   35251.02560
                    9735.16577                  -29256.05560                   27957.21675
                   23745.94383                    6330.55972                   84600.31840
                  -14039.42410                  -18695.84530                  -46300.68395
                  -14785.73985                   21164.73307                  -45871.76240
                  -23610.78928                   33609.67811                  -41067.73139
                    7101.34318                   40843.48300                    9963.98519
                   -3380.18444                   26815.85651                   -9943.84976
                    1025.52478                   22184.61208                   13733.39496
                   -2568.56963                    9892.48791                   -3820.12085
                   -1711.79491                   12325.89229                     684.48933
                   -1691.93175                   11371.18474                    -609.96744
                   -1043.64952                   11179.11831                    -161.88227
                    -731.59600                   10624.86607                    -567.27441
                      80.42248                   10411.89202                    -612.56036
                     941.46708                   10189.17942                    -635.97643
                    1687.16326                    9779.76783                    -742.86234
                    2676.91020                    9309.63612                    -934.90889
                    3743.90518                    9272.51476                   -1051.37555
                    4970.11097                    8956.65363                   -1168.23525
                    6177.66284                    8661.38583                   -1426.70400
                    7404.75867                    8476.95206                   -1420.21017
                    8685.25923                    8011.11051                   -1665.47229
                    9835.64610                    7871.19816                   -1763.66140
                   11102.70349                    7760.26019                   -1992.30906
                   12036.70037                    7054.62350                   -1897.75145
                   12780.89710                    7799.69293                   -2325.95300
                   13167.56076                    3984.54406                   -1148.59120
                   11085.70545                   16651.79409                   -5222.50111
                   12173.48842                  -33080.63209                   11351.86096
                  -13199.58682                  203506.65861                  -61011.82680
        </DataArray>
        <DataArray type="Float32" Name="Moment" NumberOfComponents="3" format="ascii">
                     177.43646                      94.33177                     179.70360
                    1432.05761                    -307.14597                    -767.21014
                    2167.20757                     -14.05296                    -572.35585
                    -951.15279                    -676.00759                     462.91232
                   -3349.66916                     544.02609                     631.25242
                   -3730.46135                     908.00780                    2063.97674
                   -5796.35884                    -660.10056                    2856.76123
                   -4340.11687                     517.22957                    1343.40040
                   -4066.12983                     543.56040                    1934.31241
                   -1602.31924                    -314.37990                     773.49456
                   -1988.54162                     223.01161                     635.92573
                    -950.20988                      27.32093                     457.67446
                   -1358.56254                      68.02176                     485.62616
                   -1112.37015                      56.15316                     419.28769
                   -1111.32175                      46.43823                     399.53476
                   -1019.85947                      47.67772                     351.29540
                    -976.10788                      49.70082                     338.98470
                    -913.11040                      28.61930                     316.07202
                    -839.43060                      25.14274                     280.85475
                    -796.91964                      18.39863                     264.99286
                    -748.86633                      18.46036                     240.57823
                    -686.89006                      16.08157                     224.26545
                    -637.72825                       6.03482                     204.18708
                    -579.12201                       6.97354                     186.58877
                    -532.40531                      -5.78298                     169.27991
                    -495.95590                       1.26173                     151.93652
                    -424.27142                      -7.40929                     134.13071
                    -425.06195                      -3.16159                     126.26084
                    -234.28712                      -8.65632                      77.85498
                    -781.99300                      -4.68097                     224.06374
                    1680.24902                     -23.43827                    -482.09679
                  -10577.35146                      84.03250                    2968.08986
        </DataArray>
        <DataArray type="Float32" Name="TranslationalVelocity" NumberOfComponents="3" format="ascii">
                       0.93393                      -0.40503                      -0.92590
                       0.92979                      -0.46083                      -1.10524
                       0.92144                      -0.57240                      -1.46389
                       0.91288                      -0.68389                      -1.82245
                       0.90405                      -0.79527                      -2.18092
                       0.89486                      -0.90654                      -2.53930
                       0.88523                      -1.01767                      -2.89757
                       0.87511                      -1.12866                      -3.25576
                       0.86447                      -1.23951                      -3.61385
                       0.85313                      -1.35020                      -3.97184
                       0.84099                      -1.46073                      -4.32972
                       0.82797                      -1.57110                      -4.68748
                       0.81395                      -1.68131                      -5.04513
                       0.79898                      -1.79139                      -5.40267
                       0.78303                      -1.90134                      -5.76010
                       0.76589                      -2.01116                      -6.11740
                       0.74751                      -2.12085                      -6.47455
                       0.72782                      -2.23043                      -6.83156
                       0.70682                      -2.33992                      -7.18842
                       0.68465                      -2.44935                      -7.54514
                       0.66130                      -2.55871                      -7.90172
                       0.63665                      -2.66803                      -8.25814
                       0.61075                      -2.77732                      -8.61441
                       0.58368                      -2.88659                      -8.97053
                       0.55556                      -2.99585                      -9.32652
                       0.52661                      -3.10512                      -9.68240
                       0.49694                      -3.21440                     -10.03819
                       0.46663                      -3.32370                     -10.39390
                       0.43592                      -3.43301                     -10.74956
                       0.40508                      -3.54233                     -11.10521
                       0.37446                      -3.65164                     -11.46089
                       0.35921                      -3.70629                     -11.63874
        </DataArray>
        <DataArray type="Float32" Name="RotationalVelocity" NumberOfComponents="3" format="ascii">
                       1.25161                       0.06016                      -0.04734
                       1.25143                       0.06008                      -0.04758
                       1.25104                       0.05990                      -0.04815
                       1.25064                       0.05966                      -0.04890
                       1.25021                       0.05935                      -0.04986
                       1.24975                       0.05898                      -0.05104
                       1.24924                       0.05853                      -0.05246
                       1.24870                       0.05799                      -0.05418
                       1.24814                       0.05736                      -0.05620
                       1.24757                       0.05664                      -0.05849
                       1.24698                       0.05584                      -0.06104
                       1.24638                       0.05496                      -0.06386
                       1.24577                       0.05400                      -0.06692
                       1.24515                       0.05296                      -0.07024
                       1.24452                       0.05185                      -0.07379
                       1.24390                       0.05068                      -0.07751
                       1.24328                       0.04947                      -0.08137
                       1.24266                       0.04824                      -0.08533
                       1.24206                       0.04698                      -0.08936
                       1.24148                       0.04571                      -0.09340
                       1.24094                       0.04447                      -0.09738
                       1.24042                       0.04326                      -0.10124
                       1.23995                       0.04211                      -0.10493
                       1.23953                       0.04104                      -0.10837
                       1.23916                       0.04006                      -0.11149
                       1.23885                       0.03922                      -0.11417
                       1.23863                       0.03857                      -0.11627
                       1.23849                       0.03810                      -0.11777
                       1.23842                       0.03785                      -0.11856
                       1.23845                       0.03785                      -0.11856
                       1.23855                       0.03811                      -0.11773
                       1.23863                       0.03833                      -0.11704
        </DataArray>
        <DataArray type="Float32" Name="TranslationalAcceleration" NumberOfComponents="3" format="ascii">
                       0.03963                       1.54789                      -0.17779
                       0.01749                       1.77854                      -0.22708
                      -0.02734                       2.23934                      -0.32683
                      -0.07345                       2.69896                      -0.42937
                      -0.12039                       3.15756                      -0.53420
                      -0.16776                       3.61521                      -0.64094
                      -0.21514                       4.07197                      -0.74932
                      -0.26220                       4.52799                      -0.85900
                      -0.30871                       4.98328                      -0.96989
                      -0.35424                       5.43779                      -1.08204
                      -0.39840                       5.89154                      -1.19537
                      -0.44085                       6.34457                      -1.30987
                      -0.48126                       6.79688                      -1.42552
                      -0.51964                       7.24859                      -1.54222
                      -0.55583                       7.69969                      -1.65999
                      -0.58933                       8.15013                      -1.77901
                      -0.61993                       8.59994                      -1.89933
                      -0.64747                       9.04915                      -2.02100
                      -0.67185                       9.49780                      -2.14407
                      -0.69338                       9.94600                      -2.26839
                      -0.71206                      10.39377                      -2.39396
                      -0.72755                      10.84111                      -2.52095
                      -0.73994                      11.28807                      -2.64929
                      -0.74942                      11.73474                      -2.77891
                      -0.75625                      12.18119                      -2.90965
                      -0.76101                      12.62749                      -3.04122
                      -0.76393                      13.07369                      -3.17350
                      -0.76522                      13.51985                      -3.30632
                      -0.76544                      13.96605                      -3.43936
                      -0.76530                      14.41235                      -3.57219
                      -0.76564                      14.85884                      -3.70433
                      -0.76597                      15.08212                      -3.77024
        </DataArray>
        <DataArray type="Float32" Name="RotationalAcceleration" NumberOfComponents="3" format="ascii">
                      -0.14729                       0.03896                      -0.07030
                      -0.14181                       0.03856                      -0.07277
                      -0.13170                       0.03808                      -0.07712
                      -0.12284                       0.03814                      -0.08049
                      -0.11511                       0.03879                      -0.08283
                      -0.10827                       0.04005                      -0.08417
                      -0.10214                       0.04196                      -0.08450
                      -0.09657                       0.04463                      -0.08370
                      -0.09142                       0.04805                      -0.08180
                      -0.08651                       0.05213                      -0.07899
                      -0.08177                       0.05685                      -0.07533
                      -0.07714                       0.06217                      -0.07087
                      -0.07255                       0.06808                      -0.06566
                      -0.06797                       0.07457                      -0.05969
                      -0.06336                       0.08159                      -0.05305
                      -0.05872                       0.08901                      -0.04592
                      -0.05407                       0.09675                      -0.03836
                      -0.04942                       0.10473                      -0.03047
                      -0.04481                       0.11288                      -0.02234
                      -0.04030                       0.12109                      -0.01409
                      -0.03597                       0.12921                      -0.00587
                      -0.03187                       0.13710                       0.00216
                      -0.02810                       0.14464                       0.00988
                      -0.02471                       0.15169                       0.01713
                      -0.02181                       0.15811                       0.02376
                      -0.01956                       0.16362                       0.02949
                      -0.01811                       0.16796                       0.03405
                      -0.01748                       0.17107                       0.03735
                      -0.01776                       0.17273                       0.03920
                      -0.01904                       0.17277                       0.03937
                      -0.02134                       0.17110                       0.03780
                      -0.02281                       0.16972                       0.03646
        </DataArray>
        <DataArray type="Float32" Name="OrientationX" NumberOfComponents="3" format="ascii">
                       0.96617                      -0.06609                      -0.24930
                       0.96617                      -0.06592                      -0.24935
                       0.96616                      -0.06549                      -0.24948
                       0.96615                      -0.06490                      -0.24966
                       0.96614                      -0.06414                      -0.24990
                       0.96613                      -0.06317                      -0.25020
                       0.96611                      -0.06200                      -0.25057
                       0.97177                      -0.05388                      -0.22971
                       0.97607                      -0.04661                      -0.21238
                       0.97946                      -0.03990                      -0.19766
                       0.98208                      -0.03372                      -0.18541
                       0.98421                      -0.02783                      -0.17483
                       0.98589                      -0.02224                      -0.16593
                       0.98726                      -0.01678                      -0.15824
                       0.98838                      -0.01144                      -0.15158
                       0.98930                      -0.00621                      -0.14578
                       0.99003                      -0.00112                      -0.14083
                       0.99065                       0.00391                      -0.13639
                       0.99115                       0.00883                      -0.13246
                       0.99157                       0.01367                      -0.12887
                       0.99191                       0.01835                      -0.12558
                       0.99221                       0.02288                      -0.12243
                       0.99246                       0.02716                      -0.11956
                       0.99269                       0.03123                      -0.11662
                       0.99291                       0.03503                      -0.11360
                       0.99312                       0.03841                      -0.11063
                       0.99335                       0.04130                      -0.10751
                       0.99361                       0.04373                      -0.10407
                       0.99390                       0.04558                      -0.10045
                       0.99424                       0.04680                      -0.09646
                       0.99462                       0.04738                      -0.09209
                       0.99467                       0.04681                      -0.09191
        </DataArray>
        <DataArray type="Float32" Name="OrientationY" NumberOfComponents="3" format="ascii">
                       0.25766                       0.28967                       0.92179
                       0.25766                       0.28965                       0.92180
                       0.25766                       0.28962                       0.92181
                       0.25766                       0.28960                       0.92182
                       0.25766                       0.28957                       0.92182
                       0.25766                       0.28955                       0.92183
                       0.25766                       0.28955                       0.92183
                       0.23534                       0.29088                       0.92736
                       0.21664                       0.29185                       0.93161
                       0.20060                       0.29257                       0.93497
                       0.18708                       0.29308                       0.93761
                       0.17524                       0.29345                       0.93977
                       0.16509                       0.29371                       0.94153
                       0.15614                       0.29389                       0.94300
                       0.14821                       0.29401                       0.94424
                       0.14114                       0.29407                       0.94530
                       0.13492                       0.29410                       0.94620
                       0.12922                       0.29409                       0.94700
                       0.12404                       0.29405                       0.94771
                       0.11920                       0.29399                       0.94835
                       0.11470                       0.29392                       0.94892
                       0.11038                       0.29383                       0.94946
                       0.10640                       0.29372                       0.94995
                       0.10242                       0.29360                       0.95043
                       0.09844                       0.29347                       0.95089
                       0.09463                       0.29332                       0.95132
                       0.09082                       0.29317                       0.95174
                       0.08683                       0.29300                       0.95216
                       0.08284                       0.29282                       0.95257
                       0.07868                       0.29263                       0.95298
                       0.07434                       0.29243                       0.95339
                       0.07434                       0.29243                       0.95339
        </DataArray>
        <DataArray type="Float32" Name="OrientationZ" NumberOfComponents="3" format="ascii">
                       0.01129                      -0.95484                       0.29690
                       0.01146                      -0.95486                       0.29684
                       0.01189                      -0.95490                       0.29670
                       0.01247                      -0.95495                       0.29652
                       0.01324                      -0.95500                       0.29629
                       0.01421                      -0.95507                       0.29602
                       0.01540                      -0.95515                       0.29571
                       0.01685                      -0.95524                       0.29535
                       0.01856                      -0.95533                       0.29497
                       0.02052                      -0.95541                       0.29456
                       0.02272                      -0.95549                       0.29414
                       0.02515                      -0.95557                       0.29370
                       0.02780                      -0.95564                       0.29324
                       0.03068                      -0.95569                       0.29277
                       0.03376                      -0.95573                       0.29229
                       0.03700                      -0.95576                       0.29180
                       0.04036                      -0.95578                       0.29132
                       0.04381                      -0.95577                       0.29083
                       0.04732                      -0.95575                       0.29035
                       0.05085                      -0.95571                       0.28988
                       0.05433                      -0.95565                       0.28944
                       0.05770                      -0.95558                       0.28901
                       0.06092                      -0.95550                       0.28862
                       0.06392                      -0.95542                       0.28826
                       0.06665                      -0.95533                       0.28794
                       0.06899                      -0.95524                       0.28767
                       0.07083                      -0.95517                       0.28747
                       0.07213                      -0.95511                       0.28733
                       0.07283                      -0.95508                       0.28726
                       0.07283                      -0.95508                       0.28726
                       0.07210                      -0.95511                       0.28733
                       0.07151                      -0.95514                       0.28739
        </DataArray>
      </PointData>
      <Lines>
        <DataArray type="Int32" Name="connectivity" format="ascii">
      0      1
      1      2
      2      3
      3      4
      4      5
      5      6
      6      7
      7      8
      8      9
      9     10
     10     11
     11     12
     12     13
     13     14
     14     15
     15     16
     16     17
     17     18
     18     19
     19     20
     20     21
     21     22
     22     23
     23     24
     24     25
     25     26
     26     27
     27     28
     28     29
     29     30
     30     31
        </DataArray>
        <DataArray type="Int32" Name="offsets" format="ascii">
      2
      4
      6
      8
     10
     12
     14
     16
     18
     20
     22
     24
     26
     28
     30
     32
     34
     36
     38
     40
     42
     44
     46
     48
     50
     52
     54
     56
     58
     60
     62
        </DataArray>
      </Lines>
    </Piece>
  </PolyData>
</VTKFile>
