<?xml version="1.0"?>
<VTKFile type="PolyData" version="0.1" byte_order="LittleEndian">
  <PolyData>
    <Piece NumberOfPoints="     32" NumberOfVerts="  0" NumberOfLines="     31"
           NumberOfStrips="  0" NumberOfPolys="      0">
      <Points>
        <DataArray type="Float32" NumberOfComponents="3" format="ascii">
                      -4.81690                       0.47525                     -20.84132
                      -4.81782                       0.54730                     -20.97288
                      -4.81959                       0.69138                     -21.23601
                      -4.82116                       0.83544                     -21.49915
                      -4.82246                       0.97950                     -21.76230
                      -4.82340                       1.12359                     -22.02543
                      -4.82390                       1.26772                     -22.28854
                      -4.82392                       1.41191                     -22.55161
                      -4.82342                       1.55616                     -22.81466
                      -4.82224                       1.70049                     -23.07765
                      -4.82027                       1.84490                     -23.34060
                      -4.81741                       1.98939                     -23.60350
                      -4.81357                       2.13397                     -23.86633
                      -4.80879                       2.27863                     -24.12911
                      -4.80303                       2.42335                     -24.39183
                      -4.79608                       2.56815                     -24.65447
                      -4.78789                       2.71303                     -24.91705
                      -4.77840                       2.85797                     -25.17954
                      -4.76760                       3.00296                     -25.44195
                      -4.75562                       3.14800                     -25.70428
                      -4.74247                       3.29308                     -25.96654
                      -4.72802                       3.43820                     -26.22871
                      -4.71232                       3.58334                     -26.49080
                      -4.69544                       3.72850                     -26.75280
                      -4.67751                       3.87367                     -27.01472
                      -4.65875                       4.01884                     -27.27658
                      -4.63927                       4.16403                     -27.53839
                      -4.61915                       4.30921                     -27.80015
                      -4.59862                       4.45440                     -28.06188
                      -4.57797                       4.59959                     -28.32359
                      -4.55754                       4.74479                     -28.58531
                      -4.54739                       4.81740                     -28.71618
        </DataArray>
      </Points>
      <PointData>
        <DataArray type="Float32" Name="Force" NumberOfComponents="3" format="ascii">
                   -6505.06287                   12269.50453                   14244.98509
                   10293.49163                  -19536.85922                  -25731.07995
                    3761.33044                    7382.22591                  -42118.23733
                   17195.49922                  -65960.41401                  -62367.71633
                  -18126.70269                   58468.11836                   25208.47132
                  -18136.95316                   27102.46832                   59017.64971
                  -28274.21693                   12451.93306                   67447.97025
                    7080.58588                  -37911.89845                   29067.97141
                   -2869.05920                   -9587.89606                   35023.98652
                    2635.36911                  -26451.19992                    9907.31082
                     153.97255                    -586.60508                   15022.37521
                    1979.42033                   -6888.97586                   13260.75622
                    2807.60023                   -5205.48162                   13707.88104
                    4182.18372                   -5733.19300                   13203.94319
                    5131.55620                   -5156.89393                   13181.14058
                    6468.25625                   -5247.70223                   13093.79896
                    7692.46925                   -5374.92523                   12960.92501
                    8577.51972                   -5235.43361                   12703.31031
                    9605.59735                   -4953.35502                   12451.91496
                   10572.58542                   -5195.61647                   12522.71784
                   11616.80850                   -5165.27971                   12280.91470
                   12420.65392                   -5002.65648                   12187.09947
                   13116.45939                   -5233.50374                   11892.61942
                   13758.59814                   -4888.02670                   11543.70388
                   14039.01321                   -5032.15216                   11360.29150
                   14478.97419                   -5077.50828                   11338.75632
                   14356.98206                   -4745.35671                   10258.39890
                   13925.12064                   -5525.70465                   11509.89570
                   13079.20745                   -2567.83141                    5425.92522
                    8999.92634                  -13369.98917                   25533.81098
                   11319.75727                   27735.63958                  -53653.46026
                  -21707.90804                 -174999.36923                  317348.22383
        </DataArray>
        <DataArray type="Float32" Name="Moment" NumberOfComponents="3" format="ascii">
                     -68.60077                    -195.00781                     -63.08294
                     949.31251                     746.60781                     332.33109
                    2889.57439                     365.41794                     431.28099
                   -1151.17768                      53.56883                    -656.19745
                   -3458.34144                    -941.82128                     460.92441
                   -4580.74407                   -2558.69726                    -308.90952
                   -7215.49426                   -1847.09568                   -2240.08758
                   -5615.92092                   -1707.29081                    -160.70294
                   -5182.18637                   -2163.53000                    -727.17529
                   -2161.42397                    -503.62730                    -624.00805
                   -2550.84591                    -819.11423                     -46.71045
                   -1309.60846                    -530.46207                    -127.49366
                   -1826.33835                    -567.14863                    -128.38249
                   -1537.03432                    -500.91718                    -110.61573
                   -1548.04559                    -470.75532                    -119.49073
                   -1443.96223                    -427.67737                     -97.43946
                   -1400.54323                    -415.45438                    -103.60957
                   -1328.32121                    -372.79224                    -121.94238
                   -1237.93366                    -333.94303                    -112.39661
                   -1190.99973                    -307.90660                    -119.49309
                   -1133.53392                    -283.65024                    -110.01882
                   -1053.95446                    -264.73659                    -112.99386
                    -991.00227                    -231.61306                    -117.25969
                    -911.21605                    -214.84180                    -112.37710
                    -848.33138                    -180.99005                    -121.26006
                    -799.55703                    -168.79953                    -106.00607
                    -691.19561                    -140.98086                    -107.39002
                    -705.69983                    -135.29229                    -103.76579
                    -376.35620                     -81.04164                     -66.07517
                   -1367.91049                    -224.44279                    -228.08947
                    3016.53516                     488.31235                     515.59192
                  -18307.12558                   -3035.04712                   -3100.65568
        </DataArray>
        <DataArray type="Float32" Name="TranslationalVelocity" NumberOfComponents="3" format="ascii">
                       0.50653                       1.10312                       0.76145
                       0.50333                       1.27196                       0.85393
                       0.49704                       1.60972                       1.03892
                       0.49109                       1.94766                       1.22396
                       0.48553                       2.28578                       1.40909
                       0.48046                       2.62405                       1.59434
                       0.47597                       2.96246                       1.77973
                       0.47207                       3.30098                       1.96527
                       0.46883                       3.63960                       2.15096
                       0.46643                       3.97833                       2.33684
                       0.46497                       4.31715                       2.52291
                       0.46457                       4.65606                       2.70918
                       0.46532                       4.99502                       2.89565
                       0.46717                       5.33404                       3.08230
                       0.47017                       5.67309                       3.26915
                       0.47453                       6.01217                       3.45620
                       0.48032                       6.35127                       3.64348
                       0.48760                       6.69036                       3.83097
                       0.49638                       7.02942                       4.01869
                       0.50651                       7.36845                       4.20659
                       0.51797                       7.70744                       4.39469
                       0.53091                       8.04635                       4.58300
                       0.54527                       8.38519                       4.77150
                       0.56097                       8.72394                       4.96019
                       0.57787                       9.06260                       5.14904
                       0.59570                       9.40117                       5.33802
                       0.61435                       9.73967                       5.52712
                       0.63373                      10.07809                       5.71630
                       0.65357                      10.41645                       5.90555
                       0.67354                      10.75477                       6.09482
                       0.69327                      11.09311                       6.28406
                       0.70305                      11.26228                       6.37867
        </DataArray>
        <DataArray type="Float32" Name="RotationalVelocity" NumberOfComponents="3" format="ascii">
                       1.28294                       0.03001                      -0.00937
                       1.28327                       0.02961                      -0.00959
                       1.28391                       0.02872                      -0.01008
                       1.28454                       0.02767                      -0.01066
                       1.28517                       0.02642                      -0.01135
                       1.28580                       0.02496                      -0.01215
                       1.28645                       0.02327                      -0.01309
                       1.28710                       0.02129                      -0.01417
                       1.28774                       0.01902                      -0.01542
                       1.28837                       0.01647                      -0.01682
                       1.28899                       0.01367                      -0.01836
                       1.28961                       0.01061                      -0.02004
                       1.29023                       0.00731                      -0.02185
                       1.29084                       0.00376                      -0.02380
                       1.29144                      -0.00002                      -0.02588
                       1.29204                      -0.00397                      -0.02804
                       1.29262                      -0.00805                      -0.03028
                       1.29319                      -0.01223                      -0.03258
                       1.29373                      -0.01646                      -0.03490
                       1.29425                      -0.02071                      -0.03723
                       1.29474                      -0.02489                      -0.03952
                       1.29519                      -0.02893                      -0.04174
                       1.29559                      -0.03279                      -0.04386
                       1.29595                      -0.03638                      -0.04583
                       1.29626                      -0.03965                      -0.04762
                       1.29650                      -0.04244                      -0.04915
                       1.29667                      -0.04464                      -0.05035
                       1.29677                      -0.04619                      -0.05121
                       1.29680                      -0.04701                      -0.05166
                       1.29675                      -0.04700                      -0.05165
                       1.29664                      -0.04612                      -0.05117
                       1.29656                      -0.04540                      -0.05077
        </DataArray>
        <DataArray type="Float32" Name="TranslationalAcceleration" NumberOfComponents="3" format="ascii">
                       1.24434                      -0.62260                       1.79410
                       1.24433                      -0.73909                       2.01222
                       1.24768                      -0.97502                       2.44698
                       1.25880                      -1.21791                       2.87829
                       1.27550                      -1.46678                       3.30671
                       1.29566                      -1.72099                       3.73264
                       1.31709                      -1.98016                       4.15633
                       1.33794                      -2.24352                       4.57816
                       1.35697                      -2.51095                       4.99819
                       1.37202                      -2.78288                       5.41625
                       1.38104                      -3.05921                       5.83233
                       1.38206                      -3.33990                       6.24639
                       1.37328                      -3.62497                       6.65835
                       1.35453                      -3.91392                       7.06833
                       1.32496                      -4.20676                       7.47625
                       1.28187                      -4.50399                       7.88170
                       1.22408                      -4.80561                       8.28450
                       1.15063                      -5.11156                       8.68448
                       1.06089                      -5.42176                       9.08148
                       0.95648                      -5.73558                       9.47576
                       0.83731                      -6.05291                       9.86726
                       0.70158                      -6.37398                      10.25558
                       0.54973                      -6.69846                      10.64076
                       0.38268                      -7.02596                      11.02294
                       0.20182                      -7.35596                      11.40239
                       0.01018                      -7.68773                      11.77974
                      -0.19101                      -8.02090                      12.15526
                      -0.40076                      -8.35505                      12.52925
                      -0.61604                      -8.68939                      12.90245
                      -0.83322                      -9.02310                      13.27574
                      -1.04783                      -9.35522                      13.65022
                      -1.15435                      -9.52090                      13.83776
        </DataArray>
        <DataArray type="Float32" Name="RotationalAcceleration" NumberOfComponents="3" format="ascii">
                       0.03016                       0.07184                      -0.03983
                       0.01634                       0.05920                      -0.04685
                      -0.00922                       0.03686                      -0.05952
                      -0.03177                       0.01951                      -0.06989
                      -0.05173                       0.00753                      -0.07779
                      -0.06976                       0.00098                      -0.08324
                      -0.08642                      -0.00009                      -0.08622
                      -0.10211                       0.00509                      -0.08641
                      -0.11719                       0.01645                      -0.08388
                      -0.13193                       0.03309                      -0.07905
                      -0.14648                       0.05479                      -0.07200
                      -0.16097                       0.08131                      -0.06287
                      -0.17551                       0.11237                      -0.05178
                      -0.19017                       0.14811                      -0.03867
                      -0.20498                       0.18797                      -0.02379
                      -0.21989                       0.23096                      -0.00755
                      -0.23484                       0.27658                       0.00984
                      -0.24976                       0.32429                       0.02814
                      -0.26451                       0.37351                       0.04713
                      -0.27890                       0.42357                       0.06653
                      -0.29265                       0.47340                       0.08591
                      -0.30560                       0.52212                       0.10491
                      -0.31752                       0.56889                       0.12319
                      -0.32816                       0.61281                       0.14040
                      -0.33729                       0.65296                       0.15615
                      -0.34437                       0.68756                       0.16976
                      -0.34900                       0.71502                       0.18058
                      -0.35115                       0.73479                       0.18840
                      -0.35056                       0.74569                       0.19275
                      -0.34699                       0.74646                       0.19314
                      -0.34042                       0.73668                       0.18940
                      -0.33620                       0.72839                       0.18620
        </DataArray>
        <DataArray type="Float32" Name="OrientationX" NumberOfComponents="3" format="ascii">
                       0.97567                       0.19521                       0.09978
                       0.97567                       0.19510                       0.09999
                       0.97568                       0.19482                       0.10050
                       0.97568                       0.19444                       0.10118
                       0.97569                       0.19397                       0.10205
                       0.97569                       0.19337                       0.10314
                       0.97569                       0.19265                       0.10446
                       0.98048                       0.17201                       0.09522
                       0.98407                       0.15445                       0.08802
                       0.98685                       0.13911                       0.08237
                       0.98896                       0.12586                       0.07819
                       0.99064                       0.11398                       0.07507
                       0.99195                       0.10346                       0.07300
                       0.99300                       0.09387                       0.07174
                       0.99383                       0.08507                       0.07118
                       0.99449                       0.07694                       0.07120
                       0.99500                       0.06949                       0.07176
                       0.99540                       0.06244                       0.07266
                       0.99570                       0.05581                       0.07387
                       0.99594                       0.04949                       0.07526
                       0.99610                       0.04349                       0.07675
                       0.99622                       0.03771                       0.07822
                       0.99630                       0.03232                       0.07969
                       0.99635                       0.02706                       0.08093
                       0.99640                       0.02196                       0.08188
                       0.99644                       0.01724                       0.08249
                       0.99650                       0.01281                       0.08258
                       0.99659                       0.00853                       0.08202
                       0.99672                       0.00461                       0.08082
                       0.99689                       0.00095                       0.07880
                       0.99711                      -0.00245                       0.07592
                       0.99716                      -0.00210                       0.07530
        </DataArray>
        <DataArray type="Float32" Name="OrientationY" NumberOfComponents="3" format="ascii">
                       0.21914                      -0.85506                      -0.46995
                       0.21914                      -0.85512                      -0.46983
                       0.21914                      -0.85524                      -0.46962
                       0.21914                      -0.85534                      -0.46944
                       0.21914                      -0.85542                      -0.46929
                       0.21914                      -0.85549                      -0.46916
                       0.21914                      -0.85556                      -0.46903
                       0.19661                      -0.85983                      -0.47122
                       0.17775                      -0.86302                      -0.47287
                       0.16158                      -0.86548                      -0.47417
                       0.14796                      -0.86736                      -0.47518
                       0.13603                      -0.86885                      -0.47602
                       0.12582                      -0.87002                      -0.47670
                       0.11682                      -0.87096                      -0.47727
                       0.10884                      -0.87172                      -0.47776
                       0.10172                      -0.87234                      -0.47819
                       0.09547                      -0.87285                      -0.47856
                       0.08974                      -0.87327                      -0.47890
                       0.08452                      -0.87362                      -0.47921
                       0.07966                      -0.87392                      -0.47949
                       0.07514                      -0.87417                      -0.47977
                       0.07079                      -0.87439                      -0.48003
                       0.06679                      -0.87456                      -0.48029
                       0.06279                      -0.87472                      -0.48055
                       0.05879                      -0.87484                      -0.48083
                       0.05496                      -0.87494                      -0.48111
                       0.05114                      -0.87501                      -0.48140
                       0.04714                      -0.87505                      -0.48172
                       0.04314                      -0.87508                      -0.48206
                       0.03896                      -0.87507                      -0.48242
                       0.03461                      -0.87505                      -0.48280
                       0.03461                      -0.87503                      -0.48283
        </DataArray>
        <DataArray type="Float32" Name="OrientationZ" NumberOfComponents="3" format="ascii">
                      -0.00642                       0.48038                      -0.87704
                      -0.00616                       0.48031                      -0.87707
                      -0.00554                       0.48022                      -0.87713
                      -0.00474                       0.48020                      -0.87715
                      -0.00373                       0.48024                      -0.87713
                      -0.00248                       0.48035                      -0.87707
                      -0.00099                       0.48052                      -0.87698
                       0.00081                       0.48074                      -0.87686
                       0.00293                       0.48098                      -0.87673
                       0.00533                       0.48124                      -0.87657
                       0.00801                       0.48150                      -0.87641
                       0.01097                       0.48178                      -0.87623
                       0.01419                       0.48205                      -0.87603
                       0.01768                       0.48231                      -0.87582
                       0.02141                       0.48256                      -0.87560
                       0.02532                       0.48280                      -0.87536
                       0.02938                       0.48302                      -0.87512
                       0.03355                       0.48322                      -0.87486
                       0.03779                       0.48339                      -0.87459
                       0.04204                       0.48354                      -0.87431
                       0.04623                       0.48366                      -0.87403
                       0.05030                       0.48376                      -0.87376
                       0.05417                       0.48383                      -0.87348
                       0.05779                       0.48388                      -0.87322
                       0.06107                       0.48391                      -0.87298
                       0.06388                       0.48393                      -0.87277
                       0.06609                       0.48394                      -0.87260
                       0.06766                       0.48395                      -0.87248
                       0.06850                       0.48396                      -0.87240
                       0.06849                       0.48399                      -0.87239
                       0.06762                       0.48403                      -0.87243
                       0.06690                       0.48406                      -0.87247
        </DataArray>
      </PointData>
      <Lines>
        <DataArray type="Int32" Name="connectivity" format="ascii">
      0      1
      1      2
      2      3
      3      4
      4      5
      5      6
      6      7
      7      8
      8      9
      9     10
     10     11
     11     12
     12     13
     13     14
     14     15
     15     16
     16     17
     17     18
     18     19
     19     20
     20     21
     21     22
     22     23
     23     24
     24     25
     25     26
     26     27
     27     28
     28     29
     29     30
     30     31
        </DataArray>
        <DataArray type="Int32" Name="offsets" format="ascii">
      2
      4
      6
      8
     10
     12
     14
     16
     18
     20
     22
     24
     26
     28
     30
     32
     34
     36
     38
     40
     42
     44
     46
     48
     50
     52
     54
     56
     58
     60
     62
        </DataArray>
      </Lines>
    </Piece>
  </PolyData>
</VTKFile>
