<?xml version="1.0"?>
<VTKFile type="PolyData" version="0.1" byte_order="LittleEndian">
  <PolyData>
    <Piece NumberOfPoints="     32" NumberOfVerts="  0" NumberOfLines="     31"
           NumberOfStrips="  0" NumberOfPolys="      0">
      <Points>
        <DataArray type="Float32" NumberOfComponents="3" format="ascii">
                      -3.56673                      -0.77139                     -20.29164
                      -3.57595                      -0.87990                     -20.39480
                      -3.59434                      -1.09689                     -20.60114
                      -3.61255                      -1.31387                     -20.80751
                      -3.63055                      -1.53082                     -21.01393
                      -3.64828                      -1.74773                     -21.22041
                      -3.66567                      -1.96460                     -21.42697
                      -3.68272                      -2.18141                     -21.63361
                      -3.69939                      -2.39817                     -21.84034
                      -3.71556                      -2.61487                     -22.04717
                      -3.73116                      -2.83151                     -22.25411
                      -3.74612                      -3.04808                     -22.46117
                      -3.76038                      -3.26458                     -22.66836
                      -3.77397                      -3.48101                     -22.87565
                      -3.78685                      -3.69738                     -23.08306
                      -3.79889                      -3.91368                     -23.29060
                      -3.81005                      -4.12990                     -23.49826
                      -3.82029                      -4.34604                     -23.70606
                      -3.82959                      -4.56210                     -23.91398
                      -3.83805                      -4.77810                     -24.12200
                      -3.84569                      -4.99403                     -24.33012
                      -3.85240                      -5.20989                     -24.53836
                      -3.85822                      -5.42567                     -24.74669
                      -3.86321                      -5.64140                     -24.95511
                      -3.86744                      -5.85706                     -25.16360
                      -3.87109                      -6.07268                     -25.37216
                      -3.87423                      -6.28826                     -25.58076
                      -3.87691                      -6.50381                     -25.78940
                      -3.87931                      -6.71934                     -25.99807
                      -3.88161                      -6.93486                     -26.20675
                      -3.88407                      -7.15039                     -26.41541
                      -3.88535                      -7.25816                     -26.51974
        </DataArray>
      </Points>
      <PointData>
        <DataArray type="Float32" Name="Force" NumberOfComponents="3" format="ascii">
                   -6061.55541                   12344.81009                   -3264.03834
                   12125.66057                  -32816.68497                   15075.61904
                    9737.19549                  -40418.72223                  -14766.42255
                   28804.46251                  -76892.05695                   47865.32910
                  -14655.73835                   35155.02000                  -42063.84991
                  -12162.06832                   57700.58483                   -5015.97601
                  -20867.70060                   61589.51991                   10370.96058
                   15153.22640                   14205.91563                   43780.88286
                    2393.73450                   26826.30745                   20081.00403
                    7627.39902                    -131.43295                   28840.46327
                    2528.75798                   11008.29057                    6742.90283
                    4027.88975                    7859.78806                   11884.05461
                    4130.56893                    8740.07516                   10338.98812
                    4955.26585                    8216.12567                   10511.59983
                    5214.11152                    8392.77858                    9842.13524
                    6020.58660                    8359.12306                    9701.05655
                    6776.68820                    8280.81747                    9577.05893
                    7214.44848                    8159.49620                    9202.91921
                    7855.94764                    8077.25189                    8679.48172
                    8484.06917                    8160.13890                    8706.91535
                    9154.15590                    8028.33265                    8402.40299
                    9684.18736                    8064.22453                    8027.00939
                   10159.10015                    7827.48736                    7964.06246
                   10558.59022                    7680.52742                    7377.54778
                   10721.10529                    7567.41821                    7301.42314
                   11029.56865                    7625.82693                    7160.07239
                   10776.81188                    6832.81052                    6490.77910
                   10439.34185                    7857.01505                    7392.54758
                    9140.85471                    3245.60284                    3296.35493
                    6458.14760                   18673.12779                   17913.14018
                     811.59137                  -42000.99816                  -37444.71531
                    4847.81768                  240561.19066                  232445.23934
        </DataArray>
        <DataArray type="Float32" Name="Moment" NumberOfComponents="3" format="ascii">
                     186.50270                    -115.84775                     170.88972
                    1280.44263                     475.96278                    -728.83920
                    2451.84170                     478.42060                    -499.51092
                   -1234.27782                    -771.08377                    -253.55252
                   -3448.02668                    -134.55490                    1099.85235
                   -4083.22931                   -1321.20843                    2355.50214
                   -6556.25317                   -2896.83598                    1420.73580
                   -5018.77120                    -880.95606                    1698.33574
                   -4641.99424                   -1452.24862                    2011.98541
                   -1960.16454                    -893.20666                     302.26393
                   -2326.41408                    -426.08301                     791.98850
                   -1168.14411                    -406.82637                     411.95967
                   -1654.59932                    -398.80546                     506.02618
                   -1384.71206                    -352.91472                     440.50984
                   -1398.04736                    -343.96639                     419.49575
                   -1302.42246                    -298.38097                     386.91131
                   -1262.08164                    -290.24466                     381.91700
                   -1198.51484                    -284.67269                     340.45380
                   -1116.92019                    -252.84639                     311.06930
                   -1074.71136                    -245.78742                     292.38972
                   -1023.18644                    -223.76788                     273.05747
                    -950.91195                    -211.69899                     255.48726
                    -895.40319                    -200.36051                     227.06709
                    -823.10016                    -184.19935                     211.64626
                    -768.16553                    -176.74311                     180.67840
                    -723.64727                    -155.85005                     174.90797
                    -626.99036                    -145.72883                     143.30087
                    -639.06104                    -135.79615                     144.89472
                    -346.55190                     -87.74832                      78.53316
                   -1226.13395                    -255.65589                     263.51740
                    2672.62282                     546.92057                    -600.09907
                  -16564.69080                   -3363.96781                    3665.36955
        </DataArray>
        <DataArray type="Float32" Name="TranslationalVelocity" NumberOfComponents="3" format="ascii">
                       0.67872                       0.75864                      -0.62467
                       0.66286                       0.87546                      -0.74612
                       0.63117                       1.10911                      -0.98902
                       0.59961                       1.34281                      -1.23195
                       0.56821                       1.57656                      -1.47489
                       0.53700                       1.81039                      -1.71785
                       0.50605                       2.04431                      -1.96083
                       0.47536                       2.27833                      -2.20383
                       0.44496                       2.51244                      -2.44686
                       0.41494                       2.74668                      -2.68992
                       0.38535                       2.98103                      -2.93302
                       0.35626                       3.21551                      -3.17617
                       0.32770                       3.45011                      -3.41936
                       0.29965                       3.68483                      -3.66259
                       0.27215                       3.91967                      -3.90586
                       0.24529                       4.15463                      -4.14917
                       0.21912                       4.38972                      -4.39254
                       0.19365                       4.62493                      -4.63595
                       0.16890                       4.86026                      -4.87939
                       0.14480                       5.09570                      -5.12287
                       0.12134                       5.33124                      -5.36638
                       0.09859                       5.56688                      -5.60992
                       0.07653                       5.80261                      -5.85347
                       0.05512                       6.03843                      -6.09705
                       0.03429                       6.27433                      -6.34063
                       0.01390                       6.51028                      -6.58423
                      -0.00608                       6.74628                      -6.82782
                      -0.02571                       6.98233                      -7.07143
                      -0.04512                       7.21839                      -7.31503
                      -0.06446                       7.45446                      -7.55863
                      -0.08392                       7.69053                      -7.80223
                      -0.09369                       7.80856                      -7.92403
        </DataArray>
        <DataArray type="Float32" Name="RotationalVelocity" NumberOfComponents="3" format="ascii">
                       1.12336                       0.04787                      -0.10092
                       1.12340                       0.04775                      -0.10081
                       1.12350                       0.04750                      -0.10054
                       1.12363                       0.04717                      -0.10021
                       1.12379                       0.04676                      -0.09980
                       1.12399                       0.04627                      -0.09930
                       1.12423                       0.04568                      -0.09870
                       1.12449                       0.04498                      -0.09799
                       1.12478                       0.04417                      -0.09715
                       1.12509                       0.04324                      -0.09621
                       1.12541                       0.04221                      -0.09515
                       1.12574                       0.04108                      -0.09399
                       1.12608                       0.03985                      -0.09273
                       1.12644                       0.03852                      -0.09136
                       1.12680                       0.03710                      -0.08990
                       1.12716                       0.03561                      -0.08837
                       1.12753                       0.03407                      -0.08678
                       1.12789                       0.03248                      -0.08514
                       1.12824                       0.03087                      -0.08348
                       1.12858                       0.02926                      -0.08182
                       1.12891                       0.02767                      -0.08017
                       1.12922                       0.02613                      -0.07858
                       1.12950                       0.02466                      -0.07706
                       1.12976                       0.02329                      -0.07564
                       1.12999                       0.02204                      -0.07435
                       1.13018                       0.02097                      -0.07324
                       1.13032                       0.02013                      -0.07237
                       1.13042                       0.01954                      -0.07176
                       1.13047                       0.01922                      -0.07143
                       1.13048                       0.01923                      -0.07143
                       1.13043                       0.01956                      -0.07178
                       1.13039                       0.01983                      -0.07206
        </DataArray>
        <DataArray type="Float32" Name="TranslationalAcceleration" NumberOfComponents="3" format="ascii">
                      -0.35855                       0.92237                       0.78088
                      -0.35510                       1.05443                       0.91939
                      -0.34842                       1.31862                       1.19637
                      -0.34224                       1.58301                       1.47327
                      -0.33639                       1.84757                       1.75011
                      -0.33068                       2.11230                       2.02691
                      -0.32493                       2.37720                       2.30368
                      -0.31901                       2.64227                       2.58042
                      -0.31281                       2.90750                       2.85713
                      -0.30614                       3.17292                       3.13380
                      -0.29880                       3.43853                       3.41040
                      -0.29064                       3.70433                       3.68694
                      -0.28149                       3.97034                       3.96340
                      -0.27136                       4.23652                       4.23979
                      -0.26016                       4.50289                       4.51610
                      -0.24764                       4.76946                       4.79232
                      -0.23370                       5.03623                       5.06845
                      -0.21826                       5.30321                       5.34450
                      -0.20125                       5.57039                       5.62047
                      -0.18284                       5.83773                       5.89637
                      -0.16302                       6.10525                       6.17222
                      -0.14162                       6.37294                       6.44801
                      -0.11869                       6.64079                       6.72377
                      -0.09430                       6.90879                       6.99949
                      -0.06860                       7.17692                       7.27521
                      -0.04188                       7.44513                       7.55092
                      -0.01425                       7.71342                       7.82663
                       0.01419                       7.98176                       8.10236
                       0.04315                       8.25012                       8.37811
                       0.07230                       8.51847                       8.65388
                       0.10119                       8.78676                       8.92969
                       0.11556                       8.92090                       9.06761
        </DataArray>
        <DataArray type="Float32" Name="RotationalAcceleration" NumberOfComponents="3" format="ascii">
                      -0.06278                      -0.02826                      -0.04880
                      -0.06241                      -0.02773                      -0.04965
                      -0.06170                      -0.02689                      -0.05121
                      -0.06103                      -0.02644                      -0.05252
                      -0.06038                      -0.02641                      -0.05358
                      -0.05971                      -0.02681                      -0.05439
                      -0.05902                      -0.02768                      -0.05494
                      -0.05827                      -0.02907                      -0.05521
                      -0.05747                      -0.03100                      -0.05521
                      -0.05662                      -0.03340                      -0.05497
                      -0.05574                      -0.03626                      -0.05450
                      -0.05481                      -0.03956                      -0.05382
                      -0.05384                      -0.04327                      -0.05294
                      -0.05283                      -0.04741                      -0.05184
                      -0.05179                      -0.05194                      -0.05057
                      -0.05072                      -0.05676                      -0.04915
                      -0.04964                      -0.06181                      -0.04761
                      -0.04856                      -0.06705                      -0.04597
                      -0.04749                      -0.07242                      -0.04426
                      -0.04643                      -0.07785                      -0.04249
                      -0.04542                      -0.08323                      -0.04072
                      -0.04446                      -0.08846                      -0.03897
                      -0.04357                      -0.09348                      -0.03729
                      -0.04277                      -0.09817                      -0.03569
                      -0.04206                      -0.10245                      -0.03423
                      -0.04150                      -0.10612                      -0.03296
                      -0.04109                      -0.10902                      -0.03194
                      -0.04085                      -0.11110                      -0.03120
                      -0.04079                      -0.11222                      -0.03077
                      -0.04092                      -0.11226                      -0.03071
                      -0.04124                      -0.11118                      -0.03103
                      -0.04146                      -0.11027                      -0.03132
        </DataArray>
        <DataArray type="Float32" Name="OrientationX" NumberOfComponents="3" format="ascii">
                       0.95656                       0.15382                      -0.24765
                       0.95658                       0.15399                      -0.24749
                       0.95661                       0.15438                      -0.24712
                       0.95665                       0.15485                      -0.24667
                       0.95670                       0.15544                      -0.24611
                       0.95675                       0.15614                      -0.24544
                       0.95682                       0.15698                      -0.24464
                       0.96321                       0.14242                      -0.22791
                       0.96816                       0.13056                      -0.21357
                       0.97214                       0.12069                      -0.20095
                       0.97530                       0.11271                      -0.18998
                       0.97792                       0.10605                      -0.18006
                       0.98007                       0.10069                      -0.17121
                       0.98190                       0.09630                      -0.16308
                       0.98346                       0.09275                      -0.15555
                       0.98481                       0.08987                      -0.14855
                       0.98597                       0.08766                      -0.14208
                       0.98699                       0.08586                      -0.13593
                       0.98790                       0.08445                      -0.13011
                       0.98871                       0.08329                      -0.12452
                       0.98945                       0.08233                      -0.11922
                       0.99013                       0.08142                      -0.11410
                       0.99073                       0.08065                      -0.10932
                       0.99131                       0.07974                      -0.10466
                       0.99186                       0.07867                      -0.10017
                       0.99236                       0.07746                      -0.09604
                       0.99284                       0.07595                      -0.09220
                       0.99332                       0.07398                      -0.08856
                       0.99378                       0.07163                      -0.08529
                       0.99423                       0.06873                      -0.08230
                       0.99469                       0.06525                      -0.07962
                       0.99468                       0.06488                      -0.07998
        </DataArray>
        <DataArray type="Float32" Name="OrientationY" NumberOfComponents="3" format="ascii">
                       0.28492                      -0.67311                       0.68245
                       0.28492                      -0.67309                       0.68247
                       0.28493                      -0.67307                       0.68249
                       0.28493                      -0.67304                       0.68252
                       0.28493                      -0.67302                       0.68253
                       0.28493                      -0.67301                       0.68255
                       0.28493                      -0.67299                       0.68257
                       0.26282                      -0.67641                       0.68804
                       0.24428                      -0.67901                       0.69230
                       0.22836                      -0.68105                       0.69572
                       0.21494                      -0.68264                       0.69843
                       0.20318                      -0.68394                       0.70068
                       0.19310                      -0.68498                       0.70250
                       0.18420                      -0.68586                       0.70404
                       0.17631                      -0.68660                       0.70533
                       0.16927                      -0.68724                       0.70643
                       0.16308                      -0.68778                       0.70736
                       0.15740                      -0.68827                       0.70818
                       0.15224                      -0.68870                       0.70888
                       0.14741                      -0.68910                       0.70952
                       0.14292                      -0.68946                       0.71009
                       0.13861                      -0.68980                       0.71061
                       0.13464                      -0.69012                       0.71107
                       0.13066                      -0.69043                       0.71150
                       0.12668                      -0.69074                       0.71192
                       0.12288                      -0.69103                       0.71230
                       0.11907                      -0.69132                       0.71267
                       0.11508                      -0.69162                       0.71303
                       0.11109                      -0.69191                       0.71338
                       0.10693                      -0.69221                       0.71373
                       0.10259                      -0.69251                       0.71408
                       0.10259                      -0.69252                       0.71407
        </DataArray>
        <DataArray type="Float32" Name="OrientationZ" NumberOfComponents="3" format="ascii">
                      -0.06172                      -0.72337                      -0.68770
                      -0.06149                      -0.72335                      -0.68774
                      -0.06097                      -0.72329                      -0.68785
                      -0.06033                      -0.72321                      -0.68799
                      -0.05954                      -0.72310                      -0.68817
                      -0.05860                      -0.72297                      -0.68839
                      -0.05749                      -0.72281                      -0.68866
                      -0.05617                      -0.72262                      -0.68896
                      -0.05463                      -0.72243                      -0.68928
                      -0.05289                      -0.72223                      -0.68963
                      -0.05096                      -0.72201                      -0.69000
                      -0.04884                      -0.72179                      -0.69038
                      -0.04654                      -0.72157                      -0.69078
                      -0.04405                      -0.72133                      -0.69119
                      -0.04139                      -0.72109                      -0.69160
                      -0.03860                      -0.72085                      -0.69201
                      -0.03571                      -0.72061                      -0.69242
                      -0.03275                      -0.72036                      -0.69283
                      -0.02974                      -0.72011                      -0.69322
                      -0.02671                      -0.71987                      -0.69360
                      -0.02374                      -0.71963                      -0.69395
                      -0.02085                      -0.71941                      -0.69428
                      -0.01809                      -0.71919                      -0.69458
                      -0.01552                      -0.71899                      -0.69484
                      -0.01319                      -0.71881                      -0.69508
                      -0.01119                      -0.71866                      -0.69527
                      -0.00962                      -0.71855                      -0.69541
                      -0.00850                      -0.71846                      -0.69551
                      -0.00791                      -0.71842                      -0.69557
                      -0.00792                      -0.71841                      -0.69557
                      -0.00854                      -0.71845                      -0.69553
                      -0.00906                      -0.71848                      -0.69549
        </DataArray>
      </PointData>
      <Lines>
        <DataArray type="Int32" Name="connectivity" format="ascii">
      0      1
      1      2
      2      3
      3      4
      4      5
      5      6
      6      7
      7      8
      8      9
      9     10
     10     11
     11     12
     12     13
     13     14
     14     15
     15     16
     16     17
     17     18
     18     19
     19     20
     20     21
     21     22
     22     23
     23     24
     24     25
     25     26
     26     27
     27     28
     28     29
     29     30
     30     31
        </DataArray>
        <DataArray type="Int32" Name="offsets" format="ascii">
      2
      4
      6
      8
     10
     12
     14
     16
     18
     20
     22
     24
     26
     28
     30
     32
     34
     36
     38
     40
     42
     44
     46
     48
     50
     52
     54
     56
     58
     60
     62
        </DataArray>
      </Lines>
    </Piece>
  </PolyData>
</VTKFile>
