<?xml version="1.0"?>
<VTKFile type="PolyData" version="0.1" byte_order="LittleEndian">
  <PolyData>
    <Piece NumberOfPoints="     32" NumberOfVerts="  0" NumberOfLines="     31"
           NumberOfStrips="  0" NumberOfPolys="      0">
      <Points>
        <DataArray type="Float32" NumberOfComponents="3" format="ascii">
                      -3.62870                       0.81679                     -19.13546
                      -3.62263                       0.94583                     -19.05922
                      -3.61048                       1.20392                     -18.90677
                      -3.59828                       1.46203                     -18.75436
                      -3.58602                       1.72016                     -18.60198
                      -3.57365                       1.97830                     -18.44962
                      -3.56114                       2.23644                     -18.29728
                      -3.54847                       2.49457                     -18.14495
                      -3.53562                       2.75270                     -17.99261
                      -3.52253                       3.01082                     -17.84029
                      -3.50916                       3.26892                     -17.68796
                      -3.49547                       3.52701                     -17.53564
                      -3.48142                       3.78509                     -17.38332
                      -3.46702                       4.04315                     -17.23101
                      -3.45226                       4.30119                     -17.07871
                      -3.43706                       4.55921                     -16.92642
                      -3.42139                       4.81722                     -16.77415
                      -3.40524                       5.07521                     -16.62189
                      -3.38860                       5.33317                     -16.46966
                      -3.37152                       5.59112                     -16.31744
                      -3.35400                       5.84906                     -16.16525
                      -3.33599                       6.10698                     -16.01308
                      -3.31751                       6.36488                     -15.86094
                      -3.29858                       6.62276                     -15.70883
                      -3.27926                       6.88063                     -15.55674
                      -3.25963                       7.13849                     -15.40468
                      -3.23973                       7.39633                     -15.25263
                      -3.21958                       7.65417                     -15.10060
                      -3.19928                       7.91200                     -14.94857
                      -3.17894                       8.16983                     -14.79655
                      -3.15867                       8.42765                     -14.64451
                      -3.14856                       8.55656                     -14.56849
        </DataArray>
      </Points>
      <PointData>
        <DataArray type="Float32" Name="Force" NumberOfComponents="3" format="ascii">
                   -4418.85893                  -14604.18315                   13239.27541
                    8667.27754                   22552.36812                  -15198.85968
                   10180.29670                   35212.76300                   10681.78020
                   16718.94371                   54074.82182                  -51762.75133
                   -7790.01406                  -25276.12748                   55717.58307
                  -12104.31942                  -52170.73971                   25561.03972
                  -22542.00440                  -57286.55435                   12604.67408
                    2007.34682                  -23677.78194                  -29873.25332
                   -5796.06244                  -28462.47688                   -6419.52847
                   -3460.81395                   -7878.40845                  -19196.61065
                   -4742.27822                  -12206.34550                    1000.62659
                   -4471.11828                  -10375.68702                   -3989.70161
                   -4340.66284                  -10476.16656                   -2711.45023
                   -3902.28661                   -9816.03172                   -3162.58439
                   -3711.25188                   -9539.13443                   -2768.79355
                   -3089.23685                   -9216.06892                   -2885.56095
                   -2475.41687                   -8865.25131                   -3000.34384
                   -1974.02589                   -8458.75974                   -2921.44417
                   -1189.51875                   -8072.42677                   -2757.73888
                    -422.95242                   -7895.15896                   -2942.91020
                     465.61644                   -7533.33252                   -2946.55772
                    1388.17586                   -7285.73486                   -2869.10865
                    2326.39326                   -6926.93535                   -3028.68921
                    3351.13549                   -6566.57045                   -2843.15176
                    4271.23100                   -6322.20562                   -2946.07113
                    5314.41467                   -6175.01275                   -2998.52997
                    6083.40269                   -5494.12957                   -2820.96308
                    6771.79170                   -6027.77989                   -3247.51802
                    7223.64295                   -2907.36166                   -1654.16447
                    6089.30421                  -12943.32061                   -7375.20481
                    8072.42702                   26775.45531                   14620.63509
                  -10993.06755                 -159017.64273                  -93047.72922
        </DataArray>
        <DataArray type="Float32" Name="Moment" NumberOfComponents="3" format="ascii">
                    -227.15365                      86.66667                    -173.02999
                     887.54170                    -325.09080                     592.71424
                    2582.52296                    -412.26505                     101.29899
                    -687.38099                     512.38494                     175.37826
                   -3068.84415                    -377.62862                    -602.69708
                   -4010.08403                     348.64643                   -1823.24162
                   -6208.09295                    1934.71876                   -1031.15448
                   -4623.46553                     150.72246                   -1022.25482
                   -4315.32210                     664.97802                   -1389.26989
                   -1683.28099                     494.03817                    -238.89196
                   -2021.15445                      66.00344                    -477.18541
                    -997.80445                     120.61674                    -308.27740
                   -1382.99362                     112.61971                    -305.19024
                   -1131.09858                      99.24732                    -271.74060
                   -1119.19305                     109.56828                    -239.83652
                   -1020.89586                      86.97993                    -209.76499
                    -970.76979                      89.12387                    -202.31518
                    -901.33960                      96.19678                    -171.32468
                    -822.69965                      79.29282                    -150.51968
                    -775.39401                      82.57799                    -138.35992
                    -722.46992                      75.22390                    -121.10530
                    -658.63286                      70.70254                    -110.86866
                    -606.27327                      69.54638                     -94.29081
                    -546.65733                      62.40652                     -85.67045
                    -498.18539                      62.25403                     -69.53176
                    -459.98256                      52.47043                     -65.36797
                    -390.13337                      51.88338                     -51.99118
                    -388.12231                      45.79700                     -48.18202
                    -207.07777                      29.39155                     -30.43927
                    -719.74842                      95.28293                     -72.36387
                    1583.55275                    -221.20519                     153.37594
                   -9447.72137                    1311.69456                    -971.32207
        </DataArray>
        <DataArray type="Float32" Name="TranslationalVelocity" NumberOfComponents="3" format="ascii">
                       0.96375                      -0.61094                       1.19571
                       0.97959                      -0.69847                       1.34261
                       1.01126                      -0.87351                       1.63640
                       1.04292                      -1.04846                       1.93016
                       1.07452                      -1.22335                       2.22388
                       1.10600                      -1.39818                       2.51755
                       1.13731                      -1.57297                       2.81116
                       1.16841                      -1.74774                       3.10471
                       1.19927                      -1.92247                       3.39820
                       1.22981                      -2.09718                       3.69162
                       1.25996                      -2.27187                       3.98497
                       1.28966                      -2.44653                       4.27824
                       1.31886                      -2.62117                       4.57144
                       1.34757                      -2.79578                       4.86458
                       1.37576                      -2.97038                       5.15766
                       1.40333                      -3.14494                       5.45067
                       1.43024                      -3.31947                       5.74362
                       1.45646                      -3.49397                       6.03650
                       1.48197                      -3.66842                       6.32933
                       1.50686                      -3.84284                       6.62212
                       1.53111                      -4.01722                       6.91486
                       1.55467                      -4.19155                       7.20756
                       1.57755                      -4.36583                       7.50022
                       1.59979                      -4.54007                       7.79285
                       1.62147                      -4.71427                       8.08546
                       1.64270                      -4.88844                       8.37805
                       1.66353                      -5.06258                       8.67063
                       1.68402                      -5.23669                       8.96321
                       1.70429                      -5.41079                       9.25578
                       1.72449                      -5.58490                       9.54835
                       1.74480                      -5.75903                       9.84092
                       1.75499                      -5.84610                       9.98721
        </DataArray>
        <DataArray type="Float32" Name="RotationalVelocity" NumberOfComponents="3" format="ascii">
                       1.14108                       0.05387                      -0.09087
                       1.14096                       0.05389                      -0.09089
                       1.14074                       0.05389                      -0.09087
                       1.14053                       0.05382                      -0.09074
                       1.14032                       0.05368                      -0.09049
                       1.14012                       0.05347                      -0.09010
                       1.13991                       0.05316                      -0.08958
                       1.13970                       0.05277                      -0.08888
                       1.13949                       0.05227                      -0.08802
                       1.13930                       0.05168                      -0.08702
                       1.13911                       0.05101                      -0.08586
                       1.13893                       0.05025                      -0.08457
                       1.13875                       0.04941                      -0.08314
                       1.13859                       0.04849                      -0.08157
                       1.13843                       0.04750                      -0.07988
                       1.13829                       0.04646                      -0.07810
                       1.13815                       0.04536                      -0.07624
                       1.13802                       0.04424                      -0.07432
                       1.13790                       0.04309                      -0.07237
                       1.13780                       0.04193                      -0.07040
                       1.13771                       0.04079                      -0.06846
                       1.13763                       0.03968                      -0.06658
                       1.13757                       0.03862                      -0.06478
                       1.13752                       0.03763                      -0.06310
                       1.13748                       0.03673                      -0.06157
                       1.13746                       0.03595                      -0.06026
                       1.13746                       0.03534                      -0.05922
                       1.13747                       0.03491                      -0.05849
                       1.13748                       0.03468                      -0.05810
                       1.13751                       0.03467                      -0.05809
                       1.13754                       0.03491                      -0.05849
                       1.13755                       0.03510                      -0.05882
        </DataArray>
        <DataArray type="Float32" Name="TranslationalAcceleration" NumberOfComponents="3" format="ascii">
                      -0.32166                      -1.03113                      -0.93741
                      -0.31696                      -1.19192                      -1.05250
                      -0.30713                      -1.51362                      -1.28238
                      -0.29625                      -1.83562                      -1.51154
                      -0.28436                      -2.15784                      -1.74008
                      -0.27150                      -2.48023                      -1.96808
                      -0.25768                      -2.80274                      -2.19559
                      -0.24303                      -3.12532                      -2.42271
                      -0.22756                      -3.44795                      -2.64946
                      -0.21114                      -3.77060                      -2.87583
                      -0.19379                      -4.09326                      -3.10184
                      -0.17550                      -4.41591                      -3.32752
                      -0.15626                      -4.73855                      -3.55287
                      -0.13619                      -5.06117                      -3.77793
                      -0.11527                      -5.38378                      -4.00270
                      -0.09340                      -5.70637                      -4.22714
                      -0.07057                      -6.02897                      -4.45125
                      -0.04679                      -6.35158                      -4.67504
                      -0.02207                      -6.67420                      -4.89850
                       0.00346                      -6.99685                      -5.12167
                       0.02980                      -7.31953                      -5.34456
                       0.05701                      -7.64226                      -5.56715
                       0.08505                      -7.96505                      -5.78944
                       0.11386                      -8.28790                      -6.01148
                       0.14335                      -8.61081                      -6.23329
                       0.17336                      -8.93377                      -6.45493
                       0.20382                      -9.25678                      -6.67644
                       0.23468                      -9.57983                      -6.89784
                       0.26578                      -9.90289                      -7.11921
                       0.29693                     -10.22595                      -7.34061
                       0.32791                     -10.54896                      -7.56214
                       0.34334                     -10.71045                      -7.67293
        </DataArray>
        <DataArray type="Float32" Name="RotationalAcceleration" NumberOfComponents="3" format="ascii">
                      -0.11396                      -0.03147                      -0.05333
                      -0.11273                      -0.03060                      -0.05481
                      -0.11044                      -0.02897                      -0.05774
                      -0.10840                      -0.02751                      -0.06066
                      -0.10660                      -0.02623                      -0.06357
                      -0.10500                      -0.02514                      -0.06650
                      -0.10358                      -0.02422                      -0.06948
                      -0.10234                      -0.02351                      -0.07254
                      -0.10126                      -0.02298                      -0.07571
                      -0.10030                      -0.02262                      -0.07898
                      -0.09941                      -0.02241                      -0.08235
                      -0.09859                      -0.02236                      -0.08582
                      -0.09782                      -0.02246                      -0.08939
                      -0.09709                      -0.02271                      -0.09307
                      -0.09638                      -0.02309                      -0.09685
                      -0.09569                      -0.02358                      -0.10068
                      -0.09502                      -0.02416                      -0.10456
                      -0.09437                      -0.02481                      -0.10846
                      -0.09373                      -0.02553                      -0.11236
                      -0.09312                      -0.02630                      -0.11620
                      -0.09255                      -0.02709                      -0.11994
                      -0.09201                      -0.02788                      -0.12354
                      -0.09153                      -0.02865                      -0.12694
                      -0.09110                      -0.02939                      -0.13009
                      -0.09074                      -0.03008                      -0.13293
                      -0.09048                      -0.03068                      -0.13534
                      -0.09032                      -0.03117                      -0.13722
                      -0.09028                      -0.03153                      -0.13853
                      -0.09035                      -0.03175                      -0.13918
                      -0.09055                      -0.03180                      -0.13910
                      -0.09089                      -0.03168                      -0.13824
                      -0.09109                      -0.03156                      -0.13756
        </DataArray>
        <DataArray type="Float32" Name="OrientationX" NumberOfComponents="3" format="ascii">
                       0.98707                      -0.11337                       0.11335
                       0.98706                      -0.11339                       0.11334
                       0.98706                      -0.11346                       0.11330
                       0.98705                      -0.11361                       0.11321
                       0.98704                      -0.11384                       0.11308
                       0.98703                      -0.11416                       0.11289
                       0.98701                      -0.11457                       0.11265
                       0.99029                      -0.10362                       0.09263
                       0.99262                      -0.09466                       0.07580
                       0.99431                      -0.08716                       0.06128
                       0.99551                      -0.08106                       0.04894
                       0.99639                      -0.07592                       0.03803
                       0.99701                      -0.07174                       0.02857
                       0.99747                      -0.06826                       0.02009
                       0.99778                      -0.06539                       0.01248
                       0.99800                      -0.06302                       0.00557
                       0.99813                      -0.06114                      -0.00061
                       0.99820                      -0.05957                      -0.00637
                       0.99823                      -0.05828                      -0.01169
                       0.99822                      -0.05717                      -0.01671
                       0.99819                      -0.05623                      -0.02142
                       0.99813                      -0.05533                      -0.02595
                       0.99806                      -0.05455                      -0.03015
                       0.99797                      -0.05368                      -0.03430
                       0.99787                      -0.05271                      -0.03839
                       0.99777                      -0.05167                      -0.04223
                       0.99767                      -0.05044                      -0.04596
                       0.99757                      -0.04891                      -0.04972
                       0.99746                      -0.04714                      -0.05334
                       0.99736                      -0.04501                      -0.05694
                       0.99726                      -0.04250                      -0.06053
                       0.99728                      -0.04227                      -0.06040
        </DataArray>
        <DataArray type="Float32" Name="OrientationY" NumberOfComponents="3" format="ascii">
                       0.15514                       0.49717                      -0.85367
                       0.15513                       0.49708                      -0.85372
                       0.15513                       0.49692                      -0.85382
                       0.15512                       0.49679                      -0.85390
                       0.15511                       0.49667                      -0.85397
                       0.15511                       0.49657                      -0.85403
                       0.15510                       0.49648                      -0.85408
                       0.13232                       0.49891                      -0.85649
                       0.11328                       0.50074                      -0.85815
                       0.09698                       0.50216                      -0.85932
                       0.08326                       0.50326                      -0.86012
                       0.07126                       0.50414                      -0.86068
                       0.06099                       0.50484                      -0.86105
                       0.05194                       0.50542                      -0.86131
                       0.04393                       0.50590                      -0.86147
                       0.03678                       0.50630                      -0.86157
                       0.03051                       0.50664                      -0.86162
                       0.02475                       0.50693                      -0.86163
                       0.01952                       0.50718                      -0.86162
                       0.01464                       0.50741                      -0.86158
                       0.01011                       0.50761                      -0.86153
                       0.00575                       0.50780                      -0.86145
                       0.00174                       0.50798                      -0.86137
                      -0.00227                       0.50816                      -0.86126
                      -0.00628                       0.50833                      -0.86114
                      -0.01011                       0.50851                      -0.86100
                      -0.01394                       0.50869                      -0.86084
                      -0.01795                       0.50888                      -0.86065
                      -0.02195                       0.50908                      -0.86044
                      -0.02613                       0.50929                      -0.86020
                      -0.03048                       0.50951                      -0.85992
                      -0.03048                       0.50954                      -0.85991
        </DataArray>
        <DataArray type="Float32" Name="OrientationZ" NumberOfComponents="3" format="ascii">
                       0.04042                       0.86022                       0.50833
                       0.04046                       0.86026                       0.50824
                       0.04058                       0.86034                       0.50809
                       0.04077                       0.86040                       0.50798
                       0.04106                       0.86044                       0.50789
                       0.04144                       0.86046                       0.50783
                       0.04193                       0.86046                       0.50780
                       0.04254                       0.86044                       0.50778
                       0.04328                       0.86041                       0.50776
                       0.04413                       0.86037                       0.50775
                       0.04509                       0.86033                       0.50774
                       0.04617                       0.86028                       0.50773
                       0.04735                       0.86022                       0.50771
                       0.04864                       0.86017                       0.50769
                       0.05002                       0.86011                       0.50765
                       0.05148                       0.86005                       0.50761
                       0.05299                       0.85999                       0.50755
                       0.05455                       0.85993                       0.50749
                       0.05614                       0.85987                       0.50742
                       0.05774                       0.85981                       0.50734
                       0.05931                       0.85975                       0.50726
                       0.06084                       0.85969                       0.50717
                       0.06230                       0.85964                       0.50709
                       0.06366                       0.85959                       0.50700
                       0.06490                       0.85955                       0.50692
                       0.06596                       0.85951                       0.50685
                       0.06680                       0.85947                       0.50680
                       0.06739                       0.85945                       0.50676
                       0.06771                       0.85943                       0.50675
                       0.06771                       0.85942                       0.50677
                       0.06739                       0.85941                       0.50682
                       0.06712                       0.85941                       0.50686
        </DataArray>
      </PointData>
      <Lines>
        <DataArray type="Int32" Name="connectivity" format="ascii">
      0      1
      1      2
      2      3
      3      4
      4      5
      5      6
      6      7
      7      8
      8      9
      9     10
     10     11
     11     12
     12     13
     13     14
     14     15
     15     16
     16     17
     17     18
     18     19
     19     20
     20     21
     21     22
     22     23
     23     24
     24     25
     25     26
     26     27
     27     28
     28     29
     29     30
     30     31
        </DataArray>
        <DataArray type="Int32" Name="offsets" format="ascii">
      2
      4
      6
      8
     10
     12
     14
     16
     18
     20
     22
     24
     26
     28
     30
     32
     34
     36
     38
     40
     42
     44
     46
     48
     50
     52
     54
     56
     58
     60
     62
        </DataArray>
      </Lines>
    </Piece>
  </PolyData>
</VTKFile>
